<svg width="41" height="41" viewBox="0 0 41 41" fill="none" xmlns="http://www.w3.org/2000/svg">
<g clip-path="url(#clip0_6537_25524)">
<path d="M31.4825 0.5H9.5175C4.53727 0.5 0.5 4.53727 0.5 9.5175V31.4825C0.5 36.4627 4.53727 40.5 9.5175 40.5H31.4825C36.4627 40.5 40.5 36.4627 40.5 31.4825V9.5175C40.5 4.53727 36.4627 0.5 31.4825 0.5Z" fill="#06C755"/>
<path d="M33.8323 18.6153C33.8323 12.648 27.8499 7.79297 20.4962 7.79297C13.1424 7.79297 7.16016 12.648 7.16016 18.6153C7.16016 23.9652 11.9045 28.4456 18.3133 29.2926C18.7475 29.3865 19.3388 29.579 19.4882 29.9502C19.6227 30.2872 19.5762 30.8155 19.5313 31.1561C19.5313 31.1561 19.3748 32.0971 19.3409 32.2977C19.2828 32.6347 19.0728 33.6163 20.496 33.0167C21.9195 32.417 28.1762 28.4943 30.974 25.2741H30.9734C32.906 23.1545 33.832 21.0036 33.832 18.6153H33.8323Z" fill="white"/>
<path d="M29.3959 22.0618H25.6492C25.5085 22.0618 25.3945 21.9478 25.3945 21.8072V15.987C25.3945 15.8464 25.5085 15.7324 25.6492 15.7324H29.3959C29.536 15.7324 29.6505 15.8469 29.6505 15.987V16.9328C29.6505 17.0734 29.5365 17.1874 29.3959 17.1874H26.8497V18.1695H29.3959C29.536 18.1695 29.6505 18.2842 29.6505 18.4242V19.3699C29.6505 19.5105 29.5365 19.6245 29.3959 19.6245H26.8497V20.6067H29.3959C29.536 20.6067 29.6505 20.7213 29.6505 20.8613V21.807C29.6505 21.9477 29.5365 22.0617 29.3959 22.0617V22.0618Z" fill="#06C755"/>
<path d="M15.5365 22.0618C15.6772 22.0618 15.7912 21.9478 15.7912 21.8072V20.8614C15.7912 20.7214 15.6765 20.6068 15.5365 20.6068H12.9902V15.987C12.9902 15.8469 12.8755 15.7324 12.7355 15.7324H11.7898C11.6492 15.7324 11.5352 15.8464 11.5352 15.987V21.8072C11.5352 21.9478 11.6492 22.0618 11.7898 22.0618H15.5365Z" fill="#06C755"/>
<path d="M17.7922 15.7324H16.8464C16.7058 15.7324 16.5918 15.8464 16.5918 15.987V21.8072C16.5918 21.9478 16.7058 22.0618 16.8464 22.0618H17.7922C17.9328 22.0618 18.0468 21.9478 18.0468 21.8072V15.987C18.0468 15.8464 17.9328 15.7324 17.7922 15.7324Z" fill="#06C755"/>
<path d="M24.2297 15.7324H23.284C23.1433 15.7324 23.0293 15.8464 23.0293 15.987V19.4439L20.3665 15.8478C20.3603 15.8385 20.3533 15.8298 20.346 15.8214C20.3455 15.8208 20.3448 15.8202 20.3443 15.8195C20.3395 15.814 20.3343 15.8088 20.329 15.8037C20.3273 15.8022 20.3257 15.8008 20.3242 15.7993C20.3197 15.7953 20.3151 15.7913 20.3103 15.7877C20.3081 15.7859 20.3057 15.7843 20.3035 15.7825C20.2991 15.7793 20.2946 15.7763 20.29 15.7733C20.2873 15.7717 20.2848 15.77 20.2822 15.7685C20.2776 15.7658 20.273 15.7632 20.2682 15.7608C20.2656 15.7594 20.2628 15.7582 20.2601 15.7569C20.2552 15.7547 20.2502 15.7525 20.2452 15.7505C20.2425 15.7495 20.2397 15.7485 20.237 15.7475C20.2318 15.7458 20.2267 15.744 20.2215 15.7425C20.2185 15.7417 20.2155 15.7409 20.2125 15.7403C20.2075 15.739 20.2025 15.7379 20.1973 15.737C20.1937 15.7364 20.1901 15.7359 20.1865 15.7354C20.1818 15.7348 20.1773 15.7342 20.1727 15.7337C20.1682 15.7333 20.1637 15.7332 20.1591 15.733C20.1562 15.733 20.1533 15.7325 20.1503 15.7325H19.2097C19.0691 15.7325 18.9551 15.8465 18.9551 15.9872V21.8074C18.9551 21.948 19.0691 22.062 19.2097 22.062H20.1555C20.2961 22.062 20.4101 21.948 20.4101 21.8074V18.3517L23.0763 21.9524C23.0947 21.9784 23.1171 21.9997 23.142 22.0165C23.143 22.0173 23.144 22.0179 23.145 22.0185C23.1501 22.022 23.1556 22.0252 23.161 22.0283C23.1633 22.0297 23.1658 22.031 23.1683 22.0324C23.1723 22.0345 23.1765 22.0365 23.1807 22.0384C23.1848 22.0403 23.189 22.0422 23.1932 22.0438C23.1958 22.0448 23.1986 22.0458 23.2013 22.0468C23.2071 22.0488 23.213 22.0508 23.2188 22.0524C23.22 22.0528 23.2212 22.053 23.2225 22.0534C23.2437 22.059 23.266 22.0623 23.289 22.0623H24.2296C24.3702 22.0623 24.4842 21.9483 24.4842 21.8077V15.9874C24.4842 15.8468 24.3702 15.7328 24.2296 15.7328L24.2297 15.7324Z" fill="#06C755"/>
</g>
<defs>
<clipPath id="clip0_6537_25524">
<rect width="40" height="40" fill="white" transform="translate(0.5 0.5)"/>
</clipPath>
</defs>
</svg>
