<svg width="75" height="48" viewBox="0 0 75 48" fill="none" xmlns="http://www.w3.org/2000/svg">
<path d="M16.1443 47.266C14.8731 47.266 13.6306 46.8891 12.5736 46.1828C11.5167 45.4766 10.693 44.4729 10.2065 43.2985C9.72007 42.1241 9.59279 40.8319 9.84078 39.5851C10.0888 38.3384 10.7009 37.1932 11.5997 36.2944C12.4985 35.3956 13.6437 34.7835 14.8904 34.5355C16.1372 34.2875 17.4294 34.4148 18.6038 34.9012C19.7782 35.3877 20.7819 36.2114 21.4881 37.2683C22.1944 38.3253 22.5713 39.5679 22.5713 40.839C22.5694 42.543 21.8917 44.1766 20.6868 45.3815C19.4819 46.5864 17.8483 47.2641 16.1443 47.266ZM16.1443 36.71C15.3276 36.71 14.5293 36.9522 13.8503 37.4059C13.1713 37.8596 12.6421 38.5044 12.3296 39.2589C12.0171 40.0134 11.9353 40.8436 12.0946 41.6445C12.2539 42.4455 12.6472 43.1812 13.2246 43.7586C13.8021 44.3361 14.5378 44.7293 15.3388 44.8887C16.1397 45.048 16.9699 44.9662 17.7244 44.6537C18.4789 44.3412 19.1237 43.812 19.5774 43.1329C20.0311 42.4539 20.2733 41.6556 20.2733 40.839C20.2706 39.7447 19.8348 38.696 19.061 37.9223C18.2872 37.1485 17.2386 36.7126 16.1443 36.71Z" fill="#13C4CE"/>
<path d="M16.1452 43.07C16.4424 43.0763 16.7378 43.0232 17.0142 42.9138C17.2905 42.8044 17.5423 42.641 17.7546 42.4331C17.967 42.2251 18.1358 41.9769 18.2509 41.7029C18.3661 41.4289 18.4255 41.1347 18.4255 40.8375C18.4255 40.5403 18.3661 40.246 18.2509 39.9721C18.1358 39.6981 17.967 39.4498 17.7546 39.2419C17.5423 39.034 17.2905 38.8705 17.0142 38.7612C16.7378 38.6518 16.4424 38.5987 16.1452 38.605C15.5613 38.6173 15.0055 38.858 14.5969 39.2753C14.1883 39.6926 13.9595 40.2534 13.9595 40.8375C13.9595 41.4215 14.1883 41.9823 14.5969 42.3997C15.0055 42.817 15.5613 43.0576 16.1452 43.07ZM50.2232 47.266C48.9521 47.266 47.7095 46.8891 46.6526 46.1828C45.5957 45.4766 44.7719 44.4729 44.2854 43.2985C43.799 42.1241 43.6717 40.8319 43.9197 39.5851C44.1677 38.3384 44.7798 37.1932 45.6786 36.2944C46.5775 35.3956 47.7227 34.7835 48.9694 34.5355C50.2161 34.2875 51.5083 34.4148 52.6827 34.9012C53.8571 35.3877 54.8609 36.2114 55.5671 37.2683C56.2733 38.3253 56.6502 39.5679 56.6502 40.839C56.6484 42.543 55.9706 44.1766 54.7658 45.3815C53.5609 46.5864 51.9272 47.2641 50.2232 47.266ZM50.2232 36.71C49.4066 36.71 48.6083 36.9522 47.9293 37.4059C47.2503 37.8596 46.721 38.5044 46.4085 39.2589C46.096 40.0134 46.0142 40.8436 46.1736 41.6445C46.3329 42.4455 46.7261 43.1812 47.3036 43.7586C47.881 44.3361 48.6167 44.7293 49.4177 44.8887C50.2186 45.048 51.0488 44.9662 51.8033 44.6537C52.5578 44.3412 53.2027 43.812 53.6564 43.1329C54.1101 42.4539 54.3522 41.6556 54.3522 40.839C54.3496 39.7447 53.9137 38.696 53.1399 37.9223C52.3662 37.1485 51.3175 36.7126 50.2232 36.71Z" fill="#13C4CE"/>
<path d="M50.2241 43.07C50.5213 43.0763 50.8167 43.0232 51.093 42.9138C51.3694 42.8044 51.6212 42.641 51.8335 42.4331C52.0459 42.2251 52.2146 41.9769 52.3298 41.7029C52.445 41.4289 52.5044 41.1347 52.5044 40.8375C52.5044 40.5403 52.445 40.246 52.3298 39.972C52.2146 39.6981 52.0459 39.4498 51.8335 39.2419C51.6212 39.034 51.3694 38.8705 51.093 38.7612C50.8167 38.6518 50.5213 38.5987 50.2241 38.605C49.6402 38.6173 49.0844 38.858 48.6758 39.2753C48.2672 39.6926 48.0384 40.2534 48.0384 40.8375C48.0384 41.4215 48.2672 41.9823 48.6758 42.3997C49.0844 42.817 49.6402 43.0576 50.2241 43.07ZM63.5411 28.252C63.2368 28.2515 62.9451 28.1303 62.7299 27.9152C62.5148 27.7 62.3936 27.4083 62.3931 27.104V4.19198C62.3931 3.88327 62.2705 3.5872 62.0522 3.36891C61.8339 3.15062 61.5378 3.02798 61.2291 3.02798H27.1161C26.8074 3.02798 26.5113 3.15062 26.293 3.36891C26.0747 3.5872 25.9521 3.88327 25.9521 4.19198V27.105C25.9254 27.3902 25.7933 27.6552 25.5815 27.8481C25.3697 28.041 25.0936 28.1479 24.8071 28.1479C24.5207 28.1479 24.2445 28.041 24.0327 27.8481C23.821 27.6552 23.6888 27.3902 23.6621 27.105V4.19198C23.6634 3.27588 24.0278 2.39765 24.6754 1.74968C25.323 1.10171 26.201 0.736837 27.1171 0.734985H61.2341C62.1506 0.736044 63.0293 1.1006 63.6774 1.74869C64.3255 2.39677 64.69 3.27546 64.6911 4.19198V27.105C64.6903 27.4095 64.5688 27.7012 64.3532 27.9162C64.1376 28.1312 63.8456 28.252 63.5411 28.252Z" fill="#13C4CE"/>
<path d="M61.4741 42H59.3121C59.1612 41.9998 59.0118 41.97 58.8725 41.9121C58.7331 41.8543 58.6066 41.7695 58.5 41.6627C58.3933 41.5559 58.3088 41.4292 58.2512 41.2898C58.1936 41.1503 58.164 41.0009 58.1641 40.85V40.816C58.1311 38.7323 57.2801 36.7451 55.7948 35.2832C54.3096 33.8213 52.3091 33.002 50.2251 33.002C48.1411 33.002 46.1407 33.8213 44.6554 35.2832C43.1702 36.7451 42.3192 38.7323 42.2861 40.816V40.856C42.2856 41.1603 42.1645 41.452 41.9493 41.6672C41.7341 41.8823 41.4424 42.0035 41.1381 42.004H25.2331C24.9287 42.0037 24.6369 41.8827 24.4217 41.6674C24.2064 41.4522 24.0854 41.1604 24.0851 40.856V40.816C24.0827 39.7732 23.8749 38.741 23.4736 37.7785C23.0723 36.816 22.4853 35.9419 21.7462 35.2063C21.0071 34.4706 20.1303 33.8877 19.1659 33.4909C18.2015 33.094 17.1684 32.8911 16.1256 32.8935C15.0828 32.8959 14.0507 33.1037 13.0881 33.505C12.1256 33.9063 11.2516 34.4933 10.5159 35.2324C9.78023 35.9715 9.19734 36.8483 8.80051 37.8127C8.40369 38.7771 8.20069 39.8102 8.20312 40.853C8.20286 41.1578 8.08158 41.4501 7.86594 41.6655C7.6503 41.881 7.35795 42.002 7.05312 42.002H3.69012C2.83743 42.0012 2.01989 41.6621 1.41694 41.0592C0.813998 40.4562 0.474915 39.6387 0.474121 38.786V24.231C0.47698 23.4989 0.666264 22.7796 1.02412 22.141L7.89312 9.83698C8.06359 9.5317 8.31236 9.27737 8.6138 9.1002C8.91524 8.92302 9.25847 8.8294 9.60812 8.82898H19.1671C19.6885 8.82977 20.1882 9.0373 20.5568 9.40604C20.9253 9.77478 21.1326 10.2746 21.1331 10.796V25.63C21.133 25.6725 21.1412 25.7146 21.1574 25.7539C21.1736 25.7932 21.1974 25.8289 21.2274 25.859C21.2574 25.8891 21.293 25.913 21.3323 25.9293C21.3715 25.9456 21.4136 25.954 21.4561 25.954H63.5411C63.8461 25.954 64.1386 26.0751 64.3543 26.2908C64.57 26.5065 64.6911 26.799 64.6911 27.104V38.784C64.6898 39.6366 64.3504 40.4539 63.7473 41.0566C63.1442 41.6593 62.3267 41.9992 61.4741 42ZM60.3951 39.7H61.4701C61.7131 39.6995 61.946 39.6028 62.118 39.4312C62.2899 39.2596 62.3871 39.0269 62.3881 38.784V28.252H21.4611C20.7661 28.2509 20.0999 27.9743 19.6086 27.4828C19.1173 26.9913 18.8409 26.325 18.8401 25.63V11.128H9.80512L3.03012 23.262C2.86512 23.558 2.77812 23.892 2.77812 24.231V38.784C2.77839 39.0273 2.87522 39.2605 3.04735 39.4325C3.21948 39.6044 3.45283 39.701 3.69612 39.701H5.96712C6.24819 37.1988 7.44128 34.8879 9.31844 33.2098C11.1956 31.5317 13.6252 30.6041 16.1431 30.6041C18.661 30.6041 21.0906 31.5317 22.9678 33.2098C24.845 34.8879 26.0381 37.1988 26.3191 39.701H40.0461C40.3251 37.1973 41.5174 34.8844 43.3948 33.2046C45.2722 31.5248 47.7029 30.5961 50.2221 30.5961C52.7413 30.5961 55.1721 31.5248 57.0495 33.2046C58.9269 34.8844 60.1191 37.1973 60.3981 39.701H60.3941L60.3951 39.7Z" fill="#13C4CE"/>
<path d="M13.9454 24.565H2.38036C2.18739 24.5709 1.99601 24.5283 1.82382 24.441C1.65164 24.3536 1.50415 24.2244 1.39493 24.0652C1.28571 23.906 1.21826 23.7219 1.19876 23.5299C1.17926 23.3378 1.20836 23.1439 1.28336 22.966C1.37412 22.7522 1.52751 22.5708 1.72333 22.4459C1.91914 22.3209 2.14821 22.2582 2.38036 22.266H13.7404V15.838H6.49836C6.19936 15.8292 5.91557 15.7042 5.70719 15.4896C5.49882 15.275 5.38227 14.9876 5.38227 14.6885C5.38227 14.3893 5.49882 14.102 5.70719 13.8874C5.91557 13.6728 6.19936 13.5478 6.49836 13.539H13.9414C14.4967 13.5398 15.0292 13.7607 15.4219 14.1535C15.8146 14.5462 16.0356 15.0786 16.0364 15.634V22.468C16.0361 23.023 15.8159 23.5553 15.424 23.9484C15.0321 24.3414 14.5004 24.5631 13.9454 24.565ZM57.7654 10.123H30.9284C30.774 10.1285 30.6202 10.1028 30.476 10.0475C30.3318 9.99212 30.2003 9.90825 30.0892 9.80088C29.9782 9.69352 29.89 9.56485 29.8299 9.42259C29.7698 9.28034 29.739 9.12741 29.7394 8.97297C29.7395 8.81878 29.7707 8.6662 29.8311 8.52431C29.8914 8.38241 29.9796 8.2541 30.0906 8.147C30.2015 8.0399 30.3328 7.9562 30.4768 7.90088C30.6207 7.84556 30.7743 7.81975 30.9284 7.82497H57.7654C57.9203 7.81851 58.0749 7.84344 58.2199 7.89827C58.365 7.9531 58.4974 8.03669 58.6093 8.14402C58.7213 8.25135 58.8103 8.38021 58.8711 8.52283C58.9319 8.66546 58.9633 8.81892 58.9633 8.97397C58.9633 9.12903 58.9319 9.28249 58.8711 9.42511C58.8103 9.56774 58.7213 9.69659 58.6093 9.80393C58.4974 9.91126 58.365 9.99485 58.2199 10.0497C58.0749 10.1045 57.9203 10.1294 57.7654 10.123ZM57.7654 15.475H30.9284C30.7741 15.4805 30.6203 15.4548 30.4762 15.3996C30.3321 15.3443 30.2006 15.2605 30.0896 15.1532C29.9786 15.046 29.8904 14.9174 29.8302 14.7753C29.77 14.6331 29.7391 14.4803 29.7394 14.326C29.7393 14.1716 29.7703 14.0188 29.8305 13.8767C29.8907 13.7346 29.9789 13.606 30.0899 13.4987C30.2008 13.3914 30.3322 13.3075 30.4763 13.2521C30.6203 13.1966 30.7741 13.1707 30.9284 13.176H57.7654C58.0704 13.176 58.3629 13.2971 58.5785 13.5128C58.7942 13.7285 58.9154 14.021 58.9154 14.326C58.9154 14.631 58.7942 14.9235 58.5785 15.1391C58.3629 15.3548 58.0704 15.475 57.7654 15.475ZM57.7654 20.827H30.9284C30.6236 20.827 30.3314 20.7059 30.1159 20.4904C29.9004 20.275 29.7794 19.9827 29.7794 19.678C29.7794 19.3732 29.9004 19.081 30.1159 18.8655C30.3314 18.65 30.6236 18.529 30.9284 18.529H57.7654C57.9211 18.521 58.0769 18.5448 58.2231 18.5989C58.3694 18.6531 58.5032 18.7364 58.6162 18.8438C58.7293 18.9512 58.8193 19.0805 58.8808 19.2239C58.9424 19.3672 58.9741 19.5215 58.9741 19.6775C58.9741 19.8334 58.9424 19.9878 58.8808 20.1311C58.8193 20.2744 58.7293 20.4037 58.6162 20.5111C58.5032 20.6186 58.3694 20.7019 58.2231 20.756C58.0769 20.8101 57.9211 20.8349 57.7654 20.827ZM73.3714 27.898H67.2814C66.9824 27.8892 66.6986 27.7642 66.4902 27.5496C66.2818 27.335 66.1653 27.0476 66.1653 26.7485C66.1653 26.4493 66.2818 26.162 66.4902 25.9474C66.6986 25.7328 66.9824 25.6078 67.2814 25.599H73.3714C73.5252 25.5944 73.6783 25.6208 73.8217 25.6765C73.9652 25.7323 74.096 25.8162 74.2064 25.9234C74.3168 26.0306 74.4045 26.1588 74.4645 26.3006C74.5244 26.4423 74.5553 26.5946 74.5553 26.7485C74.5553 26.9023 74.5244 27.0547 74.4645 27.1964C74.4045 27.3381 74.3168 27.4664 74.2064 27.5735C74.096 27.6807 73.9652 27.7647 73.8217 27.8204C73.6783 27.8761 73.5252 27.9025 73.3714 27.898ZM73.3714 33.625H67.2814C66.9849 33.6126 66.7047 33.4861 66.4994 33.272C66.294 33.0579 66.1793 32.7727 66.1793 32.476C66.1793 32.1793 66.294 31.8941 66.4994 31.6799C66.7047 31.4658 66.9849 31.3393 67.2814 31.327H73.3714C73.5256 31.322 73.6792 31.3481 73.8231 31.4036C73.967 31.4592 74.0984 31.5431 74.2093 31.6503C74.3201 31.7576 74.4084 31.886 74.4687 32.028C74.529 32.17 74.5602 32.3227 74.5604 32.477C74.5602 32.6312 74.529 32.7837 74.4687 32.9256C74.4083 33.0675 74.3201 33.1958 74.2091 33.3029C74.0982 33.41 73.9669 33.4937 73.823 33.5491C73.679 33.6044 73.5255 33.6302 73.3714 33.625ZM73.3714 39.352H67.2814C66.9766 39.352 66.6844 39.2309 66.4689 39.0154C66.2534 38.8 66.1324 38.5077 66.1324 38.203C66.1324 37.8982 66.2534 37.606 66.4689 37.3905C66.6844 37.175 66.9766 37.054 67.2814 37.054H73.3714C73.525 37.0494 73.6781 37.0758 73.8214 37.1315C73.9647 37.1871 74.0953 37.271 74.2056 37.3781C74.3159 37.4852 74.4036 37.6133 74.4635 37.755C74.5234 37.8966 74.5543 38.0487 74.5543 38.2025C74.5543 38.3562 74.5234 38.5084 74.4635 38.65C74.4036 38.7916 74.3159 38.9197 74.2056 39.0268C74.0953 39.1339 73.9647 39.2178 73.8214 39.2735C73.6781 39.3292 73.525 39.3565 73.3714 39.352Z" fill="#13C4CE"/>
</svg>
