<svg width="67" height="62" viewBox="0 0 67 62" fill="none" xmlns="http://www.w3.org/2000/svg">
<path d="M12.6681 51.741C10.4589 51.7366 8.29565 51.1091 6.42702 49.9305C4.55839 48.7519 3.06019 47.07 2.10455 45.0781C1.14892 43.0862 0.774624 40.8651 1.02468 38.67C1.27473 36.4749 2.13899 34.3949 3.51815 32.669L10.4751 23.964C10.647 23.7471 10.889 23.5967 11.1596 23.5385C11.4301 23.4804 11.7125 23.5181 11.9583 23.6453C12.2041 23.7725 12.3981 23.9811 12.507 24.2356C12.6158 24.49 12.6329 24.7744 12.5551 25.04C12.5111 25.19 12.4381 25.331 12.3401 25.454L5.38415 34.159C3.86868 36.1 3.17975 38.5603 3.46684 41.006C3.75394 43.4518 4.99391 45.6857 6.91768 47.223C8.84146 48.7602 11.2938 49.4769 13.7427 49.2174C16.1915 48.958 18.4393 47.7433 19.9981 45.837L42.1741 18.082C43.6555 16.1386 44.3176 13.6927 44.0187 11.2674C43.7199 8.84213 42.4838 6.6301 40.575 5.10447C38.6661 3.57883 36.2361 2.86074 33.8046 3.10378C31.3731 3.34682 29.1332 4.5317 27.5641 6.40498L17.4081 19.113L28.1381 27.687C28.2639 27.7838 28.369 27.9047 28.4474 28.0426C28.5259 28.1806 28.576 28.3328 28.595 28.4903C28.6139 28.6478 28.6013 28.8076 28.5578 28.9602C28.5143 29.1128 28.4409 29.2551 28.3417 29.379C28.2425 29.5029 28.1197 29.6058 27.9803 29.6816C27.841 29.7575 27.6879 29.8048 27.53 29.8208C27.3721 29.8368 27.2127 29.8212 27.0609 29.7749C26.9092 29.7285 26.7682 29.6524 26.6461 29.551L15.0131 20.256C14.7573 20.0517 14.5931 19.7542 14.5565 19.4288C14.5199 19.1035 14.614 18.777 14.8181 18.521L25.7052 4.91498C26.6551 3.67381 27.8433 2.63478 29.2001 1.85882C30.5568 1.08286 32.0548 0.585582 33.6063 0.39614C35.1578 0.206697 36.7314 0.328905 38.2351 0.755598C39.7387 1.18229 41.142 1.90488 42.3627 2.881C43.5834 3.85712 44.5969 5.06713 45.3438 6.44007C46.0908 7.81302 46.5561 9.32128 46.7126 10.8764C46.869 12.4316 46.7134 14.0023 46.2548 15.4965C45.7962 16.9907 45.044 18.3783 44.0421 19.578L21.8661 47.333C20.7666 48.716 19.3674 49.8313 17.7741 50.5949C16.1808 51.3584 14.4349 51.7503 12.6681 51.741ZM54.6701 55.921C54.3901 55.921 54.1142 55.881 53.8451 55.807C53.4622 55.7002 53.1042 55.5185 52.7918 55.2726C52.4794 55.0266 52.2188 54.7212 52.0252 54.374L45.2521 42.31C44.8834 41.6121 44.8021 40.7977 45.0255 40.0407C45.2489 39.2837 45.7593 38.644 46.4478 38.2581C47.1364 37.8722 47.9485 37.7707 48.7108 37.9752C49.4731 38.1798 50.1253 38.6742 50.5281 39.353L57.3021 51.418C57.5601 51.8783 57.6934 52.3979 57.6888 52.9256C57.6842 53.4532 57.5418 53.9705 57.2757 54.4262C57.0097 54.8818 56.6293 55.2601 56.1721 55.5235C55.7149 55.7869 55.1968 55.9264 54.6691 55.928V55.922L54.6701 55.921ZM47.8891 40.196C47.7782 40.1968 47.6694 40.2265 47.5733 40.2821C47.4773 40.3377 47.3974 40.4173 47.3414 40.5131C47.2855 40.6089 47.2554 40.7176 47.2541 40.8286C47.2528 40.9395 47.2804 41.0489 47.3341 41.146L54.1071 53.212C54.1918 53.358 54.3309 53.4645 54.494 53.5082C54.6571 53.5519 54.8308 53.5291 54.9771 53.445C55.1244 53.362 55.2326 53.224 55.2782 53.0612C55.3237 52.8985 55.3029 52.7243 55.2201 52.577L48.4471 40.512C48.3908 40.4138 48.3095 40.3323 48.2115 40.2758C48.1135 40.2192 48.0023 40.1896 47.8891 40.19V40.196Z" fill="#13C4CE"/>
<path d="M53.1962 61.5C52.892 61.5031 52.5982 61.39 52.3747 61.1837C52.1512 60.9774 52.0149 60.6936 51.9937 60.3902C51.9725 60.0868 52.068 59.7867 52.2606 59.5514C52.4533 59.316 52.7285 59.1631 53.0302 59.124C56.105 58.6836 58.9021 57.1036 60.8664 54.6973C62.8308 52.2911 63.819 49.2344 63.635 46.1336C63.451 43.0328 62.1082 40.1144 59.8731 37.9574C57.6379 35.8003 54.6736 34.5622 51.5683 34.4885C48.4629 34.4149 45.4433 35.5111 43.1084 37.5598C40.7735 39.6084 39.2939 42.4599 38.9631 45.5485C38.6323 48.637 39.4745 51.7371 41.3226 54.2338C43.1706 56.7305 45.8896 58.4413 48.9402 59.027C49.1717 59.0721 49.3847 59.1847 49.5525 59.3505C49.7203 59.5163 49.8353 59.728 49.8832 59.959C49.9311 60.19 49.9096 60.4299 49.8215 60.6488C49.7335 60.8676 49.5827 61.0555 49.3882 61.189C49.1259 61.3672 48.8037 61.4341 48.4922 61.375C44.8491 60.6767 41.6017 58.6345 39.3943 55.6535C37.1868 52.6726 36.1805 48.9707 36.5752 45.2824C36.9698 41.5941 38.7365 38.189 41.5247 35.7425C44.3129 33.2961 47.9189 31.9872 51.6271 32.0755C55.3354 32.1638 58.875 33.6428 61.5436 36.2192C64.2123 38.7955 65.8149 42.2809 66.0335 45.9838C66.2522 49.6867 65.0709 53.3365 62.7241 56.209C60.3772 59.0815 57.0363 60.9669 53.3642 61.491C53.3092 61.498 53.2532 61.501 53.1962 61.5Z" fill="#13C4CE"/>
</svg>
