<svg width="69" height="60" viewBox="0 0 69 60" fill="none" xmlns="http://www.w3.org/2000/svg">
<path d="M51.44 16.0849C49.4167 17.1911 47.7532 18.8546 46.647 20.8779C45.5413 18.8546 43.8781 17.1911 41.855 16.0849C43.8781 14.9788 45.5413 13.3153 46.647 11.2919C47.7531 13.3154 49.4166 14.9789 51.44 16.0849ZM66.818 7.51395C63.676 9.23244 61.0925 11.8159 59.374 14.9579C57.6558 11.816 55.0727 9.2326 51.931 7.51395C55.0727 5.7953 57.6558 3.21189 59.374 0.0699463C61.0925 3.21202 63.676 5.79545 66.818 7.51395ZM19.21 41.6799C8.77604 41.6799 0.290039 33.1969 0.290039 22.7599C0.290039 12.3229 8.77604 3.83995 19.21 3.83995C29.643 3.83995 38.13 12.3259 38.13 22.7599C38.13 33.1939 29.643 41.6799 19.21 41.6799ZM19.21 6.06195C10.001 6.06195 2.50904 13.5519 2.50904 22.7619C2.50904 31.9699 10.007 39.4619 19.209 39.4619C28.412 39.4619 35.909 31.9699 35.909 22.7619C35.909 13.5519 28.424 6.05995 19.209 6.05995L19.21 6.06195Z" fill="#13C4CE"/>
<path d="M26.0728 21.5459C25.2908 22.8229 23.9998 23.7869 22.1988 24.4399L18.8788 25.6419C18.8468 25.6533 18.8173 25.671 18.7921 25.6938C18.7669 25.7166 18.7465 25.7442 18.732 25.775C18.7175 25.8057 18.7092 25.8391 18.7076 25.873C18.7061 25.907 18.7112 25.941 18.7228 25.9729L20.2628 30.2229C20.3867 30.5648 20.3713 30.9417 20.22 31.2724C20.0687 31.6031 19.7935 31.8611 19.4538 31.9909L18.1958 32.4709C18.0237 32.5366 17.8403 32.5674 17.6562 32.5614C17.4721 32.5554 17.291 32.5129 17.1235 32.4362C16.9561 32.3595 16.8056 32.2502 16.6808 32.1146C16.556 31.9791 16.4595 31.8201 16.3968 31.6469L11.2408 17.4149C11.1398 17.1349 11.2068 16.9509 11.4428 16.8659L18.0848 14.4599C19.1996 14.0354 20.384 13.8234 21.5768 13.8349C22.615 13.8398 23.6297 14.1436 24.4998 14.7099C25.3468 15.2729 25.9718 16.1139 26.3748 17.2359C26.9548 18.8339 26.8548 20.2709 26.0728 21.5459ZM21.0228 17.1779C20.3968 16.9709 19.6708 17.0169 18.8448 17.3159L16.3858 18.2059C16.2681 18.238 16.1654 18.3106 16.0958 18.4109C16.0737 18.4663 16.0636 18.5258 16.066 18.5854C16.0684 18.645 16.0833 18.7035 16.1098 18.7569L17.4848 22.5419C17.5162 22.6561 17.5793 22.7591 17.6668 22.8389C17.7087 22.8644 17.7563 22.8789 17.8053 22.881C17.8542 22.8831 17.9029 22.8727 17.9468 22.8509L20.6688 21.8649C21.4488 21.5819 21.9928 21.1519 22.2998 20.5749C22.6078 19.9969 22.6298 19.3459 22.3688 18.6219C22.0968 17.8669 21.6488 17.3859 21.0228 17.1779ZM52.9418 59.9299C49.1453 59.9328 45.475 58.5664 42.6046 56.0815C39.7341 53.5967 37.8561 50.16 37.315 46.4022C36.7739 42.6444 37.6062 38.8175 39.659 35.6238C41.7118 32.4301 44.8475 30.0837 48.4907 29.0154C52.1338 27.9471 56.0401 28.2284 59.4925 29.8077C62.945 31.387 65.7122 34.1584 67.2862 37.6133C68.8603 41.0682 69.1356 44.9748 68.0617 48.6164C66.9878 52.2579 64.6367 55.39 61.4398 57.4379C58.905 59.0668 55.9549 59.9319 52.9418 59.9299ZM52.8908 30.5719C50.784 30.576 48.7071 31.0706 46.8245 32.0166C44.942 32.9625 43.3056 34.3338 42.0449 36.0218C40.7842 37.7098 39.9338 39.6682 39.5612 41.7418C39.1886 43.8154 39.3039 45.9473 39.898 47.9686C40.4921 49.9899 41.5487 51.8452 42.9841 53.3873C44.4196 54.9295 46.1943 56.1163 48.1679 56.8536C50.1415 57.591 52.2597 57.8587 54.3546 57.6356C56.4496 57.4124 58.4639 56.7045 60.2378 55.5679C62.4968 54.12 64.2757 52.0347 65.3495 49.5757C66.4233 47.1168 66.7438 44.3946 66.2705 41.7535C65.7972 39.1124 64.5513 36.671 62.6903 34.738C60.8294 32.805 58.4371 31.4672 55.8158 30.8939C54.8558 30.6819 53.8748 30.5739 52.8908 30.5719Z" fill="#13C4CE"/>
<path d="M56.812 48.368C55.578 48.395 54.334 47.928 53.082 46.968L50.77 45.195C50.7479 45.1777 50.7226 45.1651 50.6955 45.1577C50.6684 45.1503 50.6402 45.1484 50.6124 45.152C50.5846 45.1557 50.5578 45.1648 50.5335 45.1788C50.5092 45.1929 50.488 45.2116 50.471 45.234L48.207 48.194C48.0246 48.4317 47.7562 48.5884 47.4595 48.6305C47.1628 48.6725 46.8614 48.5966 46.62 48.419L45.727 47.761C45.605 47.6707 45.5021 47.557 45.4244 47.4265C45.3468 47.296 45.2959 47.1514 45.2748 47.0011C45.2537 46.8507 45.2627 46.6977 45.3014 46.5508C45.34 46.404 45.4076 46.2664 45.5 46.146L53.083 36.238C53.232 36.043 53.389 36.008 53.553 36.134L58.177 39.672C58.9669 40.2582 59.6402 40.9871 60.162 41.821C60.62 42.544 60.859 43.384 60.851 44.241C60.838 45.073 60.533 45.882 59.935 46.667C59.085 47.777 58.044 48.343 56.812 48.368ZM57.595 42.923C57.462 42.395 57.105 41.912 56.532 41.472L54.821 40.163C54.7467 40.0952 54.6506 40.0561 54.55 40.053C54.5016 40.0621 54.4557 40.0814 54.4153 40.1097C54.3749 40.138 54.3411 40.1745 54.316 40.217L52.295 42.852C52.2298 42.924 52.1864 43.0131 52.17 43.109C52.1707 43.1494 52.1817 43.189 52.202 43.2241C52.2223 43.2591 52.2512 43.2883 52.286 43.309L54.181 44.759C54.725 45.175 55.267 45.362 55.806 45.319C56.345 45.275 56.806 45.002 57.192 44.498C57.593 43.974 57.728 43.449 57.595 42.923Z" fill="#13C4CE"/>
</svg>
