<svg width="61" height="62" viewBox="0 0 61 62" fill="none" xmlns="http://www.w3.org/2000/svg">
<path d="M8.2502 35.9666C6.5735 36.9914 5.1613 38.3886 4.1257 40.0473C3.0893 38.3888 1.6768 36.9917 0 35.9666C1.6773 34.9422 3.0899 33.5449 4.1257 31.886C5.1607 33.5451 6.573 34.9424 8.2502 35.9666Z" fill="#13C4CE"/>
<path d="M60.9999 5.3475C58.8021 6.6908 56.951 8.522 55.5934 10.6961C54.236 8.5222 52.3853 6.691 50.188 5.3475C52.3863 4.005 54.2379 2.174 55.5956 0C56.9523 2.1737 58.8027 4.0047 60.9999 5.3475Z" fill="#13C4CE"/>
<path d="M30.7932 37.6995C21.9048 37.6995 14.6733 30.5469 14.6733 21.7554C14.6733 21.5147 14.6821 21.2762 14.691 21.0749C14.702 20.8174 14.8159 20.5748 15.0078 20.4004C15.1997 20.226 15.4537 20.1342 15.7141 20.145C15.9744 20.1559 16.2198 20.2687 16.3961 20.4584C16.5724 20.6482 16.6653 20.8995 16.6543 21.157C16.6454 21.3474 16.6388 21.5508 16.6388 21.7554C16.6423 25.4683 18.135 29.028 20.7894 31.6534C23.4437 34.2788 27.0427 35.7552 30.7965 35.7587C31.0034 35.7587 31.2091 35.7511 31.4015 35.7423H31.4436C31.7041 35.7369 31.956 35.8341 32.1441 36.0125C32.3321 36.1909 32.4408 36.4359 32.4462 36.6935C32.4517 36.9512 32.3534 37.2004 32.173 37.3864C31.9927 37.5724 31.745 37.6799 31.4845 37.6853C31.2743 37.6918 31.0376 37.6995 30.7932 37.6995Z" fill="#13C4CE"/>
<path d="M45.9158 23.3659H45.8748C45.7459 23.3605 45.6193 23.3301 45.5023 23.2763C45.3852 23.2226 45.2801 23.1465 45.1928 23.0526C45.1055 22.9586 45.0377 22.8485 44.9934 22.7286C44.9492 22.6087 44.9292 22.4814 44.9347 22.3539C44.9424 22.1635 44.9502 21.959 44.9502 21.7555C44.9466 18.0426 43.4539 14.4829 40.7996 11.8575C38.1452 9.23211 34.5462 7.7556 30.7924 7.7522C30.59 7.7522 30.3821 7.75981 30.1874 7.76751C30.0585 7.77271 29.9298 7.75281 29.8087 7.70891C29.6875 7.66491 29.5763 7.5978 29.4814 7.5113C29.3865 7.4249 29.3098 7.32081 29.2556 7.20501C29.2013 7.08921 29.1707 6.96401 29.1654 6.83651C29.1601 6.70901 29.1802 6.58171 29.2247 6.46191C29.2691 6.34211 29.3369 6.23211 29.4243 6.13821C29.5118 6.04441 29.617 5.96841 29.7341 5.91481C29.8511 5.86121 29.9777 5.83091 30.1066 5.82561C30.3223 5.81691 30.5546 5.80811 30.7924 5.80811C39.6808 5.81031 46.9145 12.9673 46.9145 21.7555C46.9145 21.9951 46.9057 22.2237 46.8969 22.436C46.8863 22.6862 46.7783 22.9228 46.5954 23.0961C46.4126 23.2694 46.169 23.3661 45.9158 23.3659Z" fill="#13C4CE"/>
<path d="M30.7933 43C18.9506 43 9.31445 33.4701 9.31445 21.7555C9.31445 10.0408 18.9506 0.509766 30.7933 0.509766C42.636 0.509766 52.2733 10.0408 52.2733 21.7555C52.2733 33.4701 42.6371 43 30.7933 43ZM30.7933 2.45386C20.0334 2.45386 11.2799 11.1129 11.2799 21.7555C11.2799 32.398 20.0334 41.0559 30.7933 41.0559C41.5532 41.0559 50.3078 32.398 50.3078 21.7555C50.3078 11.1129 41.5543 2.45386 30.7933 2.45386Z" fill="#13C4CE"/>
<path d="M36.9809 23.1943H31.7719C31.4972 23.1852 31.2367 23.0712 31.0456 22.8764C30.8544 22.6816 30.7476 22.4212 30.7476 22.1502C30.7476 21.8792 30.8544 21.6188 31.0456 21.424C31.2367 21.2292 31.4972 21.1152 31.7719 21.1061H36.9809C37.2557 21.1152 37.5162 21.2292 37.7073 21.424C37.8985 21.6188 38.0053 21.8792 38.0053 22.1502C38.0053 22.4212 37.8985 22.6816 37.7073 22.8764C37.5162 23.0712 37.2557 23.1852 36.9809 23.1943Z" fill="#13C4CE"/>
<path d="M29.762 23.1943H24.5161C24.2413 23.1852 23.9808 23.0712 23.7897 22.8764C23.5986 22.6816 23.4917 22.4212 23.4917 22.1502C23.4917 21.8792 23.5986 21.6188 23.7897 21.424C23.9808 21.2292 24.2413 21.1152 24.5161 21.1061H29.762C29.9041 21.1014 30.0457 21.125 30.1784 21.1753C30.3111 21.2257 30.4321 21.3018 30.5344 21.3992C30.6366 21.4966 30.7178 21.6133 30.7734 21.7424C30.8289 21.8714 30.8575 22.0101 30.8575 22.1502C30.8575 22.2903 30.8289 22.429 30.7734 22.5581C30.7178 22.6871 30.6366 22.8038 30.5344 22.9012C30.4321 22.9986 30.3111 23.0747 30.1784 23.1251C30.0457 23.1754 29.9041 23.199 29.762 23.1943Z" fill="#13C4CE"/>
<path d="M30.7467 31.5821C30.6076 31.5821 30.4698 31.555 30.3413 31.5025C30.2128 31.45 30.096 31.373 29.9977 31.276C29.8993 31.179 29.8214 31.0638 29.7682 30.9371C29.7151 30.8104 29.6878 30.6745 29.688 30.5374V23.5362C29.688 23.2594 29.7995 22.994 29.9981 22.7983C30.1966 22.6026 30.4659 22.4927 30.7467 22.4927C31.0275 22.4927 31.2968 22.6026 31.4953 22.7983C31.6939 22.994 31.8054 23.2594 31.8054 23.5362V30.5374C31.8056 30.6745 31.7783 30.8104 31.7252 30.9371C31.6721 31.0638 31.5941 31.179 31.4958 31.276C31.3974 31.373 31.2807 31.45 31.1521 31.5025C31.0236 31.555 30.8858 31.5821 30.7467 31.5821Z" fill="#13C4CE"/>
<path d="M36.9808 26.6726H24.5122C24.2374 26.6635 23.9769 26.5494 23.7858 26.3546C23.5946 26.1598 23.4878 25.8995 23.4878 25.6285C23.4878 25.3575 23.5946 25.0971 23.7858 24.9023C23.9769 24.7075 24.2374 24.5935 24.5122 24.5844H36.9808C37.2556 24.5935 37.516 24.7075 37.7072 24.9023C37.8983 25.0971 38.0052 25.3575 38.0052 25.6285C38.0052 25.8995 37.8983 26.1598 37.7072 26.3546C37.516 26.5494 37.2556 26.6635 36.9808 26.6726Z" fill="#13C4CE"/>
<path d="M30.7467 24.6608C30.5715 24.6606 30.3991 24.6176 30.2449 24.5356C30.0907 24.4535 29.9596 24.3351 29.8633 24.1908L23.995 15.4481C23.9183 15.3337 23.8651 15.2056 23.8387 15.071C23.8122 14.9364 23.8129 14.798 23.8406 14.6637C23.8684 14.5294 23.9228 14.4018 24.0006 14.2882C24.0784 14.1745 24.1782 14.0771 24.2942 14.0015C24.4103 13.9259 24.5402 13.8736 24.6768 13.8475C24.8133 13.8214 24.9538 13.822 25.09 13.8494C25.2263 13.8768 25.3558 13.9304 25.4711 14.0071C25.5864 14.0838 25.6852 14.1821 25.7619 14.2965L30.7467 21.7313L35.7316 14.3047C35.8865 14.0738 36.1282 13.913 36.4034 13.8576C36.6787 13.8023 36.9649 13.857 37.1992 14.0098C37.4335 14.1625 37.5967 14.4007 37.6528 14.6719C37.7089 14.9432 37.6534 15.2254 37.4985 15.4563L31.6302 24.199C31.5329 24.3418 31.4014 24.4586 31.2473 24.5392C31.0931 24.6198 30.9212 24.6615 30.7467 24.6608Z" fill="#13C4CE"/>
<path d="M5.5597 50.276C7.2805 49.3481 9.7031 48.0603 10.9884 47.7879C13.2607 47.3077 15.2077 47.0324 17.3084 47.248C18.3657 47.3567 19.535 47.5156 20.6666 47.6686C22.0818 47.8611 23.4193 48.042 24.4864 48.1219C25.6475 48.2085 28.9664 48.0863 31.8948 47.9775C33.7202 47.9092 35.6052 47.839 36.0186 47.864C38.0874 47.9872 39.3751 48.6022 39.8458 49.6927C39.9128 49.8477 40.0239 49.9738 40.1579 50.07C39.9757 50.1066 39.8016 50.1894 39.6611 50.3193C39.4617 50.5041 38.889 50.6687 37.9591 50.8063C37.1993 50.9189 35.561 51.1182 34.2374 51.148C33.9686 51.1547 33.5535 51.1595 33.0624 51.1663C30.1103 51.2048 28.5081 51.2462 27.9402 51.3655C26.7121 51.6225 24.8999 52.3011 22.5532 53.3819C22.4911 53.4108 22.4454 53.432 22.4168 53.4445C22.1185 53.5619 21.8898 53.8093 21.8301 54.1221C21.7353 54.6168 22.0989 55.0884 22.6431 55.1741C22.7068 55.1847 22.7665 55.1895 22.822 55.1895C23.0549 55.1895 23.2306 55.1086 23.4569 55.0047C26.2006 53.74 27.6534 53.2915 28.3888 53.1375C28.87 53.0403 31.8286 53.0008 33.0918 52.9844C33.5919 52.9777 34.0151 52.9719 34.288 52.9661C35.7187 52.9334 37.4713 52.7207 38.2811 52.6004C39.3449 52.4425 40.4202 52.2106 41.0885 51.5917C41.475 51.2337 41.4693 50.6571 41.0755 50.3058C41.0493 50.2827 41.0191 50.2644 40.9905 50.2442C41.0411 50.2336 41.0926 50.223 41.1425 50.2057C41.6564 50.0219 41.9089 49.4944 41.7079 49.0267C41.1727 47.787 39.7739 46.2634 36.1501 46.0478C35.6583 46.0179 34.2545 46.068 31.8147 46.1584C29.0865 46.2595 25.69 46.3856 24.6523 46.3076C23.6506 46.2326 22.3449 46.0555 20.9632 45.8678C19.8152 45.7128 18.628 45.5511 17.5364 45.4385C15.1473 45.1911 13.0114 45.4905 10.5382 46.0141C8.9424 46.3538 6.5116 47.6484 4.5 48.7341" fill="#13C4CE"/>
<path d="M11.8636 60.3946C13.0279 60.3734 14.1024 60.4456 15.0608 60.6179C18.0922 61.1626 23.9048 62.001 27.8668 62C28.8113 62 29.6505 61.9528 30.3221 61.8422C34.91 61.0876 46.3147 57.0903 48.1335 55.9257C49.8485 54.8266 56.0958 47.9351 56.3875 46.8215C56.7454 45.449 56.2315 44.0755 55.108 43.4037C53.7312 42.5798 51.8732 43.0332 50.1386 44.6155C49.7684 44.9533 49.4057 45.2931 49.0478 45.6271C47.3703 47.1959 43.9721 48.6772 42.3494 49.2605C42.0471 49.3692 41.7545 49.4289 41.4277 49.4491C40.877 49.4818 40.457 49.9535 40.4905 50.5011C40.524 51.0497 41.0053 51.4723 41.5486 51.4338C42.065 51.403 42.5495 51.3038 43.0292 51.1306C45.04 50.4078 48.5845 48.7898 50.4172 47.0766C50.7693 46.7484 51.1256 46.4144 51.49 46.0823C52.7213 44.9591 53.634 44.8446 54.0785 45.1092C54.4184 45.3123 54.5712 45.7628 54.4715 46.246C53.8473 47.3008 48.6229 53.249 47.0517 54.2558C45.5474 55.2193 34.5611 59.1308 29.9969 59.8816C27.0138 60.3734 19.6421 59.4215 15.4171 58.6621C14.0591 58.4176 12.5205 58.3445 10.8423 58.4407C10.7777 58.4446 10.7148 58.4551 10.6543 58.4705" fill="#13C4CE"/>
</svg>
