<svg width="63" height="64" viewBox="0 0 63 64" fill="none" xmlns="http://www.w3.org/2000/svg">
<path d="M31.5 63.224C21.29 63.224 13.494 61.727 8.328 58.773C3.133 55.805 0.5 51.39 0.5 45.65C0.5 40.526 3.362 35.598 8.574 31.725C10.17 22.217 19.914 15.111 31.5 15.111C43.087 15.111 52.829 22.217 54.426 31.729C59.638 35.602 62.5 40.53 62.5 45.654C62.5 51.394 59.867 55.807 54.672 58.777C49.506 61.727 41.709 63.224 31.5 63.224ZM31.5 17.515C26.325 17.515 21.368 19.083 17.543 21.927C13.803 24.707 11.439 28.484 10.886 32.56C10.8633 32.7217 10.808 32.8772 10.7235 33.017C10.6389 33.1567 10.5268 33.2778 10.394 33.373C5.569 36.825 2.91 41.183 2.91 45.646C2.91 50.529 5.074 54.139 9.525 56.683C14.325 59.428 21.719 60.818 31.5 60.818C41.281 60.818 48.676 59.428 53.473 56.687C57.923 54.143 60.087 50.533 60.087 45.65C60.087 41.182 57.429 36.829 52.603 33.377C52.4704 33.2816 52.3585 33.1605 52.2739 33.0207C52.1894 32.881 52.134 32.7256 52.111 32.564C51.561 28.488 49.197 24.713 45.455 21.931C41.632 19.083 36.675 17.515 31.5 17.515Z" fill="#13C4CE"/>
<path d="M7.95014 34.9649C7.6313 34.9639 7.32576 34.837 7.09994 34.612C6.87411 34.3869 6.74625 34.0818 6.74414 33.7629V30.5929C6.74614 26.1334 8.21261 21.798 10.9181 18.2529C13.6286 14.702 17.4259 12.1349 21.7311 10.9429C21.2525 10.2303 20.9194 9.43014 20.7509 8.58837C20.5825 7.7466 20.5821 6.87984 20.7498 6.03792C20.9174 5.196 21.2498 4.3955 21.7278 3.68245C22.2058 2.96939 22.82 2.35784 23.5351 1.88293C24.9805 0.920198 26.7483 0.568989 28.4519 0.906116C30.1556 1.24324 31.6564 2.24127 32.6261 3.68193C33.265 4.63406 33.6413 5.73793 33.717 6.88204C33.7927 8.02614 33.565 9.16996 33.0571 10.1979H35.7891C47.0741 10.1979 56.2571 19.3469 56.2571 30.5919V33.7599C56.2356 34.0653 56.0991 34.3512 55.8751 34.56C55.6511 34.7687 55.3563 34.8848 55.0501 34.8848C54.744 34.8848 54.4492 34.7687 54.2252 34.56C54.0012 34.3512 53.8647 34.0653 53.8431 33.7599V30.5919C53.8431 20.6729 45.7441 12.6039 35.7891 12.6039H30.6021C30.354 12.6044 30.1118 12.5285 29.9082 12.3867C29.7047 12.2448 29.5496 12.0438 29.4641 11.8109C29.3795 11.578 29.3692 11.3245 29.4346 11.0855C29.4999 10.8464 29.6378 10.6334 29.8291 10.4759C30.4945 9.92564 30.97 9.18009 31.1884 8.34472C31.4068 7.50935 31.357 6.62646 31.0461 5.82093C30.7353 5.01462 30.1796 4.32601 29.4571 3.85193C28.7335 3.37723 27.8797 3.14029 27.0149 3.17417C26.1501 3.20805 25.3174 3.51107 24.6331 4.04093C24.1217 4.43513 23.7101 4.9441 23.4317 5.52673C23.1533 6.10936 23.0159 6.74931 23.0305 7.39488C23.0451 8.04045 23.2113 8.67353 23.5158 9.24297C23.8202 9.81242 24.2544 10.3023 24.7831 10.6729C24.9775 10.8108 25.1266 11.0033 25.2116 11.226C25.2965 11.4487 25.3134 11.6916 25.2601 11.9239C25.2063 12.1566 25.0843 12.3679 24.9097 12.5309C24.7351 12.6939 24.516 12.8011 24.2801 12.8389C20.0603 13.5298 16.2221 15.6948 13.4481 18.9489C10.6798 22.1967 9.15889 26.3244 9.15814 30.5919V33.7599C9.15866 33.9985 9.08806 34.2318 8.95536 34.43C8.82266 34.6283 8.63389 34.7825 8.41314 34.8729C8.26614 34.9329 8.10814 34.9649 7.95014 34.9649Z" fill="#13C4CE"/>
<path d="M38.6038 37.34H32.6678C32.3488 37.34 32.0428 37.2132 31.8172 36.9876C31.5916 36.762 31.4648 36.456 31.4648 36.137C31.4648 35.8179 31.5916 35.5119 31.8172 35.2863C32.0428 35.0607 32.3488 34.934 32.6678 34.934H38.6038C38.9168 34.945 39.2138 35.077 39.4308 35.301C39.5937 35.4682 39.7043 35.6793 39.7492 35.9084C39.7941 36.1375 39.7712 36.3747 39.6835 36.591C39.5958 36.8074 39.447 36.9935 39.2553 37.1267C39.0636 37.2599 38.8372 37.3333 38.6038 37.34Z" fill="#13C4CE"/>
<path d="M30.3782 37.34H24.4012C24.0822 37.34 23.7762 37.2132 23.5506 36.9876C23.325 36.762 23.1982 36.456 23.1982 36.137C23.1982 35.8179 23.325 35.5119 23.5506 35.2863C23.7762 35.0607 24.0822 34.934 24.4012 34.934H30.3782C30.622 34.9261 30.8624 34.992 31.0681 35.1229C31.2738 35.2539 31.4352 35.4438 31.5312 35.668C31.5947 35.8167 31.6275 35.9767 31.6276 36.1384C31.6276 36.3001 31.595 36.4602 31.5317 36.609C31.4684 36.7577 31.3756 36.8922 31.2591 37.0042C31.1425 37.1163 31.0044 37.2036 30.8532 37.261C30.7019 37.3192 30.5403 37.3454 30.3782 37.34Z" fill="#13C4CE"/>
<path d="M31.4999 47.003C31.2616 47.0027 31.0286 46.9321 30.8302 46.7999C30.6319 46.6677 30.4769 46.4799 30.3849 46.26C30.3247 46.1141 30.2937 45.9578 30.2939 45.8V37.734C30.294 37.576 30.3251 37.4196 30.3857 37.2738C30.4463 37.1279 30.5351 36.9954 30.6469 36.884C30.8159 36.7165 31.0306 36.6026 31.264 36.5566C31.4974 36.5105 31.7392 36.5343 31.9591 36.6251C32.179 36.7158 32.3673 36.8695 32.5003 37.0667C32.6334 37.2639 32.7052 37.4961 32.7069 37.734V45.8C32.7077 46.0384 32.6371 46.2717 32.5044 46.4698C32.3717 46.6679 32.1828 46.8219 31.9619 46.912C31.8154 46.9723 31.6584 47.0032 31.4999 47.003Z" fill="#13C4CE"/>
<path d="M38.6038 41.3469H24.3968C24.0778 41.3469 23.7718 41.2202 23.5462 40.9946C23.3206 40.769 23.1938 40.463 23.1938 40.1439C23.1938 39.8249 23.3206 39.5189 23.5462 39.2933C23.7718 39.0677 24.0778 38.9409 24.3968 38.9409H38.6038C38.9168 38.9519 39.2138 39.0839 39.4318 39.3079C39.5952 39.4751 39.7062 39.6863 39.7513 39.9156C39.7964 40.1449 39.7736 40.3824 39.6857 40.599C39.5978 40.8156 39.4486 41.0018 39.2565 41.1348C39.0643 41.2678 38.8375 41.3409 38.6038 41.3469Z" fill="#13C4CE"/>
<path d="M31.5002 39.03C31.3007 39.0297 31.1043 38.9801 30.9286 38.8856C30.7529 38.791 30.6033 38.6544 30.4932 38.488L23.8072 28.417C23.6752 28.2184 23.6052 27.985 23.6062 27.7465C23.6072 27.508 23.6791 27.2752 23.8128 27.0777C23.9465 26.8802 24.136 26.7269 24.357 26.6374C24.5781 26.5479 24.8208 26.5262 25.0542 26.575C25.3676 26.6387 25.643 26.8238 25.8202 27.09L31.5002 35.655L37.1802 27.099C37.3118 26.8997 37.4995 26.7439 37.7197 26.6513C37.9398 26.5587 38.1825 26.5336 38.4169 26.579C38.6514 26.6243 38.8671 26.7383 39.0368 26.9063C39.2065 27.0744 39.3225 27.289 39.3702 27.523C39.4016 27.6777 39.4021 27.8372 39.3717 27.9921C39.3413 28.1471 39.2807 28.2945 39.1932 28.426L32.5072 38.498C32.3963 38.6629 32.2463 38.7977 32.0706 38.8906C31.8949 38.9834 31.6989 39.0313 31.5002 39.03ZM31.5002 55.456C23.6382 55.456 16.3182 53.351 10.8902 49.531C10.6823 49.3995 10.5195 49.2075 10.4239 48.9809C10.3282 48.7542 10.3043 48.5037 10.3552 48.263C10.4066 48.022 10.5307 47.8027 10.7108 47.6346C10.8909 47.4665 11.1183 47.3577 11.3622 47.323C11.5242 47.2996 11.6892 47.3092 11.8473 47.3514C12.0054 47.3935 12.1533 47.4671 12.2822 47.568C17.2352 51.052 24.2402 53.05 31.5002 53.05C38.7602 53.05 45.7642 51.051 50.7172 47.567C50.9117 47.4228 51.1451 47.3404 51.387 47.3303C51.6289 47.3203 51.8683 47.3832 52.074 47.5107C52.2798 47.6383 52.4426 47.8247 52.5412 48.0458C52.6398 48.267 52.6698 48.5126 52.6272 48.751C52.5977 48.9091 52.5367 49.0597 52.4479 49.1939C52.3591 49.3281 52.2443 49.443 52.1102 49.532C46.6802 53.35 39.3602 55.456 31.5002 55.456ZM33.4342 12.604C33.1522 12.604 32.8782 12.504 32.6612 12.324C31.9275 11.7148 31.3349 10.9536 30.9242 10.093C30.8366 9.91368 30.795 9.71537 30.8034 9.51598C30.8117 9.3166 30.8696 9.12243 30.9718 8.95107C31.0741 8.7797 31.2175 8.63655 31.389 8.53456C31.5606 8.43257 31.7548 8.37497 31.9542 8.36697C32.194 8.35609 32.4317 8.41685 32.6368 8.54152C32.842 8.66618 33.0054 8.8491 33.1062 9.06697C33.368 9.61063 33.7443 10.0913 34.2092 10.476C34.3992 10.6344 34.5356 10.8477 34.5999 11.0866C34.6642 11.3255 34.6532 11.5784 34.5685 11.8108C34.4837 12.0432 34.3293 12.2438 34.1263 12.3853C33.9233 12.5267 33.6816 12.602 33.4342 12.601V12.604ZM39.7222 13.004C39.4615 13.004 39.2077 12.9198 38.9987 12.764C38.7896 12.6081 38.6365 12.3889 38.5622 12.139C38.4891 11.8891 38.4994 11.6222 38.5914 11.3786C38.6834 11.1351 38.8522 10.9281 39.0722 10.789C39.6138 10.4461 40.0682 9.98193 40.3993 9.43311C40.7305 8.8843 40.9294 8.26594 40.9802 7.62697C41.0303 6.98826 40.9304 6.3467 40.6885 5.75344C40.4467 5.16018 40.0695 4.63164 39.5872 4.20997C39.1043 3.78658 38.5297 3.48119 37.9086 3.31789C37.2874 3.15458 36.6369 3.13784 36.0082 3.26897C35.3804 3.39971 34.7915 3.67429 34.2878 4.07112C33.7841 4.46796 33.3793 4.97622 33.1052 5.55597C33.0378 5.69946 32.9428 5.82824 32.8255 5.93493C32.7083 6.04163 32.5711 6.12414 32.4219 6.17774C32.2728 6.23134 32.1145 6.25498 31.9561 6.24729C31.7978 6.23961 31.6425 6.20076 31.4992 6.13297C31.2104 5.99741 30.9872 5.75276 30.8787 5.45277C30.7701 5.15277 30.785 4.82195 30.9202 4.53297C31.3526 3.61505 31.9928 2.81045 32.7902 2.18297C33.5888 1.55391 34.5227 1.11898 35.5181 0.91247C36.5135 0.70596 37.5433 0.733517 38.5262 0.992968C39.5084 1.25119 40.4172 1.73385 41.1812 2.40297C42.3333 3.40932 43.0941 4.78934 43.33 6.30076C43.5659 7.81218 43.2618 9.3584 42.4712 10.668C41.9473 11.5372 41.2283 12.2726 40.3712 12.816C40.1772 12.939 39.9522 13.005 39.7222 13.004Z" fill="#13C4CE"/>
</svg>
