<svg width="69" height="50" viewBox="0 0 69 50" fill="none" xmlns="http://www.w3.org/2000/svg">
<path d="M22.4383 20.31C22.2602 20.3114 22.0846 20.2674 21.9283 20.182L16.5863 17.206H7.00629C5.89103 17.2047 4.82183 16.761 4.03331 15.9723C3.24479 15.1836 2.80135 14.1143 2.80029 12.999V4.202C2.80241 3.08769 3.24621 2.01967 4.03443 1.23202C4.82265 0.44436 5.89098 0.0013214 7.00529 0H19.7903C20.905 0.000792281 21.9738 0.443597 22.7625 1.23131C23.5511 2.01902 23.9952 3.08734 23.9973 4.202V12.992C23.9954 14.0131 23.619 14.998 22.9393 15.76L23.4693 19.1C23.493 19.2489 23.4842 19.4012 23.4433 19.5464C23.4024 19.6915 23.3306 19.8261 23.2326 19.9407C23.1347 20.0554 23.0131 20.1474 22.8761 20.2105C22.7391 20.2736 22.5901 20.3061 22.4393 20.306L22.4383 20.31ZM7.00529 2.087C6.44436 2.087 5.9064 2.30983 5.50976 2.70647C5.11312 3.10311 4.89029 3.64107 4.89029 4.202V12.992C4.89029 13.5529 5.11312 14.0909 5.50976 14.4875C5.9064 14.8842 6.44436 15.107 7.00529 15.107H16.8613C17.0393 15.107 17.2143 15.152 17.3703 15.239L21.0723 17.302L20.7953 15.555C20.7663 15.3782 20.7835 15.1969 20.8452 15.0288C20.9068 14.8606 21.0109 14.7112 21.1473 14.595C21.383 14.3983 21.5731 14.1527 21.7043 13.8752C21.8356 13.5977 21.9048 13.295 21.9073 12.988V4.202C21.9057 3.64155 21.6824 3.10451 21.2861 2.70822C20.8898 2.31192 20.3527 2.08858 19.7923 2.087H7.00529Z" fill="#13C4CE"/>
<path d="M8.16809 45.455C7.8912 45.4547 7.6257 45.3447 7.42981 45.149C7.23392 44.9533 7.12362 44.6879 7.12309 44.411V16.293C7.11427 16.1505 7.13472 16.0076 7.18319 15.8733C7.23167 15.739 7.30713 15.616 7.40494 15.5119C7.50275 15.4079 7.62084 15.325 7.75191 15.2683C7.88299 15.2116 8.02429 15.1823 8.16709 15.1823C8.3099 15.1823 8.4512 15.2116 8.58227 15.2683C8.71335 15.325 8.83143 15.4079 8.92924 15.5119C9.02705 15.616 9.10252 15.739 9.15099 15.8733C9.19947 16.0076 9.21992 16.1505 9.21109 16.293V44.41C9.21109 44.6868 9.10127 44.9523 8.90573 45.1482C8.71018 45.3441 8.4449 45.4545 8.16809 45.455ZM60.8321 45.455C60.5554 45.4547 60.2901 45.3446 60.0945 45.1489C59.899 44.9531 59.7891 44.6877 59.7891 44.411V7.197C59.7891 7.18108 59.7828 7.16582 59.7715 7.15457C59.7603 7.14332 59.745 7.137 59.7291 7.137H23.1641C23.0216 7.14582 22.8787 7.12537 22.7444 7.0769C22.6101 7.02842 22.4871 6.95296 22.383 6.85515C22.279 6.75734 22.1961 6.63925 22.1394 6.50818C22.0827 6.3771 22.0534 6.23581 22.0534 6.093C22.0534 5.95019 22.0827 5.80889 22.1394 5.67782C22.1961 5.54674 22.279 5.42866 22.383 5.33085C22.4871 5.23304 22.6101 5.15757 22.7444 5.1091C22.8787 5.06062 23.0216 5.04017 23.1641 5.049H59.7291C60.2988 5.04926 60.8451 5.27562 61.248 5.67836C61.651 6.08111 61.8776 6.6273 61.8781 7.197V44.41C61.8782 44.5473 61.8513 44.6834 61.7987 44.8103C61.7462 44.9372 61.6691 45.0525 61.572 45.1496C61.4748 45.2466 61.3594 45.3236 61.2325 45.376C61.1055 45.4284 60.9694 45.4553 60.8321 45.455Z" fill="#13C4CE"/>
<path d="M56.0602 42.278H12.9372C12.4741 42.2772 12.0302 42.0929 11.7028 41.7654C11.3753 41.4379 11.191 40.994 11.1902 40.531V16.293C11.1839 16.0471 11.2644 15.8069 11.4175 15.6145C11.5707 15.4221 11.7867 15.2899 12.0277 15.2409C12.2687 15.192 12.5192 15.2295 12.7353 15.3469C12.9514 15.4643 13.1192 15.6541 13.2092 15.883C13.2592 16.013 13.2832 16.153 13.2782 16.293V40.19H55.7202V11.298H23.0282C22.7592 11.2862 22.5052 11.171 22.319 10.9765C22.1328 10.7821 22.0289 10.5232 22.0289 10.254C22.0289 9.98472 22.1328 9.72587 22.319 9.53138C22.5052 9.33688 22.7592 9.22174 23.0282 9.20996H56.0602C56.5235 9.21075 56.9675 9.39521 57.295 9.72288C57.6225 10.0505 57.8067 10.4947 57.8072 10.958V40.531C57.8064 40.994 57.6221 41.4379 57.2947 41.7654C56.9672 42.0929 56.5233 42.2772 56.0602 42.278ZM67.2202 49.999H1.78023C1.31696 49.9984 0.872812 49.8142 0.545141 49.4868C0.217471 49.1593 0.0330204 48.7152 0.0322266 48.252V45.115C0.0327553 44.6517 0.216952 44.2075 0.544435 43.8799C0.871917 43.5522 1.31596 43.3678 1.77923 43.367H27.6852C27.8223 43.367 27.958 43.394 28.0846 43.4464C28.2112 43.4989 28.3262 43.5758 28.4231 43.6728C28.52 43.7698 28.5968 43.8849 28.6491 44.0115C28.7015 44.1382 28.7284 44.2739 28.7282 44.411V45.054H40.2642V44.41C40.2648 44.1333 40.375 43.8682 40.5707 43.6727C40.7664 43.4772 41.0316 43.3672 41.3082 43.367H67.2172C67.6805 43.3678 68.1245 43.5522 68.452 43.8799C68.7795 44.2075 68.9637 44.6517 68.9642 45.115V48.252C68.9634 48.7145 68.7795 49.158 68.4527 49.4853C68.1259 49.8127 67.6828 49.9974 67.2202 49.999ZM2.12023 47.912H66.8822V45.455H42.3562V46.099C42.3557 46.3758 42.2454 46.6411 42.0494 46.8366C41.8535 47.0321 41.588 47.142 41.3112 47.142H27.6852C27.5482 47.1422 27.4124 47.1155 27.2857 47.0632C27.159 47.011 27.0438 46.9343 26.9468 46.8375C26.8497 46.7408 26.7727 46.6258 26.7201 46.4993C26.6675 46.3727 26.6404 46.237 26.6402 46.1V45.456H2.12023V47.912Z" fill="#13C4CE"/>
<path d="M35.2051 30.3701C33.4454 30.3703 31.7251 29.8486 30.2618 28.8711C28.7986 27.8935 27.6581 26.504 26.9846 24.8783C26.3111 23.2525 26.1348 21.4635 26.478 19.7376C26.8213 18.0116 27.6687 16.4263 28.913 15.1819C30.1573 13.9376 31.7427 13.0902 33.4687 12.747C35.1946 12.4037 36.9836 12.58 38.6093 13.2535C40.2351 13.927 41.6246 15.0675 42.6021 16.5308C43.5797 17.994 44.1013 19.7143 44.1011 21.4741C44.098 23.8324 43.1597 26.0933 41.492 27.761C39.8244 29.4286 37.5635 30.3669 35.2051 30.3701ZM35.2051 14.6601C34.3004 14.6446 33.4015 14.8094 32.5611 15.1449C31.7207 15.4804 30.9555 15.9799 30.3102 16.6143C29.6649 17.2487 29.1523 18.0052 28.8024 18.8397C28.4526 19.6743 28.2724 20.5701 28.2724 21.4751C28.2724 22.38 28.4526 23.2758 28.8024 24.1104C29.1523 24.9449 29.6649 25.7014 30.3102 26.3358C30.9555 26.9702 31.7207 27.4697 32.5611 27.8052C33.4015 28.1407 34.3004 28.3056 35.2051 28.2901C36.9924 28.2594 38.696 27.528 39.9491 26.2532C41.2022 24.9785 41.9044 23.2625 41.9044 21.4751C41.9044 19.6876 41.2022 17.9716 39.9491 16.6969C38.696 15.4221 36.9924 14.6907 35.2051 14.6601ZM39.0401 42.1541C38.8742 42.1542 38.7106 42.1149 38.5629 42.0392C38.4152 41.9635 38.2876 41.8537 38.1908 41.7189C38.0941 41.5841 38.0308 41.4281 38.0063 41.264C37.9819 41.0999 37.9969 40.9322 38.0501 40.7751C38.8961 38.2831 39.4421 34.9561 39.5891 31.4051C39.5948 31.2681 39.6275 31.1336 39.6852 31.0092C39.7429 30.8849 39.8245 30.7731 39.9254 30.6803C40.0263 30.5875 40.1445 30.5154 40.2732 30.4683C40.4019 30.4212 40.5387 30.3998 40.6756 30.4056C40.8126 30.4113 40.9471 30.4439 41.0715 30.5016C41.1958 30.5593 41.3076 30.6409 41.4004 30.7418C41.4932 30.8427 41.5652 30.9609 41.6124 31.0896C41.6595 31.2183 41.6808 31.3551 41.6751 31.4921C41.5211 35.2361 40.9351 38.7711 40.0301 41.4461C39.9599 41.6529 39.8266 41.8325 39.6491 41.9597C39.4715 42.0868 39.2585 42.1542 39.0401 42.1541ZM31.3701 42.1541C31.1525 42.1542 30.9403 42.0863 30.7632 41.9599C30.586 41.8335 30.4528 41.6549 30.3821 41.4491C29.4731 38.7741 28.8881 35.2391 28.7371 31.4961C28.7382 31.2272 28.8429 30.9691 29.0294 30.7754C29.2159 30.5817 29.4699 30.4674 29.7386 30.4562C30.0072 30.445 30.2698 30.5378 30.4718 30.7152C30.6738 30.8927 30.7997 31.1412 30.8231 31.4091C30.9691 34.9591 31.5171 38.2861 32.3611 40.7791C32.4136 40.9361 32.428 41.1033 32.4031 41.267C32.3782 41.4307 32.3148 41.5862 32.2179 41.7205C32.1211 41.8548 31.9938 41.9642 31.8464 42.0396C31.6989 42.1149 31.5357 42.1542 31.3701 42.1541Z" fill="#13C4CE"/>
<path d="M48.5072 42.154H21.9002C21.7525 42.1533 21.6066 42.1213 21.4722 42.06C21.3377 41.9988 21.2179 41.9096 21.1205 41.7985C21.0231 41.6875 20.9505 41.5569 20.9073 41.4157C20.8642 41.2744 20.8515 41.1255 20.8702 40.979C21.4572 36.237 23.9082 32.064 27.5802 29.527C27.7641 29.3999 27.9839 29.3353 28.2073 29.3425C28.4307 29.3497 28.6459 29.4284 28.8212 29.567C30.6387 31.0074 32.8897 31.7912 35.2087 31.7912C37.5277 31.7912 39.7787 31.0074 41.5962 29.567C41.7715 29.4287 41.9865 29.3503 42.2096 29.3431C42.4328 29.3359 42.6524 29.4003 42.8362 29.527C46.5042 32.067 48.9522 36.241 49.5402 40.98C49.5591 41.127 49.5465 41.2763 49.5031 41.418C49.4597 41.5597 49.3866 41.6905 49.2886 41.8018C49.1907 41.913 49.0701 42.002 48.935 42.0629C48.7999 42.1238 48.6534 42.1552 48.5052 42.155L48.5072 42.154ZM23.1272 40.066H47.2792C46.5892 36.665 44.8022 33.686 42.2412 31.686C40.1731 33.116 37.7185 33.882 35.2042 33.882C32.6899 33.882 30.2353 33.116 28.1672 31.686C25.6072 33.686 23.8172 36.666 23.1282 40.068L23.1272 40.066Z" fill="#13C4CE"/>
<path d="M30.5551 38.147C30.344 38.1479 30.1376 38.0848 29.9632 37.966C29.7887 37.8472 29.6544 37.6782 29.578 37.4814C29.5016 37.2847 29.4867 37.0694 29.5353 36.8639C29.5839 36.6585 29.6937 36.4727 29.8501 36.331L34.5001 32.093C34.6927 31.9169 34.9442 31.8193 35.2051 31.8193C35.466 31.8193 35.7175 31.9169 35.9101 32.093L40.5421 36.316C40.7467 36.503 40.8687 36.7636 40.8811 37.0405C40.8936 37.3173 40.7956 37.5879 40.6086 37.7925C40.4216 37.9971 40.161 38.119 39.8841 38.1315C39.6072 38.144 39.3367 38.046 39.1321 37.859L35.2051 34.282L31.2591 37.879C31.0661 38.053 30.8151 38.149 30.5551 38.147Z" fill="#13C4CE"/>
</svg>
