<svg width="22" height="28" fill="none" xmlns="http://www.w3.org/2000/svg"><g clip-path="url(#clip0_431_1144)" fill="#3F4F5F"><path d="M19.27 2.39H14a3.08 3.08 0 00-6 0H2.74A2.79 2.79 0 000 5.21v20A2.78 2.78 0 002.74 28h16.53A2.772 2.772 0 0022 25.18v-20a2.78 2.78 0 00-2.73-2.79zm-9.6.82a1.39 1.39 0 01.736-1.222 1.31 1.31 0 011.664.402c.175.238.27.525.27.82v.1a1.42 1.42 0 01-.43.92 1.33 1.33 0 01-2.22-.92.31.31 0 01-.02-.1zm10.55 22a1 1 0 01-1 1H2.74a1 1 0 01-1-1v-20a1 1 0 011-1h.88l.64 2.62A2.73 2.73 0 006.91 9h8.17a2.74 2.74 0 002.65-2.13l.63-2.64h.9a1 1 0 011 1l-.04 19.98z"/><path d="M16.53 11.9H5.47a.92.92 0 100 1.84h11.06a.92.92 0 100-1.84zM16.53 15.71H5.47a.92.92 0 000 1.83h11.06a.92.92 0 000-1.83zM16.53 19.51H5.47a.92.92 0 000 1.83h11.06a.92.92 0 000-1.83z"/></g><defs><clipPath id="clip0_431_1144"><path fill="#fff" d="M0 0h22v28H0z"/></clipPath></defs></svg>