<svg width="320" height="263" fill="none" xmlns="http://www.w3.org/2000/svg"><g clip-path="url(#clip0_1286_41840)"><path d="M42.294 153.008a42.302 42.302 0 01-34.181-17.343A42.293 42.293 0 0166.83 76.288a42.1 42.1 0 0113.8 52.136l5.106 9.581a3.393 3.393 0 01-3.525 4.952l-10.73-1.697a42.067 42.067 0 01-29.188 11.748zm0-80.994a38.676 38.676 0 1027.291 66.021l.648-.655 12.134 1.959-5.786-10.845.41-.826a38.65 38.65 0 00-15.96-50.799 38.652 38.652 0 00-18.752-4.855h.015zM253.763 84.58a42.134 42.134 0 01-20.01-5.03l-9.865 4.544a3.397 3.397 0 01-4.638-1.988 3.398 3.398 0 01-.091-1.869l2.353-10.606A42.272 42.272 0 01253.194-.007a42.27 42.27 0 0133.421 68.82l-1.396-1.126 1.396 1.126a42.14 42.14 0 01-32.852 15.767zm-19.848-9.094l.772.455a38.692 38.692 0 10-9.904-7.96l.609.686-2.661 11.994 11.184-5.175z" fill="#3F4F5F"/><path d="M34.896 97.207a2.106 2.106 0 001.906-2.137v-2.985a2.067 2.067 0 00-1.62-2.06 2.02 2.02 0 00-2.422 1.983v3.178a2.027 2.027 0 002.136 2.02zM49.791 97.207a2.106 2.106 0 001.913-2.137v-2.985a2.075 2.075 0 00-1.62-2.06 2.02 2.02 0 00-2.422 1.983v3.178a2.02 2.02 0 002.13 2.02z" fill="#3F4F5F"/><path d="M56.68 92.864h-3.202v2.152a3.91 3.91 0 01-3.417 3.95 3.801 3.801 0 01-4.173-3.78v-2.314h-7.312v2.152a3.91 3.91 0 01-3.417 3.95 3.803 3.803 0 01-4.173-3.78V92.88h-3.448a5.677 5.677 0 00-5.678 5.677v26.936a5.672 5.672 0 003.504 5.247 5.67 5.67 0 002.174.43H56.68a5.67 5.67 0 005.677-5.677V98.542a5.677 5.677 0 00-5.677-5.678zm1.959 31.279a3.74 3.74 0 01-3.741 3.741H29.319a3.74 3.74 0 01-3.74-3.741v-21.089h33.06v21.089z" fill="#3F4F5F"/><path d="M40.705 120.742h-5.114v5.114h5.114v-5.114zM40.705 112.819h-5.114v5.114h5.114v-5.114zM32.775 120.742h-5.114v5.114h5.114v-5.114zM32.775 112.819h-5.114v5.114h5.114v-5.114zM56.549 104.89h-5.114v5.114h5.114v-5.114zM48.627 104.89h-5.114v5.114h5.114v-5.114zM48.913 112.974a.945.945 0 00-1.068-.08.932.932 0 00-.282.25l-2.183 2.8-.895-.718a.956.956 0 00-1.35.154.966.966 0 00.147 1.35l1.473 1.181a1.196 1.196 0 001.69-.201l2.637-3.386a.965.965 0 00-.17-1.35zM56.549 112.819h-5.114v5.114h5.114v-5.114zM48.627 120.742h-5.114v5.114h5.114v-5.114zM40.705 104.89h-5.114v5.114h5.114v-5.114zM277.621 185.058a42.068 42.068 0 01-35.097-18.86l-10.799-.656a3.394 3.394 0 01-2.922-2.06 3.389 3.389 0 01.554-3.532l7.074-8.246a42.093 42.093 0 0124.822-47.879 42.276 42.276 0 0157.833 30.612 42.27 42.27 0 01-41.465 50.621zm-45.309-23.072l12.264.733.494.771a38.69 38.69 0 0069.09-7.714 38.694 38.694 0 00-20.434-48.262 38.69 38.69 0 00-53.624 44.244l.209.895-7.999 9.333z" fill="#3F4F5F"/><path d="M84.047 47.809a26.585 26.585 0 01-6.487-.771 3.803 3.803 0 01-.956-3.448 15.358 15.358 0 012.862-5.894 19.28 19.28 0 014.998-3.856l3.625-.54 2.26.177.24-6.48v-11.47l.177-.177V7.706l.177-4.813h1.728l3.633.416v1.126h.355a17.558 17.558 0 002.314 4.76l.532.416 3.271 3.217v.385l.771.355.178.594 1.543 1.134.177.594.602.177.709 1.312.594.416a11.57 11.57 0 012.083 8.57 17.406 17.406 0 01-1.782 4.968 56.717 56.717 0 01-2.8 4.628l-3.031.177-2.5-.177v-.941a31.013 31.013 0 003.587-5.562 12.442 12.442 0 001.188-6.456l-2.26-4.998-.355-.178-2.314-2.499-3.04-2.677-.23 1.543v10.892l-.186.177v10.113a11.308 11.308 0 01-3.448 8.392l-.532.24-.177.532a13.113 13.113 0 01-7.506 3.27z" fill="#7ADED3"/><path d="M287.425 156.085V127.12a.613.613 0 00-.3-.54.612.612 0 00-.34-.1.564.564 0 00-.27.062l-5.399 2.522a.535.535 0 01-.463 0l-4.273-1.998a.564.564 0 00-.471 0l-4.273 1.998a.535.535 0 01-.463 0l-4.274-1.998a.56.56 0 00-.47 0l-4.273 1.998a.535.535 0 01-.463 0l-5.4-2.53a.658.658 0 00-.27-.054.63.63 0 00-.593.394.63.63 0 00-.047.246v31.881a7.13 7.13 0 001.851 4.844 6.793 6.793 0 003.857 2.114s.771.077 1.065.069h24.891a4.978 4.978 0 002.484-.687 6.748 6.748 0 002.623-2.969c.654-1.411.981-2.951.956-4.505a1.804 1.804 0 00-1.805-1.805l-3.88.023zm-22.261 1.805a6.883 6.883 0 01-1.126 4.019 2.761 2.761 0 01-1.019.771 2.094 2.094 0 01-1.056.301h-.216a3.787 3.787 0 01-2.407-1.08 4.256 4.256 0 01-1.095-2.931v-27.854l3.44 1.605a.542.542 0 00.463 0l4.273-1.998a.549.549 0 01.471 0l4.273 1.998a.542.542 0 00.463 0l4.273-1.998a.535.535 0 01.463 0l4.281 1.998a.543.543 0 00.463 0l3.448-1.605v24.383a.536.536 0 01-.158.392.54.54 0 01-.39.163h-17.039a1.794 1.794 0 00-1.276.524 1.792 1.792 0 00-.529 1.274v.038zm23.966 4.019a3.391 3.391 0 01-1.034.972 2.045 2.045 0 01-1.041.301H266.529c.259-.344.486-.711.679-1.096a8.69 8.69 0 00.771-2.653.55.55 0 01.54-.478h21.059a.55.55 0 01.429.207.548.548 0 01.11.464 5.676 5.676 0 01-.987 2.283z" fill="#3F4F5F"/><path d="M279.812 137.511h-16.646a1.28 1.28 0 00-1.28 1.28v.008c0 .707.573 1.28 1.28 1.28h16.646a1.28 1.28 0 001.281-1.28v-.008a1.28 1.28 0 00-1.281-1.28zM279.812 144.26h-16.646a1.28 1.28 0 00-1.28 1.281v.007a1.28 1.28 0 001.28 1.281h16.646c.707 0 1.281-.573 1.281-1.281v-.007c0-.707-.574-1.281-1.281-1.281zM270.579 151.018h-7.413a1.28 1.28 0 00-1.28 1.28v.008c0 .707.573 1.28 1.28 1.28h7.413a1.28 1.28 0 001.28-1.28v-.008a1.28 1.28 0 00-1.28-1.28z" fill="#3F4F5F"/><path d="M292.817 117.864h-.008c-6.463 0-11.702 5.239-11.702 11.702v.008c0 6.462 5.239 11.701 11.702 11.701h.008c6.462 0 11.701-5.239 11.701-11.701v-.008c0-6.463-5.239-11.702-11.701-11.702z" fill="#fff"/><path d="M292.817 142.478a12.91 12.91 0 01-11.923-7.966 12.91 12.91 0 012.798-14.064 12.905 12.905 0 0122.03 9.125 12.92 12.92 0 01-12.905 12.905zm0-23.403a10.5 10.5 0 00-10.297 12.546 10.5 10.5 0 0019.026 3.785 10.496 10.496 0 001.769-5.833 10.513 10.513 0 00-10.498-10.498z" fill="#3F4F5F"/><path d="M288.868 133.832v-1.643h2.615v-1.026h-2.615v-1.643h2.19l-3.147-6.387h2.738l2.214 5.168 2.137-5.168h2.715l-3.147 6.387h2.198v1.643h-2.622v1.026h2.622v1.643h-2.622v2.183h-2.661v-2.183h-2.615zM271.25 26.327h-35.051a6.349 6.349 0 00-6.341 6.348v20.88a6.348 6.348 0 006.341 6.35h35.051a6.35 6.35 0 006.34-6.35V32.684a6.35 6.35 0 00-6.34-6.356zm3.363 27.229a3.362 3.362 0 01-3.363 3.363h-35.051a3.362 3.362 0 01-3.355-3.363V40.134h41.769v13.422zm0-17.896h-41.769v-2.977a3.363 3.363 0 013.355-3.363h35.051a3.363 3.363 0 013.363 3.363v2.977z" fill="#3F4F5F"/><path d="M245.525 46.22h-5.97v5.97h5.97v-5.97zM269.013 46.22h-14.918v2.237h14.918V46.22zM266.028 50.702h-11.933v2.237h11.933v-2.237z" fill="#3F4F5F"/><path d="M185.02 128.979c-.047.108 0 .062 0 0zM165.457 257.573l-.061-.069.1.131s0-.023-.039-.062zM197.014 87.603c.055.042.115.078.177.109a.63.63 0 00-.177-.109zM198.533 103.509v.008l-.008.008.008-.016zM195.471 107.813l-.1.078.054-.039.046-.039zM196.968 106.286a.104.104 0 00.038-.069.813.813 0 00-.115.169l.077-.1zM198.487 103.632a.487.487 0 000-.108 1.44 1.44 0 00-.092.209s.054-.016.092-.101zM110.197 90.126l.07-.147a.279.279 0 00-.047.085l-.023.062zM110.143 90.25a.18.18 0 010-.047v-.077a.636.636 0 010 .123zM113.661 107.883c.02.021.048.034.077.038l-.177-.131.1.093zM112.102 106.309l.085.093a.744.744 0 00-.124-.139l.039.046zM178.455 61.138c0-.061-.108-.246 0 0z" fill="#78DED1"/><path d="M257.488 243.481c-.115-4.281-.362-8.563-.524-12.844-.124-3.332-.139-6.664-.301-10.027a99.217 99.217 0 00-.409-5.647c-.054-.478-.108-.964-.169-1.45 0-.116 0-.231-.039-.339 0-.208-.054-.417-.085-.617a58.117 58.117 0 00-.501-2.839 34.787 34.787 0 00-1.443-5.137l-.254-.648a2.327 2.327 0 01-.085-.208v-.078c-.17-.38-.347-.75-.532-1.11a17.923 17.923 0 00-1.535-2.507c.069.1-.201-.263-.255-.324a13.5 13.5 0 00-.771-.849 20.822 20.822 0 00-2.029-1.735l-.301-.232-.339-.254-.679-.502-1.381-.972a69.586 69.586 0 00-2.831-1.835 82.387 82.387 0 00-6.055-3.348 96.143 96.143 0 00-3.085-1.458l-1.713-.771-.771-.332-.069-.039-.471-.192c-4.297-1.782-8.693-3.325-13.113-4.783-8.585-2.831-17.279-5.399-25.671-8.739v3.818a48.677 48.677 0 002.468-1.628 1.7 1.7 0 012.498 1.897 1.698 1.698 0 01-.785 1.034 53.066 53.066 0 01-4.204 2.662V192.324a5.604 5.604 0 011.311-.216 5.4 5.4 0 013.379.91 6.947 6.947 0 012.314 3.14c.956 2.314 1.087 4.998 1.103 7.482 0 3.085-.162 6.209-.093 9.318.263 7.869 1.216 15.7 2.846 23.403 1.59 8.053 3.479 16.044 5.037 24.097h49.846v-2.414c-.077-4.834-.18-9.688-.309-14.563z" fill="#fff"/><path d="M118.921 81.094a1.675 1.675 0 01-1.543-1.05 1.702 1.702 0 01.355-1.85 69.907 69.907 0 004.782-4.282 57.575 57.575 0 003.857-4.173c1.204-1.442 2.229-2.692 3.317-4.204a68.12 68.12 0 005.801-9.665 1.684 1.684 0 011.034-.786 1.703 1.703 0 011.783.616 1.684 1.684 0 01.33 1.256c-.03.221-.104.434-.216.626a63.35 63.35 0 01-3.14 5.678 69.637 69.637 0 01-10.729 13.36c1.481-.37 2.946-.772 4.389-1.28.771-.255 1.458-.518 2.183-.772l1.095-.417.316-.139.517-.223a54.217 54.217 0 004.166-2.09 55.286 55.286 0 005.939-3.827l.509-.385.193-.147h.039l.879-.694a52.742 52.742 0 008.115-8.254l.061-.085c.054-.061.101-.13.147-.192l.386-.51c.223-.3.439-.601.655-.91.355-.509.702-1.033 1.042-1.542.493-.772.979-1.543 1.442-2.314a1.698 1.698 0 013.11.431c.114.437.049.9-.179 1.289-.478.833-.987 1.65-1.542 2.46-.556.81-1.057 1.62-1.605 2.415a84.532 84.532 0 01-9.619 11.57 47.833 47.833 0 003.479-.987 40.838 40.838 0 001.844-.664c.324-.123.648-.246.972-.385l.215-.085.409-.177a31.632 31.632 0 003.572-1.782 53.557 53.557 0 003.347-2.106c.278-.2.556-.394.826-.602l.355-.262.162-.124c.509-.4 1.018-.825 1.542-1.257a37.963 37.963 0 002.77-2.7c.447-.486.879-.98 1.303-1.488l.37-.463.178-.224.231-.308.27-.355a37.956 37.956 0 004.058-7.09 1.718 1.718 0 012.314-.608 1.69 1.69 0 01.686 2.098 1.918 1.918 0 01.664 1.334c.038.556.092 1.11.169 1.666v.224l.047.309.138.77c.214 1.08.487 2.146.818 3.194.147.455.301.895.463 1.343.092.246.185.485.285.77l.116.286a29.51 29.51 0 003.702 6.318l.247.308.401.486a30.244 30.244 0 004.158 4.096l.332.262.077.062.571.424c.385.278.771.54 1.18.772a28.41 28.41 0 002.538 1.465 1.687 1.687 0 01-.315 3.02 1.69 1.69 0 01-1.228-.027 39.284 39.284 0 002.823 5.8c.185-.171.411-.294.656-.354a7.649 7.649 0 011.604-.193c.012-.062.027-.124.047-.185a55.288 55.288 0 002.314-7.552c.595-2.489.987-5.022 1.172-7.574.179-2.31.197-4.63.054-6.943a41.126 41.126 0 00-.918-6.618 39.893 39.893 0 00-4.181-11.246 33.98 33.98 0 00-1.542-2.523 25.35 25.35 0 00-.833-1.203c-.139-.193-.27-.378-.409-.556l-.139-.177-.062-.085a33.68 33.68 0 00-3.857-4.119c-.354-.308-.717-.61-1.087-.91l-.131-.1-.17-.131-.54-.394a25.634 25.634 0 00-2.314-1.48 25.162 25.162 0 00-2.461-1.227h-.139l-.354-.14-.633-.238a19.176 19.176 0 00-1.288-.417 1.71 1.71 0 01-1.219-1.473 6.37 6.37 0 01-2.846-2.09c-.082.249-.216.478-.394.67a1.71 1.71 0 01-2.399 0 22.885 22.885 0 00-2.661-2.599l-.139-.1-.324-.232a14.054 14.054 0 00-.771-.509 18 18 0 00-1.597-.902l-.709-.332-.193-.085-.363-.146a20.095 20.095 0 00-1.743-.579c-.586-.162-1.111-.3-1.666-.416l-.918-.17-.525-.077h.016a30.393 30.393 0 00-6.541 0l-.548.062h-.239l-.555.077c-.548.092-1.096.185-1.643.3a35.987 35.987 0 00-3.263.826 39.857 39.857 0 00-3.155 1.095l-.517.2-.208.093-.648.286c-.455.208-.91.424-1.358.648a35.91 35.91 0 00-5.446 3.355c-.131.1-.262.2-.385.309l-.772.617a74.276 74.276 0 00-4.481 3.895 59.852 59.852 0 00-5.33 5.693c-.224.277-.448.555-.664.84l-.177.224-.293.394a44.705 44.705 0 00-3.117 4.79 43.824 43.824 0 00-1.797 3.571c-.285.625-.44 1.003-.771 1.79a41.883 41.883 0 00-.695 1.959 1.716 1.716 0 01-1.859 1.211 49.51 49.51 0 00-1.172 5.4 1.733 1.733 0 011.118 2.067c-.077.37-.146.748-.208 1.134v.224c0 .208-.046.416-.061.617a29.8 29.8 0 00-.116 2.63 45.312 45.312 0 00.301 5.4l.092.77v.063c0 .092 0 .177.039.27.061.455.131.902.208 1.35.162.91.339 1.82.548 2.722.394 1.663.91 3.295 1.542 4.883l.155.362.247.533c.154.3.308.594.478.887.085.154.185.3.277.447.463-.594 1.034-1.157 1.543-1.805l-.825-.007z" fill="#78DED1"/><path d="M199.83 94.268c0-.139 0-.285-.047-.424a1.342 1.342 0 000-.2c0-.07-.038-.301-.054-.363-.015-.062-.046-.309-.077-.455a14.1 14.1 0 00-.663-2.391l-.123-.301a10.753 10.753 0 00-.378-.764 9.782 9.782 0 00-.394-.648c-.054-.085-.115-.162-.17-.239-.154-.177-.308-.355-.478-.517l-.208-.193c-.208-.092-.247-.138-.201-.13a3.92 3.92 0 00-.324-.217l-.231-.115a4.223 4.223 0 00-.609-.178h-.98l-.339.07a1.737 1.737 0 01-2.083-1.188 1.695 1.695 0 01.525-1.728 39.29 39.29 0 01-2.824-5.8l-.162-.063a31.492 31.492 0 01-5.931-3.995 31.83 31.83 0 01-10.638-18.513 41.058 41.058 0 01-2.746 3.988 39.052 39.052 0 01-12.596 10.421 48.656 48.656 0 01-16.623 4.968 1.657 1.657 0 01-1.543-1.042 1.674 1.674 0 01-.046-.185c-.679.394-1.365.772-2.067 1.142a54.617 54.617 0 01-18.096 5.785c-.494.648-1.065 1.211-1.543 1.805.093.147.177.3.278.44l.169.246.193.217a1.75 1.75 0 010 2.406 1.712 1.712 0 01-2.314.085 1.76 1.76 0 01-1.99.918l-.355-.07h-.864l-.347.078-.347.108a7.213 7.213 0 00-.617.355l-.069.053a4.689 4.689 0 00-.695.679l-.054.07c-.054.092-.154.193-.208.277-.27.405-.507.83-.71 1.273 0-.046 0 0-.108.24 0 .061-.046.13-.077.2-.092.254-.177.509-.254.771-.17.555-.309 1.12-.417 1.69 0 .161-.062.331-.085.493a1.43 1.43 0 000 .185c0 .247 0 .147 0 0v-.077c0 .285-.069.579-.092.856a22.562 22.562 0 000 3.75c0 .315.069.632.1.956v.123l.069.455c.116.633.255 1.273.425 1.898.164.616.359 1.224.586 1.82l.146.355.093.208c.116.262.247.517.378.772.27.534.577 1.05.918 1.542l.093.131c.185.124.192.193.138.162l.108.139c.17.209.355.401.54.594.185.193.425.409.648.594l.054.046c.178.085.224.139.201.147l.085.069c.239.162.486.317.771.456l.355.177h.069c.255.046.54.208.772.278.276.079.557.144.84.192h1.497a1.72 1.72 0 011.697 1.697 1.54 1.54 0 01-.124.656h.201a61.888 61.888 0 01-.162-4.15 1.7 1.7 0 011.697-1.697 1.698 1.698 0 011.697 1.697v.401c.039 2.631.231 5.269.517 7.891.054.502.116 1.003.177 1.505 0 .054.047.347 0 .27v.131c.039.239.07.478.108.717.162 1.088.347 2.175.556 3.247a49.6 49.6 0 001.627 6.233c.178.525.363 1.041.563 1.543.054.139.116.27.17.409a.244.244 0 000 .054l.324.717a26.17 26.17 0 001.365 2.561 30.845 30.845 0 001.705 2.515l.162.223.208.255c.155.2.309.393.471.586.339.409.694.81 1.049 1.203.771.818 1.543 1.613 2.368 2.361a48.2 48.2 0 001.319 1.149l.617.501.316.247.077.054a40.035 40.035 0 005.971 3.703c.54.27 1.095.517 1.65.771l.124.054.393.162.772.301c1.099.411 2.219.764 3.355 1.057 1.165.309 2.347.546 3.541.709h.324l.424.047.856.077c.594.046 1.196.069 1.797.077a32.249 32.249 0 003.664-.17l.587-.069h.131l.825-.131a37.68 37.68 0 001.62-.317 29.928 29.928 0 003.371-.979 22.99 22.99 0 001.543-.602h.061l.417-.185c.231-.1.463-.208.686-.324a31.313 31.313 0 005.346-3.278l.077-.054.085-.077.285-.216.602-.502c.355-.301.702-.609 1.049-.925a38.728 38.728 0 002.036-2.037c.324-.362.648-.771.965-1.103l.424-.509c.077-.1.162-.2.239-.308.039-.044.075-.091.108-.139l.177-.232.155-.208c.138-.185.277-.37.408-.563.247-.355.494-.717.772-1.08a42.924 42.924 0 002.808-5.168l.339-.771c.038-.093.077-.193.123-.286v-.046c.17-.424.34-.856.502-1.288.27-.772.517-1.543.717-2.314.201-.772.355-1.497.478-2.261.039-.216.07-.431.101-.647v-.201c.046-.393.092-.771.123-1.173.401-4.157.463-8.346.841-12.511a1.745 1.745 0 011.697-1.697 1.705 1.705 0 011.697 1.697c0 .231 0 .455-.054.686h.825l.378-.046c-.162 0-.224-.054.1 0h.155c.321-.062.638-.144.948-.247l.402-.146.154-.07c.281-.139.554-.293.817-.462.137-.079.269-.166.394-.263-.085.054-.093 0 .131-.108.451-.38.871-.795 1.257-1.242.039-.041.075-.085.108-.131.077-.169.139-.216.139-.193.033-.034.064-.07.093-.108.162-.223.308-.462.455-.694.321-.521.609-1.062.864-1.62a.31.31 0 010-.061.444.444 0 01.1-.216l.116-.286c.108-.293.208-.586.308-.879.193-.602.355-1.211.494-1.82.069-.332.131-.656.193-.98l.069-.455v-.131a29.6 29.6 0 00.155-1.852c.03-.617 0-1.257 0-1.882.2-.293.185-.617.154-.94zm-58.254-5.4a1.65 1.65 0 111.674-1.604 1.662 1.662 0 01-1.038 1.523 1.657 1.657 0 01-.636.12v-.038zm12.712 20.341c.32-.313.748-.493 1.196-.501h2.515c.45.006.881.186 1.203.501a1.708 1.708 0 010 2.399 1.74 1.74 0 01-1.203.494h-2.515a1.744 1.744 0 01-1.196-.494 1.721 1.721 0 01-.501-1.203c.018-.434.196-.847.501-1.157v-.039zm12.396 16.253a15.557 15.557 0 01-9.804 3.78 17.657 17.657 0 01-10.027-3.039 1.745 1.745 0 01-.61-2.314 1.71 1.71 0 012.314-.61c.679.454 1.388.861 2.122 1.219l.532.247h.054l.223.085c.355.138.718.27 1.08.378.721.207 1.452.377 2.191.509h.262l.556.046c.37 0 .732.039 1.103 0 .37-.039.771 0 1.18-.054l.355-.039.439-.077a12.736 12.736 0 002.129-.578l.363-.139.409-.185c.343-.161.677-.338 1.003-.532.331-.193.655-.402.971-.618l.355-.262.363-.301a1.733 1.733 0 012.399 0 1.714 1.714 0 01.577 1.253 1.715 1.715 0 01-.539 1.27v-.039zm4.305-36.593a1.65 1.65 0 01-.301-3.271 1.649 1.649 0 011.967 1.62 1.674 1.674 0 01-.48 1.193 1.673 1.673 0 01-1.186.496v-.038zM112.997 175.138c-7.837 2.785-15.898 4.952-23.85 7.39-4.575 1.396-9.141 2.877-13.615 4.582-1.103.416-2.199.856-3.294 1.303l-.44.185-.1.039-.085.039-.771.316-1.59.702a83.446 83.446 0 00-6.039 3.047 60.351 60.351 0 00-5.546 3.494c-.486.339-.956.694-1.427 1.049l-.347.27-.548.44a13.7 13.7 0 00-1.758 1.789c-.062.07-.379.502-.093.108l-.139.185c-.134.18-.257.358-.37.533a18.83 18.83 0 00-.664 1.056c-.208.363-.424.772-.617 1.181-.108.223-.216.447-.316.671l-.1.231a35.255 35.255 0 00-1.659 5.5 54.283 54.283 0 00-.532 2.892c-.046.301-.085.594-.131.895v.371a44.45 44.45 0 00-.162 1.38 99.434 99.434 0 00-.44 6.055c-.162 3.526-.154 7.066-.324 10.591-.455 9.65-.717 19.284-.694 28.965h38.275c.772-5.261 1.697-10.498 2.7-15.72.895-4.675 1.89-9.334 2.638-14.032l2.036-12.935c.51-3.263 1.142-6.858 3.533-9.326a5.517 5.517 0 012.021-1.412c.49-.162.994-.284 1.504-.362.61-.124 1.227-.224 1.844-.316h.262c.293-.44.586-.888.903-1.319a14.588 14.588 0 012.237-2.646 10.139 10.139 0 014.304-2.314 9.051 9.051 0 014.713.285v-.069a9.182 9.182 0 011.01-3.271 7.55 7.55 0 013.04-2.692 8.484 8.484 0 017.497-.193 157.216 157.216 0 001.813-4.019 24.395 24.395 0 012.314-4.404 98.333 98.333 0 01-16.106-6.595 1.724 1.724 0 01-.609-2.314c.193-.349.514-.608.894-.725a4.21 4.21 0 01-1.172-.88z" fill="#fff"/><path d="M182.52 145.063c-.062-1.666-.116-3.34-.155-5.006a34.437 34.437 0 01-15.034 10.714c-9.665 3.44-20.371 1.774-29.018-3.525a39.54 39.54 0 01-8.624-7.143c0 1.088.054 2.183 0 3.271-.07 8.67-1.234 17.571-4.628 25.609a1.748 1.748 0 01-2.083 1.188 1.802 1.802 0 01-1.234-1.343c-.752.478-1.554.871-2.391 1.173.265.226.465.519.578.848a1.737 1.737 0 01-1.188 2.083c-.972.409-1.959.772-2.946 1.173-.988.401-1.89.694-2.839 1.033.336.363.733.663 1.172.887.473-.151.986-.11 1.427.116 1.543.792 3.086 1.543 4.629 2.252l1.164.525.672.285.3.131c.71.301 1.427.594 2.152.872a93.19 93.19 0 008.285 2.808l.231-.1a39.335 39.335 0 016.449-2.546v-3.162l-.039-5.593c0-2.777.17-5.816 1.798-8.176 1.627-2.361 4.242-3.518 7.081-3.788a25.108 25.108 0 012.514-.069h30.192c.847-.007 1.694.029 2.537.108-.57-4.867-.825-9.758-1.002-14.625zM166.299 259.093a.371.371 0 00-.039-.077 1.948 1.948 0 00-.085-.193l-.208-.417a7.828 7.828 0 00-.463-.771s-.093-.054-.123-.162a8.51 8.51 0 00-.849-.848l-.324-.263-.185-.139a25.736 25.736 0 00-.941-.647c-3.656-2.438-7.467-4.629-11.254-6.896-1.373-.772-2.762-1.543-4.15-2.376a19.834 19.834 0 01-2.384 2.823 31.178 31.178 0 01-3.139 2.738 16.372 16.372 0 01-2.692 1.767c-.771.401-1.62.732-2.438 1.08l-1.226.501-.818.347c-.771.332-1.542.687-2.314 1.095-.386.209-.771.425-1.134.664l-.37.254-.177.147c-.485.422-.936.882-1.35 1.373l-.371.447-.038.054c-.17.224-.332.455-.486.679a1.057 1.057 0 01-.1.147h38.182a9.436 9.436 0 00-.146-.44 9.484 9.484 0 00-.378-.887z" fill="#fff"/><path d="M253.671 203.74z" fill="#78DED1"/><path d="M198.556 103.517a.448.448 0 00-.1.216c.025-.072.056-.141.093-.208l.007-.008zM197.183 87.712a1.08 1.08 0 01-.177-.109c-.047 0 0 .04.2.132l-.023-.023zM195.471 107.783c-.223.108-.216.162-.131.108l.1-.077.031-.031zM197.014 106.217s-.062 0-.139.193a.803.803 0 01.139-.193zM192.478 109.117c-.324-.046-.262 0-.1 0h.1zM112.164 106.402c.054 0 .047-.039-.139-.162a.718.718 0 01.139.162zM110.197 90.126v.077c.139-.246.139-.285.108-.239l-.108.162zM113.706 107.921s0-.061-.2-.146l.2.146z" fill="#3F4F5F"/><path d="M111.192 88.414l.054-.07a4.68 4.68 0 01.694-.678l.07-.054c.199-.13.405-.247.617-.355l.347-.108.347-.077h.864l.355.069a1.757 1.757 0 001.99-.918 1.712 1.712 0 002.314-.085 1.749 1.749 0 000-2.407c-.054-.061-.131-.138-.193-.215-.061-.078 0 0 0 0l-.169-.247a10.612 10.612 0 01-.556-.887c-.17-.301-.324-.587-.478-.887l-.247-.533-.154-.362a35.065 35.065 0 01-1.543-4.883 55.173 55.173 0 01-.548-2.723 38.873 38.873 0 01-.208-1.35c0-.092 0-.177-.038-.27v-.061l-.093-.772a45.522 45.522 0 01-.301-5.4c0-.87.039-1.75.116-2.63 0-.2.038-.409.062-.617v-.223c.061-.386.131-.764.208-1.134a1.688 1.688 0 00-.137-1.313 1.693 1.693 0 00-1.707-.864 1.693 1.693 0 00-1.138.666 1.703 1.703 0 00-.289.608 33.184 33.184 0 00-.285 10.444 42.091 42.091 0 002.491 11.231 20.98 20.98 0 001.165 2.53 6.557 6.557 0 00-5.916 2.137 13.052 13.052 0 00-2.862 6.811c-.818 5.523.17 11.864 3.857 16.199a10.175 10.175 0 008.215 3.633 1.698 1.698 0 000-3.394h-1.497a7.797 7.797 0 01-.84-.193c-.247-.069-.533-.231-.772-.277h-.069l-.355-.178c-.255-.139-.501-.293-.771-.455l-.085-.069a.13.13 0 01-.077-.039l-.101-.092h-.054l-.054-.047a9.491 9.491 0 01-.648-.594 7.258 7.258 0 01-.539-.594l-.108-.139-.085-.092v-.046l-.093-.132a13.029 13.029 0 01-.918-1.542c-.131-.255-.262-.509-.378-.772l-.092-.208-.147-.355a18.449 18.449 0 01-.586-1.82 22.779 22.779 0 01-.424-1.898l-.07-.455v-.123c0-.324-.069-.64-.1-.957a22.56 22.56 0 010-3.748c0-.278.085-.571.092-.857v.131a1.43 1.43 0 010-.185c0-.162.054-.331.085-.493.108-.57.247-1.135.417-1.69a13.2 13.2 0 01.254-.771c0-.07.054-.139.078-.2a.18.18 0 000 .046.679.679 0 00.054-.124v-.077c.01-.03.026-.06.046-.085.203-.442.44-.867.709-1.272.07-.216.17-.317.224-.41zM56.356 197.222l-.046.039s.038-.023.046-.039z" fill="#3F4F5F"/><path d="M48.002 231.509c.17-3.525.162-7.065.324-10.591.092-2.02.224-4.041.44-6.055.046-.455.1-.918.161-1.38v-.371c.047-.301.085-.594.132-.894.154-.965.324-1.929.532-2.893a35.265 35.265 0 011.658-5.5l.1-.231c.1-.224.209-.448.317-.671.193-.402.4-.772.617-1.181.216-.408.432-.709.663-1.056.119-.175.242-.353.37-.533l.224-.27c-.285.394 0 0 .093-.108.53-.648 1.119-1.247 1.758-1.789l.548-.44.347-.27c.47-.355.941-.709 1.427-1.049a60.351 60.351 0 015.546-3.494 83.446 83.446 0 016.04-3.047l1.59-.702.77-.316.085-.039.1-.038.44-.185c1.096-.448 2.191-.888 3.294-1.304 4.474-1.705 9.04-3.186 13.615-4.582 8.917-2.731 17.965-5.114 26.689-8.423a124.52 124.52 0 002.946-1.173 1.69 1.69 0 001.275-1.427 1.706 1.706 0 00-.351-1.272 1.708 1.708 0 00-1.826-.571c-8.609 3.556-17.641 5.985-26.55 8.654-9.257 2.77-18.513 5.701-27.145 10.082a56.542 56.542 0 00-11.377 7.359c-2.854 2.461-4.56 6.032-5.647 9.573-2.314 7.597-2.252 15.751-2.46 23.619-.124 4.366-.41 8.724-.533 13.113a532.156 532.156 0 00-.262 15.682v2.746h3.402c-.07-9.689.193-19.331.648-28.973zm8.354-34.279l-.047.038.047-.038z" fill="#3F4F5F"/><path d="M43.906 260.466v.772a1.698 1.698 0 002.897 1.2c.319-.319.497-.75.497-1.2v-.772h-3.394zM136.562 195.255l-.185.062a.407.407 0 01.185-.062zM85.567 260.551a1.745 1.745 0 001.18 2.091 1.715 1.715 0 002.09-1.188l.07-.448c0-.177.054-.362.085-.54h-3.41a.41.41 0 00-.015.085zM167.139 261.454a1.73 1.73 0 002.082 1.188 1.79 1.79 0 001.258-1.636 1.6 1.6 0 00-.07-.455.603.603 0 000-.085h-3.579c.1.355.201.656.309.988zM204.512 261.006l.092.448a1.709 1.709 0 002.091 1.188 1.737 1.737 0 001.18-2.091.402.402 0 000-.085h-3.448c.015.178.054.355.085.54zM124.622 261.006a1.602 1.602 0 00.817 1.466 1.73 1.73 0 002.314-.61c.255-.478.556-.941.857-1.396h-3.911a1.795 1.795 0 00-.077.54zM257.705 260.466v.772a1.705 1.705 0 001.697 1.697 1.729 1.729 0 001.697-1.697v-.772h-3.394zM253.671 203.74z" fill="#3F4F5F"/><path d="M260.45 232.551c-.385-7.12-.185-14.24-1.288-21.305a34.228 34.228 0 00-3.209-10.591 17.428 17.428 0 00-3.008-4.204 34.737 34.737 0 00-5.137-4.034c-7.783-5.4-16.669-8.994-25.579-12.072-8.909-3.078-18.235-5.677-27.144-9.102-1.026-.394-2.044-.772-3.085-1.219a13.411 13.411 0 00-1.404-6.032 8.226 8.226 0 00-3.641-3.394c-.257-2.201-.46-4.405-.609-6.611-.34-4.852-.525-9.703-.633-14.563 0-1.018-.039-2.036-.054-3.085a1.715 1.715 0 00-.216-.772c.178-.308.363-.617.532-.925a34.393 34.393 0 004.011-10.722c.633-3.749.664-7.567.903-11.355a10.148 10.148 0 007.667-2.931 16.201 16.201 0 003.942-7.289c.727-2.7.962-5.51.694-8.293-.254-2.514-.848-5.175-2.314-7.258a7.882 7.882 0 00-2.376-2.23.928.928 0 00.062-.13 53.48 53.48 0 002.977-28.95c-1.527-8.269-5.299-16.437-11.416-22.215a28.541 28.541 0 00-11.447-6.734 1.72 1.72 0 00-2.09 1.188 1.745 1.745 0 001.188 2.09c.432.124.864.263 1.288.417l.632.239.355.139h.139a25.633 25.633 0 014.775 2.707l.54.394.169.13.132.101c.37.301.732.602 1.087.91a33.765 33.765 0 013.857 4.12l.062.084.139.178c.138.177.27.362.408.555.288.39.566.792.834 1.203a49.072 49.072 0 011.542 2.523 39.894 39.894 0 014.181 11.246 41.13 41.13 0 01.918 6.618 49.954 49.954 0 01-.054 6.943 47.172 47.172 0 01-1.173 7.575 55.149 55.149 0 01-2.314 7.551c-.019.061-.034.123-.046.185a7.656 7.656 0 00-1.604.193 1.702 1.702 0 00-1.18 2.083 1.732 1.732 0 002.082 1.188l.34-.07h.979c.207.044.411.103.61.178l.231.115c.108.062.216.14.324.216a.608.608 0 01.177.108h.054l.209.193c.169.162.324.34.478.517.054.077.116.154.17.24a9.672 9.672 0 01.717 1.288.56.56 0 01.054.123l.123.3a14.107 14.107 0 01.664 2.392c0 .146.054.3.077.455.023.154.046.293.054.362.005.067.005.134 0 .201 0 .139 0 .286.046.424 0 .324.046.648.062.965v1.882c0 .624-.085 1.234-.154 1.85v.132l-.07.455c-.062.324-.123.648-.193.98a22.267 22.267 0 01-.493 1.82c-.101.293-.201.586-.309.88l-.116.285a.39.39 0 010 .108c-.038.085-.046.108-.054.1a.641.641 0 000 .062 14.708 14.708 0 01-.864 1.62c-.146.231-.293.47-.455.694a1.05 1.05 0 01-.092.108.11.11 0 01-.039.069l-.077.101a.163.163 0 000 .054c-.034.045-.07.089-.108.131-.433.49-.908.942-1.419 1.35h.046l-.077.054-.046.038-.054.039a3.454 3.454 0 01-.394.262 8.655 8.655 0 01-.817.463l-.155.069-.401.147a7.87 7.87 0 01-.949.247h-.239l-.378.046h-.825c0-.231 0-.455.054-.686a1.704 1.704 0 00-1.697-1.697 1.74 1.74 0 00-1.697 1.697c-.378 4.165-.44 8.353-.841 12.511 0 .393-.077.771-.123 1.173v.2c0 .216-.062.432-.1.648a22.617 22.617 0 01-.479 2.26 33.974 33.974 0 01-.717 2.314c-.162.432-.332.864-.501 1.288v.047c-.047.092-.085.192-.124.285l-.339.771a43.013 43.013 0 01-2.808 5.169c-.239.362-.486.725-.771 1.079-.132.193-.27.378-.409.564l-.154.208-.178.231a1.325 1.325 0 01-.108.139c-.077.108-.162.208-.239.309l-.424.509c-.317.37-.641.771-.964 1.103a39.114 39.114 0 01-2.037 2.036c-.347.316-.694.625-1.049.926l-.602.501-.285.216-.085.077-.077.054a31.382 31.382 0 01-5.346 3.279c-.223.115-.455.223-.686.324l-.417.185h-.061c-.509.216-1.034.416-1.543.601a30.143 30.143 0 01-3.371.98c-.54.116-1.072.224-1.62.316l-.825.131h-.131l-.586.07a32.27 32.27 0 01-3.664.169c-.602 0-1.204 0-1.798-.077l-.856-.077-.478-.007h-.324a29.429 29.429 0 01-3.541-.71 33.375 33.375 0 01-3.355-1.057l-.771-.301-.394-.162-.1-.085c-.556-.254-1.111-.501-1.651-.771a39.886 39.886 0 01-5.97-3.702l-.077-.054-.317-.247-.617-.502c-.447-.378-.887-.771-1.319-1.149a49.268 49.268 0 01-2.368-2.36c-.355-.394-.709-.772-1.049-1.204a16.728 16.728 0 01-.47-.586l-.209-.255-.162-.223c-.609-.772-1.18-1.651-1.704-2.515a26.396 26.396 0 01-1.366-2.561l-.324-.717a.244.244 0 010-.054c-.054-.139-.115-.27-.169-.409a35.566 35.566 0 01-.563-1.543 49.633 49.633 0 01-1.628-6.232 75.614 75.614 0 01-.555-3.248c-.039-.239-.07-.478-.108-.717v-.131-.27c-.062-.502-.124-1.003-.178-1.504-.285-2.623-.478-5.261-.517-7.891v-.402a1.695 1.695 0 00-2.897-1.199 1.695 1.695 0 00-.497 1.199c0 1.998.132 4.004.301 5.994a72.673 72.673 0 002.075 12.673 36.655 36.655 0 002.314 6.434c.488 1.015 1.04 2 1.651 2.946a97.327 97.327 0 010 13.831 64.116 64.116 0 01-2.083 12.48 50.068 50.068 0 01-2.183 6.349 1.698 1.698 0 001.188 2.082 1.743 1.743 0 002.083-1.187c3.394-8.038 4.559-16.97 4.628-25.61v-3.27a39.54 39.54 0 008.624 7.143c8.647 5.299 19.353 6.942 29.019 3.525a34.438 34.438 0 0014.895-10.745c.038 1.666.092 3.34.154 5.006.177 4.867.432 9.757.964 14.602a24.989 24.989 0 00-2.538-.108h-30.206c-.839-.02-1.678.004-2.515.069-2.839.27-5.399 1.373-7.081 3.787-1.682 2.415-1.813 5.4-1.797 8.177l.038 5.592v3.163a39.366 39.366 0 00-6.387 2.568l-.177.124a97.08 97.08 0 01-10.437-3.679l-.3-.132-.671-.285-1.165-.525a117.633 117.633 0 01-4.628-2.252 1.701 1.701 0 00-2.322.609 1.696 1.696 0 00.609 2.322 98.278 98.278 0 0016.083 6.626 24.437 24.437 0 00-2.314 4.405c-.579 1.35-1.196 2.684-1.813 4.019a8.483 8.483 0 00-7.497.192 7.55 7.55 0 00-3.04 2.692 9.208 9.208 0 00-1.01 3.271v.069a9.06 9.06 0 00-4.713-.285 10.15 10.15 0 00-4.304 2.314 14.623 14.623 0 00-2.237 2.646c-.316.432-.61.879-.903 1.319h-.262c-.617.092-1.234.193-1.844.316-.51.079-1.013.2-1.504.363a5.513 5.513 0 00-2.02 1.411c-2.392 2.469-3.024 6.063-3.534 9.326-.683 4.315-1.362 8.627-2.036 12.936-.771 4.697-1.743 9.356-2.638 14.031-1.003 5.222-1.944 10.46-2.7 15.72h3.41c1.303-8.739 3.178-17.371 4.736-26.072.81-4.551 1.35-9.14 2.167-13.691.263-1.481.456-2.97.772-4.443.153-.781.346-1.554.578-2.315.108-.354.24-.702.37-1.049a.691.691 0 01.047-.108l.054-.123c.092-.185.185-.37.285-.548.1-.177.2-.347.309-.517l.146-.223.132-.162c.239-.27.485-.525.77-.772l.047-.038.193-.131c.208-.054.416-.124.625-.17.655-.154 1.319-.27 1.99-.378l.44-.069h.262a1.944 1.944 0 01-.262-.07l-.047-.038c.093 0 .178.061.27.077a1.718 1.718 0 001.69-.772 58.65 58.65 0 011.45-2.113l.308-.417.201-.262c.131-.17.27-.339.409-.501.217-.24.449-.467.694-.679l.308-.255c.17-.123.34-.246.517-.354a5.346 5.346 0 012.121-.888l.301-.054h1.049c.047 0 .371.062.425.07.686.162 1.359.376 2.013.64l.278.131.262.124a1.725 1.725 0 001.69-.013 1.728 1.728 0 00.863-1.453v-.663c0-.224.039-.432.062-.648 0 0 0-.324.046-.401v-.047c.088-.609.227-1.211.417-1.797.038-.116.27-.571.046-.139.054-.1.092-.2.154-.301.031-.061.068-.121.108-.177l.039-.069c.077-.078.169-.155.185-.178l.378-.355.193-.162h.046c.287-.2.586-.382.895-.547.046 0 .408-.185.378-.178l.324-.115c.192-.062.393-.116.586-.162l.393-.07h.378c.211-.011.422-.011.633 0h.27c.185.039.37.07.555.124l.579.185.308.139c.45.216.879.475 1.281.771a1.695 1.695 0 002.314-.609c.771-1.605 1.481-3.217 2.206-4.829.594-1.312 1.103-2.669 1.812-3.926a8.653 8.653 0 011.08-1.543c.232-.255.502-.471.725-.718l.054-.038c.132-.085.255-.178.386-.255a12.459 12.459 0 011.605-.894l.192-.085.394-.155c.316-.123.632-.246.949-.354.655-.239 1.319-.463 1.982-.687v8.578a6.118 6.118 0 00-2.484-.695c-2.7-.046-4.829 2.315-5.569 4.721a5.535 5.535 0 00.177 3.857 6.518 6.518 0 002.392 2.414 88.391 88.391 0 005.114 3.51 6.475 6.475 0 00-1.443.957 7.883 7.883 0 00-.509.509c-1.72-1.636-3.51-3.209-5.075-4.999a1.716 1.716 0 00-2.407 0 1.736 1.736 0 000 2.399c1.828 2.083 3.957 3.857 5.932 5.816a5.836 5.836 0 00-.093 1.504 5.4 5.4 0 00.772 2.7 8.688 8.688 0 001.805 1.921c.501.393 1.01.771 1.542 1.111v.408a6.285 6.285 0 00-1.666 1.998 8.493 8.493 0 00.046 7.537c0 .069.085.138.116.208-.037.289-.002.583.1.856a6.94 6.94 0 00-.918.602 5.213 5.213 0 00-1.843 4.103 8.16 8.16 0 002.314 5.184 28.682 28.682 0 004.713 3.98 45.517 45.517 0 002.222 1.489l-.224.308a.59.59 0 01-.054.077c-.201.24-.394.486-.602.726-.416.462-.848.917-1.296 1.349-.447.432-.972.918-1.481 1.35-.239.201-.478.401-.725.594l-.139.108-.347.263c-2.368 1.735-4.844 2.437-7.497 3.656a15.443 15.443 0 00-4.081 2.561 17.987 17.987 0 00-2.569 3.085c-.331.48-.637.977-.917 1.489a1.583 1.583 0 00-.124.316h3.911a1.02 1.02 0 00.1-.146c.154-.224.316-.455.486-.679l.039-.054.37-.448c.414-.491.866-.95 1.35-1.373l.177-.146.371-.255c.37-.239.771-.455 1.133-.663a28.462 28.462 0 012.315-1.095l.817-.348 1.227-.501c.817-.347 1.643-.679 2.437-1.08a16.367 16.367 0 002.692-1.766 31.2 31.2 0 003.14-2.739c.88-.864 1.678-1.81 2.383-2.823 1.389.772 2.777 1.543 4.15 2.376 3.787 2.237 7.598 4.458 11.254 6.896.317.208.633.424.941.648l.185.139.324.262c.23.199.449.41.656.633.068.068.133.14.193.216v.054l.062.069c.038 0 .046.062.046.069.169.248.324.506.463.772l.208.416c.032.063.06.127.085.193.016.024.029.05.038.077.135.305.254.616.355.934.054.146.101.293.147.439h3.579c-.771-2.406-1.651-4.782-3.687-6.425a42.654 42.654 0 00-4.05-2.777 247.37 247.37 0 00-5.6-3.425c-3.263-1.951-6.595-3.78-9.843-5.739a61.433 61.433 0 01-2.098-1.342l-.979-.687-.525-.385-.2-.154h-.039l-.085-.062a37.49 37.49 0 01-2.206-1.875 11.118 11.118 0 01-1.026-1.056l-.146-.185-.124-.17a7.33 7.33 0 01-.385-.617 4.734 4.734 0 01-.24-.479.31.31 0 010-.061c0-.108-.077-.216-.108-.324a4.163 4.163 0 01-.092-.424v-.594a.85.85 0 010-.101v-.038c0-.116.062-.27.069-.301.008-.031.039-.124.062-.185l.208-.347.124-.139.162-.154.077-.078.293-.169.154-.077c.147-.047.301-.101.455-.139l.239-.054a8.46 8.46 0 011.08 0l4.883 2.993 12.589 7.49 2.846 1.743a1.71 1.71 0 002.314-.61 1.735 1.735 0 00-.609-2.314l-7.806-4.79-12.427-7.621-1.543-.933c-.038 0-.077-.07-.116-.116-.038-.046-.161-.177-.239-.262l-.038-.046c-.139-.201-.27-.409-.394-.618a3.246 3.246 0 01-.324-.655s.124.331.062.154l-.077-.208c0-.116-.085-.239-.116-.363a6.538 6.538 0 01-.169-.679c0-.069-.054-.431 0-.146.054.285 0-.154 0-.247a6.408 6.408 0 010-.679v-.308a.273.273 0 010-.07s0-.231.046-.285c.046-.054 0-.193.062-.293.061-.1.131-.417.2-.617l.147-.293.146-.24c0-.046.131-.185.17-.239l.193-.2.231-.209.563-.316h.108l.34-.092c.077 0 .524-.116.231-.047-.293.07.116 0 .208 0 .149-.007.299-.007.448 0h.254l6.534 3.857 11.069 6.441 2.522 1.489a1.703 1.703 0 001.883-.114 1.695 1.695 0 00.325-2.378 1.677 1.677 0 00-.495-.439l-6.943-4.104-11.061-6.526-2.561-1.496a1.613 1.613 0 00-.455-.17c-1.188-.771-2.414-1.481-3.571-2.314l-.51-.363-.1-.077-.092-.069c-.286-.247-.571-.486-.841-.771-.108-.108-.208-.224-.309-.34l-.046-.046a.353.353 0 000-.046l-.224-.378a.85.85 0 000-.101c0-.084-.092-.678-.077-.347v-.547a3.85 3.85 0 010-.402l.1-.455c.016-.069.078-.231.124-.347l.17-.339c.077-.131.169-.247.246-.378.078-.131.139-.17.216-.247.078-.077.24-.208.34-.316l.123-.085c.131-.085.262-.154.401-.231l.201-.093c.139-.046.278-.077.409-.108h.655c1.172.25 2.326.574 3.456.972.115.037.234.06.355.069l5.669 3.14 12.157 6.749 2.8 1.543a1.706 1.706 0 001.323.243 1.697 1.697 0 00.39-3.167l-7.66-4.257-12.157-6.742-2.8-1.543a1.914 1.914 0 00-.439-.162c-2.523-1.543-5.022-3.085-7.452-4.775-.47-.324-.941-.648-1.404-.987l-.563-.417a.903.903 0 01-.146-.108 1.349 1.349 0 00-.17-.131 4.765 4.765 0 01-.478-.408l-.155-.232a2.11 2.11 0 00-.077-.301v-.362-.27c0-.093 0 0 0 0 .062-.255.124-.502.209-.772a.495.495 0 010-.077c.054-.1.092-.2.146-.301a9.2 9.2 0 01.401-.64c.085-.092.162-.185.255-.27a9.11 9.11 0 00.262-.254c.108-.07.255-.185.401-.27h.093l.139-.047.27-.061h.439l.178.054a15.18 15.18 0 001.758.833c1.319.617 2.631 1.249 3.942 1.882a438.982 438.982 0 018.4 4.212c5.955 3.031 11.871 6.17 17.788 9.256 5.546 2.908 11.092 5.824 16.692 8.647l1.859.926c1.065.532 2.646-.093 2.553-1.466a99.08 99.08 0 01-.139-10.483c.062-1.805.17-3.61.34-5.399.046-.417.085-.841.139-1.265 0-.216.046-.425.077-.641v-.277c0-.093.038-.317.046-.332 0-.193.1-.725.154-1.057.054-.332.124-.725.193-1.087.119-.618.273-1.229.463-1.829.039-.115.077-.231.123-.347.114-.193.215-.394.301-.601l.124-.193.138-.147a2.7 2.7 0 00.301-.193l.209-.061h1.118l.363.092h.061c.093.044.183.093.27.147l.101.069.123.108c.093.085.17.17.255.262l.177.263c.132.211.25.43.355.655v.047c.046.115.092.231.131.347.092.277.177.555.254.833.139.563.24 1.134.332 1.705v.061l.046.417c0 .316.054.64.078.964 0 .602.054 1.203.061 1.797.039 2.924-.154 5.84-.108 8.755a135.714 135.714 0 002.6 23.141c1.465 7.714 3.278 15.373 4.836 23.079.139.695.27 1.381.409 2.075h3.448c-1.543-8.053-3.448-16.044-5.037-24.097a134.777 134.777 0 01-2.761-23.372c-.07-3.086.115-6.171.092-9.318 0-2.484-.146-5.161-1.103-7.483a6.935 6.935 0 00-2.314-3.139 5.4 5.4 0 00-3.379-.91c-.444.02-.884.092-1.311.216v-5.323-5.554a52.588 52.588 0 004.204-2.661 1.7 1.7 0 00.609-2.322 1.698 1.698 0 00-2.321-.609c-.772.571-1.628 1.103-2.469 1.628v-.255-3.564c8.393 3.379 17.086 5.909 25.671 8.74 4.412 1.458 8.809 3.001 13.113 4.782l.471.193.069.039.772.331 1.712.772c1.034.47 2.052.956 3.086 1.458a82.581 82.581 0 016.055 3.347c.967.592 1.91 1.204 2.831 1.836l1.38.972.679.502.34.254.3.232a20.704 20.704 0 012.029 1.735c.27.27.525.556.771.849.054.061.324.424.255.324.108.146.216.293.316.447.452.658.859 1.346 1.219 2.06.185.365.363.735.532 1.11v.077c.025.071.053.141.085.209l.255.648a34.784 34.784 0 011.442 5.137c.193.941.355 1.89.502 2.839 0 .2.054.408.084.617 0 .108 0 .223.039.339.062.486.116.972.17 1.45.192 1.882.324 3.764.408 5.647.162 3.332.178 6.664.301 10.027.162 4.281.409 8.562.525 12.843.128 4.86.2 9.717.216 14.572v2.414h3.394c.116-9.341-.046-18.667-.556-27.954zM118.219 198.68s.038-.062.092-.116l-.092.116zm17.857-13.553c0 .016-.154.101 0 0zm3.124 47.632l.038-.039-.038.039zm4.682-11.964h-.1.1zm-7.505-25.493l.185-.062a.392.392 0 00-.185.062zm48.943-31.757h-.047.047zm-.301-34.565c0 .061-.046.108 0 0zm-39.918 35.12s-.039 0-.085.054l.085-.054zm43.551 10.19l-.046 8.099-.077 11.2v2.268l-.047.131a20.42 20.42 0 00-.887 4.127 81.628 81.628 0 00-.601 5.716c-.242 3.61-.299 7.229-.17 10.845a897.312 897.312 0 01-14.448-7.467c-6.171-3.224-12.342-6.471-18.513-9.626a563.595 563.595 0 00-8.762-4.389l-2.199-1.049v-.618l-.077-11.385c0-2.731-.038-5.453-.054-8.184 0-1.196-.038-2.399 0-3.602 0-.486.039-.972.085-1.45v-.34c.046-.254.085-.509.139-.771.106-.487.242-.966.409-1.435a.495.495 0 000-.077 2.69 2.69 0 00.108-.239c.108-.223.229-.439.362-.648l.185-.293.039-.047c.17-.185.332-.378.517-.555.185-.177.177-.162.27-.239.247-.154.486-.324.771-.463l.363-.185h.061c.301-.108.602-.208.918-.293.317-.085.648-.139.98-.193h.255l.632-.046c1.921-.085 3.857 0 5.778 0h27.159c.409 0 .81 0 1.211.054h.232l.532.092c.305.061.606.138.902.232.139.036.278.082.417.139l.147.054h.054c.237.113.469.239.694.378l.316.208a7.147 7.147 0 01.617.586l.185.216.085.1c.123.193.247.386.363.594l.185.347a.68.68 0 00.061.131c.155.317 0-.084 0-.084.147 0 .409 1.249.448 1.411.038.162.1.455.139.679.038.224.038.231.061.339v.047c.09.843.134 1.69.132 2.537.084 1.011.077 2.075.069 3.148zm7.829 25.856v-.155a.803.803 0 010 .155zm-1.944-4.451h-.092.092zM114.524 52.992a1.737 1.737 0 002.091-1.21c.216-.664.447-1.312.694-1.96.301-.771.455-1.165.771-1.79a40.49 40.49 0 011.798-3.57 45.854 45.854 0 012.075-3.333c.339-.514.686-1 1.041-1.458l.293-.393.177-.224c.216-.285.44-.563.664-.84a59.97 59.97 0 015.33-5.694 74.276 74.276 0 014.482-3.895l.771-.617c.123-.108.254-.208.386-.308a35.851 35.851 0 015.445-3.356c.448-.224.903-.44 1.358-.648l.648-.285.208-.093.517-.2a41.157 41.157 0 013.155-1.096 35.376 35.376 0 013.263-.825 40.437 40.437 0 011.643-.3l.555-.078h.239l.548-.062a30.406 30.406 0 016.541 0h.085l.525.077.917.17c.556.113 1.111.252 1.667.417.586.162 1.172.362 1.743.578l.362.147.193.084.71.332c.547.274 1.08.575 1.597.903.262.16.519.329.771.509l.324.231.139.1a22.893 22.893 0 012.661 2.6 1.712 1.712 0 002.399 0 1.744 1.744 0 000-2.399c-6.333-7.567-16.97-8.485-26.018-6.24a39.348 39.348 0 00-12.566 5.546 60.447 60.447 0 00-6.132 4.913 63.363 63.363 0 00-5.754 5.77 47.707 47.707 0 00-9.504 16.43 1.708 1.708 0 001.188 2.068z" fill="#3F4F5F"/><path d="M139.933 87.264a1.678 1.678 0 001.013 1.57 1.675 1.675 0 10.653-3.213 1.659 1.659 0 00-1.666 1.643zM169.314 87.264a1.676 1.676 0 001.981 1.676 1.672 1.672 0 001.242-2.278 1.674 1.674 0 00-3.223.602zM157.675 112.141h.308c.45-.004.881-.18 1.203-.494a1.7 1.7 0 000-2.399 1.747 1.747 0 00-1.203-.501h-2.515a1.713 1.713 0 00-1.697 1.697c.003.451.183.883.502 1.203.32.312.748.488 1.195.494h2.207zM151.504 124.884l-.224-.085h-.054l-.532-.247a17.97 17.97 0 01-2.121-1.219 1.717 1.717 0 00-2.315.61 1.746 1.746 0 00.61 2.314 17.658 17.658 0 0010.028 3.039 15.559 15.559 0 009.804-3.78 1.704 1.704 0 000-2.399 1.74 1.74 0 00-2.399 0l-.363.301-.355.263c-.316.216-.64.424-.972.617a11.42 11.42 0 01-1.002.532l-.409.185-.363.139c-.691.254-1.404.447-2.129.578l-.439.077-.355.039c-.394.039-.772.054-1.18.054h-1.103l-.556-.046h-.262a21.609 21.609 0 01-2.191-.509c-.347-.193-.74-.286-1.118-.463zM184.039 74.367a31.472 31.472 0 005.932 3.996 1.698 1.698 0 001.712-2.931 28.56 28.56 0 01-2.537-1.466c-.401-.262-.772-.524-1.181-.771l-.57-.425-.077-.061-.332-.263a30.255 30.255 0 01-4.158-4.096l-.401-.485-.247-.309c-.301-.393-.594-.771-.879-1.211a37.151 37.151 0 01-1.543-2.492 26.257 26.257 0 01-1.28-2.614l-.116-.286a10.79 10.79 0 01-.285-.771 38.099 38.099 0 01-.463-1.342 30.002 30.002 0 01-.818-3.194l-.139-.771-.046-.309v-.224a24.745 24.745 0 01-.17-1.666 1.9 1.9 0 00-.663-1.334 1.69 1.69 0 00-.687-2.098 1.718 1.718 0 00-2.314.61 37.958 37.958 0 01-4.057 7.088l-.27.355-.231.308-.178.224-.37.463c-.424.509-.856 1.003-1.304 1.489a37.949 37.949 0 01-2.769 2.7 24.92 24.92 0 01-1.543 1.257l-.162.123-.354.262c-.27.209-.548.401-.826.602a40.386 40.386 0 01-6.919 3.888l-.409.177-.216.085c-.324.139-.648.262-.972.386-.609.239-1.226.455-1.843.663a45.733 45.733 0 01-3.479.987 84.533 84.533 0 009.619-11.57c.548-.771 1.08-1.605 1.604-2.414a108.88 108.88 0 001.543-2.461 1.702 1.702 0 00-.605-2.326 1.701 1.701 0 00-2.326.606 94.438 94.438 0 01-1.443 2.314 37.869 37.869 0 01-1.041 1.543c-.216.308-.432.609-.656.91l-.385.509c-.047.062-.093.131-.147.193l-.062.085a54.691 54.691 0 01-1.465 1.782 52.742 52.742 0 01-6.649 6.471l-.88.694h-.038l-.193.147-.509.386c-.648.478-1.304.94-1.967 1.388a52.982 52.982 0 01-3.973 2.438 56.077 56.077 0 01-4.165 2.09l-.517.224-.401.231-1.064.432a29.54 29.54 0 01-2.183.771c-1.443.494-2.908.91-4.389 1.28a69.667 69.667 0 0010.722-13.36 66.996 66.996 0 003.139-5.676 1.701 1.701 0 00-.114-1.883 1.702 1.702 0 00-1.121-.655 1.7 1.7 0 00-1.696.825 68.12 68.12 0 01-5.801 9.665c-1.087 1.543-2.044 2.723-3.317 4.204a80.291 80.291 0 01-3.857 4.173 73.625 73.625 0 01-4.782 4.281 1.692 1.692 0 00-.355 1.852 1.673 1.673 0 001.543 1.049 54.762 54.762 0 0018.867-5.901c.702-.363 1.389-.772 2.068-1.142.011.063.027.125.046.185a1.654 1.654 0 001.543 1.042 48.647 48.647 0 0016.607-5.053 39.065 39.065 0 0012.597-10.42 41.403 41.403 0 002.746-3.989 31.827 31.827 0 0010.621 18.536zm-5.584-13.229c-.108-.247 0-.061 0 0z" fill="#3F4F5F"/><path d="M89.023 260.466c0 .178-.061.363-.084.54h35.714c.001-.183.029-.365.084-.54H89.023zM124.83 260.15c.28-.512.587-1.009.918-1.489a17.942 17.942 0 012.569-3.085 15.454 15.454 0 014.08-2.561c2.654-1.219 5.13-1.921 7.498-3.656l.347-.263.139-.108a26.94 26.94 0 002.206-1.944c.478-.47.879-.887 1.296-1.349.208-.24.401-.486.601-.726a.59.59 0 00.054-.077l.224-.308a36.874 36.874 0 01-2.221-1.489 28.689 28.689 0 01-4.714-3.98 8.17 8.17 0 01-2.314-5.184 5.224 5.224 0 011.844-4.103c.29-.225.596-.426.918-.602a1.783 1.783 0 01-.1-.856c0-.07-.085-.139-.116-.209a8.477 8.477 0 01-.046-7.536 6.272 6.272 0 011.666-1.998v-.408a29.993 29.993 0 01-1.543-1.111 8.711 8.711 0 01-1.805-1.921 5.389 5.389 0 01-.771-2.7 5.791 5.791 0 01.092-1.504c-1.974-1.944-4.103-3.733-5.932-5.816a1.74 1.74 0 010-2.399 1.716 1.716 0 012.407 0c1.543 1.79 3.356 3.363 5.076 4.999.159-.18.329-.35.509-.51a6.522 6.522 0 011.442-.956 89.598 89.598 0 01-5.114-3.51 6.522 6.522 0 01-2.391-2.414 5.53 5.53 0 01-.178-3.857c.772-2.414 2.87-4.767 5.57-4.721a6.113 6.113 0 012.483.695v-8.578c-.663.224-1.326.447-1.982.687-.316.108-.632.231-.949.354l-.393.155-.193.084a12.66 12.66 0 00-1.597.841c-.131.077-.254.17-.385.255l-.054.038c-.224.247-.494.463-.725.718-.415.473-.778.99-1.08 1.542-.71 1.258-1.219 2.615-1.813 3.927a553.516 553.516 0 01-2.206 4.828 1.696 1.696 0 01-2.314.61 8.084 8.084 0 00-1.281-.772l-.308-.138-.579-.186c-.185-.054-.37-.084-.555-.123h-.27a6.075 6.075 0 00-.633 0h-.378l-.393.07c-.193.046-.393.1-.586.161l-.324.116s-.332.147-.378.178a8.88 8.88 0 00-.895.547h-.046l-.193.162-.378.355s-.108.1-.185.177l-.039.07a1.52 1.52 0 00-.108.177c-.061.101-.1.201-.154.301.224-.432 0 0-.046.139-.19.586-.329 1.187-.417 1.797v.047c0 .077-.046.37-.046.401 0 .216-.046.432-.062.648-.015.216 0 .439 0 .663a1.728 1.728 0 01-.863 1.453 1.721 1.721 0 01-1.69.013l-.262-.124-.278-.131a13.933 13.933 0 00-2.013-.64c-.054 0-.378-.054-.424-.07h-1.05l-.3.054a5.363 5.363 0 00-2.122.887c-.177.108-.347.232-.516.355l-.309.255a8.086 8.086 0 00-.694.679c-.139.162-.278.331-.409.501l-.201.262-.308.417a58.65 58.65 0 00-1.45 2.113 1.717 1.717 0 01-.731.635c-.3.137-.633.184-.959.137-.092 0-.177-.054-.27-.077l.047.038c.085.029.173.053.262.07h-.131c.177 0 .254.061-.039 0h-.262l-.44.069c-.671.108-1.334.224-1.99.378-.208.046-.416.116-.625.17l-.192.131-.047.038c-.27.255-.517.509-.771.772l-.131.162-.147.223c-.108.17-.216.34-.308.517-.093.178-.193.363-.286.548l-.054.123c0-.054 0-.054-.054.116-.13.347-.262.694-.37 1.049a23.26 23.26 0 00-.578 2.314c-.294 1.473-.486 2.962-.772 4.443-.817 4.551-1.357 9.141-2.167 13.692-1.543 8.701-3.433 17.332-4.736 26.072h35.714c.051-.085.11-.165.177-.239zm-7.906-15.196a5.522 5.522 0 01-6.449-1.134 9.163 9.163 0 01-2.237-7.127 25.851 25.851 0 011.373-6.387c.197-.563.426-1.114.687-1.651 0-.092.084-.177.123-.262-.378-.347-.771-.671-1.165-1.003a65.456 65.456 0 01-5.777-5.654 1.74 1.74 0 010-2.407 1.713 1.713 0 012.399 0 64.032 64.032 0 006.171 5.978c.771.656 1.604 1.265 1.835 2.314.12.601.05 1.224-.2 1.782-.131.332-.278.656-.432.98 0 .077-.077.154-.108.231l-.062.139a25.34 25.34 0 00-.879 2.916 21.07 21.07 0 00-.324 1.543c0 .177-.07.362-.1.547-.031.185-.039.247-.062.378a12.465 12.465 0 00-.1 1.705c0 .255 0 .501.046.771-.004.08-.004.16 0 .24v.223a4.802 4.802 0 001.165 2.399c.131.131.262.247.401.37h.061l.355.201c.152.033.301.074.448.123h.385.232c.181-.065.367-.119.555-.162l.232-.123c.197-.106.388-.225.57-.355h.047l.046-.046.208-.178c.17-.162.332-.331.486-.501l.085-.1.069-.085c.132-.201.263-.393.378-.594.116-.201.232-.447.34-.671.108-.224.131-.301.254-.617a36.6 36.6 0 00.525-1.543c.671-2.26 1.095-4.628 1.967-6.803a19.23 19.23 0 01.864-1.921c.215-.39.367-.812.447-1.25V226.634s0-.193-.038-.27c-.039-.077 0-.177 0-.17-.047-.2-.116-.385-.178-.578a.603.603 0 000-.085.461.461 0 01-.046-.077c-.054-.093-.093-.193-.147-.285a11.328 11.328 0 00-.879-1.389c-.147-.208-.309-.416-.463-.625l-.038-.046-.078-.1-.216-.278a87.053 87.053 0 00-2.398-2.916c-1.697-1.974-3.464-3.903-5.138-5.901a1.752 1.752 0 010-2.406 1.71 1.71 0 012.399 0c1.975 2.368 4.073 4.628 6.048 6.981.972 1.164 1.936 2.314 2.815 3.579a9.173 9.173 0 011.682 3.517 6.599 6.599 0 01-.509 3.996c-.155.347-.34.679-.509 1.018-.054.108-.101.224-.155.332-.054.108-.046.108-.061.131l-.054.146c-.216.54-.409 1.088-.587 1.643-.733 2.376-1.149 4.844-2.075 7.159a12.447 12.447 0 01-.879 1.797h.054c.177.054.355.077.524.123h.849c.201 0 .424 0 .633-.038l.293-.039c.408-.077.817-.162 1.218-.278l.556-.177.146-.062h.039l.44-.231.2-.131.085-.07c.17-.162.347-.324.501-.501.155-.177.201-.224.301-.339l.108-.139c.054-.062.178-.239.201-.27l.185-.278c.146-.208.278-.432.409-.648.262-.432.501-.872.725-1.327.426-.824.807-1.672 1.141-2.537a42.776 42.776 0 001.327-4.135 45.909 45.909 0 001.111-5.214v-.178c0-.092 0-.185.038-.277.039-.093 0-.371.054-.548 0-.394.062-.771.07-1.18.019-.357.019-.715 0-1.072v-.324c.003-.06.003-.119 0-.178 0-.085-.17-.409-.208-.578a.092.092 0 01-.009-.039c0-.013.003-.026.009-.039a6.283 6.283 0 00-.193-.385 18.191 18.191 0 00-1.042-1.697c-.223-.324-.462-.648-.694-.964l-.316-.417c.239.324-.131-.162-.193-.239a59.576 59.576 0 00-1.543-1.882c-1.951-2.314-4.049-4.474-5.955-6.811a1.745 1.745 0 010-2.399 1.7 1.7 0 012.399 0c2.314 2.846 4.906 5.461 7.213 8.323a30.087 30.087 0 012.923 4.103 8.272 8.272 0 011.119 4.135 26.406 26.406 0 01-.656 5.546c-.367 1.8-.83 3.58-1.389 5.33a36.828 36.828 0 01-2.128 5.253c-.949 1.874-2.176 3.926-4.035 5.029a10.668 10.668 0 01-5.006 1.273 6.051 6.051 0 01-3.726-.98 6.653 6.653 0 01-1.133.633z" fill="#fff"/><path d="M118.335 198.564c-.054.054-.101.108-.093.116l.093-.116zM97.6 212.904a.773.773 0 00.055-.116.663.663 0 00-.054.116zM136.076 185.12c-.154.108 0 .023 0 0z" fill="#fff"/><path d="M102.907 209.626c.27.061.193-.031 0 0zM97.647 212.796a.783.783 0 01-.054.116c.085-.17.077-.17.054-.116z" fill="#3F4F5F"/><path d="M188.652 174.29v-3.209a23.133 23.133 0 00-.131-2.538v-.046c0-.108-.038-.224-.062-.34-.023-.115-.084-.455-.138-.678-.054-.224-.301-1.397-.448-1.412 0 0 .185.401 0 .085a.745.745 0 01-.062-.131l-.185-.347c-.115-.209-.239-.402-.362-.594l-.085-.101-.185-.216a7.353 7.353 0 00-.556-.532.393.393 0 00-.061-.054l-.317-.208a7.5 7.5 0 00-.694-.378h-.054l-.146-.054a3.236 3.236 0 00-.417-.139 8.518 8.518 0 00-.902-.231l-.533-.093h-.231c-.401 0-.771-.054-1.211-.054h-27.144c-1.921 0-3.857-.069-5.778 0l-.632.046h-.255c-.332.054-.656.116-.98.193-.323.077-.617.185-.917.293h-.062l-.363.185c-.262.139-.501.309-.771.463a4.112 4.112 0 00-.27.239c-.085.085-.347.371-.517.556l-.038.046-.186.293a6.956 6.956 0 00-.362.648 2.237 2.237 0 01-.108.239.495.495 0 010 .077c-.167.469-.303.949-.409 1.435-.054.255-.092.509-.139.772v.339a18.32 18.32 0 00-.085 1.45v3.602c0 2.731.039 5.454.054 8.185l.07 11.408v.617l2.198 1.049a500.655 500.655 0 018.763 4.389c6.171 3.155 12.342 6.402 18.513 9.627 4.798 2.525 9.613 5.014 14.447 7.467a106.06 106.06 0 01.17-10.846c.129-1.913.329-3.818.602-5.716.152-1.402.449-2.785.887-4.126l.046-.132v-2.267l.069-11.201-.023-8.06zm-41.777-1.288a3.999 3.999 0 013.992-3.821 3.999 3.999 0 013.992 3.821v3.741a3.978 3.978 0 01-3.973 3.972 3.979 3.979 0 01-4.011-3.972v-3.741z" fill="#78DED1"/><path d="M145.017 164.154c.046 0 .084-.062.084-.054l-.084.054zM131.363 221.227c0-.046-.038-.1-.062-.146a.33.33 0 000 .077c.047.108.147.216.062.069z" fill="#fff"/><path d="M126.82 243.982c1.859-1.103 3.086-3.155 4.034-5.029a36.833 36.833 0 002.129-5.253 51.008 51.008 0 001.389-5.33 26.34 26.34 0 00.655-5.546 8.271 8.271 0 00-1.118-4.135 30.007 30.007 0 00-2.924-4.103c-2.314-2.862-4.898-5.477-7.212-8.323a1.695 1.695 0 00-2.399 0 1.743 1.743 0 000 2.399c1.906 2.314 4.004 4.512 5.955 6.811a44.91 44.91 0 011.543 1.882c.062.077.432.563.193.239l.316.417c.231.316.471.64.694.964.378.546.726 1.112 1.042 1.697.069.123.131.254.192.385 0 0 .039.101.062.147.023.046 0 .039-.054-.069.039.169.193.493.208.578.004.059.004.118 0 .177v.324c.019.358.019.716 0 1.073 0 .393-.038.771-.069 1.18 0 .177-.039.362-.054.547-.015.186 0 .186-.039.278v.116a46.123 46.123 0 01-1.11 5.214c-.373 1.4-.815 2.78-1.327 4.135a25.887 25.887 0 01-1.142 2.538c-.223.455-.463.894-.725 1.326-.131.216-.262.44-.409.648l-.185.278s-.146.208-.2.27l-.108.139c-.101.116-.193.231-.301.339-.108.108-.332.34-.502.502l-.084.069-.201.131-.44.232h-.038l-.147.061-.555.178c-.401.115-.81.2-1.219.277l-.293.039c-.208 0-.417 0-.633.039-.215.038-.408 0-.609 0h-.239c-.17-.047-.347-.07-.525-.124h-.054c.341-.575.635-1.176.88-1.797.925-2.314 1.342-4.783 2.075-7.158.177-.556.37-1.103.586-1.643l.054-.147s0-.069.062-.131c.061-.062.1-.224.154-.332.17-.339.355-.671.509-1.018a6.598 6.598 0 00.509-3.996 9.171 9.171 0 00-1.681-3.517c-.88-1.234-1.844-2.414-2.816-3.579-1.975-2.361-4.073-4.628-6.047-6.981a1.715 1.715 0 00-2.399 0 1.75 1.75 0 000 2.407c1.674 1.997 3.44 3.926 5.137 5.901.818.956 1.617 1.928 2.399 2.915l.216.278.077.1.039.047c.154.208.316.416.462.624.327.441.621.905.88 1.389.054.092.092.193.146.285a.466.466 0 00.047.077.603.603 0 010 .085c.061.193.131.378.177.579v.169c0 .078.039.27.039.27v.587c-.081.438-.232.86-.448 1.249a19.565 19.565 0 00-.864 1.921c-.871 2.198-1.296 4.543-1.967 6.803a19.909 19.909 0 01-.524 1.543c-.124.316-.185.463-.255.617a6.838 6.838 0 01-.339.671c-.131.216-.247.394-.378.594v.046l-.062.07-.085.1c-.154.17-.316.34-.486.502l-.208.177-.046.046h-.046a5.43 5.43 0 01-.571.355l-.232.124a4.635 4.635 0 00-.555.161h-.617a4.298 4.298 0 00-.448-.123l-.354-.2h-.062c-.139-.124-.27-.24-.401-.371a4.798 4.798 0 01-1.165-2.399v-.223a2.401 2.401 0 010-.24c0-.254 0-.501-.046-.771-.005-.57.028-1.139.1-1.705 0-.131.039-.254.062-.378.023-.123.061-.37.1-.547.093-.509.201-1.011.324-1.543a25.54 25.54 0 01.879-2.916l.062-.139c0-.077.069-.154.108-.231.154-.324.301-.648.432-.98.25-.558.32-1.181.201-1.781-.232-1.034-1.073-1.643-1.836-2.315a64.028 64.028 0 01-6.171-5.978 1.713 1.713 0 00-2.399 0 1.744 1.744 0 000 2.407 65.594 65.594 0 005.777 5.654c.386.332.772.656 1.165 1.003-.038.085-.085.17-.123.262-.261.537-.49 1.088-.687 1.651a25.851 25.851 0 00-1.373 6.387 9.182 9.182 0 002.237 7.127 5.525 5.525 0 006.449 1.134 6.714 6.714 0 001.134-.679 6.048 6.048 0 003.725.98 10.674 10.674 0 004.991-1.196zm-15.126-7.844c0 .2 0 .061 0 0z" fill="#3F4F5F"/><path d="M131.301 221.081a.1.1 0 000 .077.33.33 0 010-.077z" fill="#3F4F5F"/><path d="M117.008 240.642l.062-.069-.062.069z" fill="#fff"/><path d="M117.077 240.557l-.069.085.062-.069.007-.016z" fill="#3F4F5F"/><path d="M150.855 177.321a.574.574 0 00.452-.146.583.583 0 00.196-.433v-3.741a.586.586 0 00-.578-.578.6.6 0 00-.617.578v3.741a.585.585 0 00.547.579z" fill="#fff"/><path d="M150.856 180.715a3.98 3.98 0 003.972-3.973v-3.741a3.994 3.994 0 00-6.754-2.711 3.994 3.994 0 00-1.229 2.711v3.741a3.968 3.968 0 001.179 2.821 3.991 3.991 0 002.832 1.152zm-.586-7.714a.605.605 0 01.189-.416.604.604 0 01.835.009.586.586 0 01.171.407v3.741a.586.586 0 01-.578.579.589.589 0 01-.587-.579l-.03-3.741z" fill="#3F4F5F"/><path d="M204.002 258.391c-1.543-7.713-3.371-15.358-4.836-23.079a135.714 135.714 0 01-2.6-23.141c-.046-2.916.147-5.831.108-8.755 0-.594 0-1.195-.062-1.797 0-.324-.046-.648-.077-.964l-.046-.417v-.062a21.618 21.618 0 00-.332-1.704 17.271 17.271 0 00-.254-.833 6.645 6.645 0 00-.131-.347v-.047a6.271 6.271 0 00-.355-.655l-.178-.263c-.085-.092-.162-.177-.254-.262l-.124-.108-.1-.069a2.706 2.706 0 00-.27-.147h-.062l-.362-.092h-1.119l-.208.061a2.795 2.795 0 01-.301.193l-.139.147-.123.193a4.817 4.817 0 01-.301.601 6.27 6.27 0 00-.123.347c-.19.6-.344 1.211-.463 1.828-.07.363-.131.726-.193 1.088-.062.363-.131.864-.154 1.057 0 0-.046.347-.046.332v.277c0 .216-.054.424-.078.64-.054.425-.092.849-.138 1.265a90.609 90.609 0 00-.34 5.4 99.084 99.084 0 00.139 10.483c.093 1.373-1.489 1.998-2.553 1.465l-1.859-.925c-5.6-2.823-11.146-5.739-16.692-8.647-5.917-3.086-11.833-6.217-17.788-9.257a700.012 700.012 0 00-8.362-4.173c-1.311-.632-2.622-1.265-3.941-1.882a14.931 14.931 0 01-1.705-.81l-.177-.054h-.047a.598.598 0 01-.169 0h-.34l-.27.062-.139.046h-.092c-.147.085-.293.201-.401.27-.085.085-.178.162-.263.255-.084.092-.169.177-.254.27a8.625 8.625 0 00-.401.64c-.054.1-.093.201-.147.301a.989.989 0 000 .077 7.083 7.083 0 00-.208.771v.633c.033.098.059.199.077.301.046.069.154.216.154.231.151.147.31.283.479.409.06.039.117.083.169.131.046.04.095.076.147.108l.563.417c.463.339.933.663 1.404.987 2.43 1.666 4.929 3.24 7.451 4.775.153.035.301.09.44.162l2.8 1.542 12.157 6.742 7.659 4.258a1.691 1.691 0 01.859 1.035 1.704 1.704 0 01-.164 1.335 1.7 1.7 0 01-2.407.554l-2.8-1.543-12.157-6.75-5.67-3.139a1.584 1.584 0 01-.354-.069 27.83 27.83 0 00-3.456-.972H141.367c-.131 0-.27.061-.409.108l-.2.092c-.139.077-.27.147-.401.232l-.124.084c-.1.108-.231.209-.339.317-.108.108-.147.162-.216.246-.069.085-.17.247-.247.378l-.17.34c-.046.116-.084.231-.123.347-.038.116-.085.432-.1.455a3.353 3.353 0 000 .401v.548c0-.332.062.262.077.347a.834.834 0 010 .1l.224.378a.353.353 0 010 .046l.046.047c.1.115.2.231.308.339.27.27.556.509.841.772l.093.069.1.077.509.363c1.157.81 2.384 1.542 3.572 2.314.159.033.312.09.455.169l2.522 1.489 11.061 6.526 6.943 4.104c.192.112.361.261.495.439a1.682 1.682 0 01.33 1.256 1.697 1.697 0 01-2.538 1.236l-2.545-1.543-11.062-6.526-6.533-3.857h-.255a4.76 4.76 0 00-.447 0c-.093 0-.471.07-.208 0 .262-.069-.155 0-.232.047l-.339.092h-.108l-.563.317-.232.208-.192.2c-.039.054-.147.193-.17.239l-.147.24-.146.293c-.07.2-.147.409-.201.617-.054.208-.046.193-.061.293-.016.1-.047.293-.047.285a.273.273 0 000 .07v.308a6.99 6.99 0 000 .679c0 .093.039.532 0 .247-.038-.285 0 .077 0 .146.045.23.102.456.17.679 0 .124.077.247.116.363l.077.208c.061.178-.054-.162-.062-.154.083.23.192.45.324.656.123.208.255.416.393.617l.039.046c.077.085.154.177.239.262l.116.116 1.543.933 12.426 7.621 7.806 4.79a1.737 1.737 0 01.61 2.315 1.712 1.712 0 01-2.314.609l-2.854-1.659-12.427-7.628-4.883-2.993a8.46 8.46 0 00-1.08 0l-.239.054c-.154 0-.308.092-.455.139l-.154.077-.293.169-.077.078-.162.154-.124.139-.208.347c0 .062 0 .123-.062.185-.061.062-.046.185-.069.301a.488.488 0 010 .108v.216c0 .108.038.37 0 .378.023.143.054.284.092.424 0 .108.077.216.108.324a.321.321 0 000 .062c.07.162.155.316.239.478.085.162.247.416.386.617l.124.17.146.185c.318.374.661.728 1.026 1.057.71.648 1.45 1.272 2.206 1.874l.085.062h.039l.2.154.525.386.979.686c.695.463 1.389.91 2.098 1.342 3.248 1.96 6.58 3.788 9.843 5.739a280.313 280.313 0 015.6 3.425 42.841 42.841 0 014.05 2.777c2.036 1.643 2.9 4.019 3.687 6.425h34.032c-.177-.632-.308-1.319-.447-2.013zM170.379 260.466a.603.603 0 010 .085c.045.148.068.301.069.455h34.033c0-.177-.07-.362-.1-.54h-34.002z" fill="#fff"/><path d="M196.482 200.145a.792.792 0 000-.154s-.008.093 0 .154zM137.063 195.186c-.038-.016-.031-.008 0 0zM138.9 233.584a.834.834 0 000 .1v-.1zM139.239 232.72l-.039.039.039-.039zM136.562 195.255a.407.407 0 00-.185.062l.185-.062zM138.899 233.584a.086.086 0 010-.039c.008-.054 0-.077 0 .039z" fill="#fff"/><path d="M165.388 257.504c0 .108.115.185.123.162l-.123-.162zM138.899 233.584v.069a.487.487 0 000-.108.086.086 0 000 .039zM137.233 195.255h-.146a.594.594 0 00.146 0z" fill="#3F4F5F"/></g><defs><clipPath id="clip0_1286_41840"><path fill="#fff" d="M0 0h320v262.942H0z"/></clipPath></defs></svg>