<svg width="8" height="5" viewBox="0 0 8 5" fill="none" xmlns="http://www.w3.org/2000/svg">
  <path
    fillRule="evenodd"
    clipRule="evenodd"
    d="M0.531775 3.30151C0.447196 3.38061 0.379127 3.47569 0.331496 3.58124C0.283866 3.6868 0.25762 3.80075 0.254273 3.9165C0.250925 4.03226 0.270544 4.14753 0.311995 4.25567C0.353446 4.3638 0.415909 4.46265 0.495775 4.54651C0.830275 4.89901 1.38828 4.91401 1.74378 4.58251L3.95028 2.51626L6.15678 4.58251C6.32758 4.74214 6.55449 4.8279 6.78818 4.82116C7.02187 4.81442 7.24346 4.71572 7.40478 4.54651C7.4846 4.4626 7.547 4.36371 7.58839 4.25555C7.62978 4.14739 7.64933 4.0321 7.64591 3.91635C7.64249 3.80059 7.61618 3.68665 7.56848 3.58112C7.52079 3.47559 7.45266 3.38056 7.36803 3.30151L4.55553 0.667507C4.39121 0.51403 4.17475 0.428663 3.9499 0.428663C3.72505 0.428663 3.50859 0.51403 3.34428 0.667507L0.531775 3.30151Z"
    fill="#3F4F5F"
  />
</svg>