<svg width="10" height="8" viewBox="0 0 10 8" fill="none" xmlns="http://www.w3.org/2000/svg">
  <path
    d="M9.78559 2.07559L6.15406 7.40056C6.01744 7.58718 5.84246 7.7382 5.64244 7.84209C5.44243 7.94597 5.22268 8 5 8C4.77732 8 4.55759 7.94597 4.35758 7.84209C4.15756 7.7382 3.98256 7.58718 3.84594 7.40056L0.214408 2.07559C0.0817126 1.86678 0.00755976 1.6223 0.000547787 1.37056C-0.00646419 1.11881 0.0539637 0.870143 0.174806 0.653384C0.295648 0.436624 0.471953 0.26068 0.683244 0.146002C0.894535 0.0313239 1.13215 -0.0173847 1.36849 0.00551605H8.63153C8.86787 -0.0173847 9.10548 0.0313239 9.31677 0.146002C9.52807 0.26068 9.70437 0.436624 9.82521 0.653384C9.94605 0.870143 10.0065 1.11881 9.99945 1.37056C9.99244 1.6223 9.91829 1.86678 9.78559 2.07559Z"
    fill="#3F4F5F"
  />
</svg>