<svg width="24" height="26" viewBox="0 0 24 26" fill="none" xmlns="http://www.w3.org/2000/svg">
<mask id="mask0_1_84" style="mask-type:luminance" maskUnits="userSpaceOnUse" x="0" y="0" width="24" height="25">
<path d="M0 0.73999H24V24.74H0V0.73999Z" fill="white"/>
</mask>
<g mask="url(#mask0_1_84)">
<path fill-rule="evenodd" clip-rule="evenodd" d="M3.96 11.788C4.1743 9.98238 4.98997 8.30141 6.27569 7.01568C7.56142 5.72996 9.24239 4.91429 11.048 4.69999V5.59699C11.048 5.84948 11.1483 6.09162 11.3268 6.27016C11.5054 6.44869 11.7475 6.54899 12 6.54899C12.2525 6.54899 12.4946 6.44869 12.6732 6.27016C12.8517 6.09162 12.952 5.84948 12.952 5.59699V4.69999C14.7576 4.91429 16.4386 5.72996 17.7243 7.01568C19.01 8.30141 19.8257 9.98238 20.04 11.788H19.619C19.3665 11.788 19.1244 11.8883 18.9458 12.0668C18.7673 12.2454 18.667 12.4875 18.667 12.74C18.667 12.9925 18.7673 13.2346 18.9458 13.4132C19.1244 13.5917 19.3665 13.692 19.619 13.692H20.039C19.8247 15.4975 19.0092 17.1783 17.7237 18.464C16.4382 19.7497 14.7574 20.5655 12.952 20.78V19.407C12.952 19.1545 12.8517 18.9124 12.6732 18.7338C12.4946 18.5553 12.2525 18.455 12 18.455C11.7475 18.455 11.5054 18.5553 11.3268 18.7338C11.1483 18.9124 11.048 19.1545 11.048 19.407V20.78C9.24239 20.5657 7.56142 19.75 6.27569 18.4643C4.98997 17.1786 4.1743 15.4976 3.96 13.692H5.333C5.58549 13.692 5.82763 13.5917 6.00617 13.4132C6.1847 13.2346 6.285 12.9925 6.285 12.74C6.285 12.4875 6.1847 12.2454 6.00617 12.0668C5.82763 11.8883 5.58549 11.788 5.333 11.788H3.96ZM2 12.74C2 18.263 6.477 22.74 12 22.74C17.523 22.74 22 18.263 22 12.74C22 7.21699 17.523 2.73999 12 2.73999C6.477 2.73999 2 7.21699 2 12.74ZM12.952 8.92999C12.952 8.6775 12.8517 8.43536 12.6732 8.25682C12.4946 8.07829 12.2525 7.97799 12 7.97799C11.7475 7.97799 11.5054 8.07829 11.3268 8.25682C11.1483 8.43536 11.048 8.6775 11.048 8.92999V12.776C11.048 13.031 11.15 13.276 11.333 13.456L13.238 15.325C13.4201 15.4926 13.6603 15.5828 13.9077 15.5764C14.1551 15.5701 14.3904 15.4678 14.5637 15.2911C14.737 15.1144 14.8348 14.8772 14.8363 14.6297C14.8379 14.3822 14.7431 14.1438 14.572 13.965L12.952 12.376V8.92999Z" fill="#03AFB9"/>
</g>
</svg>
