<svg width="342" height="45" viewBox="0 0 342 45" fill="none" xmlns="http://www.w3.org/2000/svg">
<g clip-path="url(#clip0_1_72)">
<g clip-path="url(#clip1_1_72)">
<g clip-path="url(#clip2_1_72)">
<mask id="mask0_1_72" style="mask-type:luminance" maskUnits="userSpaceOnUse" x="0" y="0" width="342" height="45">
<path d="M0.0308228 0H341.259V44.24H0.0308228V0Z" fill="white"/>
</mask>
<g mask="url(#mask0_1_72)">
<path d="M34.4437 7.00951C34.4437 7.13642 34.5271 7.21257 34.6685 7.21257C35.6404 7.21257 35.9994 7.44827 36.2061 7.65134C36.4092 7.85442 36.6449 8.21341 36.6449 9.18887C36.6449 9.35565 36.75 9.41372 36.8479 9.41372C36.9748 9.41372 37.0509 9.33031 37.0509 9.18887C37.0509 8.21341 37.2867 7.85442 37.4897 7.65134C37.6928 7.44827 38.0518 7.21257 39.0273 7.21257C39.2376 7.21257 39.2521 7.05664 39.2521 7.00951C39.2521 6.9116 39.1941 6.80643 39.0273 6.80643C38.0518 6.80643 37.6928 6.57435 37.4897 6.36766C37.2867 6.16459 37.0509 5.80197 37.0509 4.83014C37.0509 4.68871 36.9748 4.60531 36.8479 4.60531C36.75 4.60531 36.6449 4.66333 36.6449 4.83014C36.6449 5.80197 36.4092 6.16096 36.2061 6.36766C36.003 6.57073 35.644 6.80643 34.6685 6.80643C34.5271 6.80643 34.4437 6.88258 34.4437 7.00951ZM44.5936 16.8076H43.4694L43.0887 17.4204C43.0488 17.4857 42.9727 17.5219 42.8964 17.5183C42.8203 17.511 42.7515 17.4603 42.7224 17.3914L42.0879 15.8285L41.5294 17.812C41.504 17.9027 41.4243 17.9643 41.33 17.9643C41.2357 17.9643 41.1559 17.899 41.1305 17.8084L40.7389 16.2672L40.4887 16.775C40.4524 16.8474 40.3798 16.891 40.3037 16.891H39.1615C39.9991 18.084 41.5257 19.1683 41.8521 19.1683C42.1785 19.1683 43.774 18.0368 44.6008 16.8112L44.5936 16.8076ZM31.5935 6.36766H32.7575C32.9207 6.36766 33.0549 6.50183 33.0549 6.66501V6.9116C33.0549 7.04939 33.1745 7.15455 33.3087 7.1328C34.3821 6.96236 35.2415 5.74395 35.2234 4.48202C35.2089 3.48118 34.3821 2.68341 33.3812 2.68341H31.637C30.6035 2.68341 29.7369 3.52832 29.755 4.55817C29.7732 5.55901 30.589 6.36403 31.5972 6.36403L31.5935 6.36766ZM36.2677 10.139L33.7584 8.68844C32.7321 8.09737 31.4158 8.46725 30.8538 9.51888C30.3171 10.5269 30.716 11.7817 31.7059 12.3546L34.4002 13.9103C34.538 13.99 34.7157 13.9429 34.7954 13.8051L36.2677 11.2522L37.74 13.8014C37.8197 13.9392 37.9974 13.9864 38.1352 13.9066L40.8803 12.3219C41.9065 11.7309 42.2437 10.4 41.6091 9.38828C41.0036 8.42373 39.7235 8.14089 38.7372 8.7102L36.2677 10.1353V10.139ZM37.9974 28.0416C37.2903 28.0416 36.7137 28.6146 36.7137 29.3253C36.7137 30.0361 37.2867 30.609 37.9974 30.609C38.7082 30.609 39.2811 30.0361 39.2811 29.3253C39.2811 28.6146 38.7082 28.0416 37.9974 28.0416ZM28.0145 7.85078C28.0145 7.94144 28.076 7.99584 28.1776 7.99584C28.8775 7.99584 29.1349 8.16264 29.2836 8.31131C29.4287 8.45637 29.5991 8.71745 29.5991 9.41731C29.5991 9.53695 29.6752 9.58054 29.7442 9.58054C29.8348 9.58054 29.8892 9.51888 29.8892 9.41731C29.8892 8.71745 30.056 8.46 30.2046 8.31131C30.3497 8.16627 30.6072 7.99584 31.3107 7.99584C31.463 7.99584 31.4738 7.88342 31.4738 7.85078C31.4738 7.78189 31.4303 7.70574 31.3107 7.70574C30.6108 7.70574 30.3534 7.53893 30.2046 7.39026C30.0596 7.24158 29.8892 6.98411 29.8892 6.28426C29.8892 6.18272 29.8348 6.12107 29.7442 6.12107C29.6752 6.12107 29.5991 6.16459 29.5991 6.28426C29.5991 6.98411 29.4323 7.24158 29.2836 7.39026C29.1349 7.53531 28.8775 7.70574 28.1776 7.70574C28.076 7.70574 28.0145 7.76013 28.0145 7.85078ZM18.0713 5.28342C18.0713 5.3632 18.0496 5.44297 18.0097 5.51549L17.4947 6.42568C17.4621 6.48007 17.4621 6.54897 17.4875 6.60336C17.5129 6.66138 17.5673 6.70127 17.6289 6.71578L17.8573 6.77742C17.9336 6.79918 17.9915 6.86445 17.9988 6.94423L18.0967 7.89431C18.0967 7.99946 18.1475 8.09737 18.2236 8.16627C18.3034 8.23517 18.4049 8.2678 18.5101 8.25693L18.7965 8.27869C18.851 8.27143 18.909 8.28956 18.9489 8.32582C18.9888 8.36209 19.0141 8.41648 19.0141 8.47087V9.02569C19.0141 9.18524 19.1447 9.31575 19.3043 9.31575H21.0158C21.1753 9.31575 21.3059 9.18524 21.3059 9.02569V8.74284C21.3059 8.57966 21.3639 8.20253 21.4691 8.03209C21.8607 7.40838 22.615 7.07478 22.7201 5.79471C22.8289 4.51466 22.0638 3.2636 20.4937 3.16569C19.1665 3.08229 18.0459 3.91996 18.0713 5.27979V5.28342ZM22.6258 7.8798C22.2234 7.8798 21.897 8.21341 21.9079 8.61592C21.9187 9.01118 22.2633 9.31575 22.6585 9.31575H24.3156C24.4753 9.31575 24.6058 9.18524 24.6058 9.02569V8.16627C24.6058 8.00671 24.4753 7.87617 24.3156 7.87617H22.6258V7.8798ZM14.8766 8.16989V9.02931C14.8766 9.18887 15.0072 9.31943 15.1667 9.31943H16.8239C17.2192 9.31943 17.5673 9.0148 17.5745 8.61955C17.5854 8.21341 17.2591 7.88342 16.8565 7.88342H15.1667C15.0072 7.88342 14.8766 8.01397 14.8766 8.17352V8.16989ZM40.2566 13.6056C39.3464 13.6056 38.5232 14.4397 38.6066 15.5819C38.6284 15.8684 38.7372 16.1729 38.9004 16.474H40.1732L40.612 15.5747C40.6518 15.4949 40.7316 15.4514 40.8186 15.4587C40.9056 15.4658 40.9782 15.5275 40.9999 15.6145L41.3408 16.9526L41.8558 15.1286C41.8811 15.0416 41.9537 14.9835 42.0443 14.9763C42.1314 14.9727 42.2148 15.0234 42.2474 15.1069L42.9581 16.8547L43.1866 16.4884C43.2228 16.4269 43.2917 16.3906 43.3606 16.3906H44.8474C44.9888 16.115 45.0795 15.8394 45.1012 15.5783C45.1882 14.4361 44.3614 13.602 43.4513 13.602C42.5882 13.602 42.0225 14.0625 41.8558 14.5992C41.689 14.0625 41.1232 13.602 40.2602 13.602L40.2566 13.6056ZM39.5567 24.8179H41.3517C42.3888 24.8179 43.2228 23.9585 43.1866 22.9141C43.1503 21.9206 42.3054 21.1445 41.3082 21.1445H39.5567C39.3971 21.1445 39.2666 21.2751 39.2666 21.4346V24.5242C39.2666 24.6837 39.3971 24.8143 39.5567 24.8143V24.8179ZM27.0028 7.8798H25.3129C25.1533 7.8798 25.0228 8.01034 25.0228 8.16989V9.02931C25.0228 9.18887 25.1533 9.31943 25.3129 9.31943H26.97C27.3653 9.31943 27.7134 9.0148 27.7207 8.61955C27.7316 8.21341 27.4052 7.88342 27.0028 7.88342V7.8798ZM36.9023 31.8238V34.083C36.9023 34.5108 37.2468 34.8553 37.6747 34.8553H39.9338C40.3618 34.8553 40.7062 34.5108 40.7062 34.083V31.8238C40.7062 31.3959 40.3618 31.0514 39.9338 31.0514H37.6747C37.2468 31.0514 36.9023 31.3959 36.9023 31.8238ZM37.9757 32.7123H38.5631V32.1248C38.5631 31.9906 38.6719 31.8818 38.8061 31.8818C38.9403 31.8818 39.049 31.9906 39.049 32.1248V32.7123H39.6365C39.7707 32.7123 39.8794 32.821 39.8794 32.9552C39.8794 33.0893 39.7707 33.1982 39.6365 33.1982H39.049V33.7856C39.049 33.9197 38.9403 34.0286 38.8061 34.0286C38.6719 34.0286 38.5631 33.9197 38.5631 33.7856V33.1982H37.9757C37.8415 33.1982 37.7327 33.0893 37.7327 32.9552C37.7327 32.821 37.8415 32.7123 37.9757 32.7123ZM23.8951 6.01591C24.4063 6.49095 25.0373 7.09653 26.3246 7.5752C26.4515 7.62233 26.5857 7.52805 26.5857 7.39388V6.98412C26.5857 6.89346 26.6474 6.81369 26.738 6.79555C28.1776 6.4982 29.2583 5.25078 29.2583 3.75315C29.2583 2.03794 27.8331 0.645469 26.078 0.645469C24.3229 0.645469 22.8978 2.03794 22.8978 3.75315C22.8978 4.6452 23.2822 5.45022 23.8987 6.01591H23.8951ZM27.5901 3.28174C27.8548 3.28174 28.0724 3.49206 28.0724 3.74952C28.0724 4.00698 27.8585 4.21731 27.5901 4.21731C27.3218 4.21731 27.1079 4.00698 27.1079 3.74952C27.1079 3.49206 27.3218 3.28174 27.5901 3.28174ZM26.078 3.28174C26.3427 3.28174 26.5604 3.49206 26.5604 3.74952C26.5604 4.00698 26.3463 4.21731 26.078 4.21731C25.8097 4.21731 25.5957 4.00698 25.5957 3.74952C25.5957 3.49206 25.8097 3.28174 26.078 3.28174ZM24.5659 3.28174C24.8306 3.28174 25.0482 3.49206 25.0482 3.74952C25.0482 4.00698 24.8343 4.21731 24.5659 4.21731C24.2976 4.21731 24.0836 4.00698 24.0836 3.74952C24.0836 3.49206 24.2976 3.28174 24.5659 3.28174ZM37.9974 17.7541C38.3202 17.7541 38.5813 17.493 38.5813 17.1702C38.5813 16.8474 38.3202 16.5864 37.9974 16.5864C37.6747 16.5864 37.4136 16.8474 37.4136 17.1702C37.4136 17.493 37.6747 17.7541 37.9974 17.7541ZM34.6794 19.4982C34.7048 19.9007 35.0566 20.2053 35.459 20.2053H37.225C37.3846 20.2053 37.5152 20.0748 37.5152 19.9153V18.9833C37.5152 18.8238 37.3846 18.6932 37.225 18.6932H35.4337C34.9986 18.6932 34.6505 19.0594 34.6794 19.4982ZM34.6794 36.6213C35.5135 36.6213 36.188 36.0483 36.188 35.3412V34.4855C36.188 34.3803 36.1009 34.2933 35.9957 34.2933H31.8981C31.7929 34.2933 31.7059 34.2062 31.7059 34.101V31.1819C31.7059 31.0768 31.7929 30.9898 31.8981 30.9898H35.9957C36.1009 30.9898 36.188 30.9027 36.188 30.7976V30.5438C36.188 29.9853 35.7637 29.5103 35.1726 29.3362C35.0892 29.3108 35.0348 29.2383 35.0348 29.1513V28.669C35.0348 28.5674 34.9405 28.4877 34.8209 28.4877H31.4666C31.3469 28.4877 31.2526 28.5674 31.2526 28.669V29.1513C31.2526 29.2383 31.1947 29.3108 31.1149 29.3362C30.5238 29.5103 30.0996 29.9853 30.0996 30.5438V35.3485C30.0996 36.0556 30.774 36.6285 31.608 36.6285H34.6758L34.6794 36.6213ZM28.5838 41.223C29.7007 41.223 30.6072 40.3165 30.6072 39.1995C30.6072 38.0826 29.7007 37.1761 28.5838 37.1761C27.4669 37.1761 26.5604 38.0826 26.5604 39.1995C26.5604 40.3165 27.4669 41.223 28.5838 41.223ZM36.8407 17.1666C36.8407 16.8438 36.5796 16.5827 36.2568 16.5827C35.9341 16.5827 35.6731 16.8438 35.6731 17.1666C35.6731 17.4893 35.9341 17.7504 36.2568 17.7504C36.5796 17.7504 36.8407 17.4893 36.8407 17.1666ZM16.0043 7.41927C16.5012 7.41927 16.9037 7.01675 16.9037 6.51996C16.9037 6.02317 16.5012 5.62066 16.0043 5.62066C15.5075 5.62066 15.105 6.02317 15.105 6.51996C15.105 7.01675 15.5075 7.41927 16.0043 7.41927ZM40.786 19.4982C40.815 19.0594 40.4669 18.6932 40.0317 18.6932H38.2404C38.0808 18.6932 37.9503 18.8238 37.9503 18.9833V19.9153C37.9503 20.0748 38.0808 20.2053 38.2404 20.2053H40.0064C40.4089 20.2053 40.7607 19.9007 40.786 19.4982ZM29.8348 29.0461V26.9864C29.8348 26.5585 29.4903 26.214 29.0624 26.214H27.0028C26.5748 26.214 26.2303 26.5585 26.2303 26.9864V29.0461C26.2303 29.474 26.5748 29.8185 27.0028 29.8185H29.0624C29.4903 29.8185 29.8348 29.4704 29.8348 29.0461ZM28.8194 28.2592H28.2755V28.8031C28.2755 28.9373 28.1667 29.0461 28.0325 29.0461C27.8984 29.0461 27.7896 28.9373 27.7896 28.8031V28.2592H27.2457C27.1115 28.2592 27.0028 28.1505 27.0028 28.0163C27.0028 27.8821 27.1115 27.7733 27.2457 27.7733H27.7896V27.2294C27.7896 27.0952 27.8984 26.9864 28.0325 26.9864C28.1667 26.9864 28.2755 27.0952 28.2755 27.2294V27.7733H28.8194C28.9536 27.7733 29.0624 27.8821 29.0624 28.0163C29.0624 28.1505 28.9536 28.2592 28.8194 28.2592ZM26.2158 11.2159V12.9312C26.2158 13.0943 26.3463 13.2249 26.5096 13.2249H29.5447C29.7042 13.2249 29.8348 13.0943 29.8348 12.9348V11.1652C29.8348 10.1462 28.9899 9.32303 27.9637 9.35565C26.9809 9.38828 26.2158 10.2296 26.2158 11.2123V11.2159ZM28.0906 17.7504C29.0733 17.7142 29.8348 16.8801 29.8348 15.8974V14.1713C29.8348 14.0117 29.7042 13.8812 29.5447 13.8812H26.5023C26.3427 13.8812 26.2121 14.0117 26.2121 14.1713V15.9409C26.2121 16.9635 27.0571 17.7867 28.0869 17.7504H28.0906ZM27.6699 36.6213C28.4097 36.585 28.979 35.9504 28.979 35.2107V33.9705C28.979 33.8146 28.8521 33.6841 28.6925 33.6841H26.5132C26.3572 33.6841 26.2267 33.811 26.2267 33.9705V35.2469C26.2267 36.0266 26.8794 36.6575 27.6664 36.6213H27.6699ZM26.2303 31.6642V32.9044C26.2303 33.0604 26.3572 33.1909 26.5168 33.1909H28.6961C28.8521 33.1909 28.9826 33.064 28.9826 32.9044V31.628C28.9826 30.8484 28.33 30.2174 27.543 30.2536C26.8033 30.2899 26.234 30.9245 26.234 31.6642H26.2303ZM32.0576 14.0516C31.035 14.0516 30.2083 14.8821 30.2083 15.9011C30.2083 16.92 31.0387 17.7504 32.0576 17.7504C33.0766 17.7504 33.9071 16.92 33.9071 15.9011C33.9071 14.8821 33.0766 14.0516 32.0576 14.0516ZM32.986 15.2483L31.4049 16.8294C31.3687 16.8656 31.3179 16.8873 31.2671 16.8873C31.2164 16.8873 31.1692 16.8693 31.1293 16.8294C31.0532 16.7531 31.0532 16.6299 31.1293 16.5574L32.7104 14.9763C32.7866 14.9002 32.9098 14.9002 32.9823 14.9763C33.0585 15.0525 33.0585 15.1758 32.9823 15.2483H32.986ZM37.9685 26.5404C37.9685 25.884 37.439 25.3546 36.7826 25.3546C36.1263 25.3546 35.5968 25.884 35.5968 26.5404C35.5968 27.1967 36.1263 27.7261 36.7826 27.7261C37.439 27.7261 37.9685 27.1967 37.9685 26.5404ZM35.9957 31.8818H33.2652C32.8445 31.8818 32.5073 32.2227 32.5073 32.6397C32.5073 33.0567 32.8481 33.4012 33.2652 33.4012H35.9957C36.1009 33.4012 36.188 33.3142 36.188 33.209V32.0776C36.188 31.9724 36.1009 31.8854 35.9957 31.8854V31.8818ZM37.1344 14.65C36.8117 14.65 36.5506 14.9111 36.5506 15.2338C36.5506 15.5565 36.8117 15.8176 37.1344 15.8176C37.4571 15.8176 37.7182 15.5565 37.7182 15.2338C37.7182 14.9111 37.4571 14.65 37.1344 14.65ZM38.3093 21.1445H36.5107C35.4736 21.1445 34.6396 22.004 34.6758 23.0483C34.712 24.0419 35.557 24.8179 36.5542 24.8179H38.3057C38.4652 24.8179 38.5958 24.6874 38.5958 24.5279V21.4382C38.5958 21.2787 38.4652 21.1482 38.3057 21.1482L38.3093 21.1445ZM34.7954 15.2338C34.7954 15.5565 35.0565 15.8176 35.3793 15.8176C35.702 15.8176 35.9631 15.5565 35.9631 15.2338C35.9631 14.9111 35.702 14.65 35.3793 14.65C35.0565 14.65 34.7954 14.9111 34.7954 15.2338ZM36.2568 12.7136C35.9341 12.7136 35.6731 12.9747 35.6731 13.2973C35.6731 13.6201 35.9341 13.8812 36.2568 13.8812C36.5796 13.8812 36.8407 13.6201 36.8407 13.2973C36.8407 12.9747 36.5796 12.7136 36.2568 12.7136ZM33.9324 17.1666C33.9324 17.4893 34.1935 17.7504 34.5163 17.7504C34.8389 17.7504 35.1001 17.4893 35.1001 17.1666C35.1001 16.8438 34.8389 16.5827 34.5163 16.5827C34.1935 16.5827 33.9324 16.8438 33.9324 17.1666ZM31.191 26.3845V27.8277C31.191 27.922 31.278 27.9945 31.3904 27.9945H34.9043C35.013 27.9945 35.1037 27.9183 35.1037 27.8277V26.3845C35.1037 26.2902 35.0166 26.2176 34.9043 26.2176H31.3904C31.2817 26.2176 31.191 26.2938 31.191 26.3845ZM38.7807 35.4645H38.3854C38.3057 35.4645 38.2295 35.4936 38.1751 35.5551L37.196 36.5923C37.0981 36.6974 36.9603 36.7627 36.8153 36.7736C32.569 37.0564 32.6415 38.4235 31.6443 40.5014C30.4477 42.9926 27.3617 40.6174 25.9511 43.4785C25.8822 43.6163 25.9946 43.7758 26.1469 43.7577C30.4694 43.2101 34.3168 41.9627 37.1344 40.0082C37.9539 39.4389 38.6429 38.9421 38.3818 36.9114C38.3673 36.8099 38.2404 36.7773 38.1788 36.857C36.3076 39.2576 34.1029 40.7117 33.1855 41.2556C33.1492 41.2774 33.1165 41.2266 33.1492 41.2013C35.5788 39.341 38.1316 36.4944 38.8533 35.6241C38.904 35.5624 38.8605 35.4681 38.777 35.4645H38.7807ZM7.53712 34.8517H2.41326C2.1703 34.8517 1.83306 34.9931 1.66262 35.1635L0.364436 36.4618C0.194003 36.6322 0.0525801 36.9694 0.0525801 37.2124V43.493C0.0525801 43.7359 0.252023 43.9318 0.491354 43.9318H7.53349C7.77644 43.9318 7.97226 43.7323 7.97226 43.493V35.2904C7.97226 35.0475 7.77282 34.8517 7.53349 34.8517H7.53712ZM4.12484 41.9337C4.12484 42.0135 4.05957 42.0751 3.98341 42.0751H1.84031C1.76053 42.0751 1.69889 42.0098 1.69889 41.9337V41.6364C1.69889 41.5566 1.76416 41.4949 1.84031 41.4949H3.98341C4.06319 41.4949 4.12484 41.5566 4.12484 41.6364V41.9337ZM6.33684 40.5775C6.33684 40.6609 6.26793 40.7298 6.18453 40.7298H1.84757C1.76416 40.7298 1.69526 40.6609 1.69526 40.5775V40.3019C1.69526 40.2185 1.76416 40.1496 1.84757 40.1496H6.1809C6.26431 40.1496 6.33321 40.2185 6.33321 40.3019V40.5775H6.33684ZM6.33684 39.2322C6.33684 39.3156 6.26793 39.3845 6.18453 39.3845H1.84757C1.76416 39.3845 1.69526 39.3156 1.69526 39.2322V38.9565C1.69526 38.8732 1.76416 38.8043 1.84757 38.8043H6.1809C6.26431 38.8043 6.33321 38.8732 6.33321 38.9565V39.2322H6.33684ZM6.33684 37.8869C6.33684 37.9703 6.26793 38.0391 6.18453 38.0391H1.84757C1.76416 38.0391 1.69526 37.9703 1.69526 37.8869V37.6113C1.69526 37.5279 1.76416 37.4589 1.84757 37.4589H6.1809C6.26431 37.4589 6.33321 37.5279 6.33321 37.6113V37.8869H6.33684ZM11.2105 41.4261H8.79179C8.68663 41.4261 8.5996 41.5131 8.5996 41.6182V43.6126C8.5996 43.7759 8.73377 43.91 8.89695 43.91H11.2105C11.37 43.91 11.5006 43.7794 11.5006 43.6199V41.7125C11.5006 41.553 11.37 41.4225 11.2105 41.4225V41.4261ZM8.74102 31.3523C8.74102 30.9245 8.39653 30.58 7.96864 30.58H5.90894C5.48104 30.58 5.13655 30.9245 5.13655 31.3523V33.4121C5.13655 33.84 5.48104 34.1844 5.90894 34.1844H7.96864C8.39653 34.1844 8.74102 33.84 8.74102 33.4121V31.3523ZM7.72568 32.6252H7.18175V33.1691C7.18175 33.3033 7.07295 33.4121 6.93879 33.4121C6.80462 33.4121 6.69583 33.3033 6.69583 33.1691V32.6252H6.1519C6.01773 32.6252 5.90894 32.5164 5.90894 32.3822C5.90894 32.2481 6.01773 32.1393 6.1519 32.1393H6.69583V31.5954C6.69583 31.4612 6.80462 31.3523 6.93879 31.3523C7.07295 31.3523 7.18175 31.4612 7.18175 31.5954V32.1393H7.72568C7.85985 32.1393 7.96864 32.2481 7.96864 32.3822C7.96864 32.5164 7.85985 32.6252 7.72568 32.6252ZM11.2105 38.0754H8.89695C8.73377 38.0754 8.5996 38.2096 8.5996 38.3728V40.3672C8.5996 40.4723 8.68663 40.5594 8.79179 40.5594H11.2105C11.37 40.5594 11.5006 40.4288 11.5006 40.2693V38.3619C11.5006 38.2023 11.37 38.0717 11.2105 38.0717V38.0754ZM15.2428 41.4297H12.8242C12.6646 41.4297 12.5341 41.5603 12.5341 41.7198V43.6272C12.5341 43.7867 12.6646 43.9172 12.8242 43.9172H15.1377C15.3009 43.9172 15.435 43.7831 15.435 43.6199V41.6255C15.435 41.5203 15.348 41.4333 15.2428 41.4333V41.4297ZM12.6175 37.1834V36.0374C12.6175 35.9033 12.5087 35.7945 12.3745 35.7945H11.6601C11.5259 35.7945 11.4172 35.9033 11.4172 36.0374V37.1834C11.4172 37.3175 11.5259 37.4263 11.6601 37.4263H12.3745C12.5087 37.4263 12.6175 37.3175 12.6175 37.1834ZM1.90921 3.69513H3.86737C3.92539 3.69513 3.97253 3.64798 3.97253 3.58997V0.130544C3.97253 0.0725246 3.92539 0.0253836 3.86737 0.0253836H1.88382C0.868481 0.0253836 0.0453277 0.855791 0.0525801 1.87476C0.0598326 2.88648 0.897492 3.69513 1.90921 3.69513ZM4.74129 3.69513H6.72484C7.74381 3.69513 8.56697 2.86472 8.55971 1.84575C8.55246 0.834033 7.7148 0.0253836 6.70308 0.0253836H4.74492C4.6869 0.0253836 4.63975 0.0725246 4.63975 0.130544V3.5936C4.63975 3.65162 4.6869 3.69875 4.74492 3.69875L4.74129 3.69513ZM0.897492 18.2073C1.37615 18.2073 1.76416 17.8193 1.76416 17.3406C1.76416 16.862 1.37615 16.474 0.897492 16.474C0.418829 16.474 0.0308228 16.862 0.0308228 17.3406C0.0308228 17.8193 0.418829 18.2073 0.897492 18.2073ZM2.31535 9.00393C3.56639 9.00393 4.57811 7.99221 4.57811 6.74116C4.57811 5.49011 3.56277 4.4784 2.31535 4.4784C1.06793 4.4784 0.0525801 5.49011 0.0525801 6.74116C0.0525801 7.99221 1.06793 9.00393 2.31535 9.00393ZM46.0005 20.3359C45.094 20.3359 44.7603 20.1183 44.5682 19.9298C44.3796 19.7376 44.1621 19.4039 44.1621 18.4974C44.1621 18.3669 44.0895 18.2871 43.9735 18.2871C43.8828 18.2871 43.7849 18.3414 43.7849 18.4974C43.7849 19.4039 43.5673 19.7376 43.3787 19.9298C43.1902 20.1183 42.8529 20.3359 41.9464 20.3359C41.8159 20.3359 41.7361 20.4048 41.7361 20.5245C41.7361 20.6441 41.8159 20.713 41.9464 20.713C42.8529 20.713 43.1866 20.9306 43.3787 21.1228C43.5673 21.3113 43.7849 21.6486 43.7849 22.5551C43.7849 22.7111 43.8828 22.7654 43.9735 22.7654C44.0931 22.7654 44.1621 22.6857 44.1621 22.5551C44.1621 21.6486 44.3796 21.315 44.5682 21.1228C44.7567 20.9342 45.0904 20.713 46.0005 20.713C46.1964 20.713 46.2108 20.568 46.2108 20.5245C46.2108 20.4338 46.1565 20.3359 46.0005 20.3359ZM44.4993 25.2458C44.5754 25.2458 44.648 25.2059 44.6842 25.1407L45.54 24.0201C45.656 23.7736 45.5545 23.4762 45.3043 23.3602L45.1012 23.2659C44.8546 23.1499 44.5573 23.2513 44.4412 23.5016L43.5057 24.8215C43.4005 25.0138 43.542 25.2494 43.7595 25.2494H44.4956L44.4993 25.2458ZM45.6451 25.7027H39.0745C38.8822 25.6918 38.7191 25.8369 38.7045 26.0255L38.6973 26.1451C38.8314 27.3671 39.5676 28.4115 40.5974 28.9736C40.8005 29.0824 40.9129 29.3036 40.8839 29.532C40.8441 29.804 40.8005 29.9816 41.2537 29.9816H43.386C43.8357 29.9816 43.7958 29.804 43.7559 29.532C43.7269 29.3217 43.8393 29.1223 44.0279 29.0243C45.1084 28.4731 45.8845 27.407 46.0223 26.1451L46.015 26.0255C46.0005 25.8333 45.8374 25.6882 45.6451 25.7027ZM45.2499 29.057H44.9163C44.8764 29.057 44.8401 29.0824 44.8257 29.1223C44.6552 29.6155 43.4766 32.879 41.4025 35.577C41.4025 35.577 42.9472 32.549 43.8067 30.6707C43.8646 30.5401 43.7668 30.3951 43.6254 30.3987C42.8928 30.4096 41.863 30.6452 41.3553 31.9652C40.8658 33.2344 42.2039 34.3767 39.8939 35.577C38.8786 36.1028 38.933 37.633 39.0309 38.2821C39.0526 38.4271 39.2231 38.4924 39.3392 38.4054C40.0172 37.8905 41.9899 36.2768 43.1285 34.1373C44.6443 31.6678 45.2173 29.6807 45.3442 29.1839C45.3587 29.1223 45.3152 29.0642 45.2499 29.0642V29.057ZM6.6922 4.15203C5.78202 4.15203 4.95886 4.98607 5.04227 6.12833C5.06403 6.4148 5.17281 6.7194 5.33599 7.02038H6.6088L7.04757 6.12107C7.08746 6.0413 7.16724 5.99778 7.25426 6.00504C7.3413 6.01229 7.41382 6.07393 7.43558 6.16096L7.77644 7.49904L8.29137 5.67505C8.31675 5.59164 8.38928 5.53 8.47993 5.52275C8.56697 5.51912 8.65037 5.56989 8.68301 5.65329L9.39376 7.40113L9.62224 7.03489C9.65846 6.97324 9.7274 6.93698 9.79625 6.93698H11.283C11.4245 6.66138 11.5151 6.38579 11.5368 6.12471C11.6239 4.98244 10.7971 4.1484 9.88694 4.1484C9.02386 4.1484 8.45817 4.60894 8.29137 5.14562C8.12457 4.60894 7.55888 4.1484 6.69583 4.1484L6.6922 4.15203ZM25.03 34.645H17.0379C16.4939 34.645 16.0515 35.0874 16.0515 35.6314V39.631C16.0515 40.175 16.4939 40.6174 17.0379 40.6174H24.8161C25.3601 40.6174 25.8025 40.175 25.8025 39.631V35.421C25.8025 34.9931 25.4579 34.6486 25.03 34.6486V34.645ZM18.1112 39.4353C17.9407 39.4353 17.8066 39.2975 17.8066 39.1306C17.8066 38.9638 17.9444 38.826 18.1112 38.826C18.278 38.826 18.4158 38.9638 18.4158 39.1306C18.4158 39.2975 18.278 39.4353 18.1112 39.4353ZM18.1112 37.963C17.9407 37.963 17.8066 37.8252 17.8066 37.6584C17.8066 37.4916 17.9444 37.3538 18.1112 37.3538C18.278 37.3538 18.4158 37.4916 18.4158 37.6584C18.4158 37.8252 18.278 37.963 18.1112 37.963ZM18.1112 36.4907C17.9407 36.4907 17.8066 36.3529 17.8066 36.1861C17.8066 36.0194 17.9444 35.8815 18.1112 35.8815C18.278 35.8815 18.4158 36.0194 18.4158 36.1861C18.4158 36.3529 18.278 36.4907 18.1112 36.4907ZM20.0005 39.4353C19.8301 39.4353 19.6959 39.2975 19.6959 39.1306C19.6959 38.9638 19.8337 38.826 20.0005 38.826C20.1673 38.826 20.3051 38.9638 20.3051 39.1306C20.3051 39.2975 20.1673 39.4353 20.0005 39.4353ZM20.0005 37.963C19.8301 37.963 19.6959 37.8252 19.6959 37.6584C19.6959 37.4916 19.8337 37.3538 20.0005 37.3538C20.1673 37.3538 20.3051 37.4916 20.3051 37.6584C20.3051 37.8252 20.1673 37.963 20.0005 37.963ZM20.0005 36.4907C19.8301 36.4907 19.6959 36.3529 19.6959 36.1861C19.6959 36.0194 19.8337 35.8815 20.0005 35.8815C20.1673 35.8815 20.3051 36.0194 20.3051 36.1861C20.3051 36.3529 20.1673 36.4907 20.0005 36.4907ZM21.8897 39.4353C21.7193 39.4353 21.5851 39.2975 21.5851 39.1306C21.5851 38.9638 21.7229 38.826 21.8897 38.826C22.0565 38.826 22.1943 38.9638 22.1943 39.1306C22.1943 39.2975 22.0565 39.4353 21.8897 39.4353ZM21.8897 37.963C21.7193 37.963 21.5851 37.8252 21.5851 37.6584C21.5851 37.4916 21.7229 37.3538 21.8897 37.3538C22.0565 37.3538 22.1943 37.4916 22.1943 37.6584C22.1943 37.8252 22.0565 37.963 21.8897 37.963ZM21.8897 36.4907C21.7193 36.4907 21.5851 36.3529 21.5851 36.1861C21.5851 36.0194 21.7229 35.8815 21.8897 35.8815C22.0565 35.8815 22.1943 36.0194 22.1943 36.1861C22.1943 36.3529 22.0565 36.4907 21.8897 36.4907ZM23.779 39.4353C23.6085 39.4353 23.4744 39.2975 23.4744 39.1306C23.4744 38.9638 23.6122 38.826 23.779 38.826C23.9458 38.826 24.0836 38.9638 24.0836 39.1306C24.0836 39.2975 23.9458 39.4353 23.779 39.4353ZM23.779 37.963C23.6085 37.963 23.4744 37.8252 23.4744 37.6584C23.4744 37.4916 23.6122 37.3538 23.779 37.3538C23.9458 37.3538 24.0836 37.4916 24.0836 37.6584C24.0836 37.8252 23.9458 37.963 23.779 37.963ZM23.779 36.4907C23.6085 36.4907 23.4744 36.3529 23.4744 36.1861C23.4744 36.0194 23.6122 35.8815 23.779 35.8815C23.9458 35.8815 24.0836 36.0194 24.0836 36.1861C24.0836 36.3529 23.9458 36.4907 23.779 36.4907ZM20.9614 41.2266H19.5146C19.4711 41.2266 19.4384 41.2628 19.4384 41.3027V43.8593C19.4384 43.9028 19.4711 43.9354 19.5146 43.9354H20.9796C21.7302 43.9354 22.3394 43.3226 22.3357 42.5683C22.3285 41.8213 21.712 41.223 20.9614 41.223V41.2266ZM18.869 41.2266H17.4041C16.6534 41.2266 16.0442 41.8394 16.0479 42.5937C16.0551 43.3407 16.6716 43.939 17.4222 43.939H18.869C18.9126 43.939 18.9453 43.9064 18.9453 43.8629V41.3064C18.9453 41.2628 18.9126 41.2302 18.869 41.2302V41.2266ZM15.1304 38.0826H12.8169C12.6574 38.0826 12.5268 38.2132 12.5268 38.3728V40.2802C12.5268 40.4397 12.6574 40.5703 12.8169 40.5703H15.2356C15.3407 40.5703 15.4278 40.4832 15.4278 40.378V38.3836C15.4278 38.2205 15.2936 38.0863 15.1304 38.0863V38.0826ZM24.2685 41.2991C23.5614 41.2991 22.9848 41.8721 22.9848 42.5828C22.9848 43.2935 23.5577 43.8665 24.2685 43.8665C24.9792 43.8665 25.5522 43.2935 25.5522 42.5828C25.5522 41.8721 24.9792 41.2991 24.2685 41.2991ZM17.7957 26.9719C17.7957 26.544 17.4548 26.1995 17.0342 26.1995H10.3185C9.78178 26.1995 9.34657 26.6419 9.34657 27.1859V30.4567C9.34657 31.0006 9.78178 31.443 10.3185 31.443H16.8239C17.3606 31.443 17.7957 31.0006 17.7957 30.4567V26.9719ZM11.8414 29.4667C11.6892 29.619 11.4462 29.619 11.2939 29.4667L10.9386 29.1114L10.507 28.6799C10.3547 28.5275 10.3511 28.2846 10.4998 28.1323C10.652 27.98 10.8987 27.98 11.0509 28.1323L11.3918 28.4731L11.8414 28.9228C11.9938 29.0751 11.9938 29.318 11.8414 29.4704V29.4667ZM14.2384 29.4667C14.0861 29.619 13.8431 29.619 13.6908 29.4667L13.3354 29.1114L12.9039 28.6799C12.7517 28.5275 12.748 28.2846 12.8966 28.1323C13.049 27.98 13.2955 27.98 13.4479 28.1323L13.7887 28.4731L14.2384 28.9228C14.3907 29.0751 14.3907 29.318 14.2384 29.4704V29.4667ZM16.6353 29.4667C16.483 29.619 16.2401 29.619 16.0877 29.4667L15.7324 29.1114L15.3009 28.6799C15.1486 28.5275 15.145 28.2846 15.2936 28.1323C15.4459 27.98 15.6925 27.98 15.8448 28.1323L16.1857 28.4731L16.6353 28.9228C16.7876 29.0751 16.7876 29.318 16.6353 29.4704V29.4667ZM9.34297 19.9189V17.2681C9.34297 16.9853 9.11452 16.7568 8.83168 16.7568H8.14632C7.86348 16.7568 7.63502 16.9853 7.63502 17.2681C7.63502 18.0913 6.97142 18.6968 6.14827 18.6968H3.43222C0.973642 18.6932 0.0525801 20.3577 0.0525801 22.8198V28.3607C0.0525801 28.5965 0.24477 28.7886 0.480475 28.7886H1.16584C1.40153 28.7886 1.59373 28.5965 1.59373 28.3607V26.631C1.59373 25.8115 2.26095 25.1443 3.08048 25.1443H4.54548C7.189 25.1443 9.35026 22.5588 9.35026 19.9189H9.34297ZM3.43222 26.1995C2.72511 26.1995 2.14854 26.7725 2.14854 27.4832C2.14854 28.194 2.72148 28.7669 3.43222 28.7669C4.14297 28.7669 4.71591 28.194 4.71591 27.4832C4.71591 26.7725 4.14297 26.1995 3.43222 26.1995ZM2.31535 29.6661C1.0643 29.6661 0.0525801 30.6779 0.0525801 31.9289C0.0525801 33.18 1.06793 34.1917 2.31535 34.1917C3.56277 34.1917 4.57811 33.1764 4.57811 31.9289C4.57811 30.6815 3.56277 29.6661 2.31535 29.6661ZM4.74855 10.498V15.0307C4.74855 15.1903 4.87909 15.3209 5.03864 15.3209L7.80908 15.3136C7.85985 15.8503 8.31313 16.2709 8.86432 16.2709C9.41551 16.2709 9.86878 15.8503 9.91957 15.3136H10.6448C10.8044 15.3136 10.9349 15.183 10.9349 15.0234V10.4907C10.9349 10.3311 10.8044 10.2005 10.6448 10.2005L5.03502 10.2078C4.87546 10.2078 4.74492 10.3383 4.74492 10.498H4.74855ZM8.34939 15.0851C8.3929 14.8893 8.55246 14.7334 8.74465 14.6899C9.13266 14.6065 9.46629 14.94 9.38288 15.3281C9.33938 15.5239 9.18342 15.6799 8.98761 15.7234C8.5996 15.8104 8.26237 15.4731 8.34939 15.0851ZM11.0364 7.35762H9.91229L9.53155 7.97045C9.49164 8.03573 9.41551 8.07198 9.33938 8.06836C9.26316 8.06111 9.1943 8.01034 9.16529 7.94144L8.5307 6.37854L7.97226 8.36209C7.94688 8.45274 7.8671 8.51439 7.77282 8.51439C7.67854 8.51439 7.59876 8.44911 7.57337 8.35846L7.18175 6.81731L6.93153 7.32498C6.89528 7.39751 6.82275 7.44102 6.7466 7.44102H5.60433C6.44199 8.63405 7.96864 9.71833 8.295 9.71833C8.62136 9.71833 10.2169 8.58691 11.0436 7.36125L11.0364 7.35762ZM13.2992 7.42289C13.796 7.42289 14.1985 7.02038 14.1985 6.52358C14.1985 6.0268 13.796 5.62429 13.2992 5.62429C12.8024 5.62429 12.3999 6.0268 12.3999 6.52358C12.3999 7.02038 12.8024 7.42289 13.2992 7.42289ZM11.5042 16.9743C11.5042 17.0832 11.5259 17.1847 11.5658 17.2826C11.6275 17.424 11.7254 17.5437 11.8523 17.6307C11.9792 17.7142 12.1316 17.7649 12.2947 17.7649H17.0088C17.1176 17.7649 17.2228 17.7431 17.317 17.7033C17.4584 17.6452 17.5782 17.5437 17.6652 17.4167C17.7486 17.2898 17.7994 17.1376 17.7994 16.978V11.3283C17.7994 11.2195 17.7776 11.1144 17.7377 11.0201C17.676 10.8787 17.5782 10.759 17.4512 10.672C17.3243 10.5886 17.172 10.5378 17.0088 10.5378H16.7477C16.7042 10.5378 16.6643 10.5052 16.6535 10.4617C16.6281 10.3493 16.5628 10.2005 16.483 10.2005H16.0007V9.9975C16.0007 9.95041 15.9645 9.91409 15.9173 9.91409H13.3826C13.3354 9.91409 13.2992 9.95041 13.2992 9.9975V10.1897V10.2042H12.8132C12.7335 10.2042 12.6646 10.3529 12.6428 10.4653C12.6319 10.5088 12.5957 10.5415 12.5485 10.5415H12.2911C12.1824 10.5415 12.0772 10.5632 11.9829 10.6031C11.8414 10.6647 11.7218 10.7627 11.6348 10.8896C11.5514 11.0165 11.5006 11.1688 11.5006 11.332V16.9816L11.5042 16.9743ZM16.4214 15.9446C16.4214 16.0533 16.3344 16.1403 16.2255 16.1403H14.7714C14.6626 16.1403 14.5756 16.0533 14.5756 15.9446V15.7995C14.5756 15.6907 14.6626 15.6036 14.7714 15.6036H16.2255C16.3344 15.6036 16.4214 15.6907 16.4214 15.7995V15.9446ZM12.8749 12.4453C12.8749 12.3619 12.9402 12.2965 13.0236 12.2965H16.2727C16.3561 12.2965 16.4214 12.3619 16.4214 12.4453V12.6882C16.4214 12.7715 16.3561 12.8369 16.2727 12.8369H13.0236C12.9402 12.8369 12.8749 12.7715 12.8749 12.6882V12.4453ZM12.8749 13.5185C12.8749 13.4351 12.9402 13.3699 13.0236 13.3699H16.2727C16.3561 13.3699 16.4214 13.4351 16.4214 13.5185V13.7615C16.4214 13.8449 16.3561 13.9103 16.2727 13.9103H13.0236C12.9402 13.9103 12.8749 13.8449 12.8749 13.7615V13.5185ZM12.8749 14.5919C12.8749 14.5085 12.9402 14.4433 13.0236 14.4433H16.2727C16.3561 14.4433 16.4214 14.5085 16.4214 14.5919V14.8349C16.4214 14.9183 16.3561 14.9835 16.2727 14.9835H13.0236C12.9402 14.9835 12.8749 14.9183 12.8749 14.8349V14.5919ZM11.7544 8.61592C11.7653 9.01118 12.1098 9.31575 12.505 9.31575H14.1623C14.3218 9.31575 14.4523 9.18524 14.4523 9.02569V8.16627C14.4523 8.00671 14.3218 7.87617 14.1623 7.87617H12.4724C12.0699 7.87617 11.7435 8.20978 11.7544 8.61229V8.61592ZM12.4651 3.93809H15.7107C15.8376 3.93809 15.9282 4.05775 15.8992 4.18104L15.8883 4.22093C15.8665 4.30433 15.7904 4.36598 15.6998 4.36598H12.6066C12.6066 4.36598 12.5776 4.37323 12.5667 4.38411C12.5558 4.39499 12.5558 4.41312 12.5594 4.42762L12.7082 4.99694C12.7299 5.08035 12.806 5.142 12.8966 5.142H16.2981C16.3852 5.142 16.4613 5.08398 16.4866 4.99694L17.56 0.917436C17.5818 0.834033 17.6579 0.772387 17.7486 0.772387H18.4666L18.4738 0.725246V0.772387C18.6878 0.772387 18.8619 0.598328 18.8619 0.38438C18.8619 0.170433 18.6914 0.00362623 18.4811 0C18.4811 0 18.4811 0 18.4774 0H17.1539C17.0668 0 16.9907 0.0580197 16.9653 0.145049L16.7405 0.997216C16.7187 1.08062 16.6426 1.14226 16.5519 1.14226H11.758C11.758 1.14226 11.7291 1.14951 11.7182 1.1604C11.7072 1.17127 11.7072 1.1894 11.7109 1.20391L12.4216 3.90907C12.4289 3.93083 12.4471 3.94534 12.4688 3.94534L12.4651 3.93809ZM5.38677 16.0678C5.35775 16.0678 5.33599 16.0896 5.33599 16.1186V17.8374C5.33599 17.8664 5.35775 17.8882 5.38677 17.8882H6.36947C6.87352 17.8882 7.28328 17.4784 7.27966 16.9707C7.27603 16.4704 6.85901 16.0678 6.35859 16.0678H5.38677ZM10.1698 3.45217C10.8515 3.45217 11.4027 2.90098 11.4027 2.21925C11.4027 1.53752 10.8515 0.986331 10.1698 0.986331C9.48804 0.986331 8.93684 1.53752 8.93684 2.21925C8.93684 2.90098 9.48804 3.45217 10.1698 3.45217ZM17.7776 33.064C17.7885 32.4729 17.3098 31.987 16.7187 31.987H14.0969C13.9374 31.987 13.8069 32.1175 13.8069 32.277V33.811C13.8069 33.9705 13.9374 34.101 14.0969 34.101H16.6825C17.2663 34.101 17.763 33.6441 17.7739 33.064H17.7776ZM13.2775 37.4227L14.6373 37.3937C14.7787 37.3937 14.873 37.3937 14.9673 37.3139C15.0471 37.2414 15.0906 37.1363 15.0906 37.0274V35.3303C15.0906 35.2216 15.0434 35.1164 14.9564 35.0475C14.8657 34.9749 14.7569 34.9206 14.6373 34.9749L13.1542 35.7292C13.0672 35.7727 13.0127 35.8634 13.0127 35.9613V37.1652C13.0127 37.3103 13.1324 37.4299 13.2811 37.4263L13.2775 37.4227ZM20.7003 2.571C21.3929 2.571 21.955 2.00893 21.955 1.31632C21.955 0.623711 21.3929 0.0616459 20.7003 0.0616459C20.0077 0.0616459 19.4456 0.623711 19.4456 1.31632C19.4456 2.00893 20.0077 2.571 20.7003 2.571ZM13.1977 33.8146V32.2807C13.1977 32.1211 13.0672 31.9906 12.9075 31.9906H10.2858C9.69468 31.9906 9.21968 32.4729 9.23057 33.0676C9.24144 33.6477 9.74187 34.1047 10.3221 34.1047H12.9075C13.0672 34.1047 13.1977 33.9741 13.1977 33.8146ZM9.34657 24.9231C9.34657 24.4444 8.95859 24.0564 8.47993 24.0564C8.00128 24.0564 7.61326 24.4444 7.61326 24.9231C7.61326 25.4018 8.00128 25.7897 8.47993 25.7897C8.95859 25.7897 9.34657 25.4018 9.34657 24.9231ZM9.39376 37.3973L10.7536 37.4263C10.8987 37.4263 11.0219 37.3103 11.0219 37.1652V35.9613C11.0219 35.8634 10.9675 35.7727 10.8805 35.7292L9.39735 34.9749C9.27403 34.9278 9.16529 34.9749 9.07464 35.0475C8.99123 35.1164 8.94046 35.2216 8.94046 35.3303V37.0238C8.94046 37.1326 8.98035 37.2414 9.06375 37.3139C9.15804 37.3973 9.25956 37.401 9.39735 37.3973H9.39376ZM3.78759 10.2005H1.61548C1.37615 10.2005 1.08968 10.3711 0.977264 10.5814L0.18675 12.8043C0.106974 12.9927 0.0562064 13.2938 0.0562064 13.4388V14.8785C0.0562064 15.1177 0.252023 15.3099 0.487728 15.3099H1.00628C1.05704 15.8466 1.51033 16.2672 2.06151 16.2672C2.6127 16.2672 3.06597 15.8466 3.11675 15.3099H3.78397C3.94352 15.3099 4.07406 15.1794 4.07406 15.0198V10.4871C4.07406 10.3275 3.94352 10.197 3.78397 10.197L3.78759 10.2005ZM2.58006 15.3281C2.53655 15.5239 2.38062 15.6799 2.1848 15.7234C1.79679 15.8104 1.45955 15.4731 1.54659 15.0851C1.5901 14.8893 1.74966 14.7334 1.94184 14.6899C2.32986 14.6065 2.66346 14.94 2.58006 15.3281ZM3.54464 12.2603C3.54464 12.3654 3.45761 12.4525 3.35244 12.4525H1.31813C1.18759 12.4525 1.09331 12.3255 1.1332 12.1986L1.54659 10.9295C1.5901 10.8497 1.73877 10.7627 1.82943 10.7627H3.34882C3.45398 10.7627 3.54101 10.8497 3.54101 10.9548V12.2603H3.54464ZM6.93517 29.8258C7.93237 29.8258 8.7374 29.0171 8.7374 28.0235C8.7374 27.0299 7.92875 26.2212 6.93517 26.2212C5.94157 26.2212 5.13293 27.0299 5.13293 28.0235C5.13293 29.0171 5.94157 29.8258 6.93517 29.8258ZM3.05873 16.9816C3.06235 17.4821 3.47937 17.8846 3.97979 17.8846H4.95161C4.98062 17.8846 5.00238 17.8628 5.00238 17.8338V16.115C5.00238 16.0859 4.98062 16.0642 4.95161 16.0642H3.96891C3.46486 16.0642 3.0551 16.474 3.05873 16.9816Z" fill="white"/>
<path d="M99.0123 24.0745H110.707L112.35 14.5158L115.139 24.0745H121.368L123.743 14.5666L125.19 24.0745H133.041L128.943 1.29817H120.89L117.891 12.0101L114.569 1.29817H107.11L104.858 12.9964L102.766 1.29817H94.7081L91.7132 12.0101L88.3916 1.29817H80.9324L79.2498 10.07C77.9843 4.48199 72.8785 1.29817 65.18 1.29817H55.7809V24.0745H67.1744C70.8334 24.0745 74.931 22.925 77.3751 19.8536L76.5664 24.0745H84.5332L86.1759 14.5158L88.9681 24.0745H95.1975L97.5736 14.5666L99.0197 24.0745H99.0123ZM65.811 16.1729V9.0728C67.5334 9.0728 70.1516 9.14895 70.1516 12.6084C70.1516 16.0678 67.6314 16.1729 65.811 16.1729ZM183.874 11.7054H194.458C193.817 15.8829 191.173 18.6243 186.14 19.8137C184.675 20.1618 184.015 21.8734 184.867 23.1172C185.375 23.857 186.292 24.2087 187.162 23.9839C190.821 23.0374 193.802 21.3113 195.742 18.9035C197.552 16.6553 198.647 13.4968 199.006 9.88146C199.122 8.71017 198.186 7.69846 197.008 7.69846H183.776C182.623 7.69846 181.694 8.67392 181.774 9.84515C181.847 10.9185 182.793 11.7199 183.87 11.7054H183.874ZM139.641 17.2645C138.614 18.0586 138.517 19.5744 139.431 20.4991C140.207 21.2823 141.447 21.3621 142.31 20.6804C146.15 17.6343 148.652 13.4968 149.82 11.0346C149.849 12.8695 149.867 18.4611 149.871 22.0112C149.871 23.0809 150.679 24.0092 151.745 24.0745C152.913 24.147 153.881 23.2187 153.874 22.0656C153.856 19.1029 153.813 14.5738 153.769 12.7752C153.736 11.3682 153.7 9.91769 153.678 8.51073H155.408C156.532 8.51073 157.431 7.56428 157.358 6.42566C157.29 5.38492 156.383 4.60166 155.343 4.60166H153.62L153.592 2.18297C153.577 1.01532 152.583 0.0870044 151.393 0.17766C150.306 0.261064 149.5 1.22926 149.522 2.32076L149.577 4.60166H140.873C139.743 4.60166 138.836 5.55536 138.912 6.70125C138.981 7.7456 139.895 8.53612 140.943 8.53612H146.821C145.312 11.7744 142.607 14.9691 139.638 17.2681L139.641 17.2645ZM185.488 5.25075L195.449 5.23263C196.533 5.23263 197.414 4.35145 197.414 3.26359C197.414 2.17571 196.529 1.29454 195.442 1.29454L185.48 1.31267C184.395 1.31267 183.514 2.19384 183.514 3.28171C183.514 4.36959 184.399 5.25075 185.488 5.25075ZM312.217 12.525H312.256C313.171 12.525 313.906 11.778 313.892 10.8641L313.831 6.84992C313.816 5.96512 313.094 5.25439 312.209 5.25439H312.198C311.303 5.25439 310.578 5.97963 310.578 6.8753V10.8896C310.578 11.7924 311.31 12.525 312.213 12.525H312.217ZM288.149 8.06108H298.575C299.717 8.06108 300.645 7.13277 300.645 5.9905C300.645 4.84824 299.717 3.91993 298.575 3.91993H288.149C287.007 3.91993 286.079 4.84824 286.079 5.9905C286.079 7.13277 287.007 8.06108 288.149 8.06108ZM270.294 12.9927V2.90096C270.294 1.7587 269.366 0.830381 268.224 0.830381C267.081 0.830381 266.153 1.7587 266.153 2.90096V12.9891C266.153 14.1314 267.081 15.0597 268.224 15.0597C269.366 15.0597 270.294 14.1314 270.294 12.9891V12.9927ZM238.601 7.69483H238.507C237.633 7.69483 236.86 8.23877 236.548 9.05467C235.83 10.9331 235.033 12.4416 234.148 13.6237C233.059 15.0815 231.878 16.2854 230.598 17.2318C229.318 18.1783 228.081 18.7766 226.935 19.1537C226.348 19.3459 225.587 19.4874 224.886 19.5852C223.769 19.7412 222.936 20.6876 222.936 21.8117C222.936 23.2114 224.201 24.2631 225.579 24.0237C226.406 23.8787 227.308 23.6684 228.088 23.3601C229.557 22.7836 231.185 22.0547 232.868 20.8943C234.547 19.7339 236.167 18.084 237.731 15.9482C238.833 14.436 239.779 12.6302 240.566 10.5016C241.071 9.13808 240.055 7.69121 238.601 7.69121V7.69483ZM259.528 2.24099L253.737 2.27362C254.114 1.16037 253.287 0.00360107 252.109 0.00360107H252.061C251.075 0.00360107 250.191 0.627312 249.874 1.56288C248.881 4.51463 246.822 8.35118 244.719 10.3492C243.906 11.1217 243.935 12.456 244.849 13.2031C245.607 13.8232 246.72 13.718 247.424 13.0399C249.458 11.0709 250.92 8.54337 252.109 6.11017H257.058C256.413 9.18159 255.288 12.8405 253.758 14.8929C252.246 16.92 250.082 18.4756 247.22 19.5562C245.941 20.0385 245.484 21.6159 246.303 22.7111C246.843 23.4326 247.812 23.6937 248.667 23.4073C253.233 21.877 256.344 19.4728 258.559 15.4514C260.213 12.4452 261.029 8.11548 261.53 4.52551C261.7 3.31435 260.757 2.23373 259.532 2.24099H259.528ZM226.275 8.77908C227.233 9.73639 228.81 9.63851 229.64 8.56875C230.354 7.6477 230.249 6.33499 229.394 5.54086L226.435 2.79942C225.542 1.97264 224.143 2.04154 223.338 2.95172C222.576 3.81114 222.616 5.10933 223.425 5.92161L226.275 8.77908ZM218.239 1.18212C217.224 0.598303 215.929 0.899279 215.288 1.88199C212.474 6.1827 208.155 9.93225 203.3 12.3364C202.027 12.9674 201.682 14.621 202.586 15.7161C203.256 16.5319 204.412 16.7531 205.341 16.2564C207.128 15.299 208.873 14.2148 210.414 13.087L210.375 21.8915C210.371 23.0193 211.219 24.0092 212.343 24.0854C213.576 24.1688 214.606 23.1897 214.602 21.9713C214.602 19.364 214.591 15.0887 214.587 13.3626C214.585 11.8831 214.581 10.6864 214.581 9.77271C216.085 8.21701 217.62 6.29873 218.957 4.3587C219.69 3.29622 219.356 1.83122 218.239 1.18575V1.18212ZM300.609 18.055H286.115C284.944 18.055 283.994 19.005 283.994 20.1763C283.994 21.3476 284.944 22.2977 286.115 22.2977H300.609C301.781 22.2977 302.731 21.3476 302.731 20.1763C302.731 19.005 301.781 18.055 300.609 18.055ZM339.229 2.24099L333.437 2.27362C333.814 1.16037 332.987 0.00360107 331.81 0.00360107H331.763C330.775 0.00360107 329.891 0.627312 329.576 1.56288C328.582 4.51463 326.522 8.35118 324.419 10.3492C323.607 11.1217 323.635 12.456 324.55 13.2031C325.307 13.8232 326.421 13.718 327.124 13.0399C329.159 11.0709 330.62 8.54337 331.81 6.11017H336.759C336.114 9.18159 334.989 12.8405 333.459 14.8929C331.947 16.92 329.782 18.4756 326.921 19.5562C325.641 20.0385 325.185 21.6159 326.004 22.7111C326.544 23.4326 327.512 23.6937 328.368 23.4073C332.933 21.877 336.045 19.4728 338.26 15.4514C339.914 12.4452 340.729 8.11548 341.23 4.52551C341.4 3.31435 340.458 2.23373 339.232 2.24099H339.229ZM278.051 0.779615H278.011C276.868 0.779615 275.94 1.70793 275.94 2.85019V11.1434C275.9 14.1857 274.866 18.8817 269.499 20.1401C268.151 20.4556 267.509 21.9967 268.263 23.1607L268.325 23.2586C268.796 23.9839 269.688 24.332 270.522 24.0926C274.45 22.9685 277.224 20.9958 278.656 18.1637C280.041 15.4187 280.158 12.2856 280.158 9.05104C280.158 7.21979 280.139 4.62704 280.121 2.83568C280.111 1.70068 279.189 0.786866 278.051 0.786866V0.779615ZM318.791 5.27614C317.812 5.27614 316.978 5.9905 316.84 6.95871C316.735 7.68759 316.554 8.64853 316.249 9.82709C315.941 11.0165 315.52 12.2639 314.955 13.5221C314.403 14.7551 313.566 15.8502 312.467 16.7822C311.688 17.4422 310.607 17.968 309.439 18.3197C308.584 18.5771 308.01 19.3822 308.01 20.2743C308.01 21.6486 309.352 22.6132 310.665 22.1961C311.746 21.8516 312.75 21.4056 313.537 20.8798C314.937 19.9479 316.133 18.8201 317.094 17.5256C318.051 16.2382 318.795 14.8892 319.314 13.5077C319.824 12.1406 320.206 10.8424 320.441 9.65658C320.539 9.15983 320.655 8.30766 320.753 7.48814C320.894 6.31324 319.977 5.27614 318.795 5.27614H318.791ZM309.08 10.875L309.051 6.8608C309.044 5.96875 308.322 5.25075 307.431 5.25075C306.538 5.25075 305.809 5.976 305.809 6.87168V10.8859C305.809 11.7889 306.542 12.5213 307.444 12.5213C308.348 12.5213 309.088 11.7816 309.08 10.8714V10.875ZM164.299 8.77908C165.257 9.73639 166.834 9.63851 167.664 8.56875C168.379 7.6477 168.274 6.33499 167.417 5.54086L164.459 2.79942C163.567 1.97264 162.167 2.04154 161.362 2.95172C160.601 3.81114 160.64 5.10933 161.449 5.92161L164.299 8.77908ZM163.617 23.9766C164.963 23.7046 166.112 23.3601 166.112 23.3601C167.617 22.8779 169.209 22.0547 170.888 20.8943C172.567 19.7339 174.188 18.084 175.751 15.9482C176.854 14.436 177.8 12.6302 178.587 10.5016C179.09 9.13808 178.076 7.69121 176.621 7.69121H176.527C175.653 7.69121 174.881 8.23514 174.569 9.05104C173.851 10.9294 173.053 12.438 172.169 13.6201C171.08 15.0778 169.899 16.2817 168.618 17.2282C167.338 18.1746 166.116 18.8165 164.956 19.1501C164.274 19.3459 163.523 19.4874 162.856 19.5816C161.765 19.7376 160.959 20.684 160.959 21.7864C160.959 23.1897 162.243 24.2522 163.617 23.973V23.9766ZM77.1248 40.9183C76.9726 41.2012 76.6933 41.3426 76.2871 41.3426C75.881 41.3426 75.649 41.1106 75.649 40.6427V37.7418H74.4523V40.6826C74.4596 41.2157 74.5865 41.6218 74.8403 41.8974C75.0941 42.1731 75.4604 42.3109 75.9427 42.3109C76.4648 42.3109 76.8746 42.1295 77.1683 41.7705L77.201 42.2274H78.3287V37.7418H77.1248V40.922V40.9183ZM80.7945 38.9275C80.936 38.7245 81.1463 38.6229 81.4255 38.6229C81.6504 38.6229 81.8353 38.6954 81.9731 38.8405C82.1109 38.9856 82.1834 39.1777 82.1871 39.4098H83.3112C83.304 38.8804 83.1335 38.4525 82.7962 38.1334C82.459 37.8143 82.0094 37.6548 81.4473 37.6548C80.8054 37.6548 80.3015 37.8614 79.9352 38.2712C79.5689 38.6846 79.384 39.2358 79.384 39.9248V40.0046C79.384 40.7225 79.5689 41.2846 79.9388 41.6944C80.3086 42.1005 80.8163 42.3072 81.4546 42.3072C81.7991 42.3072 82.1109 42.2383 82.3937 42.0968C82.6766 41.9591 82.9014 41.7596 83.0646 41.5094C83.2277 41.2556 83.3112 40.9764 83.3148 40.6754H82.1907C82.1834 40.8785 82.1146 41.038 81.9768 41.1613C81.839 41.2846 81.6576 41.3426 81.4364 41.3426C81.1499 41.3426 80.936 41.2411 80.7945 41.038C80.6532 40.8349 80.5842 40.5049 80.5842 40.0408V39.9175C80.5842 39.4606 80.6568 39.1306 80.7982 38.9275H80.7945ZM86.3101 37.6548C85.9003 37.6548 85.5377 37.7527 85.2185 37.9412C84.8995 38.1334 84.6529 38.4054 84.4788 38.7608C84.3048 39.1161 84.2177 39.5186 84.2177 39.9683V40.0843C84.2177 40.7552 84.4244 41.2919 84.8378 41.698C85.2512 42.1005 85.7879 42.3036 86.4443 42.3036C86.8177 42.3036 87.1587 42.231 87.4632 42.0897C87.7715 41.9482 88.0144 41.7487 88.1921 41.4949L87.6046 40.8349C87.3435 41.1685 86.9846 41.3354 86.524 41.3354C86.2267 41.3354 85.9801 41.2484 85.7843 41.0707C85.5885 40.893 85.4724 40.6573 85.4326 40.3672H88.29V39.8777C88.29 39.1669 88.1123 38.6193 87.7606 38.2313C87.4088 37.8433 86.9266 37.6511 86.3101 37.6511V37.6548ZM87.1115 39.5549H85.4434C85.4832 39.2539 85.5812 39.0255 85.7263 38.8623C85.8713 38.6991 86.0671 38.6193 86.3028 38.6193C86.5566 38.6193 86.7525 38.6918 86.8903 38.8369C87.0281 38.982 87.1006 39.1886 87.1042 39.457V39.5513L87.1115 39.5549ZM91.9199 38.1443C91.6333 37.8179 91.2744 37.6548 90.8392 37.6548C90.2953 37.6548 89.8674 37.8614 89.5519 38.2785C89.2365 38.6918 89.0805 39.2503 89.0805 39.9501C89.0805 40.6899 89.2401 41.2701 89.5591 41.6835C89.8783 42.1005 90.3026 42.3072 90.8284 42.3072C91.2998 42.3072 91.6805 42.1223 91.9815 41.7487L92.0395 42.2238H93.1201V35.8561H91.9162V38.1443H91.9199ZM91.9199 40.8712C91.7675 41.1831 91.5064 41.339 91.1366 41.339C90.8574 41.339 90.6434 41.2266 90.4984 41.0017C90.3533 40.7769 90.2772 40.4542 90.2772 40.0335C90.2772 39.0943 90.5673 38.6266 91.1438 38.6266C91.5101 38.6266 91.7711 38.7825 91.9199 39.0943V40.8676V40.8712ZM71.8813 38.1443C71.5948 37.8179 71.2358 37.6548 70.8007 37.6548C70.2568 37.6548 69.8288 37.8614 69.5133 38.2785C69.198 38.6918 69.042 39.2503 69.042 39.9501C69.042 40.6899 69.2015 41.2701 69.5206 41.6835C69.8397 42.1005 70.264 42.3072 70.7899 42.3072C71.2612 42.3072 71.642 42.1223 71.943 41.7487L72.001 42.2238H73.0816V35.8561H71.8777V38.1443H71.8813ZM71.8813 40.8712C71.729 41.1831 71.4679 41.339 71.0981 41.339C70.8188 41.339 70.6049 41.2266 70.4598 41.0017C70.3148 40.7769 70.2386 40.4542 70.2386 40.0335C70.2386 39.0943 70.5287 38.6266 71.1053 38.6266C71.4715 38.6266 71.7326 38.7825 71.8813 39.0943V40.8676V40.8712ZM67.5879 38.2095C67.2035 37.8397 66.7103 37.6548 66.1047 37.6548C65.6805 37.6548 65.307 37.749 64.9842 37.9412C64.6615 38.1334 64.4149 38.4017 64.2445 38.7499C64.074 39.098 63.987 39.4932 63.987 39.9392V39.9937C63.987 40.708 64.1792 41.2701 64.5636 41.6835C64.948 42.0968 65.4665 42.3072 66.112 42.3072C66.7575 42.3072 67.2724 42.1005 67.6567 41.6835C68.0412 41.2664 68.2333 40.7153 68.2333 40.0263L68.2261 39.718C68.1826 39.0835 67.9686 38.5794 67.5842 38.2095H67.5879ZM66.7937 41.0054C66.6306 41.2266 66.4057 41.339 66.1156 41.339C65.8255 41.339 65.5862 41.2266 65.4266 41.0017C65.267 40.7769 65.1873 40.4506 65.1873 40.0226C65.1873 39.544 65.267 39.1886 65.4266 38.9602C65.5862 38.7318 65.8146 38.6193 66.1047 38.6193C66.3948 38.6193 66.6306 38.7353 66.7937 38.9638C66.9569 39.1923 67.0366 39.5186 67.0366 39.9356C67.0366 40.4252 66.9532 40.7805 66.7937 41.0054ZM58.069 37.6548C57.6013 37.6548 57.2241 37.8288 56.934 38.1769L56.8941 37.7381H55.7845V43.9499H56.9812V41.8357C57.2603 42.1512 57.6266 42.3072 58.0799 42.3072C58.613 42.3072 59.0372 42.1005 59.3491 41.6835C59.6609 41.2664 59.8205 40.7153 59.8205 40.0226V39.961C59.8205 39.243 59.6682 38.6774 59.36 38.2712C59.0517 37.8614 58.6239 37.6584 58.069 37.6584V37.6548ZM57.7608 41.339C57.3837 41.339 57.1226 41.1903 56.9775 40.8966V39.0617C57.119 38.7753 57.3764 38.6302 57.7535 38.6302C58.0364 38.6302 58.2503 38.7426 58.399 38.9711C58.5476 39.1995 58.6202 39.5186 58.6202 39.9356C58.6202 40.8712 58.3337 41.3426 57.7608 41.3426V41.339ZM62.105 38.2712L62.0724 37.7381H60.941V42.2238H62.1376V39.2902C62.2791 38.982 62.5764 38.8296 63.0297 38.8296C63.153 38.8296 63.298 38.8405 63.4612 38.8623L63.4794 37.7092C63.3633 37.6728 63.24 37.6548 63.1058 37.6548C62.6816 37.6548 62.3479 37.8614 62.105 38.2712ZM98.7911 37.6548C98.3423 37.6548 97.9791 37.8179 97.6998 38.1407V35.8561H96.5035V42.2238H97.58L97.6344 41.7487C97.9247 42.1223 98.3128 42.3072 98.7985 42.3072C99.3496 42.3072 99.7782 42.1077 100.082 41.7052C100.391 41.3027 100.543 40.7443 100.543 40.0226V39.9574C100.543 39.2285 100.387 38.6628 100.075 38.2603C99.7635 37.8578 99.3358 37.6584 98.7883 37.6584L98.7911 37.6548ZM99.2593 40.7696C99.1358 41.1504 98.8823 41.3426 98.498 41.3426C98.1137 41.3426 97.8492 41.1867 97.7035 40.8712V39.1016C97.8492 38.7897 98.11 38.6339 98.4906 38.6339C98.7736 38.6339 98.9911 38.7389 99.1321 38.9457C99.2777 39.156 99.3459 39.4859 99.3459 39.9392C99.3459 40.3128 99.3174 40.5884 99.2593 40.7733V40.7696ZM103.128 40.5304L102.294 37.7418H101.003L102.574 42.2383L102.433 42.6082C102.367 42.7677 102.28 42.8838 102.167 42.9526C102.055 43.0216 101.885 43.0579 101.66 43.0579H101.479V43.9607C101.66 44.0115 101.834 44.0406 102.008 44.0406C102.624 44.0406 103.067 43.7468 103.335 43.1629L103.434 42.9273L105.235 37.7454H103.952L103.121 40.534L103.128 40.5304ZM111.356 37.0347C111.095 37.3574 110.951 37.5242 110.555 37.8977C110.327 37.6366 110.087 37.4589 109.682 37.2196C110.399 36.6249 110.827 36.1244 111.11 35.5334C111.172 35.4065 111.204 35.3339 111.266 35.1273H109.369V41.912H116.161C116.694 41.912 117.035 41.8902 117.318 41.8503V43.018C116.995 42.9672 116.702 42.9454 116.172 42.9454H109.369V43.3733H108.162C108.201 43.018 108.223 42.677 108.223 42.1658V35.1744C108.223 34.7247 108.212 34.3839 108.184 34.0611C108.517 34.101 108.789 34.1119 109.307 34.1119H115.998C116.52 34.1119 116.811 34.0901 117.165 34.0394V35.1961C116.821 35.1454 116.549 35.1345 116.031 35.1345H111.425L112.342 35.4065C112.299 35.4899 112.292 35.5116 112.259 35.595C112.204 35.7063 112.12 35.8621 112.009 36.0628H115.436C115.936 36.0628 116.187 36.0519 116.459 36.0121V37.0963C116.136 37.0564 115.842 37.0456 115.447 37.0456H113.844C113.844 37.1084 113.84 37.1845 113.833 37.2739C113.823 37.575 113.812 37.7853 113.782 38.0753H116.063C116.531 38.0753 116.77 38.0645 117.064 38.0246V39.1198C116.781 39.0799 116.502 39.069 116.035 39.069H114.087C114.62 39.903 115.505 40.3708 117.13 40.6645C116.89 41.009 116.785 41.2266 116.589 41.7705C114.903 41.3027 113.975 40.6971 113.296 39.6456C112.734 40.6464 111.795 41.3027 110.287 41.7705C110.12 41.3753 109.913 41.0416 109.652 40.7696C110.424 40.5702 110.776 40.447 111.215 40.1967C111.788 39.8631 112.173 39.5077 112.404 39.0726H110.957C110.396 39.0726 110.145 39.0835 109.834 39.1234V38.0282C110.145 38.0681 110.374 38.079 110.979 38.079H112.666C112.706 37.7055 112.706 37.6221 112.727 37.0492H111.371L111.356 37.0347ZM127.123 40.1713C127.123 40.6826 127.134 40.8277 127.156 41.0779C126.938 41.0561 126.789 41.0561 126.51 41.0452C127.095 41.6799 127.533 42.0026 128.291 42.3688C128.062 42.6408 127.874 42.92 127.685 43.2754C126.778 42.7424 126.3 42.3362 125.589 41.5239L126.268 41.0452H125.049V42.5248C125.049 42.8366 124.954 43.0651 124.777 43.1811C124.589 43.3153 124.36 43.3588 123.86 43.3588C123.486 43.3588 123.109 43.3479 122.681 43.3153C122.648 42.92 122.598 42.6916 122.42 42.2854C122.859 42.358 123.222 42.3906 123.555 42.3906C123.889 42.3906 123.951 42.358 123.951 42.1404V41.0452H122.815C122.609 41.0452 122.543 41.0452 122.348 41.0561L123.036 41.4405C122.431 42.2745 122.007 42.6916 121.162 43.2645C120.86 42.8693 120.734 42.7315 120.444 42.503C121.278 42.0134 121.695 41.64 122.058 41.0634C121.995 41.0707 121.942 41.0743 121.902 41.0743C121.923 40.8132 121.934 40.6464 121.934 40.1786V39.1669C121.735 39.2902 121.633 39.3554 121.299 39.5331C121.216 39.272 121.177 39.1886 121.06 38.9384C120.977 40.0118 120.832 40.8023 120.581 41.5022C120.354 42.1803 120.114 42.6154 119.591 43.3044C119.28 42.9091 119.135 42.7533 118.757 42.4595C119.458 41.6254 119.748 40.8748 119.925 39.4497C119.624 39.6383 119.218 39.8668 118.978 39.99C118.928 40.0118 118.856 40.0517 118.779 40.106L118.457 39C118.83 38.9275 119.396 38.6882 120.02 38.3437C120.041 37.9883 120.041 37.8324 120.052 37.3538L119.302 37.8541C119.084 37.0709 118.884 36.5741 118.518 35.9178L119.308 35.4391C119.642 36.0447 119.809 36.4073 120.048 37.0963V36.7301C120.048 36.5524 120.048 35.9576 120.037 35.6241C120.037 34.8118 120.037 34.6958 119.987 34.3222C120.342 34.3621 120.705 34.373 121.267 34.373H123.352V34.3005C123.352 34.0285 123.342 33.8725 123.301 33.6768H124.581C124.549 33.8654 124.53 34.0213 124.53 34.3005V34.373H127C127.584 34.373 127.929 34.3621 128.272 34.3113V35.3521C127.899 35.3195 127.649 35.3086 127.127 35.3086H124.846C124.763 35.5697 124.73 35.6749 124.669 35.8416H127.054C127.533 35.8416 127.816 35.8307 128.128 35.7909V36.7917C127.826 36.7518 127.588 36.741 127.098 36.741H125.702C125.963 37.1072 126.108 37.2522 126.463 37.5423C126.829 37.2304 126.964 37.0927 127.17 36.77L128.004 37.2921C127.599 37.6874 127.504 37.7708 127.203 38.021C127.66 38.2603 127.932 38.3655 128.465 38.5214C128.225 38.9166 128.164 39.0544 128.015 39.4896C127.599 39.3228 127.453 39.2503 127.131 39.0726V40.1677L127.123 40.1713ZM121.122 36.7953C121.122 37.419 121.111 37.9013 121.082 38.525C121.448 38.3582 121.666 38.2241 121.977 38.0029C121.728 37.7418 121.582 37.6185 121.238 37.3791L121.883 36.8388C122.257 37.1398 122.424 37.2885 122.601 37.4734C122.851 37.2124 122.986 37.0456 123.175 36.7445H122.3C121.844 36.7445 121.601 36.7554 121.343 36.7845V35.8054C121.633 35.838 121.854 35.8489 122.344 35.8489H123.624C123.696 35.6712 123.74 35.5588 123.801 35.3158H121.126V36.7953H121.122ZM122.956 39.0581H126.083V38.6193H122.956V39.0581ZM122.956 40.2475H126.083V39.7978H122.956V40.2475ZM125.448 37.7889C125.114 37.4445 124.991 37.2776 124.658 36.7481H124.262C124.034 37.1652 123.835 37.4553 123.563 37.7889H125.448ZM130.263 36.3493C130.981 36.7554 131.369 37.0274 132.128 37.6221L131.472 38.5685C130.793 37.9521 130.336 37.6221 129.618 37.1833L130.263 36.3493ZM132.117 39.9139C131.75 40.8712 131.522 41.4261 131.105 42.2891C130.979 42.5453 130.872 42.781 130.782 42.9962C130.734 43.1074 130.693 43.1944 130.659 43.2572L129.658 42.3833C130.025 41.9881 130.659 40.6971 131.189 39.2576L132.117 39.9139ZM130.771 33.8073C131.5 34.257 131.907 34.558 132.563 35.1418L131.856 36.0483C131.283 35.4863 130.771 35.0692 130.064 34.6087L130.771 33.8073ZM132.095 41.8285C132.261 41.8394 132.345 41.8394 132.45 41.8394C132.617 41.8394 132.867 41.8286 133.223 41.8068C133.755 40.8785 134.18 39.932 134.514 38.9312H133.39C132.962 38.9312 132.599 38.9529 132.265 38.9929V37.8252C132.567 37.8687 132.911 37.8869 133.401 37.8869H135.025V36.3239H133.774C133.367 36.3239 133.013 36.3456 132.679 36.3747V35.2288C132.951 35.2687 133.302 35.2904 133.785 35.2904H135.025V34.8336C135.025 34.2714 135.014 34.0104 134.963 33.7384H136.226C136.174 34.0502 136.164 34.2896 136.164 34.8336V35.2904H137.832C138.281 35.2904 138.582 35.2687 138.894 35.2288V36.3747C138.604 36.3312 138.321 36.3239 137.842 36.3239H136.164V37.8869H138.165C138.604 37.8869 138.938 37.865 139.261 37.8252V38.9929C138.959 38.9529 138.582 38.9312 138.176 38.9312H135.729C135.687 39.0569 135.618 39.2479 135.521 39.5041C135.315 40.0553 135.021 40.7008 134.604 41.5239L134.51 41.7234C135.917 41.6001 136.606 41.5167 137.28 41.3789C136.957 40.8386 136.758 40.5557 136.258 39.8994L137.186 39.4207C138.06 40.5557 138.31 40.9401 139.289 42.6299L138.267 43.2464C138.027 42.7677 137.955 42.6118 137.788 42.2891C136.258 42.5792 135.881 42.6335 134.016 42.8294C132.882 42.9454 132.661 42.9745 132.331 43.036L132.102 41.8285H132.095ZM146.019 33.8907C145.98 34.0684 145.947 34.5869 145.947 34.9641C145.947 36.643 146.219 37.7454 146.969 39.069C147.408 39.8522 147.876 40.4034 148.615 41.0489C149.232 41.5892 149.545 41.8104 150.229 42.1731C149.834 42.5792 149.667 42.8294 149.417 43.3298C148.145 42.445 147.509 41.8503 146.77 40.8712C146.135 40.0263 145.74 39.2249 145.385 38.0282C145.186 38.8623 145.001 39.341 144.573 40.1315C144.156 40.893 143.706 41.455 142.967 42.1332C142.426 42.6335 142.082 42.8838 141.353 43.3298C141.113 42.8511 140.914 42.59 140.541 42.2564C141.603 41.6944 142.154 41.2664 142.81 40.5158C144.156 38.9747 144.718 37.2668 144.718 34.7646C144.718 34.3585 144.707 34.17 144.678 33.8907H146.023H146.019ZM153.417 42.3109C153.417 42.8004 153.427 43.0615 153.468 43.3733H152.206C152.257 43.0615 152.267 42.7786 152.267 42.2891V39.6745C151.862 40.0481 151.644 40.2149 151.11 40.5593C150.988 40.1641 150.799 39.787 150.578 39.4751C151.307 39.0581 151.807 38.6628 152.369 38.0681C152.859 37.5568 153.159 37.129 153.504 36.4617H151.807C151.434 36.4617 151.213 36.4726 150.933 36.5016V35.3448C151.194 35.3774 151.412 35.3847 151.757 35.3847H152.278V34.5108C152.278 34.2388 152.257 33.9596 152.216 33.7203H153.479C153.435 33.9596 153.417 34.188 153.417 34.5325V35.3883H153.845C154.168 35.3883 154.312 35.3774 154.451 35.3557L154.951 35.8961C154.857 36.0519 154.795 36.1571 154.722 36.3348C154.378 37.0854 154.182 37.4299 153.682 38.1152C154.171 38.6665 154.65 39.0435 155.339 39.4389C155.088 39.7725 154.933 40.0625 154.766 40.4614C154.226 40.106 153.87 39.8051 153.421 39.2829V42.3036L153.417 42.3109ZM157.834 41.8213H159.085C159.607 41.8213 159.948 41.7995 160.275 41.7596V43.0216C159.908 42.9708 159.502 42.949 159.085 42.949H155.521C155.103 42.949 154.708 42.9708 154.342 43.0216V41.7596C154.675 41.7995 155.038 41.8213 155.538 41.8213H156.674V37.749H155.89C155.534 37.749 155.201 37.7708 154.867 37.7998V36.6212C155.169 36.6611 155.44 36.672 155.89 36.672H156.674V34.8372C156.674 34.4092 156.651 34.1591 156.601 33.7529H157.903C157.841 34.17 157.83 34.3875 157.83 34.8372V36.672H158.936C159.404 36.672 159.665 36.6611 159.958 36.6212V37.7998C159.625 37.7671 159.302 37.749 158.936 37.749H157.83V41.8213H157.834ZM161.779 43.3443C161.819 43.0216 161.84 42.6553 161.84 41.9881V35.3702C161.84 34.8807 161.819 34.5072 161.779 34.1192C162.153 34.1591 162.468 34.17 163.008 34.17H169.511C170.043 34.17 170.366 34.1591 170.729 34.1192C170.688 34.5361 170.678 34.8372 170.678 35.3702V41.9954C170.678 42.6191 170.7 43.036 170.739 43.3406H169.561V42.7677H162.965V43.3406H161.776L161.779 43.3443ZM162.969 41.7596H169.554V35.1853H162.969V41.7596ZM166.99 36.1644C166.99 35.7909 166.979 35.6241 166.939 35.4029H168.129C168.088 35.6095 168.078 35.7763 168.078 36.1644V36.5597H168.368C168.69 36.5597 169.035 36.5378 169.213 36.5089V37.5822C169.014 37.5496 168.673 37.5315 168.35 37.5315H168.078V40.4578C168.078 41.2919 167.795 41.4985 166.649 41.4985C166.366 41.4985 166.294 41.4985 165.67 41.4587C165.608 40.9582 165.576 40.8131 165.398 40.4179C165.971 40.4905 166.367 40.5231 166.66 40.5231C166.911 40.5231 166.994 40.4614 166.994 40.2511V37.5315H164.39C163.962 37.5315 163.683 37.5423 163.422 37.5822V36.5089C163.683 36.5488 163.911 36.5597 164.39 36.5597H166.994V36.1644H166.99ZM165.239 40.2185C164.811 39.3011 164.539 38.884 163.998 38.2494L164.873 37.6657C165.478 38.4054 165.706 38.7389 166.185 39.602L165.239 40.2185ZM172.429 35.6204C172.429 35.0293 172.407 34.7102 172.346 34.2461C172.771 34.2678 173.024 34.2787 173.691 34.2787H175.606C176.929 34.2787 177.785 34.5543 178.464 35.2107C179.236 35.9396 179.638 37.0419 179.638 38.4163C179.638 39.7906 179.214 40.9981 178.391 41.7814C177.712 42.416 176.868 42.7025 175.62 42.7025H173.695C173.05 42.7025 172.784 42.7133 172.349 42.7351C172.415 42.3 172.433 41.9736 172.433 41.339V35.6241L172.429 35.6204ZM175.519 41.4514C176.385 41.4514 176.948 41.252 177.39 40.7733C177.898 40.233 178.162 39.4207 178.162 38.4235C178.162 37.4263 177.92 36.6684 177.433 36.1608C176.998 35.7038 176.451 35.5261 175.53 35.5261H173.836V41.4514H175.519ZM184.925 42.6988C184.871 42.3615 184.704 41.8612 184.461 41.2701L182.938 37.6402C182.738 37.1652 182.641 36.8787 182.398 36.023C182.442 36.585 182.481 37.4516 182.481 37.6837V41.1541C182.481 41.8829 182.503 42.2854 182.565 42.6988H181.085C181.15 42.2745 181.169 41.8612 181.169 41.1541V35.8416C181.169 35.1526 181.147 34.7102 181.085 34.2751H183.021C183.094 34.645 183.231 35.091 183.413 35.5334L185.56 40.7805L187.696 35.5334C187.906 35.0149 188.004 34.6776 188.077 34.2751H190.024C189.959 34.7828 189.94 35.1309 189.94 35.8416V41.1541C189.94 41.9264 189.962 42.3072 190.024 42.6988H188.544C188.609 42.2637 188.628 41.8829 188.628 41.1541V37.6402C188.671 36.7192 188.701 36.1788 188.711 36.023C188.573 36.5959 188.374 37.1869 188.225 37.5677L186.637 41.2919C186.427 41.7886 186.234 42.3833 186.172 42.6988H184.925ZM199.191 34.2751C199.126 34.7102 199.107 35.0257 199.107 35.6277V41.3318C199.107 41.9446 199.129 42.2528 199.191 42.6952H197.613C197.679 42.2818 197.697 41.9555 197.697 41.3318V38.9421H193.443V41.3318C193.443 41.9446 193.465 42.2637 193.526 42.6952H191.949C192.015 42.2927 192.032 41.9555 192.032 41.3318V35.6385C192.032 35.0149 192.011 34.6849 191.949 34.2751H193.526C193.462 34.7211 193.443 35.0692 193.443 35.6277V37.6693H197.697V35.6385C197.697 35.0366 197.675 34.6559 197.613 34.2751H199.191Z" fill="white"/>
</g>
</g>
</g>
</g>
<defs>
<clipPath id="clip0_1_72">
<rect width="342" height="44.24" fill="white"/>
</clipPath>
<clipPath id="clip1_1_72">
<rect width="342" height="44.24" fill="white"/>
</clipPath>
<clipPath id="clip2_1_72">
<rect width="341.938" height="44.24" fill="white" transform="translate(0.0308228)"/>
</clipPath>
</defs>
</svg>
