<svg width="28" height="28" viewBox="0 0 28 28" fill="none" xmlns="http://www.w3.org/2000/svg">
<rect width="28" height="28" rx="14" fill="#41ACE3"/>
<path d="M16.544 14.608H18.992V12.672H16.608C16.608 13.264 16.592 13.92 16.544 14.608ZM18.992 8.88H16.608V10.976H18.992V8.88ZM8.784 14.096V14.96H11.968V14.096H8.784ZM8.784 11.92V12.784H11.968V11.92H8.784ZM20.864 7.152V19.232C20.864 20.176 20.672 20.72 20.112 21.024C19.536 21.344 18.736 21.376 17.536 21.376C17.472 20.848 17.216 20 16.96 19.488C17.664 19.536 18.432 19.536 18.672 19.52C18.912 19.504 18.992 19.44 18.992 19.184V16.336H16.352C16.064 18.192 15.456 20.064 14.224 21.408C13.904 21.088 13.136 20.592 12.688 20.384C13.104 19.936 13.44 19.424 13.712 18.896H11.264V21.36H9.408V18.896H6.576V17.216H9.408V16.352H7.12V10.544H9.408V9.68H6.672V8.016H9.408V6.448H11.264V8.016H14.032V9.68H11.264V10.544H13.712V16.352H11.264V17.216H14.016V18.192C14.72 16.384 14.8 14.336 14.8 12.672V7.152H20.864Z" fill="white"/>
</svg>
