<svg width="30" height="28" viewBox="0 0 30 28" fill="none" xmlns="http://www.w3.org/2000/svg">
<g clip-path="url(#clip0_1_597)">
<path d="M14.4627 25.9365H3.99333C2.5031 25.9365 1.30859 24.7188 1.30859 23.2305L1.32212 6.45326C1.32212 4.96496 2.5031 3.74726 3.99333 3.74726H5.3357V2.39426C5.3357 1.65011 5.93972 1.04126 6.67807 1.04126C7.41642 1.04126 8.02044 1.65011 8.02044 2.39426V3.74726H19.8321V2.39426C19.8321 1.65011 20.4361 1.04126 21.1745 1.04126C21.9129 1.04126 22.5169 1.65011 22.5169 2.39426V3.74726H23.8592C25.335 3.74726 26.543 4.96496 26.543 6.45326V12.4065H23.8592V10.7829H3.99237V23.2305H14.4617V25.9365H14.4627ZM28.0603 19.1579L29.0132 18.1973C29.2647 17.9436 29.4059 17.6007 29.4059 17.2434C29.4059 16.8861 29.2647 16.5433 29.0132 16.2896L28.0603 15.3289C27.9367 15.2034 27.7893 15.1038 27.6268 15.0358C27.4643 14.9677 27.2899 14.9327 27.1137 14.9327C26.9375 14.9327 26.7631 14.9677 26.6006 15.0358C26.4381 15.1038 26.2907 15.2034 26.1671 15.3289L25.2142 16.2896L28.0603 19.1579ZM27.1074 20.1186L20.382 26.8971C20.1404 27.1406 19.7925 27.2895 19.4427 27.2895H17.8191C17.7303 27.2901 17.6422 27.273 17.5601 27.2392C17.478 27.2054 17.4035 27.1555 17.3409 27.0925C17.2784 27.0295 17.229 26.9546 17.1958 26.8722C17.1626 26.7899 17.1461 26.7017 17.1474 26.613V24.9758C17.1474 24.6105 17.2953 24.2723 17.5369 24.0152L24.2613 17.2367L27.1074 20.1186Z" fill="white"/>
</g>
<defs>
<clipPath id="clip0_1_597">
<rect width="28.9929" height="27.06" fill="white" transform="translate(0.50354 0.5)"/>
</clipPath>
</defs>
</svg>
