<svg width="28" height="28" viewBox="0 0 28 28" fill="none" xmlns="http://www.w3.org/2000/svg">
<rect width="28" height="28" rx="14" fill="#9482DA"/>
<path d="M17.632 14.512L16.416 15.536C16.16 15.072 15.488 14.4 14.928 13.936L16.064 13.04C16.608 13.456 17.296 14.096 17.632 14.512ZM18.592 12.752H15.264C14.992 13.184 14.704 13.616 14.4 14.016C14.88 14.976 15.52 15.872 16.288 16.656C17.28 15.584 18.064 14.304 18.592 12.752ZM19.6 11.152L20.816 11.696C20.176 14.24 19.088 16.256 17.664 17.84C18.816 18.672 20.16 19.312 21.664 19.712C21.232 20.112 20.672 20.896 20.384 21.408C18.832 20.896 17.472 20.112 16.32 19.136C15.12 20.128 13.744 20.88 12.272 21.408C12.048 20.944 11.456 20.144 11.072 19.824C12.528 19.36 13.856 18.704 14.992 17.824C14.352 17.072 13.792 16.24 13.296 15.344C12.944 15.696 12.592 16.032 12.224 16.336C11.904 15.952 11.312 15.328 10.912 15.008C12.576 13.776 13.952 11.616 14.656 9.808H10.784L12.112 10.208C11.744 11.088 11.296 11.952 10.784 12.768V21.376H8.864V15.376C8.464 15.824 8.064 16.224 7.664 16.592C7.376 16.208 6.688 15.456 6.272 15.104C7.84 13.872 9.312 11.872 10.192 9.808H6.912V8.032H12.944V6.448H14.928V8.032H21.136V9.808H15.376L16.608 10.144C16.464 10.496 16.288 10.864 16.112 11.216H19.296L19.6 11.152Z" fill="white"/>
</svg>
