<svg width="28" height="28" viewBox="0 0 28 28" fill="none" xmlns="http://www.w3.org/2000/svg">
<rect width="28" height="28" rx="14" fill="#FF9255"/>
<path d="M7.312 20.896V19.168H20.8V20.896H7.312ZM16.064 14.768V13.824H12V14.768H16.064ZM16.064 16.976V16.016H12V16.976H16.064ZM10.512 8.768V9.408C10.512 9.6 10.512 9.792 10.496 9.984H17.968V8.768H10.512ZM19.904 11.584H18.464C19.088 13.568 20.144 15.376 21.616 16.32C21.152 16.704 20.528 17.456 20.224 17.968C19.264 17.248 18.496 16.256 17.872 15.072V18.32H10.272V12.496H16.832C16.736 12.192 16.656 11.888 16.576 11.584H10.4C10.144 13.776 9.472 16.288 7.808 18.016C7.536 17.648 6.768 16.912 6.384 16.672C8.432 14.544 8.624 11.504 8.624 9.392V7.184H19.904V11.584Z" fill="white"/>
</svg>
