<svg width="5" height="36" viewBox="0 0 5 36" fill="none" xmlns="http://www.w3.org/2000/svg">
<g clip-path="url(#clip0_2_404)">
<g clip-path="url(#clip1_2_404)">
<path d="M2.25 5.32996C3.63071 5.32996 4.75 4.21067 4.75 2.82996C4.75 1.44924 3.63071 0.329956 2.25 0.329956C0.869288 0.329956 -0.25 1.44924 -0.25 2.82996C-0.25 4.21067 0.869288 5.32996 2.25 5.32996Z" fill="white"/>
<path d="M2.25 15.33C3.63071 15.33 4.75 14.2107 4.75 12.83C4.75 11.4492 3.63071 10.33 2.25 10.33C0.869288 10.33 -0.25 11.4492 -0.25 12.83C-0.25 14.2107 0.869288 15.33 2.25 15.33Z" fill="white"/>
<path d="M2.25 25.33C3.63071 25.33 4.75 24.2107 4.75 22.83C4.75 21.4492 3.63071 20.33 2.25 20.33C0.869288 20.33 -0.25 21.4492 -0.25 22.83C-0.25 24.2107 0.869288 25.33 2.25 25.33Z" fill="white"/>
<path d="M2.25 35.33C3.63071 35.33 4.75 34.2107 4.75 32.83C4.75 31.4492 3.63071 30.33 2.25 30.33C0.869288 30.33 -0.25 31.4492 -0.25 32.83C-0.25 34.2107 0.869288 35.33 2.25 35.33Z" fill="white"/>
</g>
</g>
<defs>
<clipPath id="clip0_2_404">
<rect width="5" height="35" fill="white" transform="translate(0 0.329956)"/>
</clipPath>
<clipPath id="clip1_2_404">
<rect width="6" height="35" fill="white" transform="translate(-0.5 0.329956)"/>
</clipPath>
</defs>
</svg>
