<svg width="62" height="63" viewBox="0 0 62 63" fill="none" xmlns="http://www.w3.org/2000/svg">
<g clip-path="url(#clip0_2_525)">
<g clip-path="url(#clip1_2_525)">
<g clip-path="url(#clip2_2_525)">
<mask id="mask0_2_525" style="mask-type:luminance" maskUnits="userSpaceOnUse" x="0" y="0" width="62" height="62">
<path d="M31 61.5859C47.8447 61.5859 61.5 47.9306 61.5 31.0859C61.5 14.2413 47.8447 0.585938 31 0.585938C14.1553 0.585938 0.5 14.2413 0.5 31.0859C0.5 47.9306 14.1553 61.5859 31 61.5859Z" fill="#D9D9D9"/>
</mask>
<g mask="url(#mask0_2_525)">
<path d="M31 61.5859C47.8447 61.5859 61.5 47.9306 61.5 31.0859C61.5 14.2413 47.8447 0.585938 31 0.585938C14.1553 0.585938 0.5 14.2413 0.5 31.0859C0.5 47.9306 14.1553 61.5859 31 61.5859Z" fill="#FEECEC"/>
<path d="M52.445 52.0136C52.0309 50.4637 51.3318 48.5709 49.9068 47.6801C49.1855 47.0788 48.5131 46.2059 47.5067 46.1479C46.1084 45.4888 44.5099 45.2706 42.9825 45.0924C42.0475 44.8208 41.0276 44.3664 40.0747 44.3531C40.0302 44.3442 39.9813 44.3308 39.9368 44.3219C39.8788 44.0547 39.5003 43.881 39.2466 43.9344C38.9036 43.8587 38.5608 43.6583 38.2179 43.6226C37.2338 43.253 36.4412 42.7542 35.9558 41.9569C35.9246 41.6318 36.0003 41.0305 35.4571 41.1731C35.3814 40.8435 35.6798 40.3002 35.1275 40.2378C34.6779 31.6286 48.5888 38.9729 47.6447 26.155C47.7293 17.1895 40.952 2.94187 30.4609 4.82137C23.7325 4.43834 18.4869 9.15044 16.1492 15.1407C16.1225 15.1897 16.0957 15.2432 16.069 15.2967C16.069 15.2967 16.0557 15.3234 16.0467 15.3367C11.1708 23.1308 9.80376 36.8885 22.5347 35.8998C23.9062 36.9287 26.2485 36.7015 26.903 38.6167C26.2618 38.9462 26.8362 39.6989 26.8718 40.1576C26.4934 40.6476 26.8095 41.231 26.4532 41.7922C25.5493 42.1352 25.202 43.4178 24.1911 43.7964C23.6835 43.8454 23.1937 43.9032 22.7173 43.97C22.7751 44.019 22.8331 44.0636 22.8909 44.1082C22.7529 44.1705 22.6104 44.2373 22.4991 44.2551C22.2363 43.979 21.6352 44.1215 21.4882 44.4644C21.3324 44.4956 21.172 44.5312 21.0118 44.5535C20.7179 44.3264 19.8318 44.509 19.9386 44.9856C19.9164 44.9856 19.8896 44.99 19.8674 44.9944C19.6091 44.8208 18.8165 44.9054 18.7007 45.2394C16.3318 45.6447 13.9361 46.5488 12.4889 48.5574C10.8323 49.7734 9.08239 53.8129 9.03786 55.8349C8.89091 56.6411 8.57921 57.5141 8.73506 58.3246C8.70389 58.9437 8.43671 59.6963 8.74397 60.262C8.73061 65.6823 8.63264 75.3603 11.2331 79.9923C11.6473 80.7716 12.2663 82.7492 13.3483 82.4686C13.896 82.7492 14.4971 83.1544 15.1205 82.8427C15.1518 82.8693 15.1918 82.8961 15.2319 82.914C15.3387 83.3949 15.4189 83.8849 15.4901 84.3703C15.0894 84.5752 15.2853 85.9915 15.7974 85.9558V86.1652C15.3521 86.281 15.5035 86.949 15.784 87.1673C15.8241 87.3944 15.8508 87.6215 15.8553 87.8487C15.3343 87.8754 15.4723 89.1492 15.8241 89.3185C15.8241 89.4342 15.8241 89.501 15.8108 89.6391C15.2008 89.5813 15.459 90.129 15.5346 90.5522C15.499 90.6323 15.4723 90.7258 15.45 90.8371C15.4367 90.855 15.4234 90.8951 15.4055 90.9441C15.3031 91.0777 15.2809 91.2158 15.3076 91.336C15.0582 92.4806 14.6084 95.3755 14.1854 98.1859H47.8273C47.3998 94.7298 46.9322 90.9084 46.8566 90.5566C47.5111 89.5233 46.3578 88.5346 45.6365 89.1893C45.6276 89.1359 45.6187 89.0869 45.6098 89.0334C45.7256 88.6147 45.7211 87.9467 45.3961 87.635C45.3961 87.6082 45.3961 87.5815 45.3961 87.5503C45.8547 87.3766 45.7656 86.3166 45.4406 86.0538C45.4406 85.9736 45.4406 85.889 45.4406 85.8089C45.8102 85.5327 46.0907 84.1521 45.5786 83.9294C45.5875 83.8759 45.592 83.8225 45.6008 83.7646C45.7968 83.5508 45.8057 83.2257 45.8992 82.9585C45.9883 82.9406 46.0818 82.9362 46.1709 82.9585C46.1709 82.8472 46.1752 82.7357 46.1797 82.6244C46.2643 82.6111 46.3445 82.5977 46.4202 82.5709C47.4488 82.7002 49.3814 83.052 49.4838 81.56C50.3121 81.1814 50.1161 80.1837 50.3121 79.4266C50.7929 79.0079 50.7707 78.184 50.7351 77.5872C51.0201 77.0082 51.2027 76.2956 51.1982 75.6365C51.5366 74.8659 51.737 74.042 51.7503 73.1957C52.1645 72.2783 52.5519 71.2406 52.3871 70.2207C52.7433 67.4148 53.5137 64.5733 53.4825 61.7184C53.5983 61.0459 53.6829 60.3689 53.6206 59.6875C53.9189 57.1355 53.5404 54.3652 52.4539 52.027L52.445 52.0136ZM26.6536 53.4789C26.627 53.4344 26.627 53.4344 26.618 53.3987C26.627 53.4254 26.6403 53.4522 26.6536 53.4789Z" fill="white"/>
<path d="M24.4713 32.2527C21.8435 31.6737 21.8168 26.966 25.0769 28.0082C27.669 28.5471 26.7961 32.2571 24.4713 32.2527Z" fill="#FAADB7"/>
<path d="M35.8171 32.0705C33.3675 31.7098 34.4142 27.6925 36.7614 28.2135C39.4247 28.5654 38.2088 32.6184 35.8171 32.0705Z" fill="#FAADB7"/>
<path d="M39.037 36.4302C37.2199 36.3101 36.7344 35.0986 38.5293 34.3415C38.458 33.5398 39.3532 33.5843 39.5492 32.9297C38.7787 32.1056 40.1415 31.687 40.391 31.0056C40.774 30.4845 40.2841 30.1326 40.3153 29.5938C40.8141 28.6094 40.872 27.643 40.5246 26.6186C40.4133 25.9505 41.1927 25.8125 41.1259 25.2023C40.9121 24.0577 40.5959 22.6592 39.8209 21.8085C38.6139 20.9845 36.6587 21.9377 35.6477 20.6684C34.6679 20.7396 33.6034 20.7619 32.6681 20.41C31.2518 21.283 29.8534 19.8845 28.4193 19.7732C27.5507 20.0538 26.8247 19.2832 26.2859 18.7043C24.9052 18.8691 24.1525 17.4617 23.5245 16.464C22.331 16.8292 22.4423 18.4949 21.3066 18.7577C20.7186 19.693 20.9057 21.0069 19.957 21.7773C19.5072 22.5701 20.1441 23.9107 18.7412 23.7682C17.7479 24.9529 17.5743 26.5963 18.7768 27.8078C19.2489 28.3868 20.1842 27.9191 20.6073 28.4981C20.8967 30.048 20.9235 31.7182 21.4714 33.2414C21.8143 34.15 22.5269 35.9404 20.8389 35.7088C9.82469 32.3195 15.9486 18.5795 20.0951 11.7741C20.4335 11.6761 20.6028 11.3154 20.8434 11.0883C21.213 10.3891 22.3398 10.6296 22.4021 9.72543C22.7629 9.20879 23.7651 9.42258 23.7161 8.59863C24.2505 8.32695 25.0967 8.6298 25.3016 7.8593C26.513 7.42729 28.0006 7.59208 29.0739 6.89284C29.2432 6.95073 29.3946 7.04871 29.5148 7.19569C31.6437 6.88838 33.6168 6.41182 35.8214 7.02645C38.3734 6.75921 42.2259 7.84594 44.1411 9.55619C46.6129 13.6181 48.9111 18.1163 48.9021 22.9265C50.0869 25.7279 49.2005 33.139 46.0517 34.4394C45.3169 35.5039 43.6779 36.7733 42.2927 36.1453C41.2239 36.0785 40.155 36.5417 39.037 36.4392V36.4302Z" fill="#9AE8EC"/>
<mask id="mask1_2_525" style="mask-type:luminance" maskUnits="userSpaceOnUse" x="8" y="4" width="46" height="88">
<path d="M8.6333 4.65259H53.753V91.7111H8.6333V4.65259Z" fill="white"/>
</mask>
<g mask="url(#mask1_2_525)">
<path d="M52.4887 52.0265C52.0744 50.4762 51.3751 48.5828 49.9494 47.6918C49.2278 47.0904 48.555 46.2173 47.5482 46.1593C46.1494 45.5 44.5501 45.2817 43.022 45.1035C42.0865 44.8318 41.0663 44.3773 40.113 44.364C40.0684 44.355 40.0194 44.3417 39.9748 44.3328C39.9169 44.0655 39.5382 43.8917 39.2844 43.9452C38.9412 43.8695 38.5982 43.669 38.2552 43.6334C37.2707 43.2636 36.4778 42.7647 35.9921 41.9672C35.9609 41.642 36.0366 41.0406 35.4931 41.1831C35.4175 40.8534 35.7159 40.31 35.1635 40.2476C34.7135 31.6362 48.6308 38.9824 47.6863 26.1611C47.771 17.1933 40.9905 2.94192 30.4947 4.8219C23.7633 4.43877 18.5154 9.15211 16.1766 15.144C16.1498 15.193 16.1231 15.2464 16.0963 15.2999C16.0963 15.2999 16.083 15.3267 16.0741 15.34C11.1959 23.1362 9.82823 36.8975 22.5649 35.9085C23.9371 36.9376 26.2804 36.7104 26.9352 38.626C26.2937 38.9557 26.8684 39.7086 26.904 40.1674C26.5254 40.6574 26.8417 41.2411 26.4852 41.8024C25.5809 42.1454 25.2334 43.4284 24.2221 43.8072C23.7143 43.8562 23.2243 43.914 22.7476 43.9809C22.8055 44.0299 22.8634 44.0744 22.9213 44.119C22.7833 44.1813 22.6406 44.2482 22.5293 44.2615C22.2665 43.9853 21.665 44.1279 21.518 44.4709C21.3621 44.502 21.2017 44.5377 21.0413 44.56C20.7473 44.3328 19.8607 44.5155 19.9677 44.9921C19.9454 44.9921 19.9187 44.9966 19.8964 45.001C19.638 44.8273 18.845 44.912 18.7292 45.246C16.3591 45.6515 13.9625 46.5558 12.5145 48.565C10.8574 49.7812 9.10653 53.8218 9.06198 55.8444C8.91497 56.6507 8.60313 57.5239 8.75904 58.3347C8.72786 58.954 8.46057 59.7068 8.76796 60.2726C8.75459 65.6943 8.65658 75.3749 11.2582 80.008C11.6726 80.7876 12.2919 82.7656 13.3744 82.4849C13.9223 82.7656 14.5238 83.171 15.1475 82.8592C15.1786 82.8859 15.2187 82.9126 15.2588 82.9304C15.3658 83.4115 15.4459 83.9016 15.5172 84.3872C15.1163 84.5877 15.3123 86.0088 15.8246 85.9731V86.1825C15.3791 86.2983 15.5306 86.9666 15.8113 87.1849C15.8513 87.4121 15.8781 87.6393 15.8825 87.8665C15.3613 87.8932 15.4993 89.1674 15.8513 89.3366C15.8513 89.4524 15.8513 89.5192 15.838 89.6574C15.0895 89.5861 15.6508 90.4325 15.5706 90.829C14.7108 91.4884 16.4171 92.6065 16.1543 90.4682C16.5641 90.1341 16.4171 89.4436 16.4483 88.9669C16.5641 86.9043 16.328 84.8906 15.8958 82.8636C16.0741 82.7745 16.2433 82.6497 16.3904 82.5294C17.0987 82.6899 17.5264 81.8746 17.9496 81.4469C18.4219 81.1618 18.8139 80.7653 19.1702 80.3421C20.4265 79.5848 21.1616 78.1102 22.1016 76.9964C23.4916 75.8471 24.4226 74.1497 25.1309 72.5192C25.5141 71.9088 26.0309 71.2763 26.12 70.5502C26.4675 69.6592 27.8173 67.7301 26.855 66.9818C27.6123 65.9482 28.1558 64.7899 28.7483 63.645C29.7686 65.6675 30.9491 67.6589 32.5128 69.3161C32.3212 69.4987 32.2322 69.6992 32.3836 69.9264C31.6574 70.2517 36.8831 77.1167 37.6048 77.1122C38.2954 77.8518 38.9547 78.823 39.8991 79.2283C40.5005 79.9278 41.3247 80.7074 42.2424 80.8946C43.2181 81.5049 44.0779 81.9994 45.2049 82.4939C44.8753 84.1154 44.8352 85.7816 44.7951 87.4299C44.7461 87.8709 45.4544 92.5932 46.0024 90.6775C45.8865 90.2811 46.0781 89.6707 45.7039 89.3946C45.6816 89.2787 45.6639 89.1584 45.646 89.0426C45.7619 88.6239 45.7574 87.9556 45.4322 87.6438C45.4322 87.6171 45.4322 87.5903 45.4322 87.5591C45.891 87.3854 45.8019 86.3251 45.4767 86.0623C45.4767 85.9821 45.4767 85.8975 45.4767 85.8172C45.8464 85.541 46.1271 84.16 45.6148 83.9372C45.6237 83.8838 45.6282 83.8303 45.6371 83.7724C45.8331 83.5585 45.842 83.2334 45.9356 82.9661C46.0247 82.9482 46.1182 82.9437 46.2073 82.9661C46.2073 82.8547 46.2117 82.7434 46.2162 82.6319C46.2964 82.6186 46.381 82.6052 46.4567 82.5785C47.4859 82.7077 49.4193 83.0596 49.5218 81.5672C50.3504 81.1886 50.1544 80.1906 50.3504 79.4333C50.8316 79.0145 50.8093 78.1903 50.7736 77.5934C51.0587 77.0142 51.2414 76.3014 51.2369 75.6421C51.5755 74.8714 51.7759 74.0473 51.7894 73.2008C52.2037 72.2831 52.5912 71.2451 52.4264 70.2249C52.7828 67.4183 53.5535 64.576 53.5223 61.7204C53.6382 61.0478 53.7228 60.3706 53.6604 59.689C53.9589 57.1363 53.5802 54.3653 52.4932 52.0265H52.4887ZM26.806 6.50142C27.0733 6.43904 27.1669 6.0782 26.9753 5.89109C27.7415 6.25639 28.6058 5.66389 29.3899 5.64161C28.441 5.71734 28.5033 6.82218 29.479 6.43014C29.6528 7.02709 29.9201 7.59288 30.2185 8.13638C30.2185 8.13193 30.2096 8.12747 30.2096 8.11856C30.2987 8.27448 30.3878 8.43486 30.4814 8.59079C33.0519 12.7651 36.0946 16.7122 40.5897 18.8773C41.3915 18.8371 40.9148 18.0798 40.3713 18.0041C39.6674 17.808 39.4759 16.4805 38.6606 16.828C37.5959 16.231 36.8118 15.3445 35.8228 14.7029L35.8318 14.7119C35.4976 14.3822 35.1858 14.0214 34.9007 13.6471C35.6491 12.2661 33.0607 11.6647 32.6152 10.5198C32.0717 9.81144 31.5817 9.05409 31.1273 8.28785C31.1362 8.30121 31.1451 8.31458 31.1496 8.32794C30.5704 7.50378 30.3254 6.4925 29.9245 5.61488C33.7112 5.10257 37.4088 6.20739 40.2243 8.6576C39.8679 9.36149 41.053 9.44613 41.2311 10.0386C40.9104 10.502 41.6008 11.2815 42.0998 11.1658C42.287 11.4108 42.4518 11.6736 42.5943 11.9453C42.0776 12.2884 42.6701 13.0101 43.1378 13.0368C43.3294 13.5046 43.2181 14.3822 43.9531 14.4713C44.2694 14.9614 43.6769 16.966 44.8307 16.4493C44.8664 16.525 44.8976 16.5963 44.9287 16.672C44.9287 16.6632 44.9199 16.6587 44.9199 16.6498C45.1693 17.8705 45.646 18.708 46.1227 19.8217C45.5881 20.5924 46.7464 21.2562 46.6662 22.0359C46.1672 22.2897 46.4434 23.2252 46.8934 23.3857C46.7107 24.0717 47.0537 24.5707 47.1072 25.2033C46.4567 26.1745 47.4948 27.4486 46.9067 28.5935C46.3766 28.589 46.2919 29.4221 46.6172 29.7206C46.5102 30.1928 46.3097 30.6383 46.0335 31.0392C45.5079 30.9056 45.1247 31.7698 45.4455 32.1396C45.2406 32.5583 44.8886 32.8791 44.4743 33.0885C43.9576 32.75 43.7749 33.534 43.3561 33.6543C42.6835 33.8191 42.2513 34.0196 41.6543 34.3047C40.8703 33.9394 39.7967 34.8259 38.9057 34.7279C41.6498 31.7298 43.7794 24.8246 40.8079 21.4789C32.3702 19.4118 32.8069 22.1605 28.392 12.676C29.1048 10.9831 26.6234 8.61752 26.815 6.49696L26.806 6.50142ZM21.6561 35.2002C20.4711 35.3427 19.6514 34.8037 18.5689 34.8349C18.2436 34.4294 17.5976 34.4696 17.1166 34.2379C17.0809 33.6855 16.524 33.9083 16.2211 33.8993C13.263 31.5783 15.5885 32.8301 14.0025 31.008C13.8377 30.6338 14.0203 29.8052 13.3788 29.8497C13.352 29.7607 13.3387 29.6672 13.3209 29.5735C13.8912 29.3197 13.8377 27.9966 13.254 27.7559C13.067 27.1679 13.9535 26.5709 13.3432 26.0541C13.3922 25.0251 14.3143 23.8 13.8198 22.8689C13.9223 21.0602 15.7355 19.2381 15.4993 17.6165C15.5662 17.5007 15.633 17.3893 15.7088 17.2824C16.2078 17.367 16.8626 16.427 16.5774 15.9949C16.6978 14.9702 18.4931 14.0926 17.9407 13.1526C18.1902 12.4176 19.7049 12.0968 19.3039 11.2237C21.0993 8.89372 23.0015 6.82663 26.062 6.26531C26.708 9.74907 27.55 13.1526 29.2384 16.3112C30.2274 17.7502 31.1184 19.3673 32.5262 20.4364C31.6262 20.2093 30.6774 20.1158 29.8799 19.6881C29.6038 19.4786 29.0736 19.1668 28.8954 19.6391C28.686 19.5766 28.4945 19.4831 28.3073 19.3718C28.6593 18.7748 25.9907 18.2358 25.5097 17.9863C24.9216 17.7278 24.5474 16.8147 23.8924 16.8502C23.3178 16.5072 22.4358 14.6005 21.8967 15.7944C20.6894 18.1555 18.6669 20.3919 18.747 23.1718C15.0316 22.312 15.1251 29.1325 18.551 29.1102C19.3574 31.3155 19.9053 33.7969 21.8566 35.2536C21.7898 35.2314 21.7273 35.2091 21.6561 35.2002ZM36.7539 46.0836C35.7293 45.7583 34.8071 46.5915 33.9384 47.0281C33.3815 46.146 32.1921 46.9701 31.7064 47.5671C30.7754 45.7406 28.7083 49.1976 27.4387 51.1978C27.3317 50.8103 27.011 49.4025 26.5788 49.358C26.5477 49.2867 26.5967 49.2777 26.4987 49.1754C26.4362 48.8634 26.5254 48.1373 26.071 48.0304C25.9596 47.9101 25.8527 47.7854 25.7457 47.6606C25.621 47.3309 25.5764 46.7875 25.2245 46.6984C25.0819 46.5558 24.9484 46.4133 24.8191 46.2618C24.8236 45.9588 24.4984 45.5535 24.1909 45.5356C24.0083 45.2906 23.8524 45.0322 23.7054 44.7605C23.7366 44.6625 23.7366 44.5823 23.7054 44.511C23.8256 44.5555 23.9549 44.5957 24.0841 44.6357H24.0974C25.9017 43.7893 27.5812 42.2746 27.608 40.1585C27.7817 39.1695 27.8083 37.1292 26.5342 36.9866C26.6189 36.4119 25.8081 36.5099 25.4919 36.2426C24.9037 36.0867 24.2622 35.6011 23.7098 35.8105C23.0816 35.365 22.5248 34.8214 21.8655 34.3314C21.968 34.0107 21.6338 33.6142 21.2997 33.7434C20.5557 33.3781 21.38 31.85 20.3687 32.0327C20.0033 31.4713 20.5067 30.3398 19.7315 30.1394C19.3841 29.5735 20.1325 27.9742 19.0722 28.3841C18.8985 28.1346 18.551 28.2192 18.3906 28.3974C18.3104 28.1658 18.0031 28.0544 17.8026 28.2059C17.3616 28.0499 17.7224 27.3996 17.1388 27.2659C16.9696 26.7403 16.6354 26.6066 16.8849 26.0586C16.4171 25.5418 17.1699 25.1053 16.9071 24.5974C18.2035 22.6952 19.5801 25.4305 19.5044 22.4947C19.638 22.1516 19.4598 21.8175 19.7227 21.4879C19.7137 21.5012 19.7093 21.5146 19.7004 21.5279C20.0523 21.3274 20.2572 20.9444 20.137 20.5612C20.4043 20.3251 20.7651 19.8039 20.5067 19.4608C20.872 19.0688 21.1616 18.6144 21.4467 18.1065C21.5848 17.7323 22.2441 17.5452 21.9947 17.0953C22.1328 16.8592 22.2753 16.623 22.409 16.3825C23.0104 17.0997 23.7188 17.6745 24.5073 18.1333C24.4984 18.1243 24.4939 18.12 24.485 18.111C26.5477 19.4965 28.8286 20.4676 31.3144 20.9176C32.0851 20.8954 34.4418 21.9734 34.5665 21.2206C35.5466 21.5457 36.4599 21.3854 37.4711 21.4522C40.2733 21.3676 41.3826 22.4322 41.4405 25.0696C40.554 25.7378 41.485 27.3461 41.1688 28.3084C40.6743 28.4331 40.7055 29.1904 40.7545 29.5959C40.554 29.725 40.5362 29.9834 40.5228 30.1972C40.5629 30.5492 40.594 30.8522 40.3937 31.1773C39.6452 31.1952 39.1864 32.6118 39.369 33.2266C38.8254 33.6409 38.4512 34.0286 38.0503 34.6076C36.9989 34.7903 36.3306 36.1669 35.2348 36.599C34.0275 38.2918 34.228 40.8669 35.4441 42.4261C35.3685 42.4529 35.2303 42.4974 35.1501 42.5241C35.8273 42.7335 35.9164 43.8784 36.6514 43.816C37.0034 44.0967 37.3999 44.3195 37.8276 44.4665C37.8543 44.462 37.8854 44.453 37.9122 44.4487C37.8276 44.5823 37.7429 44.7203 37.6271 44.8362C37.4889 45.2015 35.854 47.7809 35.8763 48.0928C35.7293 48.1997 35.756 48.4046 35.7738 48.5828L36.0278 48.761C36.3841 48.7967 36.7183 47.4958 36.8876 47.2419C37.0836 46.9166 38.7676 44.7872 38.5092 44.3685C38.5894 44.3907 38.6695 44.413 38.7497 44.4397C39.5115 45.2861 41.0663 45.01 42.0998 45.4643C42.2914 46.0925 43.0666 45.6203 43.5433 45.7896C43.7036 46.1593 44.2872 46.0703 44.5901 45.9455C44.8084 45.9723 45.0267 46.0213 45.2406 46.0791C45.2584 46.5424 46.439 46.7251 46.7152 46.4533C46.8087 46.489 46.9067 46.5246 46.9958 46.5736C46.9958 46.9389 47.5482 47.1261 47.762 46.8142C47.8913 46.8543 48.0338 46.8944 48.1497 46.9656C48.3412 47.3844 48.9515 47.5181 49.2634 47.9101C49.21 48.2576 49.8826 48.8769 50.2346 48.6897C50.3682 48.8457 50.4974 49.0105 50.5909 49.1931C50.3236 49.4961 50.8093 50.5519 51.2592 50.3603C51.3127 50.4807 51.3661 50.6009 51.4018 50.7257C51.1256 50.9707 51.4196 51.973 51.8027 52.0844C51.9631 52.3027 51.8294 52.6858 52.1324 52.7838C52.3729 53.2961 52.5912 53.8174 52.6625 54.3787C52.364 54.6594 52.3551 56.0137 52.961 55.9246C53.0055 56.2186 53.0322 56.5126 53.0412 56.8067C52.6269 56.8467 52.8362 58.5218 53.1615 58.5842C53.157 58.7178 53.1481 58.856 53.1302 58.9896C52.7382 59.0787 52.6581 60.4953 53.0367 60.6334C53.1259 61.2928 52.5377 62.1659 52.9031 62.7005C52.8897 63.2574 52.8362 63.8187 52.7516 64.3667C52.4977 64.3755 52.3774 64.6295 52.3907 64.8612C52.3774 65.6541 52.4354 66.4204 52.1591 67.1866C51.8874 67.3426 51.6512 68.6345 52.1146 68.6568C52.0922 68.9864 52.0522 69.2627 51.9676 69.5967C51.0766 69.276 50.9652 71.2228 51.8072 71.1738C51.7314 71.6238 51.5934 72.0648 51.4329 72.4925C50.8271 72.3232 50.5687 73.6374 51.1256 73.7889C51.0899 74.1141 51.0097 74.4438 50.9117 74.7734C50.1276 74.3368 49.9138 76.0742 50.5866 76.2124C50.5331 76.4797 50.4751 76.7514 50.3726 77.0054C49.6153 76.7336 49.3258 78.3373 50.1766 78.226C50.1544 78.431 50.141 78.627 50.0653 78.8275C49.7623 78.7695 49.5663 79.1393 49.7311 79.3798C49.7223 79.5313 49.6866 79.6828 49.651 79.8253C49.3525 79.9323 49.2366 80.6316 49.5129 80.8009C49.3168 81.2331 48.2788 81.0683 48.4526 81.6652C48.5328 81.8256 48.6575 81.8523 48.7912 81.8256C48.5863 82.0796 48.1987 82.1286 47.8913 82.1018C47.6953 81.9459 47.3344 81.8256 47.134 82.0349C46.9201 82.0172 46.7687 82.0082 46.537 81.9681C46.2786 81.7009 45.4455 81.3177 45.2807 81.8434C45.0802 81.7677 44.8797 81.6786 44.6882 81.5806C44.7728 81.1439 43.5833 80.5648 43.2581 80.7965C42.6611 80.6316 41.9796 79.4422 41.4183 79.7808C41.3247 79.714 41.2267 79.6426 41.1375 79.567C41.151 79.0858 40.5317 78.8853 40.2154 78.627C40.0283 78.3107 39.5427 77.5355 39.115 77.834C38.6874 77.3885 38.2597 76.9385 37.8989 76.4396C37.7741 76.1189 37.4534 75.4461 37.0479 75.8426C36.549 75.2991 36.0589 74.7378 35.6625 74.1096C35.5288 73.8245 35.3595 73.281 34.9898 73.2855C34.8205 73.0449 34.6556 72.8043 34.5042 72.5504C34.473 72.2341 34.2636 71.802 33.9428 71.7085C33.6444 71.2718 33.3459 70.8397 33.0607 70.3987C33.0697 70.2249 32.9137 70.1402 32.8247 70.0067C32.8959 69.9577 32.9494 69.8819 32.9583 69.7884C33.0652 69.6947 33.181 69.6191 33.2969 69.5434C33.8225 69.9264 34.5843 68.6701 35.1011 68.4429C35.5421 68.0019 36.6693 67.7569 36.5891 67.0174C36.7183 66.8881 36.8474 66.7634 36.9811 66.6386C38.7631 68.8884 40.7633 71.0981 43.1066 72.7018C43.4185 72.9469 44.1536 73.8601 44.4031 73.1652C44.8574 73.1161 44.8574 71.9757 44.8842 71.6105C45.6237 68.2424 45.5702 64.781 45.4544 61.3596C45.1916 58.7757 43.6457 61.2438 44.8218 61.3061C44.902 61.8719 44.9243 62.4511 44.8931 63.0257C44.3719 63.048 44.4476 64.6696 44.9287 64.7142C44.9376 65.1864 44.9243 65.6497 44.8708 66.1219C44.5011 66.3179 44.4342 67.3604 44.8708 67.5074C44.8396 68.1088 44.7951 68.7102 44.6614 69.3027C44.3362 69.3964 44.1269 70.4299 44.5011 70.5635C44.4788 70.7729 44.4342 70.9867 44.3897 71.1917C44.2026 71.41 44.0378 71.9045 44.2561 72.145C44.2427 72.3143 44.2159 72.4836 44.1624 72.6484C44.0601 72.5103 43.9041 72.3945 43.7304 72.4702C43.6413 72.39 43.5521 72.3098 43.4675 72.2252C43.3695 71.8242 42.8616 70.9422 42.434 71.4946C42.0642 71.1382 41.7123 70.7595 41.387 70.3585C41.2802 70.0557 40.9505 69.5032 40.5985 69.8418C40.2288 69.4765 39.8857 69.08 39.5605 68.6746C39.5694 68.2559 39.1106 67.2312 38.5894 67.6723C38.2017 67.1866 37.8276 66.7501 37.4578 66.2422C37.7474 65.9036 37.4088 65.5116 37.0123 65.5873C36.5534 64.7097 35.6758 64.1038 35.2927 63.1905C35.315 62.9099 35.1991 62.4867 34.8338 62.5892C34.6022 62.1793 34.8918 61.6402 34.629 61.2749C34.7492 60.9631 34.9898 60.5354 34.7803 60.2191C34.816 60.0365 34.9763 59.8806 34.9318 59.6845C36.0278 57.907 37.0391 56.0939 38.1261 54.3029C38.4379 53.657 39.0437 53.2115 39.4536 52.6235C40.349 50.5297 38.0814 51.1132 37.0435 51.8617C37.5469 50.8459 38.4602 49.995 38.7007 48.8634C38.723 47.2285 36.696 48.5294 36.099 49.0862C36.3574 48.1551 37.1415 47.2329 37.0346 46.2573L36.7316 46.0791L36.7539 46.0836ZM26.3872 68.3894C26.0799 68.4652 25.9907 68.8349 25.8437 69.08C25.7369 69.3206 25.5854 69.6414 25.7947 69.8641C25.67 70.3585 24.9171 70.8085 25.1666 71.3253C25.0641 71.5124 24.9527 71.6995 24.8369 71.8777C24.4583 71.8287 23.4826 73.3033 23.9861 73.5261C23.9192 73.6241 23.8524 73.7176 23.7766 73.8111C23.3801 73.7621 22.2575 75.1254 22.8813 75.3571C22.7431 75.5441 22.6006 75.7312 22.4401 75.8961C22.017 75.2813 21.2552 76.4217 21.5002 76.836C21.3933 76.9875 21.2863 77.139 21.1705 77.286C20.734 77.0544 20.226 77.8963 20.3909 78.2572C20.186 78.5423 19.9765 78.8185 19.7494 79.0858C19.0366 78.5958 18.894 80.0481 18.4084 80.3198C17.9318 79.8387 17.3126 80.8233 17.3393 81.2643C17.1611 81.4692 16.9873 81.6741 16.7824 81.8568C16.6532 81.4424 16.1008 81.6384 16.083 82.0127C15.985 82.1107 15.8691 82.1909 15.7488 82.2622C15.7133 82.231 15.6686 82.2042 15.6196 82.1864C15.4013 81.9058 15.1475 82.1776 14.938 82.3112C14.3411 82.6721 13.802 81.6919 13.2585 81.9504C12.8086 81.6697 12.5145 81.193 12.2874 80.7208C12.2161 80.351 11.8997 80.0436 11.8107 79.6605C11.8464 79.322 11.7127 78.6581 11.2494 78.7785C11.1558 78.5067 11.0756 78.226 10.9999 77.9453C11.1336 77.6914 10.9509 76.8138 10.6524 76.7247C10.5945 76.4752 10.5455 76.2257 10.4965 75.9762C10.6346 75.6332 10.5098 75.0986 10.2915 74.8091C10.2693 74.6621 10.2515 74.5151 10.2336 74.3681C10.5678 74.1364 10.3628 73.0493 10.0421 72.8711C9.85942 72.3767 10.4074 71.4678 9.75695 71.2228C9.74359 71.1159 9.73022 71.009 9.72132 70.902C9.96188 70.5769 9.91733 69.9131 9.64559 69.619C9.61885 69.3785 9.60104 69.1334 9.58767 68.8929C9.82378 68.5588 9.94406 67.5653 9.52529 67.3426C9.51639 67.0886 9.49857 66.8303 9.49857 66.5763C9.72577 66.2868 9.82378 65.4047 9.47629 65.1775C9.41838 64.5048 9.4362 63.8098 9.52529 63.1505C9.87278 62.8699 9.6634 62.5312 9.37383 62.5357C9.30701 62.0189 9.82823 61.3239 9.38719 60.9186C9.23127 60.3083 10.0109 59.239 9.35156 58.9093C9.26691 58.3615 9.92625 57.604 9.47184 57.1764C9.39165 56.5126 10.3584 55.1761 9.8015 54.9266C9.89951 54.6059 10.002 54.2851 10.1267 53.9733C10.4831 53.8486 10.8574 53.0244 10.5767 52.7125C10.6881 51.884 11.8107 51.3627 11.6013 50.6767C11.7484 50.4405 11.8954 50.2 12.0512 49.9727C12.5413 50.0529 12.8932 49.4604 12.9734 49.0327C13.018 48.9837 13.0625 48.9347 13.107 48.8857C13.4902 48.9036 14.0426 48.4848 13.7976 48.0704C13.8778 47.9992 13.958 47.9324 14.0382 47.8611C14.3455 48.0616 15.1563 47.5091 15.0405 47.1439C15.1519 47.0636 15.2633 46.9835 15.3836 46.9211C15.6643 47.1261 16.3369 46.9211 16.3591 46.5469C16.6042 46.4489 16.8448 46.3598 17.0943 46.2841C17.4061 46.5513 18.1099 46.4623 18.1946 46.0078C19.1435 45.696 20.3285 45.8252 21.1215 45.2015C21.7586 45.0901 22.4001 44.9431 23.0326 44.7961C24.2578 46.9345 27.2382 51.483 27.4119 51.5632C27.3139 50.7212 26.9887 49.6119 26.1734 49.2332C25.2067 48.761 24.7389 49.3312 24.7834 50.298C24.5474 50.9305 24.6632 51.6345 24.5028 52.3295C24.2132 52.4987 24.3469 52.9086 24.2846 53.1893C24.3068 53.6971 23.9638 54.2629 24.0929 54.7441C23.4826 56.4547 22.9703 58.1208 23.1975 59.9518C23.0861 60.1345 23.0326 60.4063 23.202 60.5443C23.2109 60.7003 23.1797 60.874 23.251 61.0211C23.2331 61.1681 23.2064 61.3151 23.1708 61.4576C22.7431 61.5556 22.4313 62.5224 22.654 62.8787C22.6006 63.0079 22.5426 63.1416 22.4803 63.2663C22.0571 63.2752 21.7541 64.1573 21.9991 64.4692C21.8833 64.7765 21.7273 65.0661 21.5448 65.3423C21.4958 65.3646 21.4601 65.3958 21.4333 65.4358C21.42 65.4403 21.4066 65.4492 21.3933 65.4537C20.6938 64.5448 20.734 66.309 20.3998 66.661C19.892 66.4873 19.5845 67.2491 19.7049 67.6499C19.5177 67.944 19.3217 68.2291 19.1167 68.5098C18.8272 68.7058 18.5421 69.0889 18.502 69.4409C18.2882 69.7616 18.0565 70.0734 17.8071 70.3719C17.6154 70.3541 17.4818 70.4833 17.3659 70.6259C17.1967 67.8148 16.9161 65.0795 16.6621 62.2996C16.1453 61.0611 16.4528 59.5241 15.6553 58.4105C15.3435 58.1832 14.9826 58.6198 15.2231 58.905C15.6152 59.5018 15.6108 60.2993 15.7133 60.9943C15.1741 61.2304 15.4771 62.6961 16.0963 62.6382C16.1097 62.754 16.1231 62.8699 16.1231 62.9857C15.5038 63.0569 15.7221 64.7498 16.3101 64.7365C16.3369 65.0082 16.3458 65.28 16.328 65.5517C16.0073 65.7833 15.9805 67.0351 16.5641 66.9283C16.5953 67.151 16.6131 67.3693 16.6086 67.6009C16.1899 67.7123 16.328 68.4964 16.5908 68.7014C16.6131 68.8617 16.6309 69.0042 16.6398 69.1646C16.3993 69.4676 16.4038 70.2205 16.7779 70.421C16.7779 70.7417 16.7601 71.0625 16.7066 71.3788C16.5731 71.4678 16.5284 71.646 16.6042 71.7842C16.3681 71.9356 16.2121 72.2965 16.1854 72.5326C16.0473 72.7865 15.7266 72.9736 15.74 73.2855C15.8201 73.7265 16.4438 73.5171 16.4794 73.1652C18.2124 70.9645 20.0568 68.6746 21.2953 66.1531C21.3665 66.2066 21.4378 66.2288 21.5046 66.2244C22.7654 66.8971 24.3112 67.2846 25.67 67.5519C25.9685 67.6054 26.2804 67.8549 26.5744 67.8193C26.5432 68.0153 26.4719 68.2202 26.3962 68.3984L26.3872 68.3894ZM29.1048 62.3085C28.4945 62.2327 28.3965 63.195 28.0801 63.5737C27.9777 63.5915 27.893 63.6628 27.853 63.7564C27.6168 64.2642 27.4163 64.7899 27.1713 65.2933C26.3517 65.084 26.5209 66.5941 26.1155 67.0308C25.7101 67.0084 25.3136 66.4516 24.9527 66.7411C24.1197 66.3981 23.2287 66.3135 22.4001 65.9749C22.6496 65.7745 22.4891 65.4358 22.2486 65.3868C23.5851 62.3307 24.1019 61.5511 23.7766 58.2233C23.9192 57.1897 24.2534 56.2141 24.6009 55.2341C25.0062 53.4209 25.1844 51.5632 25.4962 49.7277H25.5542C25.621 49.8569 25.7769 49.9371 26.0309 49.8614C26.111 49.9104 26.1645 49.9862 26.218 50.0619C25.9997 50.3782 26.3115 50.8504 26.6501 50.9217C26.6857 51.0242 26.708 51.1265 26.7303 51.229C26.454 51.4429 26.5877 51.9195 26.8283 52.1156C26.5877 52.267 26.6011 52.6502 26.7793 52.8462C26.708 53.0244 26.5833 53.2248 26.6412 53.4164V53.4075C26.659 53.7283 27.0956 53.8976 27.2738 53.5991C27.4208 53.2783 27.3807 52.9086 27.5812 52.6056C28.1737 51.6033 28.6638 50.5207 29.3141 49.5406C29.724 49.3357 29.7508 48.7566 30.0626 48.4358C30.4189 48.2487 30.5972 47.7987 30.9803 47.6206C31.8179 48.2754 28.3563 52.3517 29.5101 52.4809C29.9468 52.3963 30.4903 51.1934 30.5749 50.7568C31.0026 50.3425 31.0917 49.6342 31.4169 49.1307C31.6084 49.0506 31.6486 48.8679 31.6709 48.6764C31.8267 48.6362 31.947 48.4714 31.9159 48.3066C32.3167 47.9146 32.7089 47.2553 33.3414 47.3309C33.3102 47.5716 33.2568 47.7943 33.2167 48.0304C32.9895 48.3912 32.9449 48.8769 32.7222 49.2599C32.2945 49.6475 32.2767 50.2935 32.0317 50.7835C31.4882 51.4607 31.2832 52.4007 30.8021 53.1491C30.6596 53.4031 30.5526 53.7371 30.9313 53.8308C31.2387 53.8842 31.3144 53.5411 31.4169 53.3273C32.3079 51.9418 32.6955 50.2222 33.8181 49.006C33.9562 49.0506 34.072 49.1352 34.1968 49.2021C34.4285 50.4227 32.7445 52.8506 32.1742 54.0891C31.751 54.6104 32.4148 55.0914 32.6865 54.4723C33.3503 53.706 33.7958 52.6056 34.8383 52.2983C34.9763 52.5655 34.9051 52.8462 34.776 53.1091C34.3215 53.4877 34.3527 54.2317 33.9652 54.6906C33.5998 54.7974 33.1722 55.684 33.2568 56.0449C33.1142 56.3434 32.9895 56.5972 32.8202 56.8957C32.2677 57.2833 32.2277 58.1832 31.7243 58.6866C31.4302 58.7713 30.8199 59.7246 30.9091 60.0231C30.7486 60.2681 30.566 60.4953 30.3521 60.7091C29.9601 60.6736 29.2251 61.3462 29.6706 61.6937C29.5636 61.8897 29.4478 62.0857 29.332 62.2773C29.2384 62.2506 29.1583 62.2684 29.0914 62.3085H29.1048ZM26.6813 53.4921C26.6545 53.4476 26.6545 53.4476 26.6457 53.412C26.6545 53.4386 26.6679 53.4654 26.6813 53.4921ZM32.0361 67.6233C31.8624 67.4139 31.7421 67.0976 31.4659 67.0129C31.3902 66.9016 31.3189 66.7946 31.2476 66.6788C31.3234 66.358 30.8956 65.663 30.5571 65.6318C30.4413 65.4358 30.3209 65.2443 30.2141 65.0438C30.1873 64.6562 29.9913 64.0459 29.5993 63.8855C29.5058 63.7074 29.4166 63.5247 29.332 63.342C29.3498 63.3019 29.3543 63.2619 29.3543 63.2262C31.1318 60.7671 32.9093 58.3168 34.1923 55.5325C34.6913 54.5791 35.5065 53.5813 35.5511 52.4853C35.3907 51.3048 34.8293 51.5186 33.9874 51.9775C34.0275 51.884 34.072 51.7903 34.1122 51.7013C34.825 50.7835 35.5823 48.4982 33.7825 48.3512C33.8359 48.1685 33.8672 47.9769 33.934 47.7988C34.7135 47.3621 35.5466 46.6138 36.451 46.5691C36.2505 47.527 35.3728 48.5071 35.4753 49.4515C35.4085 51.2112 37.2395 48.5338 38.0771 48.7299C38.0949 49.1352 37.7874 49.4872 37.6048 49.8347C37.1326 50.1242 37.0256 50.8014 36.696 51.238C36.5311 51.6389 35.5243 52.8106 36.5089 52.7393C36.9276 52.9264 37.2529 52.4631 37.5736 52.2715C38.0236 52.0353 38.5047 51.8572 39.017 51.7993C39.2042 52.7883 36.7851 53.9644 37.1371 54.7529C36.9989 54.9801 36.8608 55.2073 36.7138 55.4256C36.4599 55.5994 36.0856 56.0002 36.255 56.3299C36.1168 56.5884 35.9743 56.8422 35.8228 57.0917C35.4218 57.2343 35.0432 57.9159 35.0343 58.3302C34.9853 58.4238 34.9408 58.5085 34.8828 58.6065C34.4552 58.9583 34.1612 59.6221 34.1656 60.1613C33.7735 61.2972 33.983 62.6782 34.7358 63.6049C34.9007 63.8499 34.8561 64.4647 35.2883 64.3622C35.7516 64.9369 36.2104 65.5071 36.6291 66.113C35.9833 66.6966 35.4531 67.3961 34.7581 67.9173C34.121 67.7791 33.6755 68.7369 33.0385 68.9509C32.6331 68.5632 32.2812 68.1401 32.0406 67.6233H32.0361ZM36.6871 63.8455C38.5047 60.5978 44.2159 57.0115 39.6987 53.7594C42.0463 53.6036 43.2938 52.4898 42.532 50.0752V50.0663C42.8483 49.4204 42.5231 48.5784 42.336 47.8701C42.3627 47.8879 42.3894 47.9056 42.4206 47.9191C42.4518 47.2775 42.0463 47.1573 41.4806 47.0103C41.4762 47.0369 41.4717 47.0636 41.4628 47.0904C41.485 47.1038 41.5073 47.1126 41.5296 47.1216C41.4138 49.5451 43.3294 53.069 39.6007 53.0199C39.0705 53.0423 38.5359 53.5189 38.968 54.0268C40.1797 55.2474 41.6455 56.5928 39.9793 58.1253C38.8432 57.9427 39.213 59.7246 38.4602 60.2369C37.2974 60.081 37.5291 62.2149 36.5846 62.7896C36.1525 63.1995 35.1858 63.6272 35.4531 64.4202L36.0901 64.634L36.6826 63.8455H36.6871ZM23.6831 60.2636C23.5494 60.1478 23.3801 60.0899 23.1619 60.1123C22.4268 59.5731 22.8678 57.8 21.7273 57.9382C19.5267 55.8979 22.8545 54.9311 22.9926 53.1981C21.7541 52.3071 19.2371 52.8418 20.1192 50.5519C20.2885 49.3312 20.5023 48.0839 20.6003 46.8721C20.685 46.8231 20.7651 46.7964 20.8631 46.8098C20.8587 46.6895 20.8542 46.5691 20.8542 46.4489C20.6315 46.5291 20.382 46.5336 20.1815 46.3999C19.9142 47.4914 19.1168 48.7209 19.4865 49.7767V49.7901C18.6312 52.1824 19.843 53.3318 22.1818 53.5858C20.8542 54.7752 19.3307 56.2454 20.8097 57.9471C21.6383 59.2123 22.5203 60.4508 23.3757 61.7071L23.6876 60.2726L23.6831 60.2636Z" fill="#26466D"/>
<path d="M23.3865 25.3104C23.4801 25.7647 24.2285 25.6267 24.0637 25.1544C24.1527 25.0342 24.1929 24.8871 24.2374 24.7446C24.469 24.7847 24.6873 24.5619 24.6562 24.3302C24.8032 24.455 25.0125 24.4461 25.1997 24.4016C25.2442 24.5441 25.4002 24.6421 25.5516 24.6287C25.7655 24.847 25.8456 25.248 26.153 25.3415C26.7589 25.8093 26.848 24.7357 26.5273 24.4104C25.9347 23.6932 24.5582 23.0561 23.9122 23.9783C23.3999 24.0764 22.8296 24.9495 23.3954 25.3149L23.3865 25.3104Z" fill="#26466D"/>
<path d="M28.6749 33.3515C28.8531 33.7435 29.2719 34.1935 29.7307 34.1845C31.2944 35.1201 33.0764 33.6678 33.1477 32.0462C33.455 31.0794 31.7532 31.5873 31.2187 31.4759C30.7019 31.5606 27.922 31.0438 28.2651 31.9036C28.1715 32.3981 28.3631 33.102 28.6749 33.3559V33.3515ZM29.2362 32.1576C29.4768 32.1442 29.7797 32.2467 29.9802 32.0729C30.5727 32.015 31.2722 32.3491 31.8112 32.1041C32.0339 32.1041 32.2612 32.0996 32.4839 32.1041C32.3992 32.2957 32.3814 32.505 32.3992 32.7099C32.172 32.9684 31.9715 33.2267 31.7577 33.4985C31.486 33.4317 31.3479 33.7613 31.085 33.7925C30.9069 33.6143 30.5994 33.65 30.4212 33.8014C30.0961 33.7792 29.8733 33.3247 29.5391 33.4317C29.0759 33.2535 29.4367 32.5317 28.9244 32.4739C28.8932 32.358 28.8754 32.2422 28.8888 32.1219C29.0046 32.1352 29.1249 32.1486 29.2407 32.1576H29.2362Z" fill="#26466D"/>
<path d="M34.5916 25.5906C34.6406 25.947 35.251 25.947 35.2554 25.5461C35.5182 25.4659 35.5628 25.1184 35.7989 24.9803C35.9993 25.1006 36.3201 25.0516 36.4582 24.8644C36.4983 24.8644 36.5428 24.8644 36.583 24.8778C36.6943 25.056 36.9349 25.1139 37.1353 25.0916C37.425 25.2565 37.2913 25.6797 37.6031 25.7911C37.7947 25.8534 38.0041 25.7109 38.0219 25.5149C38.3471 24.4323 36.623 23.8621 35.7588 24.0403C35.2108 24.0938 34.6005 24.7085 34.547 25.2476C34.4892 25.3545 34.498 25.4971 34.5916 25.5996V25.5906Z" fill="#26466D"/>
<path d="M29.4259 28.736C29.8892 28.8428 31.1812 29.5423 31.395 28.9275C31.2925 28.3305 30.3257 28.5266 29.8847 28.2727C30.3971 27.5332 30.2679 26.6332 30.3792 25.7957C30.3392 25.2701 30.6242 24.6552 30.3614 24.1786C30.2234 24.0093 29.9471 23.9558 29.8046 24.1563C29.6352 24.4013 29.9114 24.6597 29.8269 24.9314C29.5639 25.074 29.5774 25.5151 29.7511 25.7244C29.7466 25.7868 29.7377 25.8492 29.7288 25.9115C29.3991 26.0452 29.2833 26.7624 29.5907 26.9674C29.4081 27.199 29.2699 27.6 29.3679 27.8895C28.9181 28.1167 28.9091 28.5978 29.4259 28.7315V28.736Z" fill="#26466D"/>
<path d="M29.4077 28.8253C29.9645 28.9189 32.7578 29.8187 31.5148 28.607C30.9803 28.5134 30.4992 28.2149 29.9378 28.2149C30.4457 27.7071 31.1852 22.1785 29.8175 24.0986C29.8888 24.5307 29.9779 24.9585 29.8309 25.4128C29.3275 25.4485 29.3275 26.1835 29.6215 26.4731C29.372 26.6156 29.3364 26.9364 29.3097 27.1948V27.1859C29.3007 27.3686 29.3052 27.5734 29.4166 27.7204C29.1716 27.9922 28.8909 28.6872 29.4121 28.8297L29.4077 28.8253Z" fill="#26466D"/>
<path d="M40.7893 21.4702C40.7893 21.4702 40.7981 21.479 40.8025 21.4833H40.8156C40.8156 21.4833 40.7981 21.4746 40.7893 21.4702Z" fill="#26466D"/>
<path d="M23.4822 45.1348L25.3176 45.9188C26.4358 46.3643 27.6654 46.5781 28.8904 46.5959C30.8685 46.6761 31.9955 46.5469 32.6148 46.4445C34.3254 46.4044 36.3747 45.4555 37.787 44.7205L38.237 43.6245L36.2812 44.7695C35.9114 45.1704 34.7531 45.0323 34.3744 45.4376C34.0716 45.2416 33.0736 45.46 32.891 45.7451C32.4811 45.6916 32.2228 45.6025 31.8128 45.6248C30.3517 45.4021 29.9418 46.2886 29.2469 45.7318C28.0796 45.9054 26.7343 45.5936 25.7051 45.0368C25.8076 44.8986 23.5044 44.569 23.5802 44.4175L23.4866 45.1258L23.4822 45.1348Z" fill="#26466D"/>
</g>
<path d="M23.3386 25.306C23.4321 25.7602 24.1804 25.6221 24.0156 25.1501C24.1047 25.0298 24.1447 24.8828 24.1892 24.7403C24.4208 24.7804 24.6391 24.5577 24.6079 24.3261C24.7549 24.4508 24.9643 24.4419 25.1513 24.3974C25.1958 24.5399 25.3517 24.6379 25.5031 24.6245C25.7169 24.8428 25.7971 25.2436 26.1044 25.3372C26.7101 25.8047 26.7992 24.7314 26.4785 24.4063C25.8862 23.6893 24.5099 23.0523 23.8641 23.9743C23.3519 24.0722 22.7819 24.9452 23.3475 25.3104L23.3386 25.306Z" fill="#26466D"/>
<path d="M28.6233 33.3439C28.8015 33.7359 29.2201 34.1856 29.6789 34.1768C31.2421 35.112 33.0236 33.6601 33.0949 32.0389C33.4022 31.0725 31.7008 31.5802 31.1664 31.4689C30.6498 31.5535 27.8706 31.0368 28.2135 31.8964C28.12 32.3908 28.3115 33.0945 28.6233 33.3483V33.3439ZM29.1845 32.1503C29.425 32.137 29.7279 32.2393 29.9282 32.0657C30.5206 32.0077 31.2198 32.3418 31.7588 32.0969C31.9814 32.0969 32.2086 32.0924 32.4313 32.0969C32.3467 32.2883 32.3288 32.4977 32.3467 32.7025C32.1195 32.9609 31.9191 33.2192 31.7053 33.4909C31.4336 33.4241 31.2956 33.7537 31.0328 33.7849C30.8546 33.6067 30.5473 33.6423 30.3692 33.7937C30.044 33.7715 29.8214 33.3172 29.4873 33.4241C29.0241 33.2459 29.3848 32.5244 28.8727 32.4666C28.8415 32.3508 28.8237 32.235 28.8371 32.1147C28.9529 32.128 29.0731 32.1414 29.1889 32.1503H29.1845Z" fill="#26466D"/>
<path d="M34.532 25.5861C34.581 25.9423 35.1912 25.9423 35.1957 25.5415C35.4628 25.4613 35.5029 25.1139 35.739 24.9759C35.9395 25.0961 36.2601 25.0471 36.3982 24.8601C36.4382 24.8601 36.4828 24.8601 36.5228 24.8735C36.6342 25.0516 36.8747 25.1094 37.0752 25.0872C37.3646 25.252 37.231 25.6751 37.5427 25.7864C37.7343 25.8488 37.9436 25.7063 37.9614 25.5103C38.2865 24.4281 36.563 23.8579 35.6989 24.0361C35.1511 24.0895 34.5409 24.7042 34.4875 25.2431C34.4296 25.35 34.4384 25.4925 34.532 25.5949V25.5861Z" fill="#26466D"/>
<path d="M29.374 28.7304C29.8372 28.8372 31.1288 29.5365 31.3426 28.9218C31.2402 28.325 30.2737 28.5211 29.8328 28.2672C30.3449 27.5279 30.2158 26.6282 30.3272 25.7909C30.2871 25.2653 30.5721 24.6507 30.3094 24.1742C30.1713 24.0049 29.8952 23.9514 29.7526 24.1518C29.5834 24.3968 29.8595 24.6552 29.7749 24.9268C29.5121 25.0694 29.5255 25.5103 29.6992 25.7196C29.6947 25.782 29.6858 25.8443 29.6769 25.9067C29.3473 26.0403 29.2315 26.7573 29.5388 26.9622C29.3562 27.1938 29.2182 27.5947 29.3162 27.8841C28.8663 28.1112 28.8574 28.5923 29.374 28.7259V28.7304Z" fill="#26466D"/>
<path d="M29.3519 28.8195C29.9086 28.913 32.7012 29.8127 31.4585 28.6013C30.9242 28.5078 30.4431 28.2094 29.882 28.2094C30.3897 27.7017 31.129 22.1745 29.7617 24.0941C29.833 24.5261 29.922 24.9536 29.775 25.408C29.2718 25.4436 29.2718 26.1784 29.5657 26.468C29.3163 26.6105 29.2806 26.9312 29.254 27.1895V27.1805C29.245 27.3631 29.2495 27.568 29.3608 27.715C29.1159 27.9867 28.8353 28.6815 29.3564 28.824L29.3519 28.8195Z" fill="#26466D"/>
<path d="M40.7297 21.4663C40.7297 21.4663 40.7383 21.4749 40.7426 21.4791H40.7554C40.7554 21.4791 40.7383 21.4706 40.7297 21.4663Z" fill="#26466D"/>
</g>
</g>
</g>
</g>
<defs>
<clipPath id="clip0_2_525">
<rect width="61" height="62.01" fill="white" transform="translate(0.5 0.330078)"/>
</clipPath>
<clipPath id="clip1_2_525">
<rect width="61" height="62.01" fill="white" transform="translate(0.5 0.330078)"/>
</clipPath>
<clipPath id="clip2_2_525">
<rect width="61" height="62.0167" fill="white" transform="translate(0.5 0.331787)"/>
</clipPath>
</defs>
</svg>
