<svg width="62" height="63" viewBox="0 0 62 63" fill="none" xmlns="http://www.w3.org/2000/svg">
<g clip-path="url(#clip0_2_560)">
<g clip-path="url(#clip1_2_560)">
<g clip-path="url(#clip2_2_560)">
<mask id="mask0_2_560" style="mask-type:luminance" maskUnits="userSpaceOnUse" x="0" y="0" width="62" height="62">
<path d="M31 61.5859C47.8447 61.5859 61.5 47.9306 61.5 31.0859C61.5 14.2413 47.8447 0.585938 31 0.585938C14.1553 0.585938 0.5 14.2413 0.5 31.0859C0.5 47.9306 14.1553 61.5859 31 61.5859Z" fill="#D9D9D9"/>
</mask>
<g mask="url(#mask0_2_560)">
<path d="M31 61.5859C47.8447 61.5859 61.5 47.9306 61.5 31.0859C61.5 14.2413 47.8447 0.585938 31 0.585938C14.1553 0.585938 0.5 14.2413 0.5 31.0859C0.5 47.9306 14.1553 61.5859 31 61.5859Z" fill="#E5ECF6"/>
<path d="M20.3188 29.736C20.1388 29.8485 20.0398 30.006 19.9904 30.1814C19.8194 30.8292 20.3323 31.8009 20.3548 32.4308C20.8857 33.8074 21.0386 35.355 21.7944 36.6687C22.3522 37.5909 23.0811 38.4322 23.9763 39.0485C24.7771 39.3184 25.5779 39.3815 25.5284 40.4836C25.2945 40.6771 25.2495 41.082 25.3755 41.3654C25.3575 41.3654 25.3395 41.3565 25.3215 41.3565C24.5207 41.6084 23.6838 41.7928 22.9776 42.2337C21.4389 42.1932 20.2918 43.4259 18.7982 43.6733C17.0931 44.5731 14.7673 44.9285 13.4941 46.3366C12.2119 46.4806 10.228 47.3308 9.65211 48.577C9.07626 49.3913 7.57366 50.1561 7.97405 51.3033C7.8346 51.5912 7.69963 51.8836 7.54667 52.1626C6.09356 52.23 6.87184 54.2725 6.04857 55.1047C5.08582 55.8246 5.45923 57.1068 4.80689 58.065C3.82616 58.6499 4.30753 60.031 3.66869 60.8677C2.70595 60.6653 1.93666 62.3254 2.66547 62.9552C2.31455 64.3093 1.31132 65.1146 1.18985 66.5633C1.0009 67.3506 -0.258764 68.0973 0.506034 68.9657C0.429554 69.3256 0.344077 69.6855 0.249602 70.0408C-0.731135 70.6212 -0.294754 72.2092 -0.74913 73.172C-1.13153 74.7736 -2.05829 76.5911 -1.14053 78.1432C1.20785 84.3605 6.93033 89.1967 12.2839 92.9578C12.2929 93.0478 12.3064 93.1377 12.3199 93.2277C12.3109 93.2412 12.3064 93.2546 12.2974 93.2637C12.3064 93.2726 12.3199 93.2772 12.3289 93.2817C12.4504 93.943 12.7203 94.5458 12.6213 95.2611C11.4336 95.3422 11.9735 97.0157 12.4009 97.6455C12.5359 98.1898 12.4413 98.6848 12.3604 99.1886H51.383C51.4325 97.3756 51.401 95.5491 51.2931 93.7765C51.7835 93.4841 51.527 92.9847 51.4281 92.5664C55.63 89.8491 65.3878 81.4003 64.812 76.2492C62.6571 66.5498 58.7431 56.5714 53.6819 47.9427C53.2231 46.9215 51.6665 46.737 50.7397 46.1657C50.0694 44.9419 48.1755 45.059 46.9877 44.5236C44.9453 43.4079 42.6104 42.895 40.3925 42.2112C39.4927 41.9638 38.134 41.3924 37.2927 41.9728C37.2927 41.1585 37.0634 40.3082 37.4593 39.5794C40.4329 38.8191 41.4047 35.9219 42.201 33.2855V33.2946C42.4125 32.5702 42.4934 31.8235 42.5834 31.0766C42.7273 31.0362 42.8264 30.8922 42.8264 30.7527C45.1657 31.0047 46.6008 28.8048 46.2859 26.6453V26.6543C46.1914 25.7726 45.8675 24.6838 45.1207 24.207C45.1387 24.1575 45.1612 24.1125 45.1837 24.063C45.0713 24.108 44.9407 24.099 44.8238 24.054C44.7878 23.8201 44.9678 23.5366 44.9813 23.2937C44.9813 23.3117 44.9813 23.3252 44.9767 23.3432C45.1612 21.9531 45.4672 20.5044 45.3186 19.1008C45.5211 17.0403 44.3289 14.8449 44.194 13.0094C42.8533 11.5653 42.4979 9.25742 40.5409 8.33517C39.5692 7.78631 38.629 7.18347 37.6122 6.7111H37.6212C37.6212 6.7111 37.6167 6.7111 37.6122 6.7111H37.5987C37.2118 6.49065 36.5685 6.51765 36.411 6.03178C27.3549 4.22776 15.9685 9.04598 16.9671 19.7757C17.1741 21.0218 16.9087 23.5997 17.7904 24.6794C17.6465 24.7289 17.489 24.7378 17.3406 24.6883C17.3676 24.8008 17.3945 24.9222 17.4756 25.0077C16.6163 25.9165 16.5128 27.2977 16.6523 28.4763C16.7107 29.637 17.7635 30.7212 18.9332 30.6852C19.2751 30.6088 19.9814 30.6718 19.9318 30.1589L20.3053 29.736H20.3188ZM45.3726 20.419C45.3726 20.419 45.3592 20.3875 45.3546 20.3695C45.3592 20.3875 45.3637 20.4055 45.3681 20.419H45.3726ZM45.2106 22.9428C45.2106 22.9428 45.2286 22.9338 45.2422 22.9293C45.2422 22.9293 45.2242 22.9383 45.2197 22.9428H45.2106Z" fill="white"/>
<path d="M25.2335 31.9295C22.7276 31.5606 22.6691 27.3272 25.3864 27.3362C28.693 27.2147 28.2746 32.06 25.2335 31.9295Z" fill="#FAADB7"/>
<path d="M37.132 30.7466C34.2617 30.2922 35.3955 26.1938 38.0228 26.7742C40.5916 27.179 39.5659 31.2414 37.132 30.7466Z" fill="#FAADB7"/>
<path d="M12.28 92.9521C12.3475 93.7439 12.7298 94.4233 12.6219 95.2601C11.4342 95.341 11.974 97.0146 12.4015 97.6445C12.5365 98.1888 12.4419 98.6837 12.361 99.1876H25.529C26.0914 80.8954 25.0746 61.5415 25.2906 43.3258C25.3265 43.1458 25.3085 42.9479 25.2051 42.7859C26.1003 42.885 26.2083 41.4183 25.3176 41.3599C24.5168 41.6118 23.68 41.7962 22.9737 42.2371C21.4351 42.1966 20.2878 43.4293 18.7943 43.6767C17.0892 44.5765 14.7634 44.9319 13.4902 46.34C12.208 46.484 10.2241 47.3342 9.6482 48.5804C9.07236 49.3947 7.56976 50.1595 7.97015 51.3067C7.83069 51.5946 7.69572 51.887 7.54277 52.166C6.08964 52.2334 6.86794 54.2759 6.04466 55.1081C5.08191 55.828 5.45532 57.1102 4.80299 58.0684C3.82224 58.6533 4.30363 60.0344 3.66479 60.8711C2.70204 60.6687 1.93275 62.3288 2.66156 62.9586C2.31064 64.3127 1.30741 65.118 1.18595 66.5667C0.996997 67.354 -0.26267 68.1007 0.502128 68.969C0.425648 69.329 0.34017 69.6889 0.245695 70.0442C-0.735045 70.6246 -0.298661 72.2126 -0.75304 73.1754C-1.13544 74.777 -2.06219 76.5945 -1.14444 78.1466C1.20394 84.3639 6.92642 89.2001 12.28 92.9612V92.9521Z" fill="#E1E2EB"/>
<path d="M37.8178 43.4516C37.8313 44.7114 37.8764 45.971 37.8853 47.2307C37.26 47.4781 37.5165 48.1575 37.7009 48.6163C37.7324 50.9242 37.5839 53.1106 37.7458 55.432C36.2522 56.0798 38.1823 58.0458 37.8133 59.2785C37.2015 59.9263 37.4625 61.3839 37.9483 62.0543C37.3499 63.9393 38.1597 65.7612 38.1417 67.6913C36.6212 68.7259 38.5916 70.9799 37.8764 72.5679C36.2342 73.1303 38.4252 74.7724 37.9168 76.014C36.6481 76.3964 37.4354 78.4299 37.4354 79.4241C37.6289 83.3336 36.8821 87.1621 37.6154 90.9771C37.1655 91.1525 37.161 91.7014 37.2555 92.1018C37.6694 94.4322 37.6199 96.8121 37.7278 99.1784H51.3773C51.4267 97.3653 51.3953 95.5389 51.2873 93.7663C51.7777 93.4739 51.5212 92.9746 51.4222 92.5562C55.6241 89.8389 65.3821 81.3902 64.8062 76.239C62.6513 66.5395 58.7373 56.5612 53.6762 47.9325C53.2173 46.9112 51.6606 46.7268 50.7339 46.1554C50.0636 44.9318 48.1696 45.0487 46.9819 44.5134C44.9394 43.3976 42.6046 42.8848 40.3866 42.201C39.4644 41.9446 38.0517 41.3462 37.2195 42.0075C36.7381 42.5249 37.1025 43.4247 37.8133 43.4471L37.8178 43.4516Z" fill="#E1E2EB"/>
<path d="M45.3225 19.0948C45.5251 17.0343 44.3328 14.8388 44.1979 13.0033C42.8572 11.5592 42.5018 9.25133 40.5448 8.32907C39.5731 7.78021 38.6329 7.17737 37.6161 6.70499H37.6252C37.6252 6.70499 37.6206 6.70499 37.6161 6.70499H37.6026C37.2157 6.48455 36.5724 6.51155 36.4149 6.02568C27.3589 4.22165 15.9724 9.03988 16.9711 19.7695C17.223 21.2946 16.7686 24.8307 18.5861 25.1411C18.6086 25.2806 18.6716 25.411 18.6581 25.5595C18.9011 25.5056 19.171 25.672 19.1846 25.9239C19.423 25.8879 19.6749 25.7664 19.7918 25.5505C19.5534 25.1457 19.6299 24.6057 19.5984 24.1469V24.1604C19.5984 24.1604 19.5984 24.1378 19.5984 24.1289C18.9551 22.0999 23.7328 11.3973 25.5503 15.824C25.5818 15.7836 25.6133 15.7431 25.6448 15.7071C26.9359 16.6789 30.481 18.5143 29.8557 15.3877C31.2998 15.9546 34.9618 18.9373 34.0891 15.4821C35.6231 16.247 37.4632 18.7978 38.255 15.9815C39.3032 16.5889 40.2524 17.2007 41.0217 18.1275C40.3109 18.9282 41.4266 19.5086 41.8 20.0485C41.728 20.7952 42.043 21.3441 42.1959 22.0819C42.3309 22.8153 41.7235 26.6707 42.9203 26.1308V26.1219C43.1722 24.8982 44.9806 25.4516 44.9852 24.2998C44.5938 24.0479 44.9492 23.6295 44.9717 23.2876C44.9717 23.3056 44.9717 23.3191 44.9672 23.3371C45.1516 21.9469 45.4576 20.4984 45.3091 19.0948H45.3225Z" fill="#26466D"/>
<path d="M45.2359 22.9277C45.2359 22.9277 45.2142 22.9363 45.2056 22.9407C45.2056 22.9407 45.2229 22.932 45.2359 22.9277Z" fill="#B9BEC2"/>
<path d="M45.3488 20.3672C45.3488 20.3672 45.3575 20.4019 45.3618 20.4148C45.3618 20.4148 45.3488 20.3845 45.3445 20.3672H45.3488Z" fill="#B9BEC2"/>
<path d="M16.6737 28.4801C16.7322 29.6408 17.7849 30.725 18.9546 30.6891C19.2965 30.6126 20.0028 30.6755 19.9533 30.1626C19.5125 29.5598 18.3428 30.3381 17.7849 29.4879C17.7939 29.038 17.2855 28.8176 17.3485 28.3271C17.6454 28.1022 17.6634 27.4949 17.3125 27.3149C17.3215 27.1845 17.3351 27.0495 17.362 26.9235C17.677 26.8156 17.7939 26.3566 17.6139 26.0913C17.6499 25.9787 17.7039 25.8798 17.7624 25.7763C17.7579 25.7854 17.7534 25.7943 17.7444 25.8034C17.7579 25.7808 17.7714 25.7583 17.7849 25.7359C18.6936 24.1792 19.8544 27.3059 19.8679 25.2455C19.2561 24.9576 18.7927 24.3457 18.0593 24.6877C18.0549 24.6651 18.0638 24.6471 18.0593 24.6246C18.0593 24.6246 18.0458 24.5797 18.0413 24.5571C17.8569 24.7237 17.5915 24.7776 17.3575 24.6966C17.3845 24.8091 17.4115 24.9305 17.4924 25.0161C16.6333 25.9247 16.5342 27.3059 16.6692 28.4846L16.6737 28.4801Z" fill="#26466D"/>
<path d="M21.7982 36.6711C22.356 37.5934 23.0848 38.4346 23.98 39.051C24.7809 39.3209 25.5816 39.3838 25.5322 40.4861C25.2397 40.729 25.2397 41.2959 25.5007 41.5523C25.3882 41.8582 25.2757 42.1686 25.1677 42.4836C24.9024 42.4205 24.7853 42.677 24.6639 42.857C24.6459 42.839 24.6279 42.821 24.6099 42.803C24.6234 42.8119 24.6324 42.821 24.6459 42.8344C24.5874 42.7804 24.5379 42.7175 24.4885 42.659C24.6234 43.0099 24.7538 43.3608 24.8798 43.7163C26.4409 43.1359 28.6724 46.348 30.5079 47.0003C30.3639 47.6257 31.628 47.6752 31.8979 47.3063C32.2084 47.2703 32.7708 47.2433 32.6313 46.7844C34.4668 45.6597 36.1404 44.2875 37.9308 43.0954C38.0254 43.2303 38.1378 43.3564 38.2413 43.4823C38.2413 43.1043 38.1963 42.7175 38.2548 42.3441C38.1783 42.2676 38.0659 42.2451 37.9624 42.2676C37.9308 42.1776 37.9039 42.0832 37.8679 41.9932C37.7104 42.1192 37.544 42.2272 37.373 42.3351C37.3416 42.2226 37.3281 42.1101 37.3101 41.9932C37.3145 41.1699 37.0761 40.3151 37.4765 39.5773C40.4502 38.817 41.422 35.9198 42.2182 33.2834V33.2925C42.4297 32.5682 42.5106 31.8214 42.6006 31.0745C42.7446 31.0341 42.8436 30.8901 42.8436 30.7506C45.1829 31.0025 46.6181 28.8027 46.3032 26.6433V26.6522C46.2086 25.7705 45.8847 24.6817 45.138 24.2049C45.156 24.1554 45.1785 24.1105 45.2009 24.0609C45.03 24.1329 44.805 24.0834 44.6701 23.9395C44.6116 23.989 44.5351 24.0159 44.4631 24.025C44.4587 24.0474 44.4722 24.0654 44.4722 24.0879C43.6218 24.0025 43.2035 24.9337 42.4386 24.8707C42.3397 26.2608 42.9651 25.739 43.5904 25.0731C44.0223 25.3341 44.1977 24.6728 44.6206 24.7807C44.4856 25.1182 44.8366 25.4646 45.174 25.3521C45.282 25.4915 45.3855 25.64 45.4439 25.802C45.2415 26.0764 45.3269 26.5938 45.6194 26.7692C45.6463 27.1471 45.6283 27.5295 45.5384 27.9029C45.21 28.0649 45.066 28.6407 45.3135 28.9196C45.2955 28.9556 45.2775 28.9962 45.2549 29.0321C44.7915 28.9331 44.8546 29.5449 44.4902 29.6484C44.2832 29.7564 43.9368 29.6889 43.8963 30.0083C43.4645 30.1343 42.9965 30.0443 42.5646 30.0983C41.6199 29.7609 42.0248 31.511 41.7864 32.0553C40.9135 32.0868 41.4265 33.3554 41.3095 33.8908C40.6167 34.0933 41.0845 35.11 40.6976 35.6049C40.2297 35.3259 39.9329 36.0008 40.2117 36.3472C39.7799 36.4507 39.9509 37.031 39.6945 37.3189C39.375 37.3729 39.1906 37.7373 39.204 38.0387C39.1906 38.0477 39.1771 38.0522 39.1636 38.0613C38.4753 38.0793 37.9039 38.8395 37.1661 38.9655C36.3833 39.6178 36.3248 41.1204 36.6263 42.0022C36.6802 42.3036 36.6487 42.7715 36.9951 42.893C36.0324 43.6352 34.9661 44.2201 34.0259 44.9309C33.5445 45.7272 32.1994 45.8172 31.889 46.5999C31.6506 46.5999 31.3446 46.4875 31.2232 46.7709C29.6756 45.4213 27.6241 44.2426 25.865 42.929C25.8336 42.9064 25.8021 42.8839 25.7706 42.8615C26.6479 41.4039 26.5129 38.4841 24.322 38.4526C23.1883 37.9082 22.9048 36.5496 22.1581 35.8433C22.0006 35.5059 21.8791 35.155 21.7711 34.7996C21.9961 34.4172 21.8431 33.6254 21.4248 33.432C21.1233 32.8426 21.5283 31.8394 20.8759 31.5019C20.8085 31.1376 20.7185 30.7777 20.687 30.4087C21.0153 30.1478 20.687 29.6755 20.318 29.7384C19.4947 30.2647 20.3271 31.6325 20.3586 32.4332C20.8894 33.8099 21.0424 35.3574 21.7982 36.6711Z" fill="#26466D"/>
<path d="M26.436 22.0326C27.2008 22.2801 28.6944 21.7627 27.6552 20.9529C27.4078 19.8822 23.6828 20.4221 23.9707 21.6502C24.0291 22.883 25.6713 21.8122 26.436 22.0326Z" fill="#26466D"/>
<path d="M26.7817 25.8381C28.1808 25.955 28.1357 23.6831 26.8716 23.7776C25.018 23.5347 24.7347 26.0809 26.7817 25.8381Z" fill="#26466D"/>
<path d="M29.5303 30.0812C29.3188 31.3183 31.3793 30.5715 32.0631 30.8505C32.0496 30.8505 32.0361 30.8415 32.0181 30.8415C32.4905 31.0215 32.684 30.2386 32.1801 30.1756C32.1801 30.0947 32.1801 30.0092 32.1801 29.9282C31.6942 29.9282 31.0104 29.7168 30.6595 30.1442C30.5156 30.1396 30.3716 30.1307 30.2276 30.0991C30.3626 29.4738 30.3401 28.8575 30.4391 28.2321C30.4796 27.8813 30.4885 27.5259 30.6055 27.184C30.8395 26.6621 31.1363 24.4217 30.1601 25.4744C30.3581 26.5136 29.2829 27.4179 29.7192 28.3581C29.6698 28.6955 29.6112 29.033 29.5213 29.3613C29.4808 29.4784 29.5078 29.6133 29.5888 29.7077C29.5663 29.8337 29.5483 29.9597 29.5213 30.0856L29.5303 30.0812Z" fill="#26466D"/>
<path d="M27.551 33.0286C27.2227 34.3692 30.1063 35.5569 31.1726 34.9675C31.654 34.9495 32.1173 35.053 32.5897 35.026C34.9291 34.7111 35.5409 32.9026 32.6662 34.3062C32.0993 34.2477 30.8756 34.0543 30.4753 34.4502C29.76 34.5672 29.3461 33.6764 28.7207 33.8113C28.2753 33.6359 28.1179 32.6687 27.5555 33.033L27.551 33.0286Z" fill="#26466D"/>
<path d="M10.5755 78.1826C10.8589 79.0418 11.7002 81.0979 12.7619 80.6794C12.7529 80.9988 12.7484 81.3227 12.7259 81.6422C12.402 82.0741 12.3345 83.2932 12.8383 83.6036C12.8383 83.7251 12.8339 83.8421 12.8249 83.9635C12.8024 84.265 12.7754 84.5664 12.7394 84.8634C12.2176 85.1558 12.0826 86.7123 12.6674 86.9823C12.7304 87.801 11.5562 89.722 12.7574 89.9875C12.7529 90.2214 12.7394 90.4554 12.7304 90.6848C12.2491 91.0312 12.537 91.7735 12.4964 92.2864V92.2773C12.4964 92.3719 12.51 92.4708 12.5235 92.5653C12.51 92.5518 12.492 92.5428 12.4784 92.5293C12.528 92.7813 12.474 93.0466 12.2985 93.2536C12.438 93.3571 12.6224 93.4111 12.7709 93.2986C12.7619 93.51 12.7484 93.7215 12.7259 93.933C12.663 93.951 12.6135 94.0005 12.573 94.0589C12.7934 94.1129 12.9643 94.3018 13.0589 94.4908C13.1668 94.4818 13.2702 94.4638 13.3737 94.4413C13.5223 89.4926 13.3557 84.6113 13.4592 79.6582V79.6897C13.4772 79.2398 13.3153 78.781 13.3783 78.34V78.3491C13.6707 77.3458 13.6572 60.4977 12.4695 64.5063C12.4695 64.5152 12.4695 64.5242 12.474 64.5332C12.645 65.4329 12.6944 66.3553 12.6495 67.273C12.1951 67.6599 12.1006 69.374 12.7799 69.5764C12.8339 70.1702 12.8114 70.764 12.7664 71.3579V71.3669C12.2311 71.6324 12.555 72.4376 12.2176 72.8965C12.2176 72.8965 12.2085 72.91 12.2085 72.919C11.6373 74.4171 10.67 75.8702 10.4045 77.4358C10.436 77.6877 10.5125 77.9352 10.58 78.1781L10.5755 78.1826ZM12.7709 80.3285C12.7439 80.2701 12.7214 80.207 12.663 80.1755C12.6539 80.1711 12.645 80.1621 12.6315 80.1575C12.681 80.1621 12.7304 80.1666 12.7754 80.1531C12.7754 80.2115 12.7709 80.2745 12.7709 80.333V80.3285ZM11.3043 76.7385C11.3312 76.671 11.3538 76.6035 11.3808 76.5361C11.8217 75.4788 12.294 74.4305 12.7709 73.3914C12.9958 74.4665 12.1771 75.8972 12.8879 76.761C12.8789 77.1029 12.8383 77.4493 12.7799 77.7912C12.0691 78.0656 12.3255 79.2353 12.3165 79.8607C11.8442 79.4648 12.0331 78.6775 11.3763 78.376C10.9624 77.7777 11.3987 77.2739 11.3043 76.743V76.7385Z" fill="#26466D"/>
<path d="M23.4522 77.9C23.1823 76.6898 22.8899 75.4841 22.6695 74.2694C21.2839 69.5637 19.8397 64.8715 18.9804 60.1387C18.8229 59.3469 19.2594 58.5236 18.8095 57.7993C18.4361 57.012 18.499 56.2382 19.3538 55.8288C22.8224 53.9978 20.1591 52.6482 18.2651 50.8847C18.8949 48.6487 20.0196 46.4083 20.2446 44.1094C20.3571 44.0645 20.474 44.0194 20.5775 43.952C20.5145 43.898 20.4515 43.8395 20.3886 43.781C20.1411 43.8305 19.8981 43.898 19.6462 43.9385C19.6237 44.1409 19.5202 44.3433 19.3673 44.4739C19.4168 44.4559 19.4618 44.4288 19.5113 44.4153C19.1109 46.6917 17.7478 48.9321 17.6443 51.2086C18.634 52.0813 19.6102 52.9856 20.4875 53.9933C19.7722 54.9066 18.4361 55.298 17.8782 56.2967C18.2921 58.1683 17.9412 60.4716 18.6835 62.1496C19.2818 63.9582 19.003 66.9633 20.2131 68.1781C20.447 68.8663 20.4785 69.5772 20.6899 70.2745C21.1444 71.2778 21.3018 72.4115 21.7337 73.4192V73.4101C21.7382 73.4327 21.7471 73.4596 21.7517 73.4821C21.7607 73.5136 21.7697 73.5451 21.7787 73.5767C21.8506 73.7251 21.7967 73.8601 21.8057 74.0175C21.8822 74.3234 21.9857 74.6293 22.0621 74.9352C22.0891 75.4391 22.2421 75.9205 22.3995 76.4243C22.458 76.6449 22.5209 76.8653 22.5749 77.0903C22.5345 77.6615 23.1913 79.1642 23.4522 77.8955V77.9Z" fill="#26466D"/>
<path d="M35.7493 21.8531C36.8245 21.4302 39.4293 22.9373 39.1189 21.0478C38.7815 20.2605 35.7268 19.6847 35.4524 20.7375C34.8586 20.9534 35.133 21.9206 35.7448 21.8531H35.7493Z" fill="#26466D"/>
<path d="M36.323 23.6124C36.323 23.6124 36.305 23.5989 36.296 23.5899C34.0331 23.8329 35.8596 26.802 37.5962 25.2229C38.334 24.4267 37.1823 23.3739 36.323 23.6079V23.6124Z" fill="#26466D"/>
<path d="M45.4655 50.9924C45.362 48.716 44.0079 46.4666 43.594 44.1902C43.6974 44.2352 43.7964 44.2757 43.9044 44.3072C43.7649 43.9968 43.8324 43.5874 43.4815 43.4299C43.3015 43.6729 42.9191 43.7358 42.6582 43.5559C42.6132 43.6234 42.6132 43.6999 42.6222 43.7763C42.6987 43.8213 42.7887 43.8483 42.8696 43.8843C43.0856 46.1787 44.2193 48.4191 44.8446 50.6595C42.9371 52.432 40.2919 53.7727 43.7649 55.6127C45.38 56.4719 43.702 58.3975 44.1339 59.9136C43.306 64.9118 41.5245 69.8109 40.3099 74.8047C40.1164 75.7673 39.8509 76.7121 39.6575 77.6748C40.1569 79.137 40.5887 76.7976 40.7102 76.2083C40.8722 75.6998 41.0206 75.2095 41.0521 74.7012C41.0521 74.7056 41.0521 74.7101 41.0477 74.7147C41.1286 74.4088 41.2276 74.1028 41.3085 73.7968C41.3176 73.6395 41.2636 73.5045 41.3356 73.3515C41.3445 73.32 41.3536 73.2885 41.3625 73.257L41.349 73.302C41.3625 73.2616 41.3716 73.2256 41.3805 73.185C41.8124 72.1908 41.9609 71.0661 42.4153 70.0764C42.6267 69.3745 42.6627 68.6547 42.8967 67.9574C44.1068 66.7428 43.8234 63.742 44.4262 61.929C45.1685 60.251 44.8177 57.9476 45.227 56.076C44.6691 55.0774 43.333 54.6815 42.6177 53.7727C42.7032 53.6782 42.7797 53.5838 42.8652 53.4938C43.684 52.5985 44.5612 51.7797 45.4609 50.9879L45.4655 50.9924Z" fill="#26466D"/>
</g>
</g>
</g>
</g>
<defs>
<clipPath id="clip0_2_560">
<rect width="61" height="62.01" fill="white" transform="translate(0.5 0.330078)"/>
</clipPath>
<clipPath id="clip1_2_560">
<rect width="61" height="62.01" fill="white" transform="translate(0.5 0.330078)"/>
</clipPath>
<clipPath id="clip2_2_560">
<rect width="61" height="62.0167" fill="white" transform="translate(0.5 0.331787)"/>
</clipPath>
</defs>
</svg>
