<svg width="62" height="63" viewBox="0 0 62 63" fill="none" xmlns="http://www.w3.org/2000/svg">
<g clip-path="url(#clip0_2_593)">
<g clip-path="url(#clip1_2_593)">
<g clip-path="url(#clip2_2_593)">
<mask id="mask0_2_593" style="mask-type:luminance" maskUnits="userSpaceOnUse" x="0" y="0" width="62" height="62">
<path d="M31 61.5859C47.8447 61.5859 61.5 47.9306 61.5 31.0859C61.5 14.2413 47.8447 0.585938 31 0.585938C14.1553 0.585938 0.5 14.2413 0.5 31.0859C0.5 47.9306 14.1553 61.5859 31 61.5859Z" fill="#D9D9D9"/>
</mask>
<g mask="url(#mask0_2_593)">
<path d="M31 61.5859C47.8447 61.5859 61.5 47.9306 61.5 31.0859C61.5 14.2413 47.8447 0.585938 31 0.585938C14.1553 0.585938 0.5 14.2413 0.5 31.0859C0.5 47.9306 14.1553 61.5859 31 61.5859Z" fill="#FEECEC"/>
<path d="M51.0731 61.0334C51.0905 59.8875 51.0295 58.7807 51.0252 58.4627C51.0905 56.624 51.5306 54.7417 50.8858 52.9597C50.7028 51.914 50.6025 50.7245 50.2018 49.7137C50.7202 49.0862 48.5025 47.3129 48.0885 46.8511C46.9514 45.9012 45.5047 45.4045 44.1017 44.9035C45.1431 44.0189 45.8185 42.7075 46.3631 41.4701C47.069 37.5748 47.2215 33.4748 46.777 29.5447C46.777 29.5447 46.777 29.5185 46.7726 29.5054C46.8075 24.0765 45.2607 18.5604 43.3741 13.6064L43.3829 13.6239C41.0824 5.76365 30.8431 2.70496 24.0635 5.90307C23.8805 5.75493 23.6757 5.88128 23.5102 5.99457C20.3948 7.35834 18.0856 9.95082 17.0965 13.2535C17.0965 13.2491 17.1052 13.2404 17.1052 13.2361C15.1707 18.2511 13.6762 23.8194 13.6805 29.3182V29.2745C13.4844 34.3984 12.4518 41.2783 16.7043 44.7902C16.1772 45.1082 15.6543 45.422 15.0879 45.6572C10.9443 46.7421 8.18187 59.8919 5.8944 64.4711C4.85305 70.8543 -1.75667 80.7014 6.15583 84.5923C6.17325 86.7316 5.07962 93.4328 4.6047 96.1386H46.8424C46.2934 94.3957 45.6616 92.6747 44.9557 90.9884C44.9296 90.9231 44.8817 90.8796 44.8251 90.8577C44.8643 90.8186 44.8947 90.7837 44.8991 90.7619C45.3654 90.5484 44.8556 89.5201 44.8425 89.0539C44.8817 88.3917 44.6072 87.7686 44.5854 87.1063C44.7118 86.7621 44.6813 86.1782 44.2107 86.2174C44.202 86.0257 44.202 85.8297 44.2107 85.6379C44.6639 85.5072 44.5287 84.5487 44.1802 84.3788C44.1366 84.1391 44.1105 83.8951 44.0974 83.6511C44.4504 83.9082 44.8991 84.3047 45.2739 83.943C45.5875 84.0084 45.91 84.0389 46.228 84.0738C46.6245 84.187 47.9665 83.9082 48.1234 83.4507C50.193 82.2829 50.5373 74.1004 50.5678 72.0525C50.9033 68.5669 51.1254 65.0811 51.0775 61.5737C51.2474 61.382 51.2039 61.1685 51.0775 61.0334H51.0731Z" fill="white"/>
<path d="M26.6175 37.4454C27.319 41.9638 22.3606 43.5628 19.01 43.8765C16.7661 41.9812 15.1105 36.4694 16.252 33.6111C16.0211 32.5436 15.3196 24.2042 17.2149 27.7116C17.2846 27.7247 17.35 27.7552 17.4153 27.7901C17.4022 27.7814 17.3892 27.777 17.3805 27.7683C18.9534 29.729 19.5329 27.5591 20.2997 30.7616C21.2975 30.6745 21.328 32.2648 21.559 32.9271C22.23 33.9946 23.6591 34.2821 24.6176 35.123C26.1819 34.6438 26.5391 36.1209 26.6175 37.441V37.4454Z" fill="#FAADB7"/>
<path d="M50.3099 36.1862C50.7238 25.1802 47.5997 9.438 35.7615 6.10482H35.7702C30.0929 3.83913 21.3482 6.40546 19.6446 13.1067C18.5597 13.4466 14.6688 26.9187 17.3136 24.0952C18.1501 24.0647 20.0672 25.1627 20.3592 24.0386C20.4812 21.8513 22.4418 20.1391 22.6423 18.3308C22.9081 17.6773 23.7011 17.3461 23.8143 16.6577C25.9928 19.9037 30.1626 21.3765 33.6962 22.2783C35.8747 22.5223 38.3104 22.3786 39.8876 24.3175C40.2275 24.9972 41.7481 26.5135 41.9921 25.0582C43.2862 24.7793 43.4212 26.8882 42.955 27.7247C42.2797 28.252 40.7677 27.8467 40.5542 28.8532C39.8092 32.6831 38.1927 34.8486 34.3062 36.3387C31.9185 41.8635 39.404 44.6869 43.43 45.5888C47.7871 46.5343 50.2226 39.746 50.3141 36.1949L50.3099 36.1862Z" fill="#FAADB7"/>
<path d="M24.3328 31.7411C18.3723 27.0834 30.7856 27.1836 25.4438 31.7281C25.4526 31.7281 25.4569 31.7237 25.4656 31.7194C25.4482 31.728 25.4307 31.7324 25.4177 31.7411H25.4264C25.0822 31.9024 24.6813 31.9024 24.3328 31.7411Z" fill="#FAADB7"/>
<path d="M36.1834 31.6626C32.9853 30.4731 34.7978 26.4297 37.7432 27.6279C39.9392 28.8914 38.5232 32.4992 36.1834 31.6626Z" fill="#FAADB7"/>
<path d="M6.3076 84.6008C6.32503 86.7402 5.2314 93.4415 4.75647 96.1472H21.9016C22.0019 93.8466 22.4594 88.6268 22.4115 87.4591C22.259 86.0518 22.4986 84.6401 22.3374 83.2197C22.2633 76.1219 21.3004 69.3815 20.3157 62.3623C21.9452 62.9461 21.7753 56.4627 20.8908 56.929C20.8124 56.2623 21.0912 54.8462 20.0717 55.0641C19.8059 54.2755 19.5009 52.6939 18.4421 52.8986C18.2156 51.8006 18.2068 50.7419 17.8887 49.6351C17.8277 49.3171 17.7711 48.9947 17.7101 48.6722C17.7101 48.6461 17.7015 48.6244 17.6971 48.6025C17.5141 47.6309 17.3572 46.6506 17.1611 45.679C17.4226 45.5526 17.867 45.4392 17.7798 45.0471C17.8408 45.0166 17.9018 44.9861 17.9628 44.96C18.4813 45.2606 19.4051 44.6637 19.7449 44.2367C20.3157 44.3065 21.1958 43.9753 21.4965 43.3958C22.32 43.5135 23.113 42.8468 23.8929 42.6072C24.2589 42.4416 24.7337 42.2107 25.1129 41.9144C25.1346 41.8577 25.1739 41.8055 25.2261 41.7793C25.2566 41.7619 25.2871 41.7532 25.3176 41.7357C25.4179 41.6399 25.5094 41.5353 25.579 41.4263C25.6095 41.4351 25.6357 41.4482 25.6662 41.4569C25.6531 41.5092 25.6444 41.5615 25.6357 41.6137C25.7097 41.592 25.7839 41.5702 25.8622 41.5527C25.8187 41.6225 25.7795 41.7052 25.7534 41.8142C25.6705 43.984 26.3807 46.3107 27.2391 48.2801C27.409 48.6592 27.5092 49.6309 27.9014 49.8617C27.9145 50.0535 27.9406 50.2582 27.9885 50.4717C26.6117 49.0731 26.5986 51.9444 27.1781 53.0904C27.0866 53.3256 27.1737 53.5565 27.3001 53.7831C27.165 53.6742 27.0256 53.5784 26.8949 53.4912C26.0365 52.6546 24.8732 54.2494 25.3742 54.5369C25.383 54.5544 25.3917 54.5761 25.4004 54.5935C25.6792 55.6698 26.5637 56.5542 26.9734 57.6043C27.0649 58.2971 27.5746 58.8635 27.884 59.4648C27.884 60.3971 28.8251 61.1335 29.2913 61.8874C29.6267 63.3295 30.9034 64.3273 31.6659 65.5299C31.7705 66.1224 32.3979 66.4666 32.6941 66.9634C32.7204 67.8783 33.9011 68.3838 34.1581 69.2813C34.1451 69.3074 34.1364 69.3379 34.1276 69.3684C33.8358 69.6124 33.6091 69.8913 33.6396 70.2573C33.6832 70.34 33.7355 70.401 33.7879 70.4359C33.7965 70.4534 33.8052 70.4664 33.8184 70.4839C35.9446 74.3704 38.5545 78.0739 41.5565 81.2633C41.6916 81.8733 42.7111 82.7971 43.5041 83.2763C43.4954 83.8122 43.5564 84.3526 43.6871 84.8711C43.5913 85.5072 43.4693 87.2979 44.0531 87.6465C44.1751 88.0952 44.2361 89.5853 44.4714 90.3478C44.3974 90.4393 44.3233 90.557 44.2449 90.7095C43.844 90.5527 43.3124 90.8707 43.1338 91.2585C42.942 91.337 40.6981 92.3216 40.4803 92.3913C40.2276 92.0646 36.6984 92.3086 37.1559 93.1408L42.3539 92.6441C42.6414 92.4175 44.9812 91.0102 45.0422 90.7662C45.5084 90.5527 44.9986 89.5243 44.9855 89.0582C45.0248 88.3959 44.7503 87.7728 44.7285 87.1106C44.8549 86.7663 44.8244 86.1825 44.3538 86.2217C44.345 86.03 44.345 85.8339 44.3538 85.6422C44.8069 85.5115 44.6719 84.5529 44.3233 84.3831C44.2797 84.1434 44.2535 83.8994 44.2405 83.6554C44.5934 83.9124 45.0422 84.3089 45.4169 83.9473C45.7306 84.0127 46.053 84.0432 46.3711 84.0781C46.7676 84.1913 48.1095 83.9124 48.2664 83.4549C50.336 82.2873 50.6803 74.1047 50.7108 72.0568C51.0463 68.5712 51.2685 65.0854 51.2205 61.578C51.3905 61.3863 51.3469 61.1728 51.2205 61.0377C51.238 59.8918 51.177 58.7851 51.1727 58.467C51.238 56.6283 51.678 54.746 51.0332 52.964C50.8502 51.9183 50.75 50.7289 50.3492 49.718C50.8677 49.0905 48.6499 47.3172 48.2359 46.8554C47.0988 45.9055 45.6522 45.4087 44.2492 44.9077C45.2905 44.0232 45.9659 42.7117 46.5105 41.4743C47.2164 37.5791 47.3689 33.4791 46.9244 29.5489C46.9244 29.5489 46.9244 29.5228 46.9201 29.5097C46.9549 24.0808 45.4082 18.5647 43.5215 13.6107L43.5303 13.6281C41.2254 5.76357 30.9862 2.70488 24.2066 5.90299C24.0236 5.75485 23.8187 5.8812 23.6532 5.99449C20.5379 7.35826 18.2286 9.95074 17.2396 13.2534C17.2396 13.249 17.2482 13.2404 17.2482 13.236C15.3137 18.251 13.8192 23.8194 13.8236 29.3181V29.2744C13.6276 34.3984 12.5949 41.2782 16.8475 44.7901C16.3202 45.1081 15.7973 45.4218 15.231 45.6571C11.0873 46.7421 8.32494 59.8918 6.03746 64.471C4.99612 70.8543 -1.6136 80.7013 6.29889 84.5922L6.3076 84.6008ZM18.3071 72.5404C17.8757 75.9608 18.7994 76.4531 14.6645 76.1699C15.0175 75.4772 15.3791 74.7843 15.6448 74.048C15.719 72.597 17.6927 70.4403 16.7603 69.351C17.0391 68.7236 17.3223 68.1005 17.6142 67.4775C17.7057 67.7476 17.8191 68.0831 18.1153 68.1572C18.1285 68.2705 18.1415 68.3794 18.1546 68.4927C17.2308 69.5297 18.6469 71.3074 18.3115 72.5404H18.3071ZM27.6444 47.4131C27.0954 46.7202 27.5005 45.2432 26.908 45.0036C26.847 44.6637 26.786 44.3239 26.725 43.984C26.9559 43.7095 26.7424 42.3719 26.4417 42.1932C26.6074 41.8926 26.5681 41.6356 26.4417 41.4917H26.4853C27.4134 39.9406 27.7837 37.9102 27.2914 36.1543C27.3001 36.1543 27.3089 36.1543 27.3131 36.15C27.043 35.5792 26.311 35.3352 25.762 35.3177C25.1651 34.9169 24.4854 34.6686 23.845 34.3461C23.7142 33.6882 22.9212 33.6708 22.6075 33.0913C22.1065 32.9823 22.5073 32.2634 21.8973 32.185C21.5836 31.1567 20.4507 30.3246 20.6512 29.1132C19.9758 28.4031 18.6643 28.6863 18.0107 27.9934C17.7537 27.7494 17.8496 27.0872 17.3397 27.2658C16.9825 26.8954 17.4748 26.0197 16.817 25.9892C16.83 25.8672 16.8431 25.7496 16.8648 25.6276C16.8475 25.1483 17.6142 24.9478 17.2135 24.4337C17.6622 24.2202 18.159 23.8237 18.6382 23.8412C19.0738 24.4947 20.7383 24.7692 19.6796 23.7671C19.954 23.2007 19.7449 22.5733 20.0412 22.0373C20.3897 21.985 20.4812 21.497 20.368 21.2052C20.4159 20.6474 21.4398 20.2073 20.8516 19.6583C21.0346 19.0397 22.028 18.8174 21.8363 17.9939C21.9626 17.0789 22.9342 16.739 23.5879 16.3252C27.2826 20.4295 32.6855 22.8739 38.0229 22.9088C38.0926 23.4708 38.829 23.1745 39.1775 23.4403C39.4869 23.5841 39.6263 23.9065 40.0185 23.8978C40.4019 24.0939 40.5893 24.486 40.9073 24.7082C41.038 25.0263 40.9291 25.4489 41.3779 25.5143H41.3691C41.5609 25.6232 41.8136 25.4794 41.8528 25.2572C42.319 25.1918 42.6414 25.4882 43.051 25.4794C42.8375 25.9282 43.4258 26.0982 43.4519 26.4379C42.9944 26.8083 43.5478 27.2353 43.3909 27.6972C43.3429 28.0893 42.5108 28.1329 42.8724 28.6601C42.5499 28.9607 41.8179 28.3856 41.7569 29.0653C40.9029 28.1678 40.8463 29.9803 40.6328 30.5381C39.9618 30.5381 40.3016 31.5358 39.9966 31.9541C39.3475 31.7885 39.5261 32.6904 39.3519 33.0608C39.2951 33.1741 39.2255 33.283 39.147 33.3832C38.5326 33.0172 38.6285 33.8581 38.463 34.1108C37.3911 34.2241 36.816 35.418 35.7659 35.6663C35.3607 35.6925 34.9686 35.784 34.6375 36.0062C34.6418 36.0062 34.6505 36.0148 34.6549 36.0148C33.4566 36.3678 34.0361 39.2217 34.3281 40.3371C34.5372 40.9253 34.8161 41.4177 34.973 41.897C35.4348 42.08 35.7441 42.1758 35.9489 42.2107C35.84 42.6638 35.8923 43.2302 35.7354 43.6442C35.7267 43.679 35.718 43.7182 35.7093 43.7531C34.6854 43.4437 35.3564 45.74 34.6505 46.6245C33.8489 46.4893 34.1233 48.2452 33.6135 48.8379C33.1037 49.0513 33.2824 49.8835 33.034 50.3366C32.5155 50.4239 32.6419 51.1689 32.4589 51.5871C32.4023 51.5087 32.35 51.4346 32.2934 51.3562C31.8359 50.7636 30.947 48.5807 30.0451 49.1559C29.7487 49.352 29.5701 49.7136 29.6355 50.084C28.921 49.06 28.4416 48.7725 28.1671 48.8989C28.0016 48.389 27.9841 47.7877 27.6312 47.4087L27.6444 47.4131ZM33.7355 67.3904C32.9818 65.7303 31.6224 64.3186 30.5679 62.8285C30.8729 62.1575 29.5396 61.1901 29.2434 60.5671C28.7423 59.1467 27.8186 57.8134 27.1999 56.3974C27.1999 55.5826 26.3634 54.9988 26.0889 54.2363C26.1455 54.1579 26.2109 54.0881 26.311 54.0533C27.3699 54.624 27.8316 55.8964 28.6334 56.8113C28.7727 57.0771 29.0125 57.3211 29.0996 57.5999C29.0255 57.8353 29.1998 58.04 29.3827 58.1533C30.0886 58.3232 30.0102 57.7568 29.727 57.0728C29.7619 56.9507 29.7444 56.807 29.6225 56.685C29.5789 56.6458 29.5352 56.6065 29.4961 56.5673C29.2172 56.0052 28.8905 55.4606 28.8076 55.2471C28.3632 53.892 27.5746 52.5849 27.531 51.0905C27.8142 51.6351 28.1585 51.7527 28.4111 51.683C28.446 51.7527 28.4809 51.8181 28.5157 51.8835C28.2239 52.6024 29.6311 54.2232 29.8664 55.0946C29.8272 55.3125 29.9971 55.4867 30.0842 55.6654C30.1845 56.088 31.008 57.6914 31.4872 56.942C31.6529 56.5411 31.2259 56.1882 31.0821 55.844C30.6115 55.0554 30.3109 54.1709 29.8534 53.3735C29.7444 52.2015 28.8251 51.195 28.6465 50.0099C29.9231 51.6307 31.0995 53.33 31.8489 55.282C32.0885 55.5346 32.5416 55.6305 32.655 55.2035C32.655 54.672 32.2192 54.2362 32.0189 53.7657C31.7966 52.537 30.947 51.4739 30.4416 50.3454C30.4895 50.1929 30.3806 50.0447 30.398 49.8966C31.509 51.3126 32.424 52.9161 33.461 54.4062C33.9621 55.051 34.3106 55.9269 34.8117 56.5935V56.685C34.8248 56.9551 35.0296 57.0727 35.2213 57.0553C35.2997 57.125 35.3781 57.1904 35.4609 57.247C35.9402 57.3385 36.1842 56.5891 35.6483 56.4496C35.6309 56.4235 35.6134 56.3974 35.596 56.3713C35.779 55.1818 35.7311 53.9225 36.2147 52.8028C36.3062 52.9074 36.3977 52.9552 36.4892 52.9684C36.5894 53.1339 36.6809 53.3082 36.7506 53.4869C36.4413 54.0532 37.1166 54.5674 37.1384 55.1425C36.6025 55.5956 37.3955 56.2144 37.2822 56.759C36.9859 57.0596 37.073 57.674 37.2299 58.0356C37.195 58.5978 37.1384 59.1336 37.2517 59.7088C36.9205 60.8416 37.317 62.0965 37.5741 63.2163C37.5393 64.0398 37.9794 64.8196 38.3323 65.5909V65.6083V65.6258C37.2343 66.5276 36.0012 67.399 35.1865 68.5668C35.0863 68.68 34.9511 68.789 34.8074 68.8935C34.485 68.2705 33.9316 67.5951 33.7399 67.4034L33.7355 67.3904ZM45.3472 46.1321C45.5084 46.5504 46.1271 46.655 46.5105 46.668C47.2904 46.9512 47.9528 47.5002 48.5409 48.1364C48.3318 48.3367 48.3362 48.7202 48.8285 48.8291C49.408 49.2256 49.6738 49.9576 49.8742 50.6242C49.5562 50.9946 49.7784 51.9401 50.1705 52.1884C50.2315 52.537 50.2838 52.8856 50.323 53.2385C50.1749 53.5957 50.262 55.1381 50.6542 55.282C50.6629 55.6698 50.641 56.014 50.6105 56.4105C50.018 56.4584 49.9527 58.3058 50.445 58.5368C50.5844 59.5389 49.8219 60.8373 50.458 61.7086C50.4407 61.8525 50.4319 62.0006 50.4275 62.1488C50.3797 62.5409 50.3099 62.9243 50.214 63.3121C50.0093 63.4428 50.0224 63.7304 50.1313 63.9308C50.262 64.0266 50.3797 64.0659 50.4798 64.0571C50.4798 64.2706 50.4755 64.4798 50.4537 64.6845C50.0877 65.1203 49.8655 67.264 50.3404 67.6387C50.3274 67.8348 50.3143 68.0352 50.2925 68.2313C49.5518 68.179 49.6607 70.1048 50.1095 70.3924C50.1095 70.6799 50.0877 70.9675 50.0572 71.255C49.6389 71.4685 49.4995 73.0502 49.957 73.2768C49.9265 73.6515 49.8917 74.0262 49.8394 74.4009C49.3078 74.4619 49.2207 76.3878 49.7087 76.5489C49.6869 76.8191 49.652 77.0892 49.6084 77.355C49.2817 77.6252 49.1553 78.6186 49.408 78.9715C49.3993 79.0325 49.3862 79.0978 49.3775 79.1588C48.8285 79.1283 48.8547 80.039 48.994 80.4137C49.0682 81.4158 48.1227 82.4006 47.7872 83.0279C47.0247 83.2807 46.2491 83.4376 45.4343 83.1587C45.2078 83.0454 44.9769 82.8493 44.7459 83.0977C44.6588 83.0584 44.576 82.9931 44.4975 82.9147C44.6152 82.6271 44.2971 82.3831 43.9878 82.3918C43.844 82.2872 43.6828 82.2481 43.4954 82.3613C43.1904 82.1304 42.9029 81.8733 42.637 81.5944C42.5718 80.8451 41.6175 80.4268 41.2079 79.8342C41.4171 79.2852 40.5718 78.2874 40.0315 78.4966C39.6916 78.0913 39.4085 77.6426 39.1165 77.2026C38.8508 76.1699 37.7964 75.5729 37.3127 74.6362C37.121 74.1962 36.9162 73.3117 36.3541 73.3552C36.328 73.316 36.3062 73.2768 36.2801 73.2375C36.3149 72.7409 36.0056 71.5427 35.3607 71.7779C35.0078 71.2943 34.8117 70.6277 34.5024 70.1135C34.5373 70.0874 34.5721 70.0613 34.6026 70.0351H34.6244C34.8858 70.0089 35.0035 69.8783 35.0252 69.6909C35.8749 68.9545 36.5851 68.0875 37.426 67.3424C37.866 67.142 38.1754 66.7106 38.5414 66.362C38.8071 66.9154 39.2473 67.4034 39.5915 67.8914C39.9966 68.6103 40.2843 69.5777 40.9988 70.0046C41.4738 70.584 41.831 71.316 42.3669 71.8084C42.3844 71.8172 42.4018 71.8172 42.4149 71.8215C42.5325 72.0829 42.7765 72.401 43.1904 72.7757C43.3778 72.889 43.6349 72.8062 43.722 72.5927C43.8614 72.1439 43.3038 71.9392 43.1425 71.5819C43.1338 71.4685 43.1076 71.3728 43.0684 71.2943C43.491 70.6189 43.0945 68.0265 43.295 67.4732C43.3211 66.7585 43.3038 66.0614 43.4431 65.3555C43.6305 65.0244 43.8963 64.0964 43.4431 63.9134C43.3124 63.0855 44.5455 61.4299 43.7655 61.1596C43.9006 60.6107 44.0488 60.066 44.1969 59.517C44.5499 59.3428 44.4453 58.772 44.223 58.5062C44.027 58.3319 43.7002 58.4539 43.6349 58.711C43.4258 59.9833 42.6633 61.3426 42.9029 62.6193C42.7765 63.4951 42.5064 64.4406 42.698 65.312C42.6414 66.0745 42.4105 66.9024 42.5499 67.6474C42.5804 68.6539 42.393 69.7954 42.4889 70.7933C42.2798 70.4229 42.1273 69.9828 41.7788 69.8042C41.4389 69.4294 41.2298 68.8413 40.7984 68.5973C40.7025 68.4273 40.6066 68.253 40.5195 68.0788C40.5849 67.6344 40.0664 66.4405 39.5523 66.5494C39.4564 66.4013 39.3605 66.2531 39.2734 66.1006C39.256 65.9176 39.2385 65.6868 39.1731 65.495C39.1689 65.3338 39.0643 65.2205 38.9291 65.1683C38.8334 64.9329 38.7331 64.6976 38.6416 64.4624C38.7854 64.1923 38.5894 63.8873 38.4891 63.6345C38.0578 62.8371 38.2276 61.8655 37.8879 61.0813C37.8879 61.0464 37.8879 61.0071 37.8791 60.9724C38.1754 60.8851 38.1754 60.5279 38.0839 60.2795C37.683 57.6304 38.5326 54.6502 36.9598 52.2842C36.89 52.0054 36.6286 51.9445 36.4282 52.0272C35.0993 51.7571 35.0601 54.4193 34.9686 55.3953C34.315 54.3582 33.6745 53.3169 32.9817 52.3104C33.1169 52.1187 33.1691 51.7832 33.2345 51.5697C33.8967 50.7114 34.0187 49.4565 34.5808 48.4892C34.9468 47.5046 35.6178 46.6462 35.8051 45.5787C36.4674 44.8162 36.4631 43.5527 36.6809 42.5723C36.6984 42.5636 36.7114 42.5505 36.7245 42.5418C37.3606 42.6943 37.975 42.9818 38.5806 43.2477C39.3824 43.9317 40.5456 44.0799 41.5129 44.4371C41.4084 45.2215 42.6065 44.9861 43.064 45.2737C43.613 45.8445 44.6544 45.692 45.3428 46.1321H45.3472ZM16.7865 43.8707C16.464 43.7095 16.2331 43.4089 16.0545 43.0908C16.464 42.4634 15.5098 42.1105 15.2963 41.6573C15.2048 41.2042 15.4793 40.0931 14.7168 40.2238C14.6253 39.7532 14.5556 39.274 14.5295 38.7903C14.9957 38.468 14.3508 37.8667 14.499 37.383C14.3203 36.9386 15.2527 35.8842 14.3333 35.7708C14.1503 35.0563 15.17 33.8015 14.2506 33.344C14.3072 31.0478 14.756 28.8779 14.7168 26.6253C14.9216 26.2942 15.1307 25.5797 14.5905 25.4968C14.5687 25.0002 14.9433 24.7823 15.0872 24.3509C15.0872 24.3553 15.0828 24.364 15.0785 24.3684C15.183 24.1374 15.2658 23.815 15.0436 23.6277C15.0131 23.0264 16.1198 22.1549 15.3398 21.7803C16.0806 19.3359 16.8431 16.8568 17.366 14.4516C17.9455 13.5061 18.1022 12.5258 18.7297 11.6674C19.0086 11.5846 19.2133 11.2013 18.9519 10.9703C19.0957 10.0858 20.9431 9.71109 20.307 8.97039C20.7122 8.2079 22.0585 8.65667 22.0541 7.67633C22.3679 7.48462 22.699 7.32341 23.0257 7.15348C23.8797 7.44976 24.8557 6.1862 25.6967 6.02063C26.1716 5.72435 27.1868 6.49556 27.1476 5.53264C27.2042 5.52828 27.2565 5.51957 27.3131 5.51085C28.0495 5.06208 29.2739 6.79184 29.4176 5.39757C30.3501 4.94008 31.4263 6.65677 31.9142 5.51957C32.5591 5.37143 33.5395 6.90077 33.8706 5.72435C34.0361 5.7592 34.2061 5.80278 34.363 5.86813C35.6309 6.74391 37.3606 7.07069 38.72 8.05105C38.7156 9.03139 40.062 8.58696 40.4673 9.3451C39.8311 10.0858 41.6785 10.4605 41.8223 11.345C41.4171 11.7676 42.0794 11.9943 42.2536 12.3079C42.6675 12.9571 42.6589 13.6369 43.1599 14.286C44.027 16.8437 44.5324 19.5233 45.43 22.1506C44.589 22.6604 46.1184 23.6364 45.5912 24.3902C45.6478 24.9783 46.1925 25.2703 46.1838 25.8672C45.6478 25.95 45.8526 26.6602 46.0574 26.9913C46.0138 29.2439 46.467 31.4182 46.5236 33.7143C45.6043 34.1762 46.6238 35.4223 46.4408 36.1412C45.5215 36.2588 46.4539 37.3046 46.2753 37.7533C46.0574 38.7686 46.3145 39.5528 46.0574 40.5942C45.2949 40.4635 45.5694 41.5746 45.4779 42.0277C45.2644 42.4808 44.3102 42.8337 44.7198 43.4612C44.284 44.1278 43.735 44.4241 43.1164 44.4807C43.0989 44.472 43.0815 44.4676 43.064 44.459C43.051 44.106 42.6675 44.0232 42.4105 43.9187C40.5761 43.4612 38.951 42.4721 37.1776 41.836C36.9903 41.7793 36.7899 41.7009 36.5938 41.6922C36.5197 41.6486 36.4369 41.6312 36.3498 41.6486C36.1014 41.4482 35.278 40.7816 35.1951 40.7902C35.0514 40.0321 35.0644 39.518 34.6549 38.8513C35.1995 38.3067 34.5808 37.4527 34.7856 36.7643C34.7856 36.7382 34.79 36.7077 34.7943 36.6816C36.6722 36.1195 38.8551 35.1783 39.988 33.3266C39.9836 33.3353 39.9793 33.3483 39.9749 33.3571C41.3648 31.7057 40.9596 29.5533 43.369 29.1176C44.8635 27.5098 44.1839 23.7366 41.5739 24.6167C39.7658 21.5842 35.8574 22.3423 33.0254 21.5537C32.973 20.7389 31.9274 21.4099 31.4785 20.9612C31.7356 19.9328 30.3414 20.63 29.8969 20.1768C29.6704 19.8283 29.226 18.9133 28.8295 19.7193C28.5941 19.5799 28.3676 19.4274 28.1628 19.24C28.3937 18.3207 27.3394 18.7564 26.9777 18.3469C26.7729 18.0419 26.5202 17.2533 26.054 17.7892C25.566 17.4493 25.4309 15.9504 24.5812 16.5169C24.089 15.9809 23.5574 14.3775 22.991 15.7718C22.625 16.1639 21.9583 16.2337 21.71 16.8C20.4333 18.7608 19.6272 20.9959 18.9693 23.2399C17.3311 22.6386 16.098 24.4773 16.1503 26.0633V26.0546C16.3551 28.0196 18.2156 29.2439 19.941 29.4531C20.5161 32.5989 23.248 35.7578 26.3939 36.2415C26.677 36.4332 26.3546 36.943 26.786 37.1782C26.6727 37.5573 26.5245 37.9625 26.86 38.3328C26.3328 38.4548 26.8514 39.017 26.5202 39.2261C26.5812 39.9145 26.2152 40.2282 26.0714 40.8817C25.8797 40.7641 25.6314 40.5898 25.4004 40.7118C25.4047 40.6291 25.4091 40.542 25.4004 40.4635C23.9931 41.5571 18.0021 45.0733 16.7821 43.8707H16.7865ZM16.8648 54.55C18.0761 53.7047 19.0782 53.1296 19.4181 55.0685C18.7079 55.2079 15.9978 55.0424 16.6252 56.2318C17.7188 56.0793 18.9606 55.648 20.1762 55.7613C20.2372 56.1883 20.2372 56.624 20.2503 57.0553C19.5924 57.2426 16.2766 56.7546 17.6361 58.04C18.5118 57.6566 19.7362 57.8091 20.673 57.8657C20.6773 58.1141 20.6817 58.3624 20.6773 58.6151C17.2701 58.8069 17.61 59.992 20.9126 59.3166C20.856 59.822 21.0172 62.0136 20.2721 61.591C19.4922 59.7349 19.3353 61.652 19.4356 62.5888C18.9388 63.164 19.1872 64.1486 18.8256 64.8545C18.1807 64.824 18.4726 65.7825 18.0805 66.118C17.6883 65.8784 17.4007 66.3447 17.257 66.6758V66.6627C16.8648 67.4819 16.5032 68.3184 16.1285 69.1463L16.1023 69.1332H16.1067C16.1067 69.1332 16.0806 69.1244 16.0675 69.1158C12.7038 67.2204 12.5208 68.375 13.9282 64.397C14.0851 64.1051 14.2462 63.787 14.2942 63.4341C14.8301 60.7633 15.4096 57.9311 15 55.295C15.4401 55.2645 15.8453 55.038 16.2461 54.8636C16.647 54.7069 16.5076 54.9726 16.8605 54.5544L16.8648 54.55ZM3.45805 81.1631C3.28813 80.8058 3.27942 80.3876 3.3012 79.9954C4.32512 79.9039 4.01577 78.0739 3.07028 78.7667C3.04414 78.1567 3.11385 77.5424 3.24456 76.9498C3.91555 76.9368 4.25105 75.7212 3.49292 75.5686C3.82405 73.6733 5.35776 72.0873 5.13118 70.2965C5.17911 69.6997 6.66052 68.6931 5.59303 68.3271C5.60611 67.1159 7.61909 65.3513 6.71281 64.5146C6.87839 63.9569 7.05702 63.4036 7.2618 62.859C8.4295 62.75 8.17679 60.6543 8.74758 59.8003C9.30093 59.626 10.0024 58.0226 9.04386 58.0618C8.90443 56.8549 11.4185 56.136 10.1941 55.2689C10.3031 54.2362 11.6842 53.2908 11.2878 52.3366C11.4316 51.9531 11.5884 51.5741 11.754 51.1994C11.9413 50.7811 12.1374 50.3628 12.3378 49.9445C12.3378 49.9489 12.3335 49.9576 12.3291 49.962C12.9608 48.7376 13.3836 47.3259 14.7647 46.8205C15.4706 47.8924 14.8388 49.2735 15.2397 50.4849V50.4979C15.7625 51.609 15.9237 52.8681 16.1198 54.1491H16.1111L16.098 54.1622H16.1067C15.6885 54.5456 14.743 54.3321 14.6253 54.9465C14.011 55.0554 14.4858 55.8876 14.3813 56.332C13.9805 56.5542 14.1678 57.2165 14.451 57.4649C13.5883 57.3734 14.4858 59.565 14.1896 60.3144C13.6886 60.3841 13.8106 61.0464 13.9021 61.4168C13.6276 61.6171 13.7843 61.9658 13.8236 62.2315C13.1875 62.4406 13.8497 63.1509 13.5752 63.5823C13.0567 63.7304 13.3792 64.4841 13.1133 64.885C12.6123 65.3381 12.8999 66.0396 12.4162 66.5712C12.2986 66.5364 12.1592 66.532 12.0416 66.5755C12.0416 66.5102 12.0502 66.4449 12.0502 66.3795C11.2791 66.4884 11.3096 67.7172 10.9174 68.2879C9.76713 67.752 10.0721 70.3358 9.32707 70.9327C8.32058 71.2769 8.56893 72.828 7.8718 73.5469C7.28359 73.2593 7.04395 74.2615 7.09624 74.6842C7.10495 74.671 7.10931 74.6579 7.11366 74.6449C4.94818 80.0172 11.4926 68.9589 11.8891 67.6648C11.937 67.7955 12.0372 67.935 12.1853 67.9568C12.2158 67.9612 12.2507 67.9612 12.2812 67.9568C12.303 68.2618 12.6821 68.5668 12.9261 68.301C14.1198 68.7585 15.183 69.5602 16.3768 69.9741C15.6013 71.974 14.8911 73.8954 14.1025 75.7952C12.9435 76.0087 13.34 78.087 12.5557 78.9279C12.5557 78.9279 12.5513 78.9367 12.547 78.941C12.5601 78.7493 12.5296 78.5619 12.5601 78.3746C11.9326 79.4769 11.4141 80.5706 10.8346 81.7208C9.88478 80.8712 9.66692 85.0104 7.66266 84.2262C7.2313 84.2697 6.86531 83.6031 6.50367 83.9908C6.30325 83.9081 6.10717 83.8122 5.92853 83.6858C6.08103 83.2241 5.40132 82.4964 5.02226 82.9539C3.70205 82.7578 4.52119 80.7099 3.42756 81.1806L3.45805 81.1631Z" fill="#26466D"/>
<path d="M33.7057 31.4003C33.6447 31.1258 33.392 31.0648 33.2003 31.1476C33.1219 30.9994 32.9519 30.9079 32.7907 30.9515C31.7233 31.1694 30.6339 30.9951 29.5534 31.0082C29.4445 30.8905 29.2876 30.8382 29.109 30.9341C29.1003 30.9428 29.0959 30.9472 29.0872 30.9559C28.9347 30.9472 28.7996 30.9864 28.7168 31.1737C28.6602 31.3959 28.7081 31.5397 28.8083 31.6312C28.6515 32.3807 28.7212 33.4307 29.2615 33.4787C29.5316 33.8752 29.8148 34.5199 30.3725 34.3632C30.6819 34.5679 31.0565 34.5941 31.4183 34.5679C31.9149 34.7248 32.3768 34.2847 32.6818 33.9187C33.5489 33.5353 33.5837 32.2368 33.71 31.4003H33.7057ZM32.6295 32.9558C32.3507 32.8817 32.1154 33.1737 32.0805 33.4438C32.0457 33.4829 32.0108 33.5222 31.9759 33.5614C31.7102 33.4482 31.3878 33.5571 31.2134 33.7923C31.0653 33.7923 30.9041 33.7837 30.7734 33.7052C30.6906 33.4699 30.3943 33.3828 30.2069 33.5309C29.8628 33.2303 29.8584 32.6333 29.5011 32.4068C29.5055 32.2282 29.5185 32.0452 29.5403 31.8665C29.5664 31.8491 29.5883 31.8273 29.61 31.8012C29.8018 31.8012 29.9891 31.7924 30.1329 31.8012C30.7734 31.6792 32.2984 32.0974 32.9475 31.6879C32.8169 32.1018 32.8038 32.5506 32.6339 32.9514L32.6295 32.9558Z" fill="#26466D"/>
<path d="M34.9716 26.2945C35.2156 26.4426 35.5511 26.2596 35.5424 25.9546C35.8954 25.5581 36.1568 24.861 36.7798 25.1311C37.3419 25.2096 37.3768 25.7673 37.5205 26.2074C37.6992 26.3163 37.8343 26.3511 37.9388 26.3294C37.965 26.3424 37.9998 26.3555 38.0347 26.3599C38.8364 26.3424 38.3702 25.0571 38.0216 24.7041C37.8953 24.6214 37.7733 24.6083 37.6687 24.6431C37.3811 24.3076 36.9846 24.068 36.5097 24.1159C36.1175 23.6585 34.976 24.4819 34.7886 24.9176C34.6188 25.3141 34.2701 26.3075 34.9716 26.2858V26.2945Z" fill="#26466D"/>
<path d="M25.264 23.4658C23.251 24.054 23.7217 26.6857 24.6367 25.5703C24.9111 25.5877 25.1246 25.2435 24.9852 24.9908C25.0767 24.8296 25.1899 24.6814 25.3163 24.5551C25.8653 24.5551 26.2269 24.6248 26.4666 25.1956C26.5102 25.3568 26.4927 25.5398 26.5886 25.6836C27.7214 26.494 27.6168 23.5791 25.2597 23.4658H25.264Z" fill="#26466D"/>
<path d="M30.4769 27.98H30.4813C30.307 27.9321 30.1284 27.8798 29.9584 27.8145C29.8888 27.1173 31.4224 22.9345 29.8888 24.2721C29.8321 25.5575 28.8474 27.1478 29.3528 28.2894C30.2765 29.1041 32.7949 28.5595 30.4769 27.98Z" fill="#26466D"/>
<path d="M29.7371 14.1694C29.6282 15.8469 42.181 23.1102 39.6278 19.9861C39.7846 19.6593 39.3576 19.3413 39.1093 19.594C37.4013 17.8337 36.5168 15.3851 35.4231 13.1978C35.4231 13.1978 35.41 13.1673 35.4057 13.1542C35.4057 13.1542 35.397 13.1281 35.3883 13.1149C35.0615 12.2523 34.7695 11.3591 34.5474 10.4571C34.0332 9.77308 34.8219 7.3331 33.7674 7.7906C33.2141 9.59008 34.2772 11.6902 34.8088 13.4331C34.8088 13.4331 34.8305 13.4766 34.8349 13.5028C34.8567 13.5594 34.8785 13.6117 34.9003 13.6683C34.909 13.6901 34.922 13.7163 34.9308 13.7424C34.9395 13.7642 34.9525 13.7903 34.9613 13.8164C35.4362 14.9232 35.9329 16.0299 36.5211 17.0799C36.9655 17.9252 37.5538 18.679 38.0591 19.472C37.2531 18.7879 36.2205 18.8358 35.3447 18.1387C34.2946 17.9775 33.9591 15.5071 32.8786 16.3828C32.4429 16.0342 32.029 15.6639 31.6325 15.2717C31.6411 15.2804 31.6499 15.2936 31.663 15.3022C30.822 14.8404 31.0921 12.7316 29.8765 13.0366C29.2404 11.6597 28.4039 10.126 28.6957 8.66638C27.7502 8.0346 27.8417 9.86458 28.1032 10.4092C28.4997 11.7294 29.0705 12.9843 29.7415 14.1738L29.7371 14.1694Z" fill="#26466D"/>
</g>
</g>
</g>
</g>
<defs>
<clipPath id="clip0_2_593">
<rect width="61" height="62.01" fill="white" transform="translate(0.5 0.330078)"/>
</clipPath>
<clipPath id="clip1_2_593">
<rect width="61" height="62.01" fill="white" transform="translate(0.5 0.330078)"/>
</clipPath>
<clipPath id="clip2_2_593">
<rect width="61" height="62.0167" fill="white" transform="translate(0.5 0.331787)"/>
</clipPath>
</defs>
</svg>
