<svg width="62" height="63" viewBox="0 0 62 63" fill="none" xmlns="http://www.w3.org/2000/svg">
<g clip-path="url(#clip0_2_495)">
<g clip-path="url(#clip1_2_495)">
<g clip-path="url(#clip2_2_495)">
<mask id="mask0_2_495" style="mask-type:luminance" maskUnits="userSpaceOnUse" x="0" y="0" width="62" height="62">
<path d="M31 61.5859C47.8447 61.5859 61.5 47.9306 61.5 31.0859C61.5 14.2413 47.8447 0.585938 31 0.585938C14.1553 0.585938 0.5 14.2413 0.5 31.0859C0.5 47.9306 14.1553 61.5859 31 61.5859Z" fill="#D9D9D9"/>
</mask>
<g mask="url(#mask0_2_495)">
<path d="M31 61.5859C47.8447 61.5859 61.5 47.9306 61.5 31.0859C61.5 14.2413 47.8447 0.585938 31 0.585938C14.1553 0.585938 0.5 14.2413 0.5 31.0859C0.5 47.9306 14.1553 61.5859 31 61.5859Z" fill="#FEECEC"/>
<path d="M55.4858 95.9757C55.5466 95.3842 55.7988 94.684 55.2901 94.3796C55.2901 94.297 55.2987 94.2144 55.3031 94.1317C56.025 94.0099 56.2338 91.9138 55.3901 91.879C55.2813 91.0223 56.1642 89.5394 55.3726 88.8957C55.09 87.6737 55.8076 86.0342 54.9422 85.1557C54.9334 85.0165 54.9422 84.8774 54.9508 84.7426C55.1422 84.6469 55.2031 84.4251 55.2336 84.225V84.2338C55.2336 83.7163 55.7032 82.4681 54.8595 82.4985C54.6508 81.8376 55.6119 80.3851 54.6117 80.2328C54.5899 79.9458 54.5768 79.6588 54.5768 79.3718C54.9943 78.8847 55.0813 77.3713 54.4942 76.9886C54.0637 75.323 54.9639 72.8615 53.981 71.5916C53.9768 71.4742 53.9724 71.3568 53.9724 71.2437C54.2811 70.8263 54.429 69.5781 53.7984 69.3912C53.4331 68.4996 54.429 67.2385 53.6549 66.6297C53.5201 65.1728 53.5853 63.668 53.3461 62.2634C53.5984 61.9068 53.7636 60.7979 53.1243 60.7848C52.7981 59.9847 53.6245 58.6495 52.7895 58.1494C52.7677 57.945 52.7547 57.7363 52.746 57.5318C53.2461 57.2144 53.12 55.9054 52.6199 55.6314C52.5068 55.0139 52.4155 54.3876 52.3415 53.7614C52.3415 53.7788 52.3415 53.7918 52.3459 53.8092C52.3459 53.7788 52.3415 53.7483 52.3372 53.7179V53.7353C52.3285 53.6701 52.3242 53.6049 52.3154 53.544C52.3068 53.4483 52.298 53.3483 52.285 53.2482V53.2961C52.3499 53.4528 50.4032 54.8784 51.3332 53.4528C51.1375 47.5167 47.1925 46.6119 42.8828 44.5767C42.6262 43.6678 41.3302 44.1287 40.6953 43.5503C40.7301 43.1719 40.2561 42.898 39.9516 43.1372C39.6299 43.0371 39.3037 42.9415 39.0036 42.7849C38.6249 42.7778 36.2359 42.4869 35.5749 42.2694C35.066 41.8433 35.5951 40.6105 34.9776 40.4235C35.0665 39.7278 34.834 39.1677 34.7949 39.0371C35.1037 38.7719 35.0906 39.171 34.7949 38.8971C35.0665 38.7111 34.8167 38.8797 34.821 38.8667C34.7122 38.8535 35.5898 38.8493 35.481 38.8493C35.5072 38.523 35.0666 38.2028 35.368 37.849C35.4724 37.7533 35.5419 37.6098 35.5463 37.4663C35.9769 37.4489 35.9246 36.9271 36.3334 36.9922C37.6251 36.3095 39.3167 35.7268 40.0517 34.3873C40.1821 34.5699 40.4735 34.5483 40.5997 34.3699C41.9391 34.4874 43.1003 33.8524 44.1483 33.1088C44.4092 32.9043 44.6832 32.6782 44.805 32.3651C49.6235 29.347 48.3754 22.2714 47.0925 17.566C46.762 16.1961 46.2271 14.9045 45.5312 13.6825C40.8128 2.62334 23.5826 1.45786 17.342 11.6602C12.1278 18.401 10.0838 33.7393 21.3647 34.6091C22.2519 35.9964 24.0088 36.5269 25.4091 37.3532C25.4353 37.6055 25.7005 37.7577 25.9397 37.7098C25.8397 37.9446 25.9354 38.2012 26.1006 38.3708C25.944 38.6927 25.9745 39.1493 26.2137 39.4189C25.9701 39.645 25.9223 40.1061 26.0876 40.4061C25.9397 40.554 25.8397 40.741 25.7875 40.9671V40.9279C25.7875 40.9758 25.7788 41.0236 25.7744 41.0671C25.7744 41.5272 25.6136 42.1674 25.1439 42.4979C24.4959 42.7501 23.3435 42.711 23.026 43.2981C22.5259 43.8026 21.4082 43.2286 21.3342 44.0634C20.6993 44.6419 19.4034 44.1809 19.1425 45.0898C14.7675 47.1685 9.97074 47.5817 9.75765 53.5919C9.75765 53.5875 9.75765 53.5787 9.75765 53.5744C9.74895 53.6526 9.74026 53.7309 9.73155 53.8092C9.73155 53.7918 9.73155 53.7788 9.7359 53.7614C9.71851 53.9223 9.70111 54.0876 9.68372 54.2485C9.68372 54.2441 9.68372 54.2354 9.68372 54.2311C9.68372 54.2615 9.67502 54.2919 9.67502 54.3181C9.67502 54.3007 9.67502 54.2877 9.67937 54.2703C9.60544 54.8964 9.51411 55.5227 9.40105 56.1402C8.90093 56.4098 8.77481 57.7276 9.27493 58.0407C9.26623 58.245 9.25318 58.4539 9.23143 58.6582C8.39646 59.1583 9.22274 60.4934 8.89657 61.2936C8.26165 61.311 8.42691 62.42 8.67479 62.7765C8.4356 64.1812 8.50083 65.6859 8.36602 67.1428C7.59193 67.7517 8.58781 69.0129 8.2225 69.9044C7.59193 70.0913 7.73978 71.3351 8.04855 71.7569C8.04855 71.8744 8.04855 71.9918 8.03985 72.1048C7.05702 73.379 7.95723 75.8318 7.52669 77.4975C6.93959 77.8801 7.02657 79.3935 7.44406 79.8806C7.44406 80.1676 7.43102 80.4546 7.40927 80.7416C6.40904 80.8938 7.36578 82.3421 7.16139 83.0074C6.32206 82.977 6.79174 84.2208 6.79174 84.7383C6.82218 84.934 6.88306 85.1557 7.07441 85.2514C7.07441 85.3905 7.09181 85.5297 7.08311 85.6689C6.21769 86.5473 6.93959 88.1825 6.65257 89.4045C6.27857 89.5263 6.37425 89.9743 6.37425 90.2831H6.3786C6.43513 90.7223 6.29162 91.3136 6.63952 91.6529C6.64823 91.9008 6.64823 92.1444 6.64388 92.3878C5.7915 92.4183 6.00895 94.5232 6.73085 94.6406C6.73085 94.7231 6.73955 94.8058 6.7439 94.8884C6.62648 94.8493 6.51776 95.3364 6.45253 95.9669H55.4858V95.9757Z" fill="white"/>
<mask id="mask1_2_495" style="mask-type:luminance" maskUnits="userSpaceOnUse" x="6" y="4" width="48" height="98">
<path d="M6.09155 4.14429H53.2649V101.567H6.09155V4.14429Z" fill="white"/>
</mask>
<g mask="url(#mask1_2_495)">
<path d="M24.6709 31.2941C21.8134 31.0632 21.922 27.1841 24.9097 27.6057C27.3763 27.7389 26.8856 31.3429 24.6709 31.2941Z" fill="#FAADB7"/>
<path d="M36.1127 30.5882C33.1815 29.6383 35.3354 25.626 37.7673 27.2593C39.4434 28.4444 38.1059 31.3959 36.1127 30.5882Z" fill="#FAADB7"/>
<path d="M39.5789 35.4617C39.479 35.1554 39.6006 34.8358 39.7048 34.5474V34.5651C40.6515 33.0072 40.8903 31.1875 41.2161 29.6562C42.7099 29.0836 42.5536 27.6678 42.9488 26.5049C42.8184 26.1143 42.571 25.8081 42.3712 25.4486C40.6037 26.3274 41.0511 23.8552 40.0913 23.0963C39.453 21.6937 36.7301 22.6835 36.8691 20.9702C36.6955 20.8903 36.5217 20.806 36.3611 20.7039C34.3852 21.6981 28.4619 16.7582 27.0809 15.0317C24.1454 17.1043 22.1174 20.8726 20.8494 24.4455C20.6844 25.7104 18.8909 24.6629 18.3263 25.6528C18.0485 27.5391 18.6477 29.2656 20.4064 29.998C20.6974 31.0765 20.4802 32.2793 21.0362 33.3223C21.2576 37.8274 14.6482 29.0836 15.2952 27.437C14.3269 20.411 17.4839 11.9292 23.3029 7.8636C26.3471 5.99946 29.7994 5.02301 33.3126 6.11486C36.031 5.79086 38.858 6.82501 41.1119 8.55599C44.0474 8.79567 48.225 14.7298 48.3552 17.5394C51.1432 17.526 50.0531 28.2759 49.2759 30.2198C48.6896 32.3015 41.1899 36.8375 39.5746 35.4572L39.5789 35.4617Z" fill="#E1E2EB"/>
<path d="M6.10399 96.0103C7.5935 97.1288 10.3901 96.6894 12.3139 97.1244C12.4615 97.981 12.0359 99.5167 13.0174 99.8895C13.33 101.43 15.2755 100.378 16.2569 100.995C16.2309 101.008 16.2135 101.026 16.1875 101.039H17.0516C16.9561 100.959 16.8301 100.915 16.6999 100.919C17.6118 100.901 18.5454 100.959 19.4835 101.039H26.8484C27.4216 100.986 27.9341 100.83 28.225 100.338C28.212 100.356 28.1946 100.378 28.1816 100.395C28.5768 99.8851 28.9111 99.2814 29.4323 98.8953C29.4063 98.8776 29.3759 98.8598 29.3455 98.8465C29.8101 97.0578 30.4397 95.2958 30.887 93.4937C31.1476 96.0725 32.4894 98.1009 32.6588 100.253C32.8716 100.675 33.1625 100.906 33.4969 101.039H42.7423C42.7987 101.03 42.8551 101.021 42.9159 101.017C42.9247 101.026 42.9377 101.03 42.9463 101.039H45.5432C46.6158 100.462 47.3671 99.2992 46.6766 98.0698C47.5495 98.1896 48.4441 98.0919 49.2561 97.7324C50.294 97.5949 53.5856 98.6867 52.7519 96.5474C52.6259 81.0263 54.819 64.4355 50.9497 49.4691C50.2984 47.5473 47.2629 47.0768 45.7126 45.8696C43.3241 44.9997 41.1832 42.918 38.6949 42.6561C36.667 41.6486 37.5138 45.2304 36.8364 46.2912C34.9908 46.7128 36.4629 49.4691 35.4858 50.8007C34.93 51.422 34.4263 52.2654 34.5261 53.2196C34.0571 55.3279 33.3753 57.2585 32.9107 59.3668C32.142 59.4778 31.9684 60.5563 32.2462 61.1732C31.4732 62.5047 31.369 64.2313 30.4615 65.5584C27.717 58.266 26.2144 50.1571 24.8683 42.8248C24.7683 40.437 19.0448 44.2274 17.894 44.3738H17.9288C15.4796 45.4968 13.0825 46.6019 10.642 47.9379C10.49 48.0755 10.4031 48.2753 10.4031 48.4705C6.72498 59.5843 8.30133 72.3269 6.57299 83.7959C7.04633 87.8526 5.96503 91.8648 6.10399 96.0103Z" fill="#9AE8EC"/>
<path d="M34.123 63.2952C33.4108 63.2508 33.5585 64.3027 33.0113 64.5956C32.386 65.0661 33.2502 65.7984 33.6454 65.2037C34.6832 63.8544 35.5691 62.2877 36.5027 60.783C38.2745 57.5474 43.8417 53.9745 39.4384 50.7345C41.7269 50.5791 42.9428 49.4696 42.2002 47.0639V47.055C42.5085 46.4114 42.1915 45.5726 42.0091 44.8669C42.0352 44.8846 42.0613 44.9024 42.0917 44.9157C42.1221 44.2765 41.7269 44.1568 41.1753 44.0103C41.1711 44.0369 41.1667 44.0635 41.1579 44.0902C41.1797 44.1035 41.2015 44.1123 41.2231 44.1212C41.1103 46.5358 42.9775 50.0465 39.3428 49.9977C38.826 50.0199 38.3049 50.4948 38.7262 51.0008C39.9073 52.2169 41.3361 53.5573 39.7119 55.0841C38.6046 54.9021 38.965 56.6775 38.2311 57.1879C37.0977 57.0325 37.3235 59.1586 36.4029 59.7311C35.9817 60.1395 35.0393 60.5656 35.2998 61.3556C34.8222 62.0303 34.1621 62.514 34.123 63.2952Z" fill="#26466D"/>
<path d="M31.4906 44.6098C32.7246 44.7996 33.6749 44.2258 34.737 43.6697C35.5711 42.8489 36.3321 41.9794 37.1405 43.2857C37.3856 43.2725 37.635 43.3475 37.8672 43.4269C37.9876 43.2107 37.9704 42.9106 37.7855 42.7341C37.9016 42.7032 38.0221 42.6502 38.1166 42.5663C37.8242 42.2309 37.3684 41.7764 36.9169 42.0809C36.8309 42.0147 35.7646 41.9088 35.7646 41.9088C35.1799 42.3148 34.049 42.8753 33.4298 43.4137C33.0686 42.9415 32.6945 43.5462 32.3764 43.7227C31.9808 43.7006 31.5121 43.5859 31.0735 43.7625C30.7037 43.8684 30.2436 43.7712 29.8739 43.8286C29.5599 43.6388 29.2117 43.0165 28.8333 43.4755C28.3303 43.2239 28.0292 42.5929 27.509 42.434C27.552 42.3237 26.3136 41.6925 26.1589 41.6086L25.3978 41.997C25.2 41.8381 24.8646 41.8426 24.6883 42.0368C24.7098 42.0191 24.7355 41.997 24.7571 41.9794C24.5421 42.0941 24.2927 42.4472 24.5034 42.6238C24.3486 42.7605 24.4346 43.0165 24.3916 43.2107C24.4905 43.2372 24.5893 43.2902 24.6668 43.3608C26.0255 42.2794 26.4168 42.3722 27.5175 43.6829C28.5624 44.2832 29.4912 44.8966 30.7381 44.7554L31.4863 44.6142L31.4906 44.6098Z" fill="#26466D"/>
<path d="M19.7306 46.7709C18.8969 49.1544 20.078 50.2994 22.3578 50.5525C21.0638 51.7375 19.5786 53.2022 21.0204 54.8976C22.9224 57.8537 25.0893 60.6898 26.6136 63.8543C26.9957 64.4358 27.4039 65.1371 27.9337 65.4922C28.4418 65.5676 28.6285 65.0084 28.2551 64.6843C27.7166 64.3692 27.9033 63.2995 27.1781 63.3395C27.1998 62.5228 26.5224 62.0479 26.0882 61.3466C26.3834 60.5699 25.4541 60.095 25.0502 59.6734C24.1513 59.0653 24.4597 56.9482 23.3219 57.0547C22.6054 56.5177 23.0353 54.7512 21.9236 54.8888C19.7783 52.8559 23.0223 51.8928 23.1569 50.1663C21.9496 49.2786 19.4961 49.8112 20.3559 47.5299C20.521 46.3138 20.7294 45.071 20.825 43.8637C20.9074 43.8149 20.9856 43.7883 21.0812 43.8016C21.0768 43.6817 21.0724 43.562 21.0724 43.4421C20.8554 43.522 20.6122 43.5264 20.4167 43.3933C20.1562 44.4807 19.3789 45.7057 19.7393 46.7576V46.7709H19.7306Z" fill="#26466D"/>
<path d="M24.5109 25.1601C25.3794 26.2342 27.8981 25.3687 27.0817 23.8729C26.3564 22.4971 23.4861 23.62 24.5109 25.1601Z" fill="#26466D"/>
<path d="M34.6073 24.7384C35.3542 26.2474 38.3289 25.3997 37.1477 23.7353C36.466 22.4614 33.8083 23.216 34.6073 24.7384Z" fill="#26466D"/>
<path d="M28.9944 28.7374C29.0205 30.6016 34.8395 28.6487 29.8717 28.7418C29.9063 27.6589 30.7966 25.0402 29.7413 24.5254C29.2463 24.7029 29.5589 25.3864 29.4373 25.7948C29.3853 26.2607 28.9814 26.8733 29.3983 27.2816C29.3853 27.3215 29.3765 27.366 29.3635 27.4059C28.9684 27.5258 28.8859 28.2003 29.2246 28.4312C29.0987 28.48 29.0161 28.6043 28.9944 28.7374Z" fill="#26466D"/>
<path d="M32.7284 32.279C32.3722 32.4032 32.4286 32.8871 32.0596 33.0424C32.0074 33.0824 31.9554 33.1223 31.9032 33.1623C31.5428 32.927 31.3778 33.3353 31.2519 33.5661C30.4441 33.8991 29.758 33.4108 29.0892 33.1134C27.6692 30.8232 27.8603 33.8813 29.2977 34.1742C30.3659 35.0441 34.4827 33.1711 32.7284 32.279Z" fill="#26466D"/>
<path d="M25.8174 42.6474C26.7424 41.0673 26.9942 39.2076 26.4992 37.4233C26.4427 37.4233 26.3472 37.3789 26.3472 37.3789C26.3342 37.3434 26.3212 37.3124 26.3125 37.2902C26.2343 37.0905 25.4483 36.6378 25.4483 36.6378C24.9793 36.62 24.6797 36.1406 24.2107 36.1451C23.7069 35.466 22.617 35.2974 22.0437 34.565C22.0437 34.5695 22.0524 34.5738 22.0568 34.5828C22.0481 34.5738 22.0437 34.565 22.035 34.5561C21.6095 34.2588 22.0177 33.5265 21.4314 33.4376C21.3749 33.3222 21.3272 33.2024 21.2838 33.0826C21.4965 32.7674 21.236 32.1683 20.8278 32.2304C20.7019 32.0529 20.6107 31.8487 20.5629 31.6357C20.9233 31.3649 20.8278 30.6636 20.3588 30.5837C20.1807 30.1399 20.4457 28.9638 19.6466 29.3676C19.6032 29.0347 18.8085 28.9415 18.561 28.9992C18.4915 28.9638 18.4264 28.9282 18.3656 28.8883C18.3872 28.6086 18.079 28.3424 17.814 28.4711C17.4102 28.2979 17.662 27.5257 17.0845 27.61C16.7545 27.2816 17.1887 26.678 16.7458 26.4561C16.6937 25.9501 17.2626 25.7193 17.18 25.2621C17.3624 24.9381 17.7185 25.0979 17.94 24.8804C18.1528 24.9071 18.3656 24.9292 18.5827 24.9514C18.9474 25.018 19.6901 25.5373 19.6987 24.7783C19.9636 24.5786 19.8507 24.1658 19.9679 23.8773C19.9679 23.8773 19.9723 23.8506 19.9767 23.8418C19.9767 23.8418 19.9853 23.8152 19.9853 23.8018C19.9853 23.8018 19.9983 23.7575 20.0027 23.7309C20.4109 23.5489 20.2719 23.0207 20.4196 22.6789C20.4413 22.1863 21.0883 21.778 20.7757 21.2986C20.8929 20.9168 21.5921 20.6861 21.2664 20.189C21.3576 19.6697 22.3 19.4167 21.857 18.8663C22.0177 18.316 22.9296 18.1917 22.7082 17.5436C22.8732 17.0511 23.8502 17.1487 23.5158 16.4563C23.594 16.3675 23.6722 16.2743 23.759 16.19C24.1585 16.2565 24.7231 15.8526 24.7579 15.4265C25.0011 15.2357 25.2529 15.0582 25.5091 14.8939H25.5047L25.5265 14.8851C25.5612 14.8629 25.6003 14.8407 25.6351 14.8141C25.622 14.8229 25.6089 14.8318 25.5959 14.8407C25.7219 14.743 25.8782 14.712 26.0085 14.6143C26.8553 15.3423 27.6152 16.19 28.5967 16.7404C28.9223 16.8824 29.2003 17.0954 29.4825 17.3129C29.5129 17.3351 29.5433 17.3573 29.5781 17.3795H29.5737C29.8603 17.5748 30.1123 17.8144 30.3988 18.0142C32.4746 19.3856 34.5763 20.7482 36.9648 21.5028C37.9549 22.102 39.5182 21.6981 40.2261 22.7144C40.326 22.7632 40.4519 22.7588 40.5474 22.6967C41.2118 23.1761 41.3204 24.117 41.5853 24.836C41.1728 25.3065 42.0934 25.9412 42.2671 25.2754C42.4364 25.2932 42.6492 25.2399 42.7665 25.1023C43.0271 25.1555 43.3267 25.0668 43.5395 24.9071C44.1735 24.978 44.4905 25.5639 44.5165 26.1675C44.1474 26.3673 44.2343 26.9842 44.5686 27.1706C44.5426 27.3304 44.4818 27.4769 44.4079 27.6144C44.0562 27.5568 43.8217 28.005 44.0258 28.2891C43.8955 28.8794 43.0531 28.6885 43.0097 29.2655C42.8967 29.3409 42.7795 29.412 42.6535 29.4608C42.3105 29.0968 42.0456 29.625 41.7112 29.6827C40.999 29.0702 41.0382 30.3574 40.8818 30.7879C40.3303 30.9921 40.669 31.7511 40.4215 32.1771C39.6615 32.1283 40.1132 33.0693 39.8309 33.4509C39.3489 33.2246 39.0883 33.9481 39.2967 34.3076C38.5976 35.0665 37.5163 35.6657 36.5436 36.2427L36.5218 36.2516C36.5218 36.2516 35.4232 36.7487 35.1453 37.0284C34.8673 37.308 34.7023 37.6009 34.7153 37.8761C34.7153 37.947 34.7414 38.0669 34.7761 38.2001C34.5851 39.252 34.9195 40.8542 35.1149 41.6309C35.3233 42.2301 35.1626 41.9461 35.3233 42.4343C35.7836 42.6207 36.092 42.7183 36.296 42.7538L35.9573 42.0926C35.814 41.3202 35.827 40.7965 35.4188 40.1174C35.8444 39.6825 35.5578 39.0567 35.51 38.4708C35.51 38.4264 35.51 38.3864 35.5057 38.3421C35.5057 38.2222 35.5144 38.1068 35.5448 37.9959C35.5448 37.9959 35.5491 37.9382 35.5535 37.9115L35.51 37.632C35.8878 37.5787 35.8574 37.0949 36.2482 37.1571C37.538 36.4602 39.2273 35.8655 39.9612 34.4984C40.0914 34.6848 40.3824 34.6627 40.5084 34.4807C41.8458 34.6005 43.0053 33.9525 44.0519 33.1935C44.3124 32.9849 44.586 32.7541 44.7076 32.4346C49.5192 29.3543 48.2729 22.133 46.9918 17.3307C46.6618 15.9325 46.1276 14.6143 45.4328 13.3672C40.7168 2.07137 23.5115 0.881883 17.2799 11.2944C12.0732 18.174 10.0322 33.8282 21.2968 34.7159C22.1827 36.1318 23.9371 36.6732 25.3353 37.5166C25.3615 37.7562 25.5829 37.8982 25.8087 37.8805C25.8087 37.947 25.8174 38.0181 25.8305 38.0847C25.8305 38.2577 25.9043 38.422 26.0215 38.5463C25.9217 38.8924 25.8391 39.2564 26.1344 39.5893C25.6089 39.7136 26.1257 40.2861 25.7957 40.4992C25.8565 41.2005 25.4917 41.52 25.3485 42.1857L25.0575 42.6429C25.5265 42.5985 25.8087 42.6562 25.8217 42.6562L25.8174 42.6474ZM47.2176 27.215C47.1829 27.4148 47.1307 27.6144 47.0569 27.8053C46.5141 27.6589 46.3708 28.4621 46.8137 28.6841C47.0352 29.5407 45.1852 29.5762 45.9626 30.3663C45.867 30.5394 45.7542 30.6991 45.6066 30.8278C45.2287 30.7302 44.7597 31.1651 44.764 31.5469C44.4036 31.427 43.8347 31.6889 43.8087 32.1061C43.6003 32.2216 43.4135 32.4524 43.5307 32.6965C43.4049 32.7852 43.2789 32.874 43.1399 32.945C42.8359 32.6343 42.2801 32.9894 42.4147 33.4066C41.7938 33.7217 41.1032 33.7395 40.4258 33.7706C40.96 32.6965 41.4376 31.5824 41.6852 30.3884C44.0779 30.1976 45.88 27.6766 45.068 25.3154C44.6207 24.2058 43.1139 23.7885 42.102 24.3523C41.9457 21.374 38.6453 21.3829 36.5262 20.6106C36.3698 20.1179 35.6881 20.3133 35.3189 20.0825C35.2191 19.723 34.6719 19.4389 34.3331 19.6164C34.2681 19.5853 34.2073 19.5543 34.1421 19.5232C34.1421 19.0572 33.469 18.7065 33.0825 18.9108C32.9088 18.8264 32.7482 18.7243 32.5875 18.6222C32.6744 18.1384 31.9534 17.6059 31.5366 17.8721C30.7766 17.5126 30.4205 16.798 29.6345 16.5228C29.5997 16.0524 28.9223 15.3599 28.5098 15.8349C28.4143 15.7683 28.3187 15.7018 28.2276 15.6307C28.1494 14.7252 27.0638 14.8274 26.6121 14.1971C26.4341 13.8598 25.9868 13.3672 25.7262 13.9575C21.8136 15.8349 20.1591 20.3532 19.1733 24.3478C18.0616 23.9084 16.4679 24.1924 16.2463 25.5683C16.2463 25.5595 16.2551 25.555 16.2551 25.5461C15.4257 27.4148 17.5535 30.1887 19.5033 29.7272C19.5945 31.4315 20.3415 32.8784 21.0971 34.3387C21.0536 34.312 21.0015 34.3031 20.9494 34.2987C20.919 34.2942 20.8886 34.2854 20.8582 34.2721C20.7409 33.6862 19.9506 34.0501 19.5467 33.7661C19.334 33.1847 18.6566 33.4732 18.2788 33.1359C18.2744 32.5811 17.497 31.9552 17.0107 32.337C16.8717 32.2038 16.7371 32.0662 16.6069 31.9197C16.6372 31.4582 16.1943 30.6858 15.6731 30.8856C15.3301 30.4728 15.3257 29.6073 14.7135 29.4697C14.2792 28.5332 14.4268 27.175 13.758 26.4205C13.745 26.2563 13.7277 26.0921 13.7234 25.9234C14.01 25.5639 14.2054 24.4677 13.6192 24.299C13.5888 23.9483 13.5974 23.5932 13.6322 23.247C14.1967 23.145 14.3356 22.0709 13.8928 21.7513C13.9014 21.6981 13.91 21.6493 13.9188 21.596C14.353 21.1521 14.7743 19.9316 14.3444 19.4078C14.4399 19.0528 14.5484 18.6977 14.6831 18.356C15.2389 18.3071 15.6731 17.1265 15.2867 16.7137C15.3649 15.8793 16.5373 15.4044 16.2507 14.5655C16.4287 13.5447 17.9921 12.9987 17.6447 11.9734C17.9574 11.1923 19.4034 11.0237 19.0994 10.0161C19.4252 9.33262 20.9321 9.38144 20.6019 8.40056C20.8495 8.17863 21.1057 7.97003 21.3706 7.7703C22.339 7.64159 23.0294 6.56749 23.9327 6.20798C25.2269 5.78189 26.408 5.34249 27.7324 5.4135C28.8876 11.0991 33.1086 17.4948 38.5672 19.7984C39.9438 19.0883 36.5306 18.4714 36.1658 17.7389C35.1279 16.9622 34.4983 15.9147 33.5255 15.0715C33.1607 14.1173 31.897 13.6157 31.5018 12.5415C32.0186 12.1244 31.3976 10.8683 30.7679 10.9792C29.4435 9.3415 28.918 6.68732 27.9974 5.28922C28.3448 4.92971 28.9745 5.04956 29.4521 4.98297C32.3312 8.88878 36.27 14.3391 40.6516 16.0302C41.1162 16.616 44.5252 17.9831 43.3787 16.5095C42.4321 16.4074 41.5983 15.8526 40.834 15.3068C40.7385 14.4945 39.1143 13.4693 39.4748 14.9029C38.6149 14.237 37.8463 13.4559 37.095 12.6747C37.0082 11.9912 36.0094 10.3357 35.2365 10.9261C33.8034 9.50128 32.4832 7.96559 31.2282 6.37664C30.9373 5.91504 30.4335 5.49783 30.2859 4.98742C31.1458 4.61015 32.2531 5.23597 32.9913 4.92528C34.9238 4.86314 36.5132 6.42102 38.1763 6.51867C38.7235 6.73171 38.9667 7.57501 39.6268 7.43742C40.1175 7.67709 40.4519 8.79558 41.0512 8.44938C41.5506 9.03969 41.8806 9.61224 42.545 10.0605C42.5363 10.0516 42.532 10.0472 42.5233 10.0383C42.5971 10.1138 42.6666 10.1892 42.7361 10.2647C42.6579 10.895 43.5177 11.0015 43.6437 11.5918C43.2745 12.0223 43.8651 13.1098 44.434 12.8789C44.4774 12.9499 44.5209 13.0254 44.5599 13.1008C44.1865 13.4914 44.7206 14.3169 45.1852 14.3436C45.333 14.7652 45.4502 15.2002 45.5196 15.653C45.9104 16.2654 46.184 16.9534 46.3578 17.699C45.9192 17.9964 46.2579 18.6577 46.5532 18.9462C46.3708 19.6785 47.0743 20.1712 47.1307 20.8192C46.7095 21.1388 46.8355 22.1063 47.2393 22.3993C47.1829 23.5622 47.5867 24.7118 47.3826 25.8968C46.8962 26.03 46.8745 26.9131 47.2133 27.2105L47.2176 27.215Z" fill="#26466D"/>
</g>
</g>
</g>
</g>
</g>
<defs>
<clipPath id="clip0_2_495">
<rect width="61" height="62.01" fill="white" transform="translate(0.5 0.330078)"/>
</clipPath>
<clipPath id="clip1_2_495">
<rect width="61" height="62.01" fill="white" transform="translate(0.5 0.330078)"/>
</clipPath>
<clipPath id="clip2_2_495">
<rect width="61" height="62.0167" fill="white" transform="translate(0.5 0.331787)"/>
</clipPath>
</defs>
</svg>
