<svg width="29" height="27" viewBox="0 0 29 27" fill="none" xmlns="http://www.w3.org/2000/svg">
<g clip-path="url(#clip0_2_692)">
<path d="M13.9638 25.38H3.51765C2.03072 25.38 0.838867 24.165 0.838867 22.68L0.852367 5.94004C0.852367 4.45504 2.03072 3.24004 3.51765 3.24004H4.85705V1.89004C4.85705 1.14754 5.45972 0.540039 6.19644 0.540039C6.93315 0.540039 7.53583 1.14754 7.53583 1.89004V3.24004H19.3213V1.89004C19.3213 1.14754 19.924 0.540039 20.6607 0.540039C21.3974 0.540039 22.0001 1.14754 22.0001 1.89004V3.24004H23.3395C24.812 3.24004 26.0173 4.45504 26.0173 5.94004V11.88H23.3395V10.26H3.51669V22.68H13.9628V25.38H13.9638ZM27.5313 18.6165L28.482 17.658C28.733 17.4049 28.8738 17.0628 28.8738 16.7063C28.8738 16.3498 28.733 16.0077 28.482 15.7545L27.5313 14.796C27.4079 14.6708 27.2609 14.5714 27.0987 14.5035C26.9366 14.4356 26.7625 14.4007 26.5867 14.4007C26.411 14.4007 26.2369 14.4356 26.0748 14.5035C25.9126 14.5714 25.7656 14.6708 25.6422 14.796L24.6914 15.7545L27.5313 18.6165ZM26.5805 19.575L19.87 26.3385C19.6289 26.5815 19.2818 26.73 18.9327 26.73H17.3127C17.2241 26.7307 17.1363 26.7136 17.0544 26.6799C16.9725 26.6461 16.8981 26.5964 16.8357 26.5335C16.7732 26.4706 16.724 26.3959 16.6908 26.3137C16.6577 26.2316 16.6413 26.1436 16.6425 26.055V24.4215C16.6425 24.057 16.7901 23.7195 17.0312 23.463L23.7407 16.6995L26.5805 19.575Z" fill="white"/>
</g>
<defs>
<clipPath id="clip0_2_692">
<rect width="28.9286" height="27" fill="white" transform="translate(0.0356445)"/>
</clipPath>
</defs>
</svg>
