<svg width="74" height="75" viewBox="0 0 74 75" fill="none" xmlns="http://www.w3.org/2000/svg">
  <defs>
    <filter id="shadow" x="-50%" y="-50%" width="200%" height="200%">
      <feDropShadow dx="0" dy="4" stdDeviation="4" flood-color="rgba(0, 0, 0, 0.1)" />
    </filter>
    <clipPath id="clip0_1_544">
      <rect width="74" height="75" fill="white"/>
    </clipPath>
  </defs>
  <g clip-path="url(#clip0_1_544)">
    <path fill-rule="evenodd" clip-rule="evenodd" d="M37 53.8437C48.8741 53.8437 58.5 44.1557 58.5 32.205C58.5 20.2544 48.8741 10.5664 37 10.5664C25.1259 10.5664 15.5 20.2544 15.5 32.205C15.5 39.6452 19.231 46.2084 24.9126 50.1027L25.1883 54.5671L29.2933 52.412C31.6858 53.3369 34.2841 53.8437 37 53.8437Z" fill="white" filter="url(#shadow)"/>
    <path d="M41.038 42L40.748 43.259C40.6398 43.7255 40.3855 44.1453 40.0222 44.4574C39.6589 44.7694 39.2055 44.9574 38.728 44.994L38.555 45.001H36.444C35.9648 45.001 35.4982 44.848 35.112 44.5643C34.7259 44.2807 34.4403 43.8812 34.297 43.424L34.251 43.257L33.961 42H41.038ZM37.5 25.002C39.4228 25.002 41.2669 25.7658 42.6265 27.1254C43.9862 28.4851 44.75 30.3291 44.75 32.252C44.75 34.388 43.814 36.345 41.985 38.092C41.9496 38.1258 41.9249 38.1692 41.914 38.217L41.386 40.5H33.614L33.088 38.217C33.0769 38.1696 33.0522 38.1265 33.017 38.093C31.187 36.345 30.25 34.388 30.25 32.251C30.2503 30.3283 31.0142 28.4845 32.3738 27.1251C33.7334 25.7657 35.5774 25.002 37.5 25.002Z" fill="#13C4CE" filter="url(#shadow)"/>
    <path d="M28.109 21.5625L29.6291 24.1489" stroke="#13C4CE" stroke-width="2" stroke-linecap="round" filter="url(#shadow)"/>
    <path d="M46.8918 21.5625L45.3718 24.1489" stroke="#13C4CE" stroke-width="2" stroke-linecap="round" filter="url(#shadow)"/>
    <path d="M37.5 19V22" stroke="#13C4CE" stroke-width="2" stroke-linecap="round" filter="url(#shadow)"/>
  </g>
</svg>
