<svg width="61" height="31" viewBox="0 0 61 31" fill="none" xmlns="http://www.w3.org/2000/svg">
<g clip-path="url(#clip0_1_613)">
<g clip-path="url(#clip1_1_613)">
<path d="M10.738 29.4719C13.1487 29.4719 15.3052 27.8272 15.9744 25.4724L16.1045 25.0176H32.5139L32.6439 25.4724C33.307 27.8272 35.4573 29.4719 37.8741 29.4719C40.2847 29.4719 42.4412 27.8272 43.1104 25.4724L43.2406 25.0176H48.8725C49.2938 25.0176 49.647 24.6562 49.647 24.2327V1.46269C49.647 1.03906 49.2938 0.677734 48.8725 0.677734H16.2719C15.8505 0.677734 15.4973 1.03906 15.4973 1.46269V5.81111H6.21434C5.97266 5.81111 5.73098 5.94193 5.58846 6.14751L1.38078 12.2215C1.29402 12.34 1.24445 12.4895 1.24445 12.6514V24.2451C1.24445 24.6687 1.59767 25.0301 2.01906 25.0301H5.37776L5.50789 25.4848C6.17096 27.8272 8.32127 29.4719 10.738 29.4719ZM10.7194 20.04C12.8698 20.04 14.6173 21.8031 14.6173 23.971C14.6173 26.139 12.8698 27.9082 10.7194 27.9082C8.56914 27.9082 6.82163 26.1452 6.82163 23.971C6.82163 21.8031 8.56914 20.04 10.7194 20.04ZM37.8803 20.04C40.0306 20.04 41.7781 21.8031 41.7781 23.971C41.7781 26.139 40.0306 27.9082 37.8803 27.9082C35.73 27.9082 33.9825 26.1452 33.9825 23.971C33.9763 21.8031 35.73 20.04 37.8803 20.04ZM2.75648 23.4726V15.2493H11.0727C11.4941 15.2493 11.8472 14.888 11.8472 14.4643V7.39347H15.4911V21.367C15.0077 20.5571 14.4686 20.0213 14.4438 19.9964C13.4337 19.0246 12.1076 18.495 10.7132 18.495C8.10438 18.495 5.85491 20.3764 5.36536 22.968L5.26622 23.4789H2.75648V23.4726ZM17.0464 23.4726V2.2601H48.0916V23.4726H43.3212L43.2282 22.9618C42.751 20.3702 40.5016 18.495 37.8803 18.495C35.2714 18.495 33.022 20.3764 32.5324 22.968L32.4332 23.4789H17.0464V23.4726ZM2.75648 13.6793V12.8819L6.59234 7.39347H10.2733V13.6856H2.75648V13.6793Z" fill="#00C17C"/>
<path d="M58.7022 2.17344C59.032 2.17344 59.3084 1.83378 59.3084 1.42857C59.3084 1.02336 59.032 0.677734 58.7022 0.677734H50.9046C50.5748 0.677734 50.2985 1.02336 50.2985 1.42857C50.2985 1.83378 50.5748 2.1794 50.9046 2.1794H58.7022V2.17344Z" fill="#00C17C"/>
<path d="M56.7171 6.18379C57.0375 6.18379 57.3059 5.83817 57.3059 5.43296C57.3059 5.02775 57.0375 4.68213 56.7171 4.68213H50.8868C50.5618 4.68213 50.2981 5.01584 50.2981 5.43296C50.2981 5.83817 50.5665 6.18379 50.8868 6.18379H56.7171Z" fill="#00C17C"/>
<path d="M54.6978 10.1887C55.0277 10.1887 55.3041 9.84307 55.3041 9.43785C55.3041 9.03264 55.0277 8.68701 54.6978 8.68701H50.9049C50.5702 8.68701 50.2986 9.02072 50.2986 9.43785C50.2986 9.84307 50.5751 10.1887 50.9049 10.1887H54.6978Z" fill="#00C17C"/>
<path d="M52.581 14.1931C52.973 14.1931 53.3016 13.8475 53.3016 13.4422C53.3016 13.037 52.973 12.6914 52.581 12.6914H51.0188C50.6211 12.6914 50.2982 13.0251 50.2982 13.4422C50.2982 13.8475 50.6269 14.1931 51.0188 14.1931H52.581Z" fill="#00C17C"/>
</g>
</g>
<defs>
<clipPath id="clip0_1_613">
<rect width="60" height="30" fill="white" transform="translate(0.76001 0.189941)"/>
</clipPath>
<clipPath id="clip1_1_613">
<rect width="59.0323" height="30" fill="white" transform="translate(0.76001 0.189941)"/>
</clipPath>
</defs>
</svg>
