<svg width="64" height="65" viewBox="0 0 64 65" fill="none" xmlns="http://www.w3.org/2000/svg">
<g clip-path="url(#clip0_1_465)">
<path fill-rule="evenodd" clip-rule="evenodd" d="M31.8908 44.2156C22.5624 44.2156 15.0003 36.6047 15.0003 27.2162C15.0003 17.8277 22.5624 10.2168 31.8908 10.2168C41.2191 10.2168 48.7812 17.8277 48.7812 27.2162C48.7812 33.0614 45.85 38.2176 41.3863 41.277L41.1697 44.7831L37.9458 43.0906C36.0661 43.8173 34.0247 44.2156 31.8908 44.2156Z" fill="#13C4CE"/>
<path d="M39.3532 30.4109C38.0515 30.4109 36.9963 29.3557 36.9963 28.0541C36.9963 26.7524 38.0515 25.6973 39.3532 25.6973C40.6548 25.6973 41.71 26.7524 41.71 28.0541C41.71 29.3557 40.6548 30.4109 39.3532 30.4109Z" fill="white"/>
<path d="M31.4966 30.4109C30.195 30.4109 29.1398 29.3557 29.1398 28.0541C29.1398 26.7524 30.195 25.6973 31.4966 25.6973C32.7983 25.6973 33.8535 26.7524 33.8535 28.0541C33.8535 29.3557 32.7983 30.4109 31.4966 30.4109Z" fill="white"/>
<path d="M23.6412 30.4109C22.3395 30.4109 21.2844 29.3557 21.2844 28.0541C21.2844 26.7524 22.3395 25.6973 23.6412 25.6973C24.9428 25.6973 25.998 26.7524 25.998 28.0541C25.998 29.3557 24.9428 30.4109 23.6412 30.4109Z" fill="white"/>
</g>
<defs>
<clipPath id="clip0_1_465">
<rect width="64" height="65" fill="white"/>
</clipPath>
</defs>
</svg>
