<svg width="120" height="120" viewBox="0 0 120 120" fill="none" xmlns="http://www.w3.org/2000/svg">
<g clip-path="url(#clip0_1_483)">
<g clip-path="url(#clip1_1_483)">
<path d="M60 120C26.8629 120 0 93.1371 0 60C0 26.8629 26.8629 0 60 0C93.1371 0 120 26.8629 120 60C120 93.1371 93.1371 120 60 120Z" fill="#F7F9FC"/>
<mask id="mask0_1_483" style="mask-type:luminance" maskUnits="userSpaceOnUse" x="0" y="0" width="120" height="120">
<path d="M60 120C26.8629 120 0 93.1371 0 60C0 26.8629 26.8629 0 60 0C93.1371 0 120 26.8629 120 60C120 93.1371 93.1371 120 60 120Z" fill="white"/>
</mask>
<g mask="url(#mask0_1_483)">
<path d="M75.4769 56.788C75.3978 56.9976 75.4014 57.2463 75.5309 57.4986C76.2108 58.8026 76.8872 60.1066 77.5672 61.407C77.5204 61.5988 77.4736 61.7907 77.4268 61.979C76.898 64.1286 76.3727 66.2783 75.8439 68.4279C75.5705 69.54 77.3045 70.009 77.5779 68.9004C77.6859 68.4563 77.7974 68.0122 77.9053 67.568C78.2399 66.2037 78.5745 64.8393 78.9091 63.4749L78.8875 63.2546C79.9776 63.7094 81.0605 64.1855 82.1254 64.6971C84.3451 65.7666 86.5325 66.9747 88.5904 68.3248C90.5079 69.5862 92.2636 71.416 93.0263 73.5976C93.4256 74.7417 93.6415 75.964 93.9797 77.1294C94.3718 78.476 94.7963 79.812 95.2317 81.1444C96.3253 84.4914 97.4874 87.8171 98.6674 91.1357C99.8834 94.5573 101.125 97.9683 102.373 101.379C103.294 103.895 104.226 106.411 105.14 108.926C105.431 109.722 105.759 110.525 105.967 111.349C106.086 111.822 106.14 112.298 106.097 112.785C106.075 113.048 105.938 113.492 105.816 113.723C105.6 114.135 105.456 114.309 105.161 114.618C104.873 114.92 104.56 115.197 104.244 115.471C103.474 116.132 102.74 116.835 101.941 117.461L101.931 117.468C101.895 117.493 101.862 117.521 101.826 117.546C101.747 117.606 101.664 117.667 101.582 117.727C101.387 117.873 101.189 118.015 100.992 118.161C100.517 118.505 100.035 118.846 99.5524 119.184C97.0485 120.939 94.5121 122.641 91.9686 124.339C89.4574 126.013 86.9391 127.676 84.4135 129.331C83.5141 129.921 82.6111 130.511 81.7117 131.097C81.5354 130.824 81.3627 130.55 81.1864 130.273C79.6862 127.914 78.186 125.558 76.6857 123.199C75.8906 121.952 75.0992 120.705 74.3041 119.457C74.6998 119.17 75.0956 118.878 75.4949 118.59L83.9026 112.469C85.6691 111.182 87.4355 109.896 89.202 108.61C89.5006 108.393 89.774 107.995 89.6157 107.608C89.3099 106.855 89.0041 106.105 88.6947 105.352C87.3672 102.097 86.0432 98.8459 84.7157 95.5913C83.8846 93.5518 83.0536 91.5123 82.2225 89.4764C82.0606 89.0749 81.7117 88.7871 81.2727 88.8297C81.2224 88.8333 81.1684 88.8404 81.118 88.8546C80.6863 88.9718 80.3086 89.5013 80.4885 89.949C80.7943 90.7022 81.1001 91.4519 81.4095 92.2052C82.0139 93.6904 82.6183 95.1755 83.2263 96.6572C81.2835 93.9959 79.3372 91.3347 77.3945 88.6734C75.8187 86.5202 74.2465 84.3635 72.6707 82.2103C72.3721 81.8017 72.0735 81.386 71.7713 80.9809C71.39 80.4729 70.8359 80.1247 70.2423 80.0429C70.2999 80.0074 70.3503 79.9648 70.397 79.9115C71.1525 79.0054 71.9044 78.0958 72.6599 77.1898C73.5774 76.0883 74.4912 74.9833 75.4086 73.8819C75.6316 73.6118 75.9194 73.3311 76.0166 72.9901C76.2648 72.1338 76.3008 70.9257 75.6604 70.2293C75.3762 69.9202 74.9589 69.6892 74.6135 69.4512C73.9983 69.0248 73.3867 68.5984 72.7715 68.1721C71.8469 67.529 70.9223 66.8858 69.9977 66.2463C69.7207 66.0544 69.3501 66.0971 69.0731 66.2676C70.8719 62.8922 72.9514 59.6731 75.4697 56.7773L75.4769 56.788ZM84.2552 82.722C84.8596 80.5119 85.8885 78.444 87.1693 76.5396C87.7377 75.6939 88.3601 74.8838 89.0473 74.127C89.3351 73.8108 89.6337 73.5017 89.9431 73.2103C90.1841 72.9829 90.6123 72.6134 90.7598 72.5033C91.1483 72.2119 91.3534 71.7429 91.0836 71.2881C90.8605 70.9079 90.2417 70.6805 89.8532 70.9683C88.1946 72.2119 86.8527 73.825 85.6979 75.5234C84.2984 77.5771 83.1759 79.8546 82.5211 82.2494C82.2189 83.358 83.953 83.8234 84.2552 82.722Z" fill="white"/>
<path d="M48.6284 42.4189C48.6487 42.4697 48.6487 42.4731 48.6284 42.4189V42.4189Z" fill="#63D4DB"/>
<path d="M61.0285 83.1374C61.5249 83.2724 61.9676 82.9669 62.1366 82.5156C62.9065 80.469 63.68 78.4224 64.4931 76.3901C65.7487 73.2491 67.1013 70.1011 68.6663 67.0703C68.6915 67.351 68.8571 67.6139 69.1053 67.7845C69.4255 68.0083 69.7457 68.2286 70.0659 68.4525C71.2495 69.2732 72.433 70.0976 73.6131 70.9183C73.8541 71.0853 74.0989 71.2488 74.3363 71.4193V71.4371C74.3363 71.4371 74.3182 71.43 74.3434 71.4442C74.3542 71.4939 74.3686 71.5543 74.3722 71.5792C74.3722 71.597 74.3795 71.6396 74.3795 71.764C74.3795 71.8563 74.3794 71.9523 74.3686 72.0447C74.3686 72.0944 74.3615 72.1477 74.3543 72.1974C74.3435 72.2614 74.3327 72.3218 74.3218 72.3857C74.3218 72.4 74.3146 72.4142 74.311 72.4284C74.1527 72.6203 73.9909 72.8121 73.8326 73.0075C72.2677 74.8907 70.7027 76.7774 69.1377 78.6605C68.8283 79.0336 68.7671 79.5488 69.1377 79.9183C69.2204 80 69.3248 80.064 69.4399 80.1066C69.2852 80.1528 69.1305 80.2132 68.983 80.302C68.8499 80.3802 68.7276 80.4761 68.6052 80.565C66.6265 81.9755 64.6478 83.3861 62.6691 84.7931C62.4209 84.9708 62.1726 85.1484 61.9244 85.3225C61.7985 85.1413 61.6689 84.9601 61.5178 84.8216C61.2515 84.5764 60.8954 84.4769 60.55 84.5089C60.6651 84.0328 60.7947 83.5602 60.935 83.0983C60.9674 83.1125 60.9998 83.1267 61.0322 83.1374H61.0285Z" fill="white"/>
<path d="M56.7296 32.6768C56.8618 32.6839 56.7904 32.6981 56.7296 32.6839C56.7225 32.6839 56.7189 32.6803 56.7118 32.6768H56.7296Z" fill="#63D4DB"/>
<path d="M56.715 32.6725H56.7117C56.7117 32.6725 56.7017 32.6692 56.6951 32.6658C56.6984 32.6692 56.7084 32.6725 56.715 32.6725Z" fill="#63D4DB"/>
<path d="M56.1188 32.6946C56.1188 32.6946 56.1688 32.6803 56.201 32.6768C56.1724 32.6839 56.1474 32.691 56.1188 32.6946Z" fill="#63D4DB"/>
<path d="M60.608 38.0242V38.0525C60.6329 38.1797 60.6151 38.0914 60.608 38.0242Z" fill="#63D4DB"/>
<path d="M57.3481 32.8278H57.3388L57.3231 32.8152C57.3231 32.8152 57.3388 32.8247 57.3481 32.8278Z" fill="#63D4DB"/>
<path d="M74.4264 71.4906C74.4014 71.4728 74.3764 71.4585 74.3549 71.4514C74.3478 71.4443 74.3407 71.4372 74.3335 71.4265C74.3657 71.4478 74.3942 71.4692 74.4264 71.4906Z" fill="#63D4DB"/>
<path d="M74.3196 71.3942C74.3196 71.3777 74.3261 71.3942 74.3327 71.424C74.3327 71.424 74.3196 71.4041 74.3196 71.3942Z" fill="#63D4DB"/>
<path d="M56.2039 32.6757C56.2039 32.6757 56.2232 32.6725 56.2329 32.6692C56.2232 32.6692 56.2168 32.6725 56.2104 32.6757H56.2039Z" fill="#63D4DB"/>
<path d="M57.4173 32.8652C57.3959 32.8545 57.3709 32.8439 57.353 32.8296C57.3816 32.8403 57.4066 32.8545 57.4173 32.8652Z" fill="#63D4DB"/>
<path d="M32.4455 87.8959L32.4164 87.9607C32.4018 87.9175 32.3909 87.8743 32.3763 87.8347C32.3982 87.8563 32.4237 87.8779 32.4455 87.8959Z" fill="#63D4DB"/>
<path d="M19.0222 88.3744C19.5187 88.2394 19.7418 87.7526 19.6518 87.28C19.2705 85.2903 18.8855 83.3006 18.5042 81.3108C18.443 80.9946 18.425 80.6677 18.1768 80.4226C18.0581 80.3053 17.8818 80.1987 17.7487 80.0992C17.1479 79.648 16.5471 79.1967 15.9463 78.7455C13.7733 77.1146 11.6039 75.4802 9.43447 73.8422C8.85885 73.4052 8.28323 72.9717 7.70761 72.5347C7.21113 72.1581 6.71825 71.7814 6.31531 71.4723C5.8692 71.1312 5.42669 70.7901 4.98417 70.449C4.70715 70.2359 4.04519 69.8592 3.96964 69.5217C3.98762 69.5039 4.00921 69.4862 4.0272 69.4719C4.04519 69.4613 4.14592 69.3902 4.1783 69.3725C4.18549 69.3689 4.21068 69.3582 4.23227 69.3511C4.27544 69.3405 4.38697 69.312 4.39417 69.3049C4.70356 69.2694 4.9518 69.3334 5.2576 69.4435C6.20379 69.7846 7.01326 70.5165 7.85511 71.0495C9.06392 71.8205 10.3411 72.4601 11.5931 73.1565C11.7766 73.4621 12.1183 73.6681 12.5645 73.558C13.0645 73.4336 13.2984 73.4017 13.7697 73.3732C14.2446 73.3448 14.723 73.3448 15.1979 73.3661C16.2556 73.4159 17.3026 73.5758 18.3351 73.8138C19.3532 74.0483 20.375 74.3539 21.3283 74.7874C21.7529 74.9792 22.1666 75.196 22.5623 75.4447C22.9617 75.6969 23.1883 75.8711 23.5409 76.2441C24.3324 77.0827 25.6024 75.8213 24.8145 74.9863C23.2999 73.3839 20.9218 72.588 18.8172 72.1012C16.8601 71.6464 14.6979 71.3657 12.6868 71.7246C11.5643 71.0957 10.4095 70.5201 9.30856 69.8521C7.85511 68.971 6.40525 67.5497 4.60283 67.5213C4.24666 67.5142 3.90129 67.5852 3.58469 67.7132C3.52353 67.6243 3.45158 67.5391 3.36883 67.468C3.16017 67.2903 2.92632 67.1518 2.70686 66.9919C2.68887 66.9812 2.65288 66.9528 2.6241 66.9315C2.61331 66.9244 2.60251 66.9137 2.59892 66.9102C2.51257 66.8427 2.42984 66.7716 2.3507 66.697C2.26075 66.6152 2.17801 66.53 2.09526 66.4411C2.06647 66.4092 2.03769 66.3701 2.00892 66.3381L1.99811 66.3203C1.94055 66.2386 1.90099 66.1356 1.84343 66.0539C1.84343 66.0539 1.82903 66.0112 1.81824 65.9828C1.81824 65.9686 1.81824 65.9544 1.81824 65.9402C1.82544 65.9188 1.83263 65.8975 1.83983 65.8727C1.83983 65.8691 1.84701 65.862 1.84701 65.8584C1.88659 65.8336 1.90098 65.7909 1.883 65.8051L1.89019 65.798C1.89019 65.798 1.96574 65.7199 2.00892 65.6808C2.0269 65.6701 2.04129 65.6595 2.05927 65.6524C2.06646 65.6488 2.07367 65.6453 2.08087 65.6417C2.09526 65.6346 2.10965 65.631 2.12404 65.6239H2.15641C2.16361 65.6239 2.1852 65.6239 2.20678 65.6275C2.21758 65.6275 2.23196 65.631 2.24276 65.6346C2.27874 65.6453 2.31472 65.6559 2.3507 65.6666C2.36149 65.6737 2.37228 65.6808 2.38307 65.6843C2.39386 65.6915 2.40105 65.6986 2.41185 65.7057C2.44423 65.7199 2.47661 65.7376 2.50539 65.7554C2.57014 65.798 2.6385 65.8336 2.70686 65.8584C2.90114 65.9615 3.0954 66.0645 3.28968 66.1676C5.57779 67.365 7.86589 68.5623 10.154 69.7597C11.1757 70.2963 12.086 68.7613 11.0606 68.2248C10.7296 68.0507 10.3987 67.8766 10.0677 67.7061C7.88029 66.562 5.7145 65.3468 3.49115 64.2596C3.32206 64.0961 3.20693 63.9469 3.0954 63.7692C3.01266 63.6342 2.9515 63.5347 2.9515 63.4423C2.96589 63.4281 2.98388 63.4139 3.01266 63.3997C3.099 63.3535 3.17816 63.318 3.27889 63.3002C3.74659 63.2221 4.12073 63.5099 4.53087 63.7373C4.941 63.9646 5.36193 64.2134 5.80804 64.3768C5.83323 64.3946 5.85481 64.4123 5.87999 64.4266C8.28683 65.7519 10.7081 67.0594 13.1149 68.3847C14.1294 68.9425 15.036 67.4076 14.0215 66.8498C11.8701 65.6666 9.7151 64.4976 7.56369 63.318C7.65004 63.2896 7.69681 63.286 7.81193 63.286C8.38036 63.2718 8.9524 63.517 9.45247 63.7692C10.1576 64.1245 10.8232 64.5687 11.5031 64.9631C12.4745 65.528 13.4531 66.0894 14.4244 66.6543C15.5109 67.2832 16.5974 67.9121 17.6767 68.5517C18.6769 69.1451 19.7166 69.7207 20.6448 70.4242C21.0333 70.7191 21.6521 70.481 21.8752 70.1044C22.1414 69.6531 21.9363 69.1806 21.5514 68.8892C20.9326 68.4202 20.2706 68.001 19.5943 67.5995C19.5907 67.5888 19.5871 67.5781 19.5835 67.5675C19.2381 66.7858 18.9287 65.9757 18.7524 65.1372C18.6877 64.8316 18.6517 64.526 18.6589 64.2134C18.6625 64.0357 18.6697 64.0002 18.7093 63.8545C18.7093 63.8403 18.7344 63.7799 18.7452 63.7444C18.7524 63.7444 18.7956 63.6662 18.7884 63.6662C18.8783 63.5596 19.1302 63.3677 19.3245 63.3322C19.6015 63.286 19.7993 63.517 19.9648 63.7195C20.3138 64.1352 20.3606 64.6149 20.5081 65.1301C20.8139 66.1747 21.2348 67.3045 21.85 68.2106C22.3645 68.9638 23.048 69.6283 23.7352 70.2252C24.6274 71.0033 25.5016 71.7282 26.1024 72.7621C26.7068 73.7925 27.009 74.9615 27.0054 76.1553C27.0054 76.5532 26.9767 76.9476 26.9119 77.342C26.8759 77.573 26.84 77.7684 26.8867 78.0065C26.9191 78.1592 26.9659 78.312 27.0019 78.4648C27.1781 79.1648 27.3544 79.8612 27.5307 80.5611C27.8257 81.7336 28.1243 82.9062 28.4193 84.0751C28.6172 84.8568 29.531 84.8533 29.9591 84.3949L30.1426 84.967C30.0203 85.0096 29.898 85.0807 29.7864 85.1979C28.6424 86.4273 27.394 87.7242 26.0593 88.6835C25.6527 88.9749 25.2246 89.2484 24.7749 89.4687C24.7317 89.49 24.5339 89.5753 24.5195 89.586C24.4511 89.6108 24.3864 89.6393 24.318 89.6606C24.1561 89.7174 23.987 89.7636 23.8179 89.8027C23.7927 89.8098 23.7028 89.824 23.6452 89.8347C23.5949 89.8418 23.5157 89.8489 23.4977 89.8525C23.3394 89.8631 23.1811 89.8631 23.0228 89.8525C23.0013 89.8525 22.9221 89.8454 22.8717 89.8382C22.825 89.8311 22.7638 89.824 22.7494 89.8205C22.6055 89.7956 22.4652 89.7601 22.3249 89.721C20.9974 89.3586 19.7886 88.6942 18.4466 88.3673V88.3353C18.6301 88.4028 18.8316 88.4241 19.0151 88.3744H19.0222Z" fill="white"/>
<path d="M42.6158 61.24C42.9971 59.9715 43.7634 58.8488 44.483 57.7473C45.2637 56.557 45.9436 55.3667 46.5049 54.0592C47.6201 51.4583 48.5807 48.6763 48.9117 45.8445C49.3218 46.1678 49.7823 46.4165 50.3004 46.5444C50.9732 49.1808 51.9301 51.6857 53.6498 53.8638C53.8837 54.1587 54.1319 54.4465 54.3945 54.7236C54.3945 54.7556 54.3873 54.7876 54.3909 54.8196C54.506 55.9992 54.6284 57.1788 54.7471 58.3584C54.6248 58.4331 54.5097 58.5148 54.4017 58.6036C54.1211 58.4295 53.7433 58.3798 53.4699 58.5752C52.7324 59.101 52.0237 59.666 51.3221 60.2309C49.2607 61.8973 47.228 63.617 45.2457 65.3865C44.724 65.5215 44.2024 65.6636 43.6807 65.8306C43.6447 65.66 43.5656 65.493 43.4505 65.3474C42.4899 64.1251 42.1769 62.6968 42.6158 61.2364V61.24Z" fill="#63D4DB"/>
<path d="M75.2104 35.5294C74.9226 35.7248 74.7499 36.041 74.7715 36.3679C74.1707 35.6005 73.2929 35.1208 72.6669 34.4635C73.5627 34.6056 74.4621 34.698 75.3687 34.7228C76.5272 34.7548 76.5236 32.9783 75.3687 32.9463C74.0376 32.9108 72.7281 32.7082 71.4365 32.392C66.317 31.1342 61.4458 28.2562 57.992 24.3087C57.6719 23.9428 57.0459 23.989 56.7185 24.3087C56.5746 24.4509 56.4954 24.625 56.4738 24.8026C55.7363 25.094 55.1139 25.666 54.6606 26.3518C54.5707 26.3233 54.4807 26.302 54.3944 26.302C53.8727 26.302 53.5453 26.7142 53.495 27.1903C53.4914 27.2329 53.4878 27.2542 53.4878 27.2613C53.4878 27.272 53.4842 27.2898 53.477 27.3146C53.4626 27.3928 53.4482 27.4674 53.4338 27.5456C53.405 27.6877 53.3691 27.8298 53.3295 27.972C53.2359 28.306 53.1208 28.6328 52.9841 28.9526C52.7359 29.5424 52.3653 30.2104 52.0055 30.7931C51.2752 31.9692 50.4406 33.0529 49.4368 34.0158C48.9727 34.4635 49.167 35.0533 49.5735 35.3446C49.3828 36.137 49.185 36.9435 48.595 37.5298C47.6308 37.441 46.8609 38.0805 46.4939 38.9332C46.3536 38.4785 46.2097 38.0166 46.109 37.5333C46.2601 37.7536 46.4939 37.9029 46.8141 37.9029C47.253 37.9029 47.7783 37.4907 47.7135 37.0146C47.4941 35.3837 47.3826 33.7422 47.3898 32.1007C47.3969 29.6242 47.6416 27.1228 48.3467 24.7387C48.6166 23.8291 48.9116 23.0296 49.39 22.2195C49.498 22.0383 49.6131 21.8642 49.7354 21.6901C49.7534 21.6617 49.775 21.6368 49.7966 21.6084V21.6013C49.8613 21.5302 49.9225 21.4556 49.9873 21.3881C50.0988 21.2673 50.2211 21.1571 50.3434 21.047C50.3614 21.0328 50.3722 21.0186 50.383 21.0115C50.3902 21.0115 50.401 21.0044 50.419 20.9901C50.4765 20.9546 50.5341 20.9155 50.5953 20.88C51.0342 20.6206 51.1025 20.1765 50.955 19.8105C51.0378 19.608 51.1241 19.4055 51.25 19.2527C51.322 19.3699 51.4191 19.4765 51.5558 19.5547C51.9516 19.7821 52.574 19.6684 52.7862 19.2349C53.2683 18.2543 54.049 17.5508 55.0024 16.9752C56.1105 16.3072 57.2941 15.8808 58.5605 15.5717C60.6759 15.0565 63.0575 14.8824 65.0902 15.4011C67.8604 16.1046 70.4435 17.4655 72.3899 19.5582C74.1779 21.4876 75.1421 23.9357 75.8328 26.4264C76.556 29.0308 76.9985 31.7311 77.0704 34.4279C77.0884 35.0426 77.6173 35.3233 78.0958 35.2771V35.7781C77.2791 35.1101 76.207 34.8401 75.2176 35.5152L75.2104 35.5294Z" fill="#63D4DB"/>
<path d="M48.0922 39.8077C48.103 39.7722 48.1893 39.5377 48.1606 39.6016C48.2001 39.5128 48.3081 39.3494 48.3728 39.2996L48.3872 39.2925C48.8585 39.3884 49.3478 39.1468 49.4809 38.6707C49.6068 38.223 49.3262 37.683 48.8513 37.5764C48.765 37.5586 48.6786 37.5444 48.5959 37.5373C49.1859 36.9475 49.3838 36.1445 49.5744 35.3521C49.8946 35.5831 50.3443 35.6293 50.7113 35.2775C51.8374 34.1938 52.8087 32.9254 53.6218 31.5965C54.4457 30.2499 55.1328 28.7754 55.2947 27.1978C55.3343 26.8141 55.0213 26.4801 54.6615 26.3593C55.1148 25.6735 55.7372 25.1015 56.4748 24.8101C56.4424 25.0766 56.5287 25.3537 56.7194 25.5705C57.7591 26.7537 58.9176 27.8302 60.1659 28.7967C63.7456 31.5681 68.1132 33.739 72.6678 34.4674C73.2902 35.1212 74.168 35.6008 74.7724 36.3719C74.7796 36.4998 74.8156 36.6241 74.8876 36.7485C74.9559 36.8622 75.0566 36.9581 75.1718 37.0327C75.1862 37.0612 75.2006 37.0896 75.2149 37.118C75.2149 37.2104 75.2401 37.182 75.2869 37.0967C75.5531 37.2211 75.8733 37.2353 76.1216 37.0647C76.4453 36.8444 76.5857 36.8515 76.8843 37.0789C77.1757 37.3028 77.4275 37.6758 77.5462 37.9779C77.8304 38.7027 77.8592 39.5199 77.7369 40.2483C77.4707 41.8721 76.5785 43.3892 75.0315 44.0323C75.0171 44.0394 75.0099 44.0465 74.9955 44.0536C74.6933 44.0998 74.4199 44.2881 74.3119 44.6648C73.6212 47.056 72.7793 49.3726 71.3079 51.4121C69.9696 53.2739 68.2427 54.9225 66.1093 55.8499C64.0226 56.7595 61.6194 56.8625 59.4716 56.088C57.3706 55.3276 55.6437 53.718 54.4277 51.8989C53.0678 49.8629 52.3806 47.5819 51.8302 45.2262C51.6719 44.5369 50.9523 44.4551 50.481 44.7536C50.4775 44.7536 50.4739 44.75 50.4667 44.7429C50.3839 44.6932 50.294 44.6506 50.2112 44.6008C50.1681 44.5724 50.1249 44.5404 50.0817 44.512C50.0709 44.4978 49.9342 44.3876 49.9162 44.3699C49.7795 44.242 49.65 44.1069 49.5313 43.9648C49.5277 43.9577 49.4593 43.8689 49.4377 43.8476C49.3802 43.7694 49.3262 43.6912 49.2722 43.6131C49.1607 43.4461 49.06 43.2755 48.9628 43.1014C48.8657 42.9273 48.7758 42.7461 48.6894 42.5649C48.6642 42.5152 48.6426 42.4619 48.6211 42.4121C48.5851 42.3233 48.5491 42.238 48.5167 42.1492C48.3836 41.7974 48.2721 41.4386 48.1821 41.0762C48.1426 40.9127 48.1102 40.7493 48.0814 40.5823C48.0778 40.5574 48.0742 40.5396 48.0706 40.5219C48.0706 40.5148 48.0706 40.5077 48.0706 40.4934C48.0706 40.433 48.0598 40.3726 48.0562 40.3122C48.049 40.2128 48.0562 40.1133 48.0562 40.0138C48.0562 40.06 48.0778 39.8574 48.0886 39.8077H48.0922ZM63.2419 43.1725C63.206 43.0623 63.1448 42.9664 63.0549 42.8882C62.9721 42.803 62.8786 42.739 62.7671 42.7035C62.6591 42.6466 62.544 42.6217 62.4217 42.6253C62.3857 42.6253 62.3497 42.6289 62.3137 42.6324C62.0619 42.6502 61.8137 42.6679 61.5618 42.6857C61.3999 42.6857 61.2488 42.7283 61.1085 42.8065C61.0474 42.8527 60.9862 42.8989 60.925 42.9451C60.8135 43.0552 60.738 43.1867 60.6948 43.3359C60.684 43.4141 60.6732 43.4923 60.6624 43.5704C60.6588 43.6912 60.684 43.8085 60.7416 43.9115C60.7775 44.0217 60.8387 44.1176 60.9286 44.1958C61.0114 44.281 61.1049 44.345 61.2165 44.3805C61.3244 44.4374 61.4395 44.4623 61.5618 44.4587L61.6698 44.4516C61.9216 44.4338 62.1698 44.4161 62.4217 44.3983C62.5836 44.3983 62.7347 44.3557 62.875 44.2775C62.9361 44.2313 62.9973 44.1851 63.0585 44.1389C63.17 44.0288 63.2455 43.8973 63.2887 43.7481C63.2995 43.6699 63.3103 43.5917 63.3211 43.5136C63.3247 43.3928 63.2995 43.2755 63.2419 43.1725ZM67.131 37.3134C68.2895 37.3134 68.2895 35.5369 67.131 35.5369C65.9726 35.5369 65.9726 37.3134 67.131 37.3134ZM58.7341 49.3122C60.9251 50.5238 64.0478 50.2822 65.9222 48.6123C66.2856 48.2889 66.2532 47.6814 65.9222 47.3545C65.566 47.0027 65.012 47.0347 64.6486 47.3545C64.5947 47.4007 64.5407 47.4468 64.4867 47.493C64.4687 47.5072 64.4292 47.5357 64.404 47.5534C64.2997 47.6245 64.1953 47.6885 64.0874 47.7524C63.9723 47.8164 63.8571 47.8732 63.7384 47.9265C63.7168 47.9372 63.6881 47.9478 63.6665 47.9549C63.6017 47.9798 63.5369 48.0011 63.4722 48.0224C63.224 48.1042 62.9685 48.1681 62.7095 48.2108C62.6735 48.2179 62.6303 48.225 62.6088 48.2285C62.5584 48.2356 62.508 48.2392 62.4577 48.2463C62.3353 48.2569 62.213 48.2641 62.0907 48.2676C61.8209 48.2783 61.5546 48.2676 61.2884 48.2463C61.2345 48.2427 61.1841 48.2356 61.1301 48.2321C61.1157 48.2321 61.1121 48.2321 61.1013 48.2321C61.0905 48.2321 61.0834 48.2285 61.0618 48.225C60.9502 48.2037 60.8387 48.1859 60.7272 48.161C60.5041 48.1113 60.2883 48.0509 60.0724 47.9763C60.0256 47.9585 59.9753 47.9372 59.9249 47.923H59.9177C59.8242 47.8732 59.7342 47.8306 59.6443 47.7808C59.2198 47.5463 58.6621 47.6778 58.4139 48.1006C58.1728 48.5092 58.3132 49.0813 58.7377 49.3158L58.7341 49.3122ZM56.4855 37.9672C57.644 37.9672 57.644 36.1907 56.4855 36.1907C55.3271 36.1907 55.3271 37.9672 56.4855 37.9672Z" fill="white"/>
<path d="M75.2142 37.1151C75.2034 37.0829 75.1855 37.0579 75.1711 37.0293C75.207 37.0543 75.2472 37.0751 75.2868 37.0966C75.24 37.1819 75.2148 37.2103 75.2148 37.1179L75.2142 37.1151Z" fill="#63D4DB"/>
<path d="M52.4988 70.0694C53.4953 72.0023 54.4955 73.9387 55.492 75.8716C55.6971 76.2731 56.3411 76.4578 56.7224 76.1914C57.1541 75.8894 57.5858 75.5838 58.0176 75.2818C60.3848 73.6189 62.7521 71.9596 65.1193 70.2968C63.3781 74.1448 61.8779 78.11 60.3956 82.0469C60.2373 82.4626 60.5359 82.9387 60.9281 83.1021C60.7878 83.5676 60.6582 84.0366 60.5431 84.5127C60.3381 84.534 60.1366 84.598 59.9567 84.7117C59.0717 85.266 58.2406 85.9339 57.388 86.5415C54.2508 88.7764 51.1137 91.0113 47.9765 93.2462C47.7031 93.4416 47.4333 93.6335 47.1598 93.8289C47.2606 92.5107 47.3793 91.157 47.5088 89.7819C47.6707 90.0591 47.9873 90.2509 48.3039 90.2509C48.8148 90.2509 49.1673 89.8423 49.2033 89.3627C49.3472 87.4689 49.5415 85.5786 49.7681 83.6919C50.2322 79.8191 50.8295 75.9533 51.7037 72.1479C51.9303 71.1708 52.175 70.1937 52.4556 69.2273L52.4808 69.2735C52.3656 69.5009 52.3441 69.778 52.4916 70.0694H52.4988Z" fill="#63D4DB"/>
<path d="M75.916 45.5741C75.916 45.5741 75.934 45.5705 75.9412 45.567C77.0385 45.1086 77.8947 44.2772 78.5027 43.2788C79.3554 44.9523 80.7189 46.4197 81.8989 47.8232C83.3704 49.5713 85.0792 51.7955 84.8058 54.2116C84.6691 55.4126 83.9928 56.4821 83.7625 57.6652C83.5179 58.9159 83.9244 60.0529 84.6295 61.0904C85.5757 62.4868 86.8781 63.4852 88.1085 64.6222C88.7812 65.244 89.4396 65.8835 90.0224 66.5906C90.2275 66.8358 90.4649 67.1662 90.652 67.5108C90.6916 67.5855 90.7312 67.6601 90.7671 67.7347L90.7743 67.7453C89.3605 66.6155 87.7595 65.7059 86.1837 64.8176C83.9892 63.5847 81.7118 62.5223 79.3877 61.5559C79.3877 61.5523 79.3877 61.5452 79.3877 61.5417C79.4849 61.0478 79.1899 60.6463 78.9704 60.227C78.7654 59.8326 78.5603 59.4418 78.3552 59.0474C77.9307 58.2337 77.5098 57.4236 77.0853 56.61C76.8226 56.1054 76.3082 56.0735 75.9196 56.2937C75.9412 56.2653 75.9664 56.2369 75.988 56.212C76.7579 55.3628 75.4879 54.1015 74.7144 54.9542C74.6209 55.0573 74.5345 55.1639 74.441 55.2669L74.4158 55.1106C74.2071 53.7178 73.9985 52.3249 73.7934 50.9321C73.7934 50.9108 73.7826 50.8966 73.7754 50.8753C74.718 49.2124 75.3656 47.4039 75.9124 45.5776L75.916 45.5741Z" fill="#63D4DB"/>
<path d="M69.7849 81.9009C69.9756 81.7836 70.0223 81.8085 70.177 81.8511C70.1878 81.8511 70.2238 81.8867 70.2454 81.9115C70.2526 81.9222 70.2634 81.9329 70.2706 81.9435C71.2707 83.3257 72.2816 84.6972 73.289 86.0722C75.3289 88.8649 77.3723 91.6612 79.4122 94.4539C81.614 97.4705 83.8193 100.484 86.0211 103.5C86.5715 104.847 87.122 106.197 87.6688 107.544C87.2335 107.86 86.7982 108.176 86.3629 108.492C83.5603 110.532 80.7577 112.571 77.9552 114.614C76.1887 115.9 74.4223 117.187 72.6558 118.473C72.4939 118.59 72.368 118.746 72.2888 118.921C71.1808 119.557 70.0547 120.164 68.907 120.725C68.4753 120.939 68.04 121.141 67.5975 121.33L67.5579 121.347C67.5579 121.347 67.5507 121.347 67.5363 121.358C67.4968 121.372 67.4608 121.39 67.4212 121.404C67.3241 121.443 67.2233 121.482 67.1226 121.518C66.9643 121.575 66.806 121.632 66.6441 121.678C66.4966 121.72 66.3419 121.745 66.1944 121.788C66.1908 121.788 66.1872 121.788 66.18 121.788C66.1153 121.781 66.0469 121.784 65.9822 121.777C65.2914 121.71 64.6114 121.443 63.9675 121.198C63.3882 120.978 62.8306 120.761 62.2082 120.697C61.6218 120.637 61.021 120.697 60.4454 120.825C59.7906 120.971 59.143 121.237 58.5746 121.589C57.9054 122.005 57.3802 122.559 56.8153 123.092C56.2181 123.653 55.5957 124.14 54.8942 124.467C53.4119 122.438 51.9297 120.413 50.4511 118.384C48.2709 115.399 46.0907 112.418 43.9105 109.434C42.6441 107.7 41.3742 105.962 40.1078 104.228C40.0035 104.086 39.8955 103.944 39.7948 103.802C39.7804 103.784 39.766 103.767 39.7552 103.745C39.6329 103.546 39.6761 103.511 39.7013 103.358C39.7013 103.347 39.7049 103.34 39.7085 103.333C40.1402 102.992 40.6079 102.69 41.054 102.374C43.0831 100.928 45.1121 99.4816 47.1412 98.0355C47.3175 98.2771 47.4938 98.5187 47.6701 98.7603C48.055 99.2826 48.5587 99.542 49.1487 99.3963C49.271 99.3856 49.3898 99.3465 49.4941 99.2719C49.5876 99.2257 49.6596 99.1689 49.7243 99.1085C52.3542 97.236 54.9841 95.36 57.6104 93.4875C59.0531 92.4607 60.4957 91.4303 61.9384 90.4034C62.3233 90.1298 62.7047 89.8562 63.0896 89.5827C63.1472 89.54 63.2084 89.5009 63.2659 89.4583C63.8559 89.0248 64.0394 88.3035 63.6293 87.6782C63.4242 87.362 63.2012 87.0564 62.9745 86.7508C64.4208 85.7205 65.867 84.6901 67.3133 83.6597C68.0328 83.148 68.7523 82.6328 69.4755 82.1212C69.5762 82.0501 69.6769 81.9648 69.7849 81.9009Z" fill="#63D4DB"/>
<path d="M39.7136 103.333C39.7421 103.273 39.8025 103.259 39.7136 103.333V103.333Z" fill="#63D4DB"/>
<path d="M60.2771 86.1125C60.2987 86.1411 60.3203 86.1733 60.3419 86.2019C60.2052 86.1054 60.1188 85.8801 60.2771 86.1125Z" fill="white"/>
<path d="M48.5956 97.7389V97.7195H48.6245L48.5956 97.7389Z" fill="white"/>
<path d="M62.2377 88.0165C62.209 88.0379 62.1802 88.0594 62.1514 88.0808C62.2521 87.9557 62.4644 87.8627 62.2377 88.0165Z" fill="white"/>
<path d="M47.3463 95.8828C47.2456 96.008 47.0334 96.1009 47.26 95.9472C47.2888 95.9257 47.3176 95.9043 47.3463 95.8828Z" fill="white"/>
<path d="M61.1797 87.3446C61.4063 87.6537 61.633 87.9629 61.8596 88.2755V88.2826C61.4639 88.5704 61.0609 88.8547 60.658 89.1425C58.1936 90.9013 55.7256 92.6565 53.2612 94.4153C51.8258 95.4386 50.3903 96.4618 48.9548 97.4851C48.7426 97.1938 48.5303 96.906 48.318 96.6146C48.0914 96.3055 47.8647 95.9964 47.6381 95.6837V95.6766C48.0338 95.3888 48.4368 95.1046 48.8397 94.8168C51.3293 93.0438 53.8189 91.2708 56.3048 89.4942C57.3949 88.7161 58.485 87.9415 59.5751 87.1634C59.8989 86.9325 60.2191 86.7051 60.5429 86.4741C60.7551 86.7655 60.9674 87.0533 61.1797 87.3446Z" fill="white"/>
<path d="M49.7756 83.6919C49.549 85.5786 49.3583 87.4688 49.2108 89.3626C49.1748 89.8423 48.8222 90.2509 48.3114 90.2509C47.9984 90.2509 47.6782 90.0555 47.5163 89.7819C47.4443 89.6575 47.4012 89.5154 47.4119 89.3626C47.6998 85.639 48.1459 81.926 48.7287 78.2379C49.3331 74.4148 50.0418 70.5454 51.3154 66.8787C51.8515 65.3366 52.4846 63.7981 53.5064 62.5048C53.805 62.1246 54.4634 62.1957 54.7799 62.5048C55.1577 62.8779 55.0786 63.3824 54.7799 63.7626C54.9346 63.5672 54.6864 63.8941 54.6504 63.9509C54.5713 64.0646 54.4957 64.1819 54.4238 64.3027C54.2511 64.5834 54.0928 64.8747 53.9489 65.1696C53.8769 65.3188 53.805 65.4645 53.7366 65.6173C53.7006 65.6955 53.6683 65.7736 53.6323 65.8518C53.6215 65.8767 53.6143 65.8944 53.6071 65.9051C53.5999 65.9193 53.5963 65.9335 53.5855 65.9584C53.4308 66.3279 53.2869 66.7046 53.1538 67.0812C52.8984 67.7918 52.6753 68.5095 52.4667 69.2344C52.1896 70.2008 51.9414 71.1743 51.7147 72.155C50.8405 75.9568 50.2433 79.8261 49.7792 83.699L49.7756 83.6919Z" fill="#3F4F5F"/>
<path d="M36.7056 80.6223H42.5986C42.4115 78.2524 42.2208 75.8789 42.0338 73.509C42.0158 73.2709 42.0302 73.0684 42.0913 72.8232C42.3539 71.7822 43.1562 71.2492 44.0808 70.8299C44.1492 70.798 44.2175 70.7695 44.2823 70.7411C43.811 70.3787 43.3649 69.9843 42.9512 69.5651C42.7677 69.3767 42.6813 69.1103 42.6993 68.8544C42.4223 68.5382 42.3432 68.0621 42.7389 67.689C43.5628 66.9144 44.401 66.1505 45.2465 65.3937C47.2288 63.6243 49.2615 61.9046 51.3229 60.2382C52.0245 59.6697 52.7368 59.1083 53.4707 58.5825C53.7441 58.387 54.1219 58.4332 54.4025 58.6109C54.5248 58.689 54.6328 58.785 54.7011 58.9022C54.9673 59.3499 54.7731 59.8367 54.3773 60.1174C54.255 60.2062 54.1291 60.295 54.0104 60.3874C53.9492 60.4336 53.888 60.4798 53.8233 60.526L53.8089 60.5366C53.7765 60.5615 53.7441 60.5864 53.7118 60.6113C53.3916 60.86 53.0714 61.1123 52.7548 61.3681C52.0029 61.9721 51.2582 62.5903 50.5206 63.2121C48.9556 64.5303 47.4087 65.8734 45.8833 67.2378C45.4048 67.6641 44.9299 68.1012 44.4586 68.5382C44.7788 68.8473 45.1098 69.1387 45.4587 69.4123C45.6962 69.5899 45.9408 69.7534 46.1891 69.9133C46.7143 69.6894 47.2396 69.4691 47.7648 69.2524C48.2145 69.0676 48.7542 69.4513 48.8729 69.8742C49.0168 70.3858 48.693 70.7802 48.2433 70.9685C48.2073 70.9827 48.1174 71.0218 48.067 71.0431C47.8368 71.1391 47.6029 71.235 47.3727 71.3345C46.6999 71.6187 46.0308 71.9065 45.3652 72.2014C44.7824 72.4608 43.7858 72.7131 43.8254 73.4841C43.8866 74.7561 44.0269 76.0281 44.1276 77.2966C44.2175 78.4087 44.3039 79.5244 44.3938 80.6365H46.0703C46.556 80.6365 46.9697 81.0451 46.9697 81.5248V84.6834C46.9697 85.1631 46.556 85.5717 46.0703 85.5717H44.786C44.9119 87.1671 45.0378 88.7624 45.1637 90.3577C45.2537 91.4947 45.3436 92.6317 45.4335 93.7687C45.4731 94.2484 44.9946 94.657 44.5341 94.657C44.0161 94.657 43.6743 94.2484 43.6347 93.7687C43.4189 91.0364 43.203 88.304 42.9835 85.5717H36.6984C36.4358 85.5717 36.2343 85.4758 36.0904 85.3337C36.0796 85.323 36.0688 85.3159 36.0581 85.3052C36.0545 85.2981 36.0473 85.2946 36.0401 85.2875C35.8926 85.1453 35.7954 84.9464 35.7954 84.6834V81.5248C35.7954 81.0451 36.2092 80.6365 36.6948 80.6365L36.7056 80.6223ZM37.605 83.781H45.1745V82.3988H37.605V83.781Z" fill="#3F4F5F"/>
<path d="M51.2323 18.3507C52.3081 16.162 54.7293 14.9042 56.9706 14.1829C59.4134 13.4012 62.0973 13.1241 64.6408 13.5114C67.5477 13.9555 70.4438 15.4016 72.6348 17.3203C74.8977 19.2994 76.2613 21.8754 77.1787 24.6823C78.2004 27.809 78.7796 31.1525 78.866 34.4391C78.8804 34.9649 78.5026 35.2492 78.0925 35.2883C77.6104 35.3345 77.0815 35.0538 77.0671 34.4391C76.9952 31.7387 76.5491 29.0384 75.8295 26.4375C75.1388 23.9468 74.1746 21.4987 72.3866 19.5694C70.4438 17.4731 67.8571 16.1158 65.0869 15.4123C63.0543 14.8971 60.6726 15.0676 58.5572 15.5828C57.2908 15.892 56.1072 16.3183 54.9991 16.9863C54.0457 17.5619 53.265 18.2619 52.7829 19.2461C52.5707 19.676 51.9483 19.7932 51.5525 19.5658C51.4158 19.4877 51.3187 19.3811 51.2467 19.2638C51.0848 18.9938 51.0812 18.6491 51.2288 18.3507H51.2323Z" fill="#3F4F5F"/>
<path d="M45.8396 28.1603C46.131 25.8685 46.6095 23.4879 47.7679 21.452C48.2356 20.6277 48.8544 19.8496 49.6855 19.3593C50.2395 19.0324 50.7684 19.3628 50.9519 19.8247C50.7648 20.2866 50.5921 20.7734 50.0273 20.7734C50.5921 20.7734 50.7612 20.2902 50.9519 19.8247C51.0994 20.1907 51.031 20.6348 50.5921 20.8942C50.5345 20.9297 50.477 20.9688 50.4158 21.0043C50.3978 21.015 50.387 21.0221 50.3798 21.0256C50.369 21.0328 50.3582 21.047 50.3402 21.0612C50.2179 21.1713 50.0956 21.2815 49.9841 21.4023C49.9193 21.4698 49.8582 21.5444 49.797 21.6155V21.6226C49.7718 21.651 49.7502 21.6759 49.7322 21.7043C49.6099 21.8784 49.4948 22.0525 49.3869 22.2337C48.9084 23.0403 48.6098 23.8433 48.3435 24.7528C47.6384 27.137 47.3938 29.6383 47.3866 32.1148C47.3794 33.7599 47.4945 35.4015 47.7104 37.0288C47.7751 37.5049 47.2499 37.917 46.8109 37.917C46.4872 37.917 46.2533 37.7678 46.1058 37.5475C46.0051 37.3983 45.9403 37.2206 45.9115 37.0288C45.5194 34.0975 45.4618 31.1093 45.836 28.1709L45.8396 28.1603Z" fill="#3F4F5F"/>
<path d="M49.437 34.0194C50.4407 33.0566 51.2754 31.9729 52.0057 30.7968C52.3655 30.2141 52.736 29.5461 52.9843 28.9563C53.121 28.6365 53.2361 28.3096 53.3296 27.9756C53.3692 27.8335 53.4052 27.6914 53.434 27.5493C53.452 27.4711 53.4664 27.3965 53.4771 27.3183C53.4807 27.2934 53.4843 27.2757 53.4879 27.265C53.4879 27.2544 53.4879 27.2366 53.4951 27.194C53.5455 26.7178 53.8729 26.3057 54.3946 26.3057C54.4845 26.3057 54.5744 26.327 54.6608 26.3554C54.3514 26.828 54.1175 27.3503 53.9844 27.8762C54.1175 27.3503 54.3478 26.828 54.6608 26.3554C55.0169 26.4762 55.3335 26.8102 55.294 27.194C55.1321 28.7715 54.4413 30.2461 53.6211 31.5927C52.8116 32.9215 51.8366 34.19 50.7105 35.2737C50.3436 35.6254 49.8939 35.5793 49.5737 35.3483C49.1672 35.0569 48.9729 34.4671 49.437 34.0194Z" fill="#3F4F5F"/>
<path d="M57.9956 24.3127C61.4493 28.2567 66.3206 31.1347 71.44 32.396C72.7316 32.7123 74.0412 32.9148 75.3723 32.9503C76.5271 32.9823 76.5307 34.7588 75.3723 34.7269C74.4693 34.702 73.5663 34.6096 72.6704 34.4675C72.3395 34.1228 72.0804 33.7249 71.9761 33.2097C72.0804 33.7284 72.3395 34.1228 72.6704 34.4675C68.1158 33.7391 63.7483 31.5682 60.1686 28.7967C58.9202 27.8303 57.7617 26.7573 56.722 25.5705C56.5314 25.3538 56.4414 25.0731 56.4774 24.8102C56.499 24.6325 56.5781 24.4584 56.722 24.3163C57.0458 23.9965 57.6754 23.9503 57.9956 24.3163V24.3127Z" fill="#3F4F5F"/>
<path d="M56.2009 32.6768H56.2083C56.119 32.7017 56.1009 32.7017 56.1187 32.6946C56.1473 32.6874 56.1723 32.6839 56.2009 32.6768Z" fill="#3F4F5F"/>
<path d="M56.733 32.6798C56.733 32.6798 56.7197 32.6765 56.7131 32.6731H56.7164C56.7164 32.6731 56.7264 32.6765 56.733 32.6798Z" fill="#3F4F5F"/>
<path d="M57.3493 32.8297C57.3708 32.844 57.3922 32.8547 57.4136 32.8654C57.4315 32.8796 57.4172 32.8761 57.3386 32.8262H57.3493V32.8297Z" fill="#3F4F5F"/>
<path d="M56.4846 36.1873C57.6431 36.1873 57.6431 37.9638 56.4846 37.9638C55.3262 37.9638 55.3262 36.1873 56.4846 36.1873Z" fill="#3F4F5F"/>
<path d="M67.1347 37.3096C65.9762 37.3096 65.9762 35.533 67.1347 35.533C68.2931 35.533 68.2931 37.3096 67.1347 37.3096Z" fill="#3F4F5F"/>
<path d="M61.1048 42.8065C61.2451 42.7248 61.3962 42.6857 61.5581 42.6857C61.8099 42.668 62.0581 42.6502 62.31 42.6324C62.346 42.6324 62.3819 42.6289 62.4179 42.6253C62.5402 42.6218 62.659 42.6466 62.7633 42.7035C62.8748 42.739 62.972 42.7994 63.0511 42.8883C63.1374 42.97 63.2022 43.0624 63.2382 43.1725C63.2957 43.2791 63.3209 43.3928 63.3173 43.5136C63.3065 43.5918 63.2957 43.6699 63.2849 43.7481C63.2418 43.8973 63.1662 44.0288 63.0547 44.1389C62.9935 44.1851 62.9324 44.2313 62.8712 44.2775C62.7309 44.3592 62.5798 44.3983 62.4179 44.3983C62.1661 44.4161 61.9178 44.4338 61.666 44.4516L61.5581 44.4587C61.4358 44.4623 61.317 44.4374 61.2127 44.3805C61.1012 44.345 61.004 44.2846 60.9249 44.1958C60.8385 44.1141 60.7738 44.0217 60.7378 43.9115C60.6802 43.8049 60.6551 43.6913 60.6587 43.5704C60.6694 43.4923 60.6802 43.4141 60.691 43.3359C60.7342 43.1867 60.8098 43.0552 60.9213 42.9451C60.9824 42.8989 61.0436 42.8527 61.1048 42.8065Z" fill="#3F4F5F"/>
<path d="M45.1699 82.3984V83.7806H37.6005V82.3984H45.1699Z" fill="white"/>
<path d="M85.698 75.5269C86.8564 73.8285 88.1984 72.2154 89.8533 70.9718C90.2418 70.6805 90.8606 70.9114 91.0837 71.2916C91.3535 71.7464 91.1485 72.2154 90.7599 72.5068C90.6124 72.6169 90.1843 72.9864 89.9432 73.2138C89.6302 73.5087 89.3352 73.8143 89.0474 74.1305C88.3603 74.8873 87.7379 75.6975 87.1694 76.5431C85.8887 78.4475 84.8597 80.5154 84.2553 82.7255C83.9531 83.8269 82.2191 83.3615 82.5213 82.2529C83.176 79.8581 84.2985 77.5806 85.698 75.5269Z" fill="#3F4F5F"/>
<path d="M58.734 49.312C58.3095 49.0775 58.1684 48.5058 58.4095 48.0972C58.6577 47.6744 59.2153 47.5429 59.6399 47.7774C59.7298 47.8271 59.8233 47.8698 59.9133 47.916H59.9205C59.9708 47.9337 60.0176 47.9586 60.068 47.9728C60.2802 48.0474 60.4997 48.1078 60.7227 48.1576C60.8343 48.1825 60.9458 48.2002 61.0573 48.2215C61.0753 48.2215 61.0825 48.2286 61.0969 48.2286H61.1257C61.1796 48.2322 61.23 48.2393 61.284 48.2429C61.5502 48.2677 61.82 48.2748 62.0863 48.2642C62.2086 48.2606 62.3309 48.2535 62.4532 48.2429C62.5036 48.2393 62.554 48.2322 62.6043 48.2251C62.6223 48.2251 62.6691 48.2144 62.7051 48.2073C62.9641 48.1611 63.2195 48.1007 63.4678 48.019C63.5325 47.9977 63.5973 47.9728 63.662 47.9515C63.6836 47.9444 63.7124 47.9302 63.734 47.9231C63.8527 47.8698 63.9714 47.8129 64.083 47.749C64.1909 47.6886 64.2988 47.6211 64.3996 47.55C64.4247 47.5322 64.4643 47.5038 64.4823 47.4896C64.5363 47.4434 64.5938 47.3972 64.6442 47.351C65.004 47.0313 65.5616 46.9993 65.9178 47.351C66.2487 47.6779 66.2811 48.2855 65.9178 48.6088C64.0434 50.2788 60.9206 50.5168 58.7296 49.3088L58.734 49.312Z" fill="#3F4F5F"/>
<path d="M17.3061 88.4387C17.396 88.4138 17.4896 88.4103 17.5903 88.4174C17.7666 88.3108 17.986 88.2646 18.2415 88.3179C18.3134 88.3321 18.3818 88.3534 18.4537 88.3712C19.7957 88.6981 21.0045 89.3625 22.332 89.7249C22.4723 89.764 22.6126 89.796 22.7565 89.8244C22.7709 89.8244 22.8321 89.8351 22.8789 89.8422C22.9292 89.8457 23.0084 89.8528 23.03 89.8564C23.1883 89.867 23.3465 89.8635 23.5048 89.8564C23.5228 89.8564 23.602 89.8457 23.6524 89.8386C23.7099 89.828 23.7999 89.8102 23.825 89.8066C23.9941 89.7711 24.1596 89.7214 24.3251 89.6645C24.3935 89.6396 24.4582 89.6148 24.5266 89.5899C24.5374 89.5828 24.7388 89.494 24.782 89.4726C25.2353 89.2524 25.6598 88.9788 26.0664 88.6874C27.4011 87.7281 28.6495 86.4312 29.7936 85.2018C29.9051 85.081 30.0238 85.01 30.1497 84.9709C30.3008 84.9176 30.4591 84.914 30.603 84.9567C31.0527 84.8963 31.4377 85.1805 31.5888 85.5962C31.7867 86.1434 31.9809 86.6941 32.168 87.2449C32.6429 83.4288 33.5099 79.6519 34.4345 75.9212C34.8123 74.3933 35.2044 72.8655 35.6829 71.3661C35.8304 70.9113 35.9779 70.4423 36.1938 70.0124C36.5859 69.2343 37.2443 68.5627 37.9063 68.0013C38.9928 67.0846 40.234 66.2958 41.5291 65.6812C40.8851 64.6117 40.4966 63.4214 40.6153 62.1352C40.752 60.6713 41.3816 59.3389 42.1371 58.0918C42.8494 56.9157 43.6913 55.8071 44.3065 54.5742C45.0872 53.0144 45.6988 51.3551 46.2061 49.6923C46.7385 47.9548 47.163 46.1605 47.2242 44.3413C47.2314 44.1708 47.2782 44.0286 47.3501 43.9078C47.3213 43.851 47.289 43.7941 47.2602 43.7408C46.627 42.4973 45.9866 40.8309 46.3248 39.4203C46.3644 39.2568 46.4183 39.1005 46.4831 38.9477C46.591 39.2888 46.6953 39.6299 46.7817 39.9675C46.6953 39.6299 46.591 39.2924 46.4831 38.9477C46.85 38.095 47.6199 37.4554 48.5841 37.5442C48.3143 37.8107 47.9725 38.0346 47.5012 38.1909C47.9689 38.0381 48.3143 37.8107 48.5841 37.5442C48.6669 37.5514 48.7532 37.5656 48.8396 37.5833C49.3144 37.6899 49.5915 38.23 49.4691 38.6777C49.336 39.1538 48.8467 39.399 48.3755 39.2995L48.3611 39.3066C48.2927 39.3528 48.1884 39.5198 48.1488 39.6086C48.1776 39.5482 48.0912 39.7791 48.0804 39.8147C48.0661 39.8644 48.0517 40.0669 48.0481 40.0207C48.0481 40.1202 48.0445 40.2197 48.0481 40.3192C48.0517 40.3796 48.0589 40.44 48.0625 40.5004V40.5288C48.0625 40.5431 48.0697 40.5608 48.0732 40.5892C48.102 40.7562 48.1344 40.9197 48.174 41.0831C48.2603 41.4491 48.3755 41.8044 48.5086 42.1562C48.5409 42.245 48.5769 42.3338 48.6129 42.4191C48.6345 42.4688 48.6597 42.5221 48.6812 42.5719C48.7676 42.7531 48.8575 42.9343 48.9547 43.1084C49.0518 43.2825 49.1561 43.453 49.2641 43.62C49.318 43.6982 49.372 43.7764 49.4296 43.8545C49.4476 43.8794 49.5159 43.9682 49.5231 43.9718C49.6418 44.1139 49.7713 44.2489 49.9081 44.3768C49.926 44.3946 50.0628 44.5048 50.0735 44.519C50.1167 44.5509 50.1599 44.5794 50.2031 44.6078C50.2858 44.6611 50.3758 44.7002 50.4585 44.7499C50.4657 44.7535 50.4657 44.757 50.4729 44.7606C50.9406 44.4621 51.6601 44.5438 51.822 45.2331C52.3689 47.5888 53.0596 49.8699 54.4195 51.9058C55.6355 53.725 57.3624 55.3381 59.4634 56.0949C61.6076 56.8695 64.0109 56.7629 66.1011 55.8569C68.2381 54.9295 69.9614 53.2773 71.2997 51.4191C72.7712 49.376 73.613 47.0594 74.3038 44.6717C74.4117 44.2951 74.6887 44.1068 74.9873 44.0606C75.0017 44.0535 75.0089 44.0464 75.0233 44.0393C76.5667 43.3962 77.4625 41.879 77.7287 40.2553C77.8475 39.5269 77.8223 38.7097 77.5381 37.9848C77.4193 37.6864 77.1711 37.3097 76.8761 37.0859C76.5775 36.8585 76.4372 36.8478 76.1134 37.0717C75.8651 37.2387 75.545 37.228 75.2787 37.1037C75.4154 36.8621 75.7536 36.1514 76.2861 36.4144C75.7536 36.1514 75.419 36.8621 75.2787 37.1037C75.2392 37.0859 75.2032 37.061 75.1636 37.0362C75.0557 36.791 74.919 36.5743 74.7643 36.3753C74.7427 36.0484 74.9154 35.7322 75.2032 35.5368C76.1961 34.8617 77.2682 35.1317 78.0813 35.7997C78.3583 36.0235 78.603 36.2936 78.808 36.5885C79.4664 37.5407 79.6535 38.8163 79.5635 39.9426C79.5456 40.1593 79.5168 40.3761 79.4808 40.5928C79.8514 42.8632 81.5423 44.6575 82.9849 46.3595C84.6362 48.3066 86.2804 50.4526 86.5826 53.0535C86.7373 54.3823 86.3487 55.5833 85.8954 56.8127C85.6975 57.3492 85.4205 57.9816 85.4637 58.5679C85.4997 59.044 85.7407 59.4988 85.989 59.9038C86.8344 61.286 88.1583 62.2489 89.3384 63.3361C90.0867 64.0254 90.8206 64.7431 91.4538 65.539C92.0474 66.2887 92.5763 67.0882 92.6662 68.0582C92.7022 68.4384 92.3964 68.7759 92.0402 68.8967C92.1661 69.0246 92.2957 69.149 92.418 69.284C93.2598 70.222 93.9794 71.2666 94.4794 72.4249C94.8104 73.1924 94.9975 73.9776 95.199 74.7842C95.494 75.9531 95.8393 77.1079 96.1955 78.2626C97.1921 81.4889 98.2965 84.6831 99.4118 87.8702C100.65 91.402 101.919 94.9195 103.2 98.4335C104.251 101.312 105.312 104.186 106.363 107.061C107.204 109.356 108.582 112.024 107.474 114.433C106.762 115.979 105.197 116.97 103.985 118.104C103.416 118.633 102.769 119.088 102.143 119.543C101.664 119.891 101.182 120.235 100.696 120.576C100.754 120.662 100.815 120.743 100.873 120.829C101.535 121.802 101.225 123.017 100.304 123.693C100.196 123.771 100.088 123.849 99.9766 123.924C99.2319 124.453 98.4908 124.982 97.7461 125.512C95.3177 127.242 92.8857 128.976 90.4572 130.706C89.9896 131.04 89.5183 131.374 89.0506 131.708C85.5932 134.171 82.1395 136.633 78.6821 139.095C76.2213 140.85 73.7605 142.606 71.2961 144.357C70.9364 144.613 70.573 144.873 70.2132 145.128C69.2023 145.775 67.9971 145.423 67.3135 144.51C67.2164 144.379 67.1228 144.247 67.0257 144.116C66.5472 143.458 66.0687 142.805 65.5866 142.147L65.4427 141.948C64.9822 142.144 64.5541 142.392 64.1044 142.62C63.4424 142.954 62.7085 143.252 61.9494 143.174C61.1471 143.092 60.424 142.606 60.057 141.888C59.8556 141.497 59.7692 141.099 59.7944 140.712C58.9094 140.751 58.0675 140.481 57.4631 139.632C57.0494 139.053 56.8911 138.381 57.0026 137.741C56.2507 137.617 55.5456 137.18 55.1283 136.555C54.8332 136.114 54.6606 135.571 54.657 135.034C53.9518 135.254 53.2107 135.197 52.5991 134.746C51.8832 134.224 51.4299 133.329 51.4443 132.444C51.4586 131.588 52.135 130.98 52.761 130.475C53.0704 130.227 53.387 129.989 53.7036 129.751C53.5021 129.751 53.297 129.743 53.0884 129.722C51.7321 129.58 50.0771 128.788 50.1131 127.217C50.1311 126.468 50.6276 125.792 51.25 125.391C51.768 125.06 52.394 124.968 53.0056 124.918C52.9157 124.798 52.8293 124.677 52.7394 124.556C50.2858 121.198 47.8322 117.837 45.375 114.479C43.5582 111.996 41.745 109.512 39.9281 107.025C39.4497 106.371 38.9748 105.721 38.4963 105.067C38.4027 104.936 38.302 104.811 38.2121 104.676C37.5501 103.699 37.8487 102.488 38.7769 101.806C40.1728 100.779 41.5975 99.7944 43.0078 98.7889C44.0331 98.0569 45.0584 97.3285 46.0837 96.5966C45.8463 96.2733 45.6124 95.9819 45.6124 95.552C45.6124 94.8911 46.1125 94.5642 46.5838 94.2267C46.7745 94.0917 46.9616 93.9566 47.1522 93.8216C47.4257 93.6262 47.6955 93.4343 47.9689 93.2389C51.1061 91.004 54.2432 88.7691 57.3804 86.5342C58.2294 85.9267 59.0641 85.2587 59.9491 84.7044C60.1254 84.5943 60.3305 84.5267 60.5355 84.5054C60.8809 84.4699 61.2371 84.5694 61.5033 84.8181C61.658 84.9602 61.7875 85.1414 61.9098 85.3191C62.1581 85.1414 62.4063 84.9638 62.6546 84.7897C64.6333 83.3791 66.612 81.9685 68.5907 80.5615C68.713 80.4727 68.8353 80.3767 68.9684 80.2986C69.1195 80.2133 69.2706 80.1493 69.4253 80.1031C69.3102 80.0605 69.2059 79.9966 69.1231 79.9148C68.7526 79.5489 68.8137 79.0301 69.1231 78.657C70.6881 76.7739 72.2531 74.8872 73.8181 73.0041C73.9764 72.8122 74.1383 72.6203 74.2966 72.4249C74.2966 72.4107 74.3038 72.3965 74.3074 72.3823C74.3218 72.3219 74.3325 72.2579 74.3397 72.194C74.3469 72.1442 74.3505 72.0909 74.3541 72.0412C74.3613 71.9488 74.3649 71.8529 74.3649 71.7605C74.3649 71.6361 74.3613 71.5935 74.3577 71.5757C74.3541 71.5509 74.3397 71.4905 74.3289 71.4407C74.3038 71.4301 74.3038 71.4265 74.3289 71.4336V71.4158C74.3289 71.4158 74.3361 71.4336 74.3469 71.4407C74.3685 71.4514 74.3901 71.462 74.4189 71.4798C74.3901 71.4585 74.3577 71.4372 74.3254 71.4158C74.3182 71.3839 74.311 71.3661 74.311 71.3839C74.311 71.391 74.3182 71.4052 74.3254 71.4158C74.0879 71.2453 73.8433 71.0819 73.6022 70.9149C72.4186 70.0941 71.235 69.2698 70.0549 68.449C69.7347 68.2252 69.4145 68.0049 69.0944 67.781C68.8461 67.6069 68.6806 67.344 68.6554 67.0669C67.0905 70.0977 65.7377 73.2457 64.4822 76.3866C63.6727 78.419 62.8956 80.4656 62.1257 82.5121C61.9566 82.9598 61.5177 83.269 61.0176 83.1339C60.9852 83.1233 60.9529 83.1091 60.9205 83.0949C60.5283 82.9314 60.2333 82.4589 60.388 82.0396C61.8703 78.1063 63.3705 74.1411 65.1118 70.2895C62.7445 71.9524 60.3772 73.6117 58.01 75.2745C57.5783 75.5765 57.1465 75.8821 56.7148 76.1841C56.3335 76.4506 55.6895 76.2658 55.4844 75.8643C54.4879 73.9314 53.4877 71.995 52.4912 70.0621C52.3437 69.7743 52.3652 69.4972 52.4804 69.2662C52.7682 68.6906 53.6676 68.4348 54.0454 69.1632C54.8944 70.8083 55.7435 72.4533 56.5925 74.0984C59.3663 72.1513 62.1437 70.2007 64.9175 68.2536C65.3492 67.9516 65.7809 67.646 66.2126 67.344C66.3206 67.2694 66.4429 67.2303 66.5688 67.2232C67.7632 64.8284 69.0764 62.4976 70.573 60.2663C71.3933 59.0369 72.2783 57.8502 73.2101 56.7025C72.987 56.5995 72.8035 56.4183 72.7676 56.1624C72.6129 55.1214 72.4582 54.0803 72.2999 53.0393C71.0155 54.6879 69.4433 56.1518 67.5761 57.104C65.2233 58.3049 62.4963 58.7064 59.9131 58.074C58.6252 57.7578 57.4236 57.1786 56.3479 56.4218C56.6033 58.9196 56.8659 61.4139 57.0062 63.9224C57.071 65.0665 55.2722 65.0629 55.2074 63.9224C55.1031 62.0606 54.9304 60.2059 54.7433 58.3511C54.9412 58.2339 55.1642 58.1344 55.4197 58.0704C55.1642 58.1344 54.9412 58.2303 54.7433 58.3511C54.6246 57.1715 54.5023 55.9919 54.3871 54.8123C54.3871 54.7803 54.3871 54.7483 54.3907 54.7163C54.1317 54.4392 53.8799 54.1514 53.646 53.8565C51.9263 51.6784 50.9694 49.1735 50.2966 46.5371C49.7821 46.4092 49.318 46.164 48.9079 45.8372C48.5769 48.669 47.6163 51.4546 46.5011 54.0519C45.9398 55.3594 45.2599 56.5462 44.4792 57.74C43.7597 58.8415 42.9934 59.9678 42.612 61.2327C42.1731 62.6895 42.4861 64.1178 43.4467 65.3436C43.5618 65.4893 43.6445 65.6563 43.6769 65.8268C43.7309 66.0933 43.6769 66.374 43.4467 66.5979C43.3603 66.6831 43.2416 66.7506 43.1157 66.7933C43.0473 66.8857 42.9574 66.9638 42.8459 67.01C41.7306 67.5003 40.6513 68.1292 39.6727 68.8505C38.9928 69.3479 38.3128 69.9591 37.8883 70.6413C37.8307 70.7337 37.7839 70.826 37.7336 70.9184C37.73 70.9255 37.73 70.9291 37.7264 70.9326C37.7264 70.9433 37.7228 70.9468 37.7156 70.9646C37.64 71.1671 37.5645 71.3732 37.4961 71.5793C36.4204 74.8126 35.6865 78.1916 34.985 81.5208C34.7655 82.5654 34.5569 83.6101 34.3698 84.6582C34.2834 85.1343 34.2043 85.6104 34.1287 86.0866C34.0928 86.3068 34.0604 86.5271 34.028 86.7474C33.992 86.9961 33.9992 86.9535 33.9596 87.2591C33.9021 87.7352 33.5891 88.1473 33.0602 88.1473C32.8444 88.1473 32.6141 88.0443 32.4378 87.8844C32.4162 87.8631 32.3911 87.8453 32.3695 87.824C32.3839 87.8667 32.3983 87.9093 32.409 87.9484C33.4308 90.9756 34.3374 94.049 35.1001 97.1438C35.3735 98.2559 33.6395 98.7284 33.366 97.6163C32.5098 94.1236 31.4701 90.6629 30.2828 87.2626C29.3798 88.1971 28.4336 89.096 27.3975 89.8884C26.5628 90.5279 25.6635 91.1035 24.6417 91.4126C23.1415 91.8674 21.7528 91.4482 20.3641 90.8797C19.7849 90.6416 19.2021 90.4178 18.6048 90.2401C18.6192 90.3289 18.6336 90.4213 18.648 90.5101C18.8315 91.6649 19.0186 92.8161 19.2092 93.9673C19.7525 97.261 20.3137 100.555 20.9217 103.838C21.1987 105.341 21.4866 106.84 21.8032 108.336C22.0298 109.409 22.2349 110.521 22.6198 111.552C22.6306 111.58 22.6594 111.651 22.6702 111.68C22.7026 111.754 22.7385 111.825 22.7745 111.9C22.8537 112.056 22.9364 112.205 23.0264 112.355C23.1091 112.49 23.1991 112.621 23.289 112.749C23.307 112.774 23.3466 112.824 23.3645 112.849C23.4221 112.92 23.4797 112.987 23.5408 113.055C23.7567 113.296 23.9905 113.52 24.2388 113.726C24.2676 113.751 24.3611 113.822 24.3755 113.833C24.4222 113.868 24.4726 113.904 24.5194 113.936C24.6561 114.032 24.8 114.121 24.9439 114.206C25.0878 114.291 25.2353 114.373 25.3864 114.447C25.4548 114.483 25.5267 114.515 25.5987 114.547C25.6347 114.565 25.6706 114.579 25.7066 114.593C26.0196 114.717 26.3434 114.824 26.6708 114.906C26.8219 114.945 26.9766 114.977 27.1313 115.005C27.2068 115.019 27.286 115.03 27.3651 115.044C27.3975 115.048 27.4155 115.051 27.4299 115.055H27.4767C27.8184 115.087 28.1566 115.105 28.4984 115.098C28.6711 115.094 28.8402 115.083 29.0093 115.066C29.0309 115.066 29.1208 115.055 29.1676 115.048C29.2143 115.041 29.3295 115.023 29.3582 115.019C29.6964 114.959 30.031 114.877 30.3584 114.771C30.4987 114.725 30.639 114.675 30.7757 114.618C30.8081 114.604 30.8621 114.582 30.8872 114.568C30.9844 114.522 31.0815 114.476 31.175 114.43C31.4772 114.273 31.7615 114.096 32.0349 113.9C32.0565 113.886 32.0745 113.872 32.0961 113.854L32.114 113.84C32.1896 113.779 32.2616 113.719 32.3371 113.655C32.4738 113.534 32.6069 113.41 32.7328 113.282C32.8516 113.161 32.9631 113.033 33.0746 112.902C33.1897 112.767 33.0962 112.884 33.1754 112.774C33.2365 112.692 33.2977 112.607 33.3552 112.522C33.8301 111.822 34.0856 111.235 34.3086 110.45C34.4201 110.049 34.5245 109.576 34.5748 109.203C34.6072 108.947 34.7152 108.713 34.8842 108.549C35.0317 108.407 35.226 108.315 35.4743 108.315C35.8448 108.315 36.2729 108.61 36.3593 108.99C36.0103 109.221 35.6649 109.445 35.2764 109.573C35.6685 109.445 36.0139 109.221 36.3593 108.99C36.3737 109.057 36.3845 109.128 36.3737 109.203C36.129 111.076 35.503 112.845 34.2367 114.288C33.2113 115.453 31.7867 116.284 30.2684 116.643C27.3615 117.333 24.0085 116.43 22.0946 114.092C21.2059 113.005 20.7598 111.772 20.436 110.432C20.1087 109.079 19.8388 107.714 19.5726 106.35C18.9034 102.896 18.3062 99.4284 17.727 95.9606C17.3744 93.8465 17.0183 91.7289 16.6909 89.6112C16.6873 89.5757 16.6801 89.5437 16.6729 89.5082C16.5974 89.0356 16.7952 88.5524 17.3025 88.4138L17.3061 88.4387ZM48.3898 39.2853C48.4474 39.2853 48.4474 39.2853 48.3898 39.2853V39.2853ZM90.7666 67.7277C90.7307 67.6531 90.6911 67.5785 90.6515 67.5039C90.4644 67.1628 90.2234 66.8324 90.0219 66.5836C89.4391 65.8801 88.7807 65.237 88.108 64.6152C86.8812 63.4818 85.5752 62.4798 84.629 61.0835C83.9239 60.046 83.521 58.909 83.762 57.6583C83.9923 56.4787 84.6686 55.4092 84.8053 54.2047C85.0788 51.7886 83.3663 49.5643 81.8984 47.8162C80.7148 46.4092 79.3513 44.9453 78.5022 43.2718C77.8942 44.2702 77.038 45.1017 75.9407 45.56C75.9335 45.56 75.9227 45.5636 75.9155 45.5671C75.3723 47.3934 74.7247 49.2019 73.7785 50.8648C73.7821 50.8825 73.7929 50.9003 73.7965 50.9216C74.0052 52.3144 74.2138 53.7073 74.4189 55.1001L74.4441 55.2564C74.5376 55.1534 74.624 55.0468 74.7175 54.9437C75.491 54.091 76.7574 55.3488 75.9911 56.2015C75.9659 56.2264 75.9443 56.2548 75.9227 56.2797C75.5773 55.9208 75.5773 55.2244 75.5773 54.8762C75.5773 55.228 75.5773 55.9208 75.9227 56.2797C75.9227 56.2797 75.9299 56.2939 75.9335 56.2975C75.9299 56.2939 75.9263 56.2868 75.9227 56.2832C76.3113 56.0629 76.8257 56.0949 77.0884 56.5995C77.5129 57.4131 77.9338 58.2232 78.3583 59.0369C78.5634 59.4313 78.7685 59.8221 78.9735 60.2165C79.193 60.6358 79.488 61.0373 79.3909 61.5312V61.5454C81.7149 62.5118 83.9923 63.5706 86.1868 64.8071C87.7626 65.6954 89.3672 66.6014 90.7774 67.7348L90.7702 67.7242L90.7666 67.7277ZM99.3866 122.161C99.437 122.122 99.3579 122.165 99.3219 122.207C99.3435 122.193 99.365 122.179 99.3866 122.161ZM68.8975 143.634C68.8219 143.545 68.8399 143.605 68.8975 143.634V143.634ZM68.4828 143.06C68.5979 143.22 68.7166 143.38 68.8317 143.54C68.8533 143.572 68.8749 143.604 68.9001 143.633C68.9073 143.636 68.9181 143.64 68.9253 143.64C69.0836 143.668 69.1159 143.718 69.3174 143.586C70.6917 142.606 72.0696 141.625 73.4439 140.644C76.5379 138.441 79.6283 136.235 82.7223 134.032C86.0681 131.648 89.4175 129.26 92.7633 126.876C94.8248 125.405 96.8863 123.938 98.9477 122.467C99.07 122.378 99.196 122.293 99.3147 122.204C99.4226 122.058 99.4874 122.012 99.4082 121.838C99.3866 121.788 99.3399 121.738 99.3075 121.689C99.2823 121.653 99.2571 121.621 99.2319 121.586C97.8936 122.509 96.5445 123.419 95.199 124.325C92.5151 126.13 89.8205 127.917 87.1186 129.694C85.4637 130.785 83.8052 131.868 82.1431 132.952C82.0603 133.005 81.9812 133.058 81.8984 133.112C81.4847 133.382 80.9163 133.183 80.668 132.792C80.2687 132.163 79.8657 131.534 79.4664 130.905C79.4304 130.927 79.3944 130.944 79.3621 130.969C79.0994 131.136 78.8476 131.314 78.5958 131.499C78.531 131.548 78.4663 131.595 78.3979 131.644C78.3763 131.662 78.2864 131.73 78.2612 131.751C78.0957 131.879 77.9338 132.007 77.7719 132.138C76.2573 133.357 74.811 134.664 73.39 135.986C72.1704 137.123 70.9579 138.274 69.8139 139.486C69.1159 140.225 68.3748 140.754 67.425 141.16C67.3387 141.195 67.2488 141.231 67.1624 141.266C67.6013 141.867 68.0402 142.464 68.4756 143.064L68.4828 143.06ZM53.2503 132.479V132.511C53.2755 132.483 53.2611 132.462 53.2503 132.479ZM51.9263 127.221C51.8832 127.349 51.9947 127.462 52.1278 127.565C52.3113 127.708 52.5379 127.803 52.7718 127.867C54.0741 128.23 55.3729 127.725 56.6285 127.423C56.7184 127.352 56.8084 127.278 56.8947 127.207C57.625 126.613 58.3554 126.02 59.0857 125.426C59.4598 125.121 59.9923 125.064 60.3593 125.426C60.6758 125.739 60.737 126.375 60.3593 126.684C59.0713 127.729 57.7833 128.777 56.499 129.822C55.5995 130.554 54.6318 131.214 53.754 131.975C53.6244 132.085 53.5057 132.202 53.3834 132.323C53.2934 132.415 53.333 132.447 53.2539 132.511C53.2539 132.54 53.2611 132.568 53.2611 132.579C53.2611 132.572 53.3186 132.824 53.3366 132.863C53.441 133.108 53.5597 133.279 53.7791 133.378C53.7719 133.378 53.8619 133.392 53.9374 133.396C53.7935 133.392 54.0598 133.364 54.1425 133.339C54.4699 133.236 54.5346 133.197 54.88 133.034C55.2002 132.881 55.5168 132.721 55.8298 132.554C56.2004 132.359 56.5673 132.156 56.9307 131.946C57.7905 131.445 58.7979 132.657 58.0208 133.343C57.6466 133.673 57.2761 134.014 56.9163 134.362C56.7508 134.522 56.4882 134.704 56.4522 134.927C56.427 135.094 56.5349 135.396 56.6285 135.556C56.74 135.745 56.9091 135.865 57.1106 135.94C57.2329 135.986 57.3552 136 57.4811 136.011H57.5027C57.5567 136 57.6106 135.986 57.661 135.972C58.2115 135.819 58.7511 135.524 59.2116 135.194C59.6037 134.913 60.2153 135.126 60.442 135.514C60.7082 135.965 60.5104 136.441 60.1182 136.729C60.0822 136.754 60.0498 136.779 60.0139 136.807L59.9779 136.832C59.9527 136.853 59.9023 136.889 59.8952 136.896C59.6469 137.095 59.3987 137.294 59.1648 137.507C59.0173 137.646 58.7907 137.805 58.7475 138.012C58.7007 138.235 58.8266 138.477 58.9634 138.651C59.539 139.394 60.8341 138.715 61.5033 138.367C62.5358 137.83 63.3669 139.262 62.4099 139.902C62.3883 139.916 62.3631 139.934 62.3416 139.948C62.3092 139.976 62.2732 140.001 62.2408 140.03C62.0609 140.182 61.8703 140.349 61.73 140.541C61.6004 140.715 61.5357 140.779 61.6184 140.982C61.6796 141.138 61.7947 141.287 61.971 141.366C62.302 141.515 62.8057 141.273 63.1438 141.106C63.6439 140.858 64.1188 140.577 64.6369 140.36C65.6766 139.923 66.8134 139.614 67.756 138.978C68.2417 138.651 68.6662 138.086 69.0908 137.649C71.5408 135.155 74.1275 132.725 76.8869 130.564C77.4049 130.159 77.9338 129.743 78.5022 129.399C78.2864 129.058 78.0705 128.72 77.8547 128.379C76.3544 126.02 74.8542 123.664 73.354 121.305C73.2065 121.074 73.059 120.843 72.9115 120.608C72.2279 120.996 71.5408 121.372 70.8464 121.735C70.0513 122.151 69.2455 122.548 68.418 122.9C67.7272 123.192 67.0041 123.508 66.2414 123.558C65.0362 123.636 63.8562 123.01 62.7517 122.634C61.9062 122.346 61.0104 122.396 60.075 122.804C58.823 123.351 57.9776 124.531 56.9019 125.338C56.3191 125.775 55.6931 126.134 55.0023 126.379C54.3727 126.603 53.7108 126.631 53.0524 126.688C52.6495 126.723 52.0559 126.802 51.9155 127.217L51.9263 127.221ZM39.7159 103.333C39.7447 103.273 39.8058 103.259 39.7159 103.333V103.333ZM47.2599 95.947C47.0368 96.0998 47.2455 96.007 47.3462 95.8826C47.3175 95.9041 47.2887 95.9255 47.2599 95.947ZM60.2801 86.115C60.1218 85.884 60.2081 86.1079 60.3449 86.2038C60.3233 86.1754 60.3017 86.147 60.2801 86.115ZM61.8595 88.2788C61.6328 87.9697 61.4062 87.6606 61.1795 87.3479C60.9673 87.0565 60.755 86.7687 60.5427 86.4774C60.2189 86.7083 59.8987 86.9357 59.575 87.1667C58.4849 87.9448 57.3948 88.7194 56.3047 89.4975C53.8151 91.2705 51.3255 93.0435 48.8396 94.82C48.4366 95.1078 48.0337 95.3921 47.6307 95.6799V95.687C47.861 95.9961 48.0876 96.3052 48.3143 96.6179C48.5265 96.9093 48.7388 97.1971 48.9511 97.4884C50.3865 96.4651 51.822 95.4418 53.2575 94.4185C55.7219 92.6598 58.1899 90.9045 60.6543 89.1458C61.0572 88.858 61.4601 88.5737 61.8595 88.2859V88.2788ZM48.5877 97.7229V97.7442L48.6201 97.7229H48.5877ZM62.1473 88.0834C62.1761 88.0621 62.2048 88.0407 62.2336 88.0194C62.4567 87.8667 62.248 87.959 62.1473 88.0834ZM70.1737 81.8584C70.0226 81.8157 69.9758 81.7909 69.7815 81.9081C69.6736 81.9721 69.5728 82.0574 69.4721 82.1284C68.7526 82.6401 68.033 83.1553 67.3099 83.6669C65.8637 84.6973 64.4174 85.7277 62.9711 86.7581C63.1978 87.0637 63.4208 87.3692 63.6259 87.6854C64.036 88.3108 63.8526 89.0321 63.2626 89.4655C63.205 89.5082 63.1474 89.5473 63.0863 89.5899C62.7013 89.8635 62.32 90.1371 61.935 90.4107C60.4924 91.4375 59.0497 92.4679 57.607 93.4947C54.9772 95.3672 52.3473 97.2433 49.721 99.1157C49.6562 99.1761 49.5843 99.233 49.4907 99.2792C49.3864 99.3538 49.2677 99.3893 49.1454 99.4035C48.5553 99.5492 48.0517 99.2863 47.6667 98.7675C47.4904 98.5259 47.3141 98.2843 47.1379 98.0427C45.1088 99.4888 43.0797 100.935 41.0506 102.381C40.6045 102.701 40.1332 102.999 39.7051 103.34C39.7051 103.34 39.6979 103.358 39.6979 103.369C39.6691 103.525 39.626 103.557 39.7519 103.756C39.7627 103.774 39.7807 103.792 39.7914 103.813C39.8922 103.959 40.0001 104.097 40.1044 104.239C41.3708 105.973 42.6408 107.711 43.9072 109.445C46.0873 112.429 48.2675 115.41 50.4477 118.395C51.9299 120.424 53.4122 122.449 54.8908 124.478C55.5924 124.151 56.2147 123.664 56.812 123.103C57.3804 122.57 57.902 122.015 58.5712 121.6C59.1396 121.248 59.7872 120.978 60.442 120.836C61.0176 120.708 61.6184 120.648 62.2048 120.708C62.8272 120.772 63.3849 120.989 63.9641 121.209C64.6081 121.454 65.2844 121.721 65.9788 121.788C66.0435 121.795 66.1119 121.788 66.1767 121.799H66.1911C66.3386 121.76 66.4933 121.735 66.6408 121.689C66.8027 121.642 66.9609 121.586 67.1192 121.529C67.22 121.493 67.3171 121.454 67.4178 121.415C67.4574 121.401 67.4934 121.383 67.533 121.369C67.5474 121.362 67.5546 121.362 67.5546 121.358L67.5941 121.34C68.0367 121.152 68.472 120.946 68.9037 120.736C70.0513 120.175 71.1774 119.567 72.2855 118.931C72.3646 118.757 72.4905 118.597 72.6524 118.484C74.4189 117.198 76.1853 115.911 77.9518 114.625C80.7544 112.586 83.5569 110.546 86.3595 108.503C86.7948 108.187 87.2301 107.871 87.6655 107.554C87.115 106.208 86.5646 104.858 86.0177 103.511C83.816 100.494 81.6106 97.4813 79.4088 94.4647C77.3654 91.672 75.3255 88.8757 73.2856 86.083C72.2783 84.708 71.2673 83.3329 70.2672 81.9543C70.26 81.9437 70.2492 81.933 70.242 81.9223C70.2168 81.8975 70.1844 81.8619 70.1737 81.8619V81.8584ZM69.08 66.2852C69.3606 66.1146 69.7311 66.072 70.0046 66.2639C70.9292 66.907 71.8538 67.5501 72.7784 68.1896C73.3936 68.616 74.0052 69.0424 74.6204 69.4688C74.9621 69.7068 75.3795 69.9378 75.6673 70.2469C76.3113 70.9433 76.2717 72.1513 76.0234 73.0076C75.9263 73.3487 75.6385 73.6259 75.4154 73.8995C74.498 75.0009 73.5842 76.1059 72.6668 77.2074C71.9113 78.1134 71.1594 79.023 70.4039 79.9291C70.3607 79.9824 70.3068 80.025 70.2492 80.0605C70.8428 80.1458 71.3969 80.4904 71.7782 80.9985C72.0804 81.4071 72.379 81.8193 72.6776 82.2279C74.2534 84.3811 75.8256 86.5378 77.4013 88.691C79.3441 91.3522 81.2904 94.0135 83.2332 96.6748C82.6287 95.1896 82.0243 93.7044 81.4163 92.2227C81.1105 91.4695 80.8047 90.7198 80.4953 89.9665C80.3154 89.5224 80.6932 88.9894 81.1249 88.8722C81.1789 88.858 81.2293 88.8509 81.2796 88.8473C81.7185 88.8047 82.0675 89.0925 82.2294 89.494C83.0605 91.5334 83.8915 93.5729 84.7226 95.6088C86.0501 98.8635 87.3741 102.115 88.7016 105.369C89.0074 106.123 89.3132 106.872 89.6226 107.625C89.7809 108.013 89.5075 108.411 89.2089 108.627C87.4424 109.914 85.676 111.2 83.9095 112.486L75.5018 118.608C75.106 118.896 74.7103 119.184 74.311 119.475C75.106 120.722 75.8975 121.969 76.6926 123.216C78.1928 125.576 79.6931 127.931 81.1933 130.291C81.3696 130.564 81.5423 130.838 81.7185 131.115C82.6216 130.529 83.521 129.939 84.4204 129.349C86.9459 127.693 89.4643 126.031 91.9755 124.357C94.519 122.662 97.0589 120.957 99.5593 119.201C100.042 118.864 100.524 118.523 100.998 118.178C101.196 118.036 101.394 117.89 101.588 117.745C101.671 117.684 101.75 117.624 101.833 117.563C101.869 117.539 101.901 117.51 101.937 117.485L101.948 117.478C102.747 116.853 103.481 116.149 104.251 115.488C104.567 115.218 104.88 114.938 105.168 114.636C105.46 114.327 105.603 114.153 105.823 113.74C105.945 113.509 106.082 113.065 106.104 112.802C106.147 112.316 106.089 111.839 105.974 111.367C105.769 110.543 105.438 109.74 105.147 108.944C104.233 106.425 103.301 103.913 102.38 101.397C101.132 97.9858 99.8903 94.5749 98.6743 91.1533C97.4943 87.8347 96.3322 84.509 95.2385 81.162C94.8032 79.8296 94.3787 78.4901 93.9865 77.147C93.6484 75.9816 93.4325 74.7593 93.0332 73.6152C92.2705 71.4336 90.5148 69.6002 88.5973 68.3424C86.5394 66.9923 84.352 65.7878 82.1323 64.7147C81.0674 64.2031 79.9881 63.727 78.8944 63.2722L78.916 63.4925C78.5814 64.8568 78.2468 66.2212 77.9122 67.5856C77.8043 68.0298 77.6928 68.4739 77.5848 68.918C77.3114 70.0301 75.5773 69.5576 75.8508 68.4455C76.3796 66.2958 76.9049 64.1462 77.4337 61.9966C77.4805 61.8047 77.5273 61.6129 77.574 61.4246C76.8941 60.1206 76.2177 58.8166 75.5378 57.5162C75.4046 57.2639 75.4046 57.0152 75.4838 56.8055C72.9654 59.7013 70.886 62.9169 69.0872 66.2958L69.08 66.2852ZM48.6273 42.4297C48.6489 42.4795 48.6489 42.483 48.6273 42.4297V42.4297Z" fill="#3F4F5F"/>
<path d="M74.8913 36.7448C74.8193 36.6205 74.7834 36.4925 74.7762 36.3682C74.9309 36.5672 75.0676 36.7839 75.1755 37.0291C75.0604 36.9544 74.9597 36.8585 74.8913 36.7448Z" fill="#3F4F5F"/>
<path d="M1.24681 64.0643C1.24681 64.0643 1.272 64.0536 1.28639 64.0501C1.06333 63.3181 1.18205 62.5542 1.93756 61.9893C2.76142 61.3782 3.80114 61.4243 4.70055 61.8258C5.09271 61.9999 5.49204 62.2593 5.88059 62.469C6.03169 62.238 6.21877 62.0355 6.44542 61.8933C7.05342 61.5096 7.77655 61.4634 8.47089 61.57C9.56818 61.7406 10.5359 62.3197 11.4713 62.8776C13.3529 64.0074 15.2668 65.0805 17.1628 66.1855C17.0729 65.8622 16.9937 65.5353 16.9434 65.2013C16.7958 64.2562 16.7994 63.1902 17.4866 62.437C18.1953 61.6588 19.4653 61.2645 20.4331 61.7974C21.3217 62.2877 21.8901 63.2222 22.1276 64.1744C22.3254 64.9632 22.6025 65.7627 22.937 66.4768C23.063 66.7433 23.2033 67.0027 23.3652 67.2479C23.4083 67.3154 23.4551 67.3793 23.5019 67.4433C23.5127 67.4575 23.5163 67.4646 23.5235 67.4753L23.5307 67.4824C23.6314 67.6067 23.7393 67.7275 23.8508 67.8483C25.0021 69.0741 26.4088 70.0051 27.373 71.405C28.6465 73.2632 29.0063 75.5017 28.6717 77.6868C29.1682 79.6588 29.6683 81.6272 30.1647 83.5992C30.2475 83.9296 30.1504 84.1996 29.9705 84.3915C29.5423 84.8463 28.6285 84.8534 28.4307 84.0717C28.1357 82.8992 27.8371 81.7267 27.5421 80.5577C27.3658 79.8578 27.1895 79.1614 27.0132 78.4614C26.9736 78.3086 26.9304 78.1558 26.8981 78.0031C26.8477 77.765 26.8837 77.5731 26.9233 77.3386C26.9844 76.9478 27.0168 76.5498 27.0168 76.1519C27.0168 74.9616 26.7182 73.7926 26.1138 72.7587C25.5094 71.7247 24.6351 70.9999 23.7465 70.2218C23.0594 69.6213 22.3758 68.9604 21.8613 68.2072C21.2461 67.3012 20.8252 66.1713 20.5194 65.1267C20.3683 64.6115 20.3216 64.1318 19.9762 63.7161C19.8071 63.5136 19.6092 63.2826 19.3358 63.3288C19.1379 63.3643 18.8897 63.5562 18.7997 63.6628C18.8069 63.6628 18.7638 63.741 18.7566 63.741C18.7458 63.7729 18.7242 63.8369 18.7206 63.8511C18.681 63.9968 18.6738 64.0323 18.6702 64.21C18.663 64.5226 18.699 64.8282 18.7638 65.1338C18.94 65.9723 19.2458 66.7824 19.5948 67.5641C19.5984 67.5747 19.602 67.5854 19.6056 67.5961C20.2784 67.9976 20.9439 68.4168 21.5627 68.8858C21.9477 69.1772 22.1528 69.6497 21.8865 70.101C21.6635 70.4741 21.0447 70.7121 20.6561 70.4208C19.7279 69.7173 18.6882 69.1452 17.6881 68.5483C16.6088 67.9087 15.5223 67.2763 14.4358 66.6509C13.4608 66.086 12.4858 65.5282 11.5145 64.9597C10.8345 64.5617 10.169 64.1211 9.46386 63.7658C8.96378 63.5136 8.39536 63.2719 7.82333 63.2826C7.7118 63.2826 7.66143 63.2897 7.57509 63.3146C9.72649 64.4942 11.8814 65.6667 14.0328 66.8464C15.0438 67.4042 14.1372 68.9391 13.1262 68.3813C10.7158 67.056 8.29822 65.7485 5.89138 64.4232C5.8626 64.4089 5.84461 64.3912 5.81943 64.3734C5.37331 64.2135 4.9524 63.9613 4.54227 63.7339C4.13213 63.5065 3.75797 63.2187 3.29028 63.2968C3.18955 63.3146 3.11039 63.3501 3.02405 63.3963C2.99527 63.4105 2.97728 63.4247 2.96289 63.4389C2.96289 63.5278 3.02405 63.6273 3.1068 63.7658C3.21472 63.9435 3.33345 64.0927 3.50254 64.2562C5.72229 65.3398 7.88809 66.555 10.079 67.7026C10.41 67.8768 10.741 68.0509 11.072 68.2214C12.0937 68.7579 11.1871 70.2893 10.1654 69.7563C7.87728 68.5589 5.58917 67.3616 3.30106 66.1642C3.10679 66.0611 2.91252 65.9581 2.71825 65.855C2.6499 65.8302 2.58154 65.7946 2.51678 65.752C2.4844 65.7378 2.45201 65.72 2.42323 65.7023C2.41244 65.6952 2.40525 65.6881 2.39446 65.6809C2.38367 65.6738 2.37288 65.6667 2.36209 65.6632C2.32611 65.6525 2.29012 65.6419 2.25414 65.6312H2.29013C2.29733 65.6348 2.3225 65.6454 2.34769 65.6561C2.3225 65.6419 2.30093 65.6312 2.29373 65.6312H2.30452C2.30452 65.6312 2.29733 65.6312 2.29013 65.6312C2.29013 65.6312 2.26495 65.6312 2.24336 65.6312C2.23976 65.6312 2.23616 65.6312 2.23256 65.6312C2.20738 65.6241 2.19299 65.6205 2.18221 65.6205C2.20738 65.6205 2.22537 65.617 2.22177 65.6134C2.21098 65.6063 2.19299 65.6134 2.1678 65.617C2.15701 65.617 2.15701 65.617 2.1642 65.617H2.17142C2.17142 65.617 2.20019 65.6276 2.22177 65.6312C2.20019 65.6312 2.17861 65.6277 2.17142 65.6277C2.16062 65.6277 2.14981 65.6277 2.13902 65.6277C2.12463 65.6348 2.10664 65.6419 2.09585 65.6454C2.08865 65.649 2.08146 65.6525 2.07426 65.6561C2.05628 65.6667 2.04189 65.6774 2.0239 65.6845C1.98433 65.7236 1.91596 65.7875 1.90518 65.8017C1.89438 65.8124 1.8728 65.8408 1.85481 65.8586V65.8657H1.8584C1.8584 65.8657 1.85121 65.8728 1.85121 65.8764C1.84402 65.9012 1.84042 65.9226 1.82963 65.9439V65.9865C1.84042 66.0149 1.85122 66.0434 1.85481 66.054C1.91238 66.1393 1.95195 66.2423 2.00951 66.324L2.0203 66.3418C2.04908 66.3738 2.07787 66.4129 2.10664 66.4449C2.18579 66.5337 2.27215 66.619 2.36209 66.7007C2.44124 66.7753 2.52397 66.8464 2.61032 66.9139C2.61752 66.9174 2.62471 66.9245 2.63551 66.9352C2.66428 66.9565 2.70026 66.9849 2.71825 66.9956C2.9413 67.1519 3.17156 67.294 3.38022 67.4717C3.46297 67.5428 3.53492 67.628 3.59608 67.7169C3.91267 67.5925 4.25805 67.5214 4.61421 67.525C6.41664 67.557 7.86649 68.9747 9.31995 69.8558C10.4208 70.5238 11.5756 71.0959 12.6981 71.7283C14.7092 71.3694 16.8714 71.6501 18.8285 72.1049C20.9332 72.5917 23.3112 73.3876 24.8258 74.99C25.6137 75.825 24.3473 77.0828 23.5522 76.2478C23.1997 75.8748 22.973 75.7007 22.5737 75.4484C22.1815 75.1997 21.7642 74.9829 21.3397 74.7911C20.3899 74.3576 19.3682 74.0556 18.3464 73.8175C17.3139 73.5795 16.267 73.4196 15.2093 73.3698C14.7344 73.3485 14.2559 73.345 13.781 73.3769C13.3097 73.4054 13.0759 73.4373 12.5758 73.5617C12.1297 73.6718 11.7843 73.4658 11.6044 73.1602C10.3524 72.4638 9.07531 71.8207 7.86649 71.0532C7.02824 70.5167 6.21517 69.7883 5.26899 69.4472C4.95959 69.3371 4.71495 69.2731 4.40556 69.3087C4.39836 69.3158 4.28683 69.3442 4.24365 69.3548C4.22207 69.3619 4.19688 69.3726 4.18968 69.3762C4.1573 69.3939 4.05657 69.465 4.03858 69.4756C4.02059 69.4934 3.99902 69.5076 3.98103 69.5254C4.05658 69.8629 4.72214 70.2396 4.99556 70.4527C5.43807 70.7938 5.88419 71.1349 6.3267 71.476C6.72964 71.7852 7.22252 72.1582 7.719 72.5384C8.29462 72.9754 8.87023 73.4125 9.44586 73.8459C11.6116 75.4839 13.7846 77.1183 15.9576 78.7492C16.5584 79.2004 17.1592 79.6517 17.76 80.1029C17.8967 80.206 18.0694 80.309 18.1881 80.4263C18.4328 80.6679 18.4544 80.9983 18.5155 81.3145C18.8969 83.3043 19.2818 85.294 19.6632 87.2837C19.7531 87.7563 19.5301 88.2431 19.0336 88.3781C18.8537 88.4278 18.6522 88.4065 18.4652 88.339C18.2025 88.2395 17.9795 88.037 17.9255 87.7563C17.5262 85.6884 17.1304 83.6205 16.7311 81.5526C14.3782 79.7903 12.0289 78.0244 9.67972 76.2514C7.94205 74.9367 6.20438 73.6221 4.47392 72.2968C3.76877 71.7567 2.84776 71.2202 2.43044 70.4208C2.16421 69.9127 2.14623 69.4223 2.29013 68.996C2.23617 68.9391 2.18579 68.8787 2.14262 68.8112C2.13542 68.797 2.12463 68.7828 2.11385 68.7686C2.11025 68.7615 2.10666 68.7544 2.10306 68.7473C2.05629 68.7153 2.00951 68.6833 1.96275 68.6549C1.8692 68.5945 1.77926 68.5305 1.69292 68.4666C1.43388 68.2747 1.17845 68.0757 0.951799 67.8483C0.451722 67.3473 0.0667809 66.7398 0.0128182 66.0256C-0.0447456 65.2297 0.541658 64.4089 1.2504 64.0714L1.24681 64.0643ZM2.9305 63.4638L2.91972 63.4816C2.91972 63.4816 2.91972 63.4745 2.9305 63.4638ZM1.80805 65.887C1.81524 65.8622 1.81883 65.8444 1.80805 65.8479C1.80805 65.8479 1.80444 65.8728 1.80444 65.8906V65.8835L1.80805 65.887Z" fill="#3F4F5F"/>
</g>
</g>
</g>
<defs>
<clipPath id="clip0_1_483">
<rect width="120" height="120" fill="white"/>
</clipPath>
<clipPath id="clip1_1_483">
<rect width="120" height="120" fill="white"/>
</clipPath>
</defs>
</svg>
