<svg width="740" height="248" viewBox="0 0 740 248" fill="none" xmlns="http://www.w3.org/2000/svg">
<g clip-path="url(#clip0_1_456)">
<g clip-path="url(#clip1_1_456)">
<mask id="mask0_1_456" style="mask-type:luminance" maskUnits="userSpaceOnUse" x="12" y="-19" width="390" height="277">
<path d="M369.387 28.0949C367.324 13.3953 388.149 10.0247 388.149 0.942801C388.149 -4.6749 383.434 -7.8583 375.772 -7.8583C369.682 -7.8583 364.868 -5.3303 360.055 -0.461599L352 -7.5774C358.189 -14.5059 366.833 -19 377.344 -19C391.587 -19 402 -12.7269 402 -0.274401C402 13.4889 380.585 15.0806 382.059 28.0949H369.387ZM375.772 53C370.762 53 367.128 49.6294 367.128 44.7607C367.128 39.7984 370.861 36.4278 375.772 36.4278C380.782 36.4278 384.416 39.7984 384.416 44.7607C384.416 49.6294 380.782 53 375.772 53Z" fill="#F7F9FC"/>
<path d="M41.558 215.108C38.0511 189.792 73.4538 183.987 73.4538 168.346C73.4538 158.671 65.4381 153.189 52.4126 153.189C42.0589 153.189 33.8762 157.542 25.6935 165.927L12 153.672C22.5206 141.74 37.2161 134 55.0845 134C79.2986 134 97 144.804 97 166.25C97 189.953 60.5953 192.694 63.1002 215.108H41.558ZM52.4126 258C43.8959 258 37.7171 252.195 37.7171 243.81C37.7171 235.264 44.0629 229.459 52.4126 229.459C60.9293 229.459 67.108 235.264 67.108 243.81C67.108 252.195 60.9293 258 52.4126 258Z" fill="#F7F9FC"/>
</mask>
<g mask="url(#mask0_1_456)">
<path d="M734 0H10C5.58172 0 2 3.58172 2 8V240C2 244.418 5.58172 248 10 248H734C738.418 248 742 244.418 742 240V8C742 3.58172 738.418 0 734 0Z" fill="#F7F9FC"/>
</g>
</g>
</g>
<defs>
<clipPath id="clip0_1_456">
<rect width="740" height="248" fill="white"/>
</clipPath>
<clipPath id="clip1_1_456">
<rect width="390" height="277" fill="white" transform="translate(12 -19)"/>
</clipPath>
</defs>
</svg>
