<svg width="15" height="16" viewBox="0 0 15 16" fill="none" xmlns="http://www.w3.org/2000/svg">
<g clip-path="url(#clip0_9_5483)">
<mask id="mask0_9_5483" style="mask-type:luminance" maskUnits="userSpaceOnUse" x="0" y="0" width="15" height="16">
<path d="M0.294434 0.654526H14.9654V15.3255H0.294434V0.654526Z" fill="white"/>
</mask>
<g mask="url(#mask0_9_5483)">
<path fill-rule="evenodd" clip-rule="evenodd" d="M11.1673 15.0634C11.6698 15.0691 12.1684 14.975 12.6342 14.7867C13.1001 14.5984 13.524 14.3195 13.8813 13.9662C14.2386 13.6129 14.5223 13.1922 14.7159 12.7285C14.9095 12.2648 15.0092 11.7673 15.0092 11.2648C15.0092 10.7623 14.9095 10.2648 14.7159 9.80113C14.5223 9.33744 14.2386 8.91676 13.8813 8.56347C13.524 8.21017 13.1001 7.93128 12.6342 7.74294C12.1684 7.5546 11.6698 7.46056 11.1673 7.46626C10.1673 7.47761 9.21218 7.88281 8.50907 8.59394C7.80596 9.30508 7.41162 10.2648 7.41162 11.2648C7.41162 12.2649 7.80596 13.2246 8.50907 13.9357C9.21218 14.6468 10.1673 15.052 11.1673 15.0634ZM13.4902 10.6596C13.5488 10.6045 13.5958 10.5381 13.6284 10.4646C13.661 10.391 13.6786 10.3117 13.6801 10.2312C13.6817 10.1507 13.6671 10.0708 13.6373 9.99601C13.6076 9.92125 13.5632 9.85318 13.5067 9.79581C13.4503 9.73843 13.383 9.6929 13.3087 9.66189C13.2345 9.63088 13.1548 9.61501 13.0743 9.61521C12.9938 9.61541 12.9142 9.63168 12.8401 9.66306C12.766 9.69445 12.6989 9.74031 12.6427 9.79797L10.6294 11.7785L9.71147 10.7858C9.60154 10.6729 9.45189 10.6075 9.29439 10.6033C9.13689 10.5992 8.98399 10.6567 8.86827 10.7636C8.75255 10.8705 8.68316 11.0184 8.67486 11.1757C8.66657 11.3331 8.72004 11.4874 8.82388 11.6059L10.1648 13.0564C10.2198 13.1158 10.2861 13.1636 10.3599 13.1969C10.4336 13.2302 10.5133 13.2483 10.5942 13.2502C10.6751 13.2521 10.7556 13.2378 10.8309 13.208C10.9061 13.1783 10.9746 13.1337 11.0324 13.0769L13.4902 10.6596Z" fill="white"/>
<path fill-rule="evenodd" clip-rule="evenodd" d="M8.21822 10.0914C7.61593 9.84341 6.97114 9.71501 6.3198 9.71336C3.91572 9.71336 1.68035 11.5125 1.60651 13.7537H10.1435C10.55 13.9271 10.9874 14.0161 11.4292 14.0154C11.7432 14.0154 12.0469 13.9714 12.3339 13.8887V13.8931C12.3326 14.2035 12.2086 14.5008 11.9889 14.72C11.7692 14.9393 11.4716 15.0627 11.1612 15.0634H1.46811C1.15754 15.063 0.859755 14.9397 0.63983 14.7204C0.419904 14.5011 0.295726 14.2037 0.294434 13.8931C0.294434 11.5203 1.80359 9.49867 3.91572 8.73236C4.50256 8.51963 5.65961 8.40324 6.3198 8.40324C6.97999 8.40324 8.13607 8.51914 8.72241 8.73187L8.81533 8.7661C8.51923 9.15732 8.31529 9.61034 8.21871 10.0914H8.21822ZM6.3198 7.7944C5.69703 7.79596 5.08464 7.63498 4.54315 7.32737C3.99511 7.01592 3.5396 6.56455 3.22315 6.01938C2.90671 5.47422 2.74068 4.85481 2.74204 4.22446C2.74204 2.25855 4.34949 0.654526 6.3198 0.654526C8.2906 0.654526 9.89756 2.25855 9.89756 4.22446C9.89754 4.85475 9.73061 5.4738 9.41374 6.01864C9.09686 6.56349 8.64135 7.0147 8.09352 7.32639C7.55318 7.63434 6.94173 7.79567 6.3198 7.7944ZM8.58793 4.22446C8.58755 4.52184 8.52856 4.81623 8.41434 5.0908C8.30013 5.36537 8.13292 5.61473 7.92228 5.82465C7.71164 6.03456 7.46169 6.20091 7.18673 6.31418C6.91177 6.42744 6.61718 6.48541 6.3198 6.48477C6.02219 6.48632 5.72722 6.42896 5.45188 6.31601C5.17653 6.20306 4.92626 6.03674 4.71548 5.82664C4.5047 5.61654 4.33757 5.36681 4.22373 5.09183C4.10988 4.81686 4.05157 4.52207 4.05216 4.22446C4.05216 2.98428 5.06983 1.96464 6.3198 1.96464C7.56977 1.96464 8.58793 2.98428 8.58793 4.22446Z" fill="white"/>
</g>
</g>
<defs>
<clipPath id="clip0_9_5483">
<rect width="14.671" height="15.16" fill="white" transform="translate(0.294434 0.410004)"/>
</clipPath>
</defs>
</svg>
