<svg width="16" height="14" viewBox="0 0 16 14" fill="none" xmlns="http://www.w3.org/2000/svg">
<g clip-path="url(#clip0_9_5477)">
<path d="M7.73301 12.9042H2.53704C1.79743 12.9042 1.20459 12.2998 1.20459 11.5612L1.2113 3.2346C1.2113 2.49595 1.79743 1.8916 2.53704 1.8916H3.20326V1.2201C3.20326 0.850774 3.50304 0.548599 3.86949 0.548599C4.23593 0.548599 4.53571 0.850774 4.53571 1.2201V1.8916H10.3979V1.2201C10.3979 0.850774 10.6977 0.548599 11.0641 0.548599C11.4306 0.548599 11.7304 0.850774 11.7304 1.2201V1.8916H12.3966C13.129 1.8916 13.7285 2.49595 13.7285 3.2346V6.1892H12.3966V5.3834H2.53656V11.5612H7.73253V12.9042H7.73301ZM14.4816 9.53998L14.9545 9.06322C15.0793 8.93728 15.1494 8.76714 15.1494 8.58981C15.1494 8.41249 15.0793 8.24234 14.9545 8.1164L14.4816 7.63964C14.4202 7.57735 14.3471 7.52789 14.2664 7.49413C14.1858 7.46037 14.0992 7.44298 14.0118 7.44298C13.9243 7.44298 13.8378 7.46037 13.7571 7.49413C13.6765 7.52789 13.6033 7.57735 13.542 7.63964L13.069 8.1164L14.4816 9.53998ZM14.0087 10.0167L10.6708 13.381C10.5509 13.5018 10.3782 13.5757 10.2046 13.5757H9.39881C9.35474 13.576 9.31105 13.5675 9.2703 13.5508C9.22955 13.534 9.19257 13.5092 9.16152 13.4779C9.13047 13.4467 9.10598 13.4095 9.08948 13.3686C9.07298 13.3278 9.06482 13.284 9.06546 13.24V12.4274C9.06546 12.2461 9.13884 12.0783 9.25875 11.9507L12.5961 8.58646L14.0087 10.0167Z" fill="white"/>
</g>
<defs>
<clipPath id="clip0_9_5477">
<rect width="14.3893" height="13.43" fill="white" transform="translate(0.805176 0.279999)"/>
</clipPath>
</defs>
</svg>
