<svg width="21" height="21" viewBox="0 0 21 21" fill="none" xmlns="http://www.w3.org/2000/svg">
<path d="M5.50016 18.8332C5.04183 18.8332 4.64947 18.67 4.32308 18.3436C3.99669 18.0172 3.8335 17.6248 3.8335 17.1665V7.1665C3.8335 6.70817 3.99669 6.31581 4.32308 5.98942C4.64947 5.66303 5.04183 5.49984 5.50016 5.49984H7.16683C7.16683 4.58317 7.49322 3.79845 8.146 3.14567C8.79877 2.49289 9.5835 2.1665 10.5002 2.1665C11.4168 2.1665 12.2016 2.49289 12.8543 3.14567C13.5071 3.79845 13.8335 4.58317 13.8335 5.49984H15.5002C15.9585 5.49984 16.3509 5.66303 16.6772 5.98942C17.0036 6.31581 17.1668 6.70817 17.1668 7.1665V17.1665C17.1668 17.6248 17.0036 18.0172 16.6772 18.3436C16.3509 18.67 15.9585 18.8332 15.5002 18.8332H5.50016ZM5.50016 17.1665H15.5002V7.1665H13.8335V8.83317C13.8335 9.06928 13.7536 9.2672 13.5939 9.42692C13.4342 9.58664 13.2363 9.6665 13.0002 9.6665C12.7641 9.6665 12.5661 9.58664 12.4064 9.42692C12.2467 9.2672 12.1668 9.06928 12.1668 8.83317V7.1665H8.8335V8.83317C8.8335 9.06928 8.75363 9.2672 8.59391 9.42692C8.43419 9.58664 8.23627 9.6665 8.00016 9.6665C7.76405 9.6665 7.56613 9.58664 7.40641 9.42692C7.24669 9.2672 7.16683 9.06928 7.16683 8.83317V7.1665H5.50016V17.1665ZM8.8335 5.49984H12.1668C12.1668 5.0415 12.0036 4.64914 11.6772 4.32275C11.3509 3.99636 10.9585 3.83317 10.5002 3.83317C10.0418 3.83317 9.64947 3.99636 9.32308 4.32275C8.99669 4.64914 8.8335 5.0415 8.8335 5.49984Z" fill="#13C4CE"/>
</svg>
